<svg width="820" height="573" viewBox="0 0 820 573" fill="none" xmlns="http://www.w3.org/2000/svg">
<g clip-path="url(#clip0_21178_37536)">
<rect x="382.754" y="341.16" width="4.59733" height="231.705" fill="#181818"/>
<path d="M357.73 545.907C357.974 545.907 358.208 545.81 358.38 545.637C358.553 545.465 358.65 545.231 358.65 544.987C358.65 544.743 358.553 544.509 358.38 544.337C358.208 544.164 357.974 544.068 357.73 544.068H348.995V540.39H357.73C357.974 540.39 358.208 540.293 358.38 540.12C358.553 539.948 358.65 539.714 358.65 539.47C358.65 539.226 358.553 538.993 358.38 538.82C358.208 538.648 357.974 538.551 357.73 538.551H283.253C283.01 538.551 282.776 538.648 282.603 538.82C282.431 538.993 282.334 539.226 282.334 539.47C282.334 539.714 282.431 539.948 282.603 540.12C282.776 540.293 283.01 540.39 283.253 540.39H291.988V544.068H283.253C283.01 544.068 282.776 544.164 282.603 544.337C282.431 544.509 282.334 544.743 282.334 544.987C282.334 545.231 282.431 545.465 282.603 545.637C282.776 545.81 283.01 545.907 283.253 545.907H291.988V549.584H283.253C283.01 549.584 282.776 549.681 282.603 549.854C282.431 550.026 282.334 550.26 282.334 550.504C282.334 550.748 282.431 550.982 282.603 551.154C282.776 551.326 283.01 551.423 283.253 551.423H291.988V555.101H284.173C283.685 555.101 283.217 555.295 282.873 555.64C282.528 555.985 282.334 556.452 282.334 556.94C282.334 557.428 282.528 557.896 282.873 558.24C283.217 558.585 283.685 558.779 284.173 558.779H291.613C291.559 558.926 291.53 559.082 291.529 559.239V572.111C291.529 572.477 291.674 572.828 291.933 573.087C292.191 573.345 292.542 573.49 292.908 573.49C293.274 573.49 293.624 573.345 293.883 573.087C294.142 572.828 294.287 572.477 294.287 572.111V559.239C294.285 559.082 294.257 558.926 294.203 558.779H346.781C346.727 558.926 346.698 559.082 346.697 559.239V572.111C346.697 572.477 346.842 572.828 347.101 573.087C347.359 573.345 347.71 573.49 348.076 573.49C348.442 573.49 348.792 573.345 349.051 573.087C349.31 572.828 349.455 572.477 349.455 572.111V559.239C349.453 559.082 349.425 558.926 349.371 558.779H356.811C357.298 558.779 357.766 558.585 358.111 558.24C358.456 557.896 358.65 557.428 358.65 556.94C358.65 556.452 358.456 555.985 358.111 555.64C357.766 555.295 357.298 555.101 356.811 555.101H348.995V551.423H357.73C357.974 551.423 358.208 551.326 358.38 551.154C358.553 550.982 358.65 550.748 358.65 550.504C358.65 550.26 358.553 550.026 358.38 549.854C358.208 549.681 357.974 549.584 357.73 549.584H348.995V545.907H357.73ZM293.827 540.39H347.156V544.068H293.827V540.39ZM347.156 555.101H293.827V551.423H347.156V555.101ZM347.156 549.584H293.827V545.907H347.156V549.584Z" fill="#181818"/>
<path d="M77.3028 507.316C77.3028 491.077 64.1297 452.543 47.8799 452.543C31.6301 452.543 18.457 491.077 18.457 507.316C18.457 515.119 21.5569 522.603 27.0748 528.121C32.5927 533.639 40.0765 536.739 47.88 536.739C55.6834 536.739 63.1672 533.639 68.6851 528.121C74.203 522.603 77.3029 515.119 77.3029 507.316H77.3028Z" fill="#E6E6E6"/>
<path d="M69.9474 507.316C69.9474 491.077 56.7743 452.543 40.5245 452.543C24.2747 452.543 11.1016 491.077 11.1016 507.316C11.1016 515.119 14.2015 522.603 19.7193 528.121C25.2372 533.639 32.721 536.739 40.5245 536.739C48.3279 536.739 55.8118 533.639 61.3296 528.121C66.8475 522.603 69.9474 515.119 69.9474 507.316H69.9474Z" fill="#F2F2F2"/>
<path d="M41.4449 573.101C41.201 573.101 40.9671 573.005 40.7947 572.832C40.6223 572.66 40.5254 572.426 40.5254 572.182V490.22C40.5254 489.976 40.6223 489.743 40.7947 489.57C40.9671 489.398 41.201 489.301 41.4449 489.301C41.6887 489.301 41.9226 489.398 42.095 489.57C42.2675 489.743 42.3643 489.976 42.3643 490.22V572.182C42.3643 572.426 42.2675 572.66 42.095 572.832C41.9226 573.005 41.6887 573.101 41.4449 573.101Z" fill="#CCCCCC"/>
<path d="M41.4447 503.657C41.2628 503.657 41.0851 503.603 40.9339 503.502C40.7828 503.401 40.665 503.257 40.5954 503.089C40.5258 502.921 40.5076 502.736 40.543 502.558C40.5785 502.38 40.6661 502.216 40.7946 502.087L52.819 490.062C52.9915 489.89 53.2253 489.793 53.4691 489.793C53.713 489.793 53.9468 489.89 54.1192 490.062C54.2916 490.235 54.3885 490.469 54.3885 490.712C54.3885 490.956 54.2916 491.19 54.1192 491.362L42.0948 503.387C42.0095 503.473 41.9082 503.541 41.7966 503.587C41.685 503.633 41.5654 503.657 41.4447 503.657V503.657Z" fill="#CCCCCC"/>
<path d="M138.91 255.475H124.198C123.101 255.474 122.049 255.038 121.274 254.262C120.498 253.486 120.062 252.434 120.061 251.338V217.317C120.062 216.22 120.498 215.169 121.274 214.393C122.049 213.617 123.101 213.181 124.198 213.18H138.91C140.007 213.181 141.058 213.617 141.834 214.393C142.61 215.169 143.046 216.22 143.047 217.317V251.338C143.046 252.434 142.61 253.486 141.834 254.262C141.058 255.038 140.007 255.474 138.91 255.475V255.475Z" fill="#E6E6E6"/>
<path d="M196.835 572.691H121.439C119.366 572.688 117.38 571.864 115.915 570.399C114.45 568.934 113.625 566.947 113.623 564.875V260.532C113.625 258.46 114.45 256.474 115.915 255.008C117.38 253.543 119.366 252.719 121.439 252.717H196.835C198.907 252.719 200.893 253.543 202.358 255.008C203.824 256.474 204.648 258.46 204.65 260.532V564.875C204.648 566.947 203.824 568.934 202.358 570.399C200.893 571.864 198.907 572.688 196.835 572.691V572.691Z" fill="#E6E6E6"/>
<path d="M151.78 572.691H76.3838C74.3117 572.688 72.3252 571.864 70.86 570.399C69.3949 568.934 68.5707 566.947 68.5684 564.875V260.532C68.5707 258.46 69.3949 256.474 70.86 255.008C72.3252 253.543 74.3117 252.719 76.3838 252.717H151.78C153.852 252.719 155.839 253.543 157.304 255.008C158.769 256.474 159.593 258.46 159.595 260.532V564.875C159.593 566.947 158.769 568.934 157.304 570.399C155.839 571.864 153.852 572.688 151.78 572.691V572.691Z" fill="#F2F2F2"/>
<path d="M125.117 255.475H110.405C109.308 255.474 108.256 255.038 107.481 254.262C106.705 253.486 106.269 252.434 106.268 251.338V217.317C106.269 216.22 106.705 215.169 107.481 214.393C108.256 213.617 109.308 213.181 110.405 213.18H125.117C126.214 213.181 127.265 213.617 128.041 214.393C128.817 215.169 129.253 216.22 129.254 217.317V251.338C129.253 252.434 128.817 253.486 128.041 254.262C127.265 255.038 126.214 255.474 125.117 255.475V255.475Z" fill="#F2F2F2"/>
<path d="M105.808 321.676H88.3377C87.7283 321.675 87.144 321.433 86.7131 321.002C86.2822 320.571 86.0398 319.987 86.0391 319.377V292.713C86.0398 292.103 86.2822 291.519 86.7131 291.088C87.144 290.657 87.7283 290.415 88.3377 290.414H105.808C106.417 290.415 107.001 290.657 107.432 291.088C107.863 291.519 108.106 292.103 108.106 292.713V319.377C108.106 319.987 107.863 320.571 107.432 321.002C107.001 321.433 106.417 321.675 105.808 321.676V321.676Z" fill="white"/>
<path d="M139.829 321.676H122.359C121.75 321.675 121.166 321.433 120.735 321.002C120.304 320.571 120.061 319.987 120.061 319.377V292.713C120.061 292.103 120.304 291.519 120.735 291.088C121.166 290.657 121.75 290.415 122.359 290.414H139.829C140.438 290.415 141.023 290.657 141.454 291.088C141.885 291.519 142.127 292.103 142.128 292.713V319.377C142.127 319.987 141.885 320.571 141.454 321.002C141.023 321.433 140.438 321.675 139.829 321.676V321.676Z" fill="white"/>
<path d="M105.808 370.406H88.3377C87.7283 370.406 87.144 370.163 86.7131 369.732C86.2822 369.301 86.0398 368.717 86.0391 368.108V341.443C86.0398 340.834 86.2822 340.249 86.7131 339.819C87.144 339.388 87.7283 339.145 88.3377 339.145H105.808C106.417 339.145 107.001 339.388 107.432 339.819C107.863 340.249 108.106 340.834 108.106 341.443V368.108C108.106 368.717 107.863 369.301 107.432 369.732C107.001 370.163 106.417 370.406 105.808 370.406V370.406Z" fill="white"/>
<path d="M139.829 370.406H122.359C121.75 370.406 121.166 370.163 120.735 369.732C120.304 369.301 120.061 368.717 120.061 368.108V341.443C120.061 340.834 120.304 340.249 120.735 339.819C121.166 339.388 121.75 339.145 122.359 339.145H139.829C140.438 339.145 141.023 339.388 141.454 339.819C141.885 340.249 142.127 340.834 142.128 341.443V368.108C142.127 368.717 141.885 369.301 141.454 369.732C141.023 370.163 140.438 370.406 139.829 370.406V370.406Z" fill="white"/>
<path d="M105.808 419.139H88.3377C87.7283 419.138 87.144 418.896 86.7131 418.465C86.2822 418.034 86.0398 417.45 86.0391 416.84V390.176C86.0398 389.566 86.2822 388.982 86.7131 388.551C87.144 388.12 87.7283 387.878 88.3377 387.877H105.808C106.417 387.878 107.001 388.12 107.432 388.551C107.863 388.982 108.106 389.566 108.106 390.176V416.84C108.106 417.45 107.863 418.034 107.432 418.465C107.001 418.896 106.417 419.138 105.808 419.139V419.139Z" fill="white"/>
<path d="M139.829 419.139H122.359C121.75 419.138 121.166 418.896 120.735 418.465C120.304 418.034 120.061 417.45 120.061 416.84V390.176C120.061 389.566 120.304 388.982 120.735 388.551C121.166 388.12 121.75 387.878 122.359 387.877H139.829C140.438 387.878 141.023 388.12 141.454 388.551C141.885 388.982 142.127 389.566 142.128 390.176V416.84C142.127 417.45 141.885 418.034 141.454 418.465C141.023 418.896 140.438 419.138 139.829 419.139V419.139Z" fill="white"/>
<path d="M105.808 467.871H88.3377C87.7283 467.871 87.144 467.628 86.7131 467.197C86.2822 466.766 86.0398 466.182 86.0391 465.573V438.908C86.0398 438.299 86.2822 437.714 86.7131 437.283C87.144 436.852 87.7283 436.61 88.3377 436.609H105.808C106.417 436.61 107.001 436.852 107.432 437.283C107.863 437.714 108.106 438.299 108.106 438.908V465.573C108.106 466.182 107.863 466.766 107.432 467.197C107.001 467.628 106.417 467.871 105.808 467.871V467.871Z" fill="white"/>
<path d="M139.829 467.871H122.359C121.75 467.871 121.166 467.628 120.735 467.197C120.304 466.766 120.061 466.182 120.061 465.573V438.908C120.061 438.299 120.304 437.714 120.735 437.283C121.166 436.852 121.75 436.61 122.359 436.609H139.829C140.438 436.61 141.023 436.852 141.454 437.283C141.885 437.714 142.127 438.299 142.128 438.908V465.573C142.127 466.182 141.885 466.766 141.454 467.197C141.023 467.628 140.438 467.871 139.829 467.871V467.871Z" fill="white"/>
<path d="M105.808 516.602H88.3377C87.7283 516.601 87.144 516.359 86.7131 515.928C86.2822 515.497 86.0398 514.912 86.0391 514.303V487.639C86.0398 487.029 86.2822 486.445 86.7131 486.014C87.144 485.583 87.7283 485.341 88.3377 485.34H105.808C106.417 485.341 107.001 485.583 107.432 486.014C107.863 486.445 108.106 487.029 108.106 487.639V514.303C108.106 514.912 107.863 515.497 107.432 515.928C107.001 516.359 106.417 516.601 105.808 516.602V516.602Z" fill="white"/>
<path d="M139.829 516.602H122.359C121.75 516.601 121.166 516.359 120.735 515.928C120.304 515.497 120.061 514.912 120.061 514.303V487.639C120.061 487.029 120.304 486.445 120.735 486.014C121.166 485.583 121.75 485.341 122.359 485.34H139.829C140.438 485.341 141.023 485.583 141.454 486.014C141.885 486.445 142.127 487.029 142.128 487.639V514.303C142.127 514.912 141.885 515.497 141.454 515.928C141.023 516.359 140.438 516.601 139.829 516.602V516.602Z" fill="white"/>
<path d="M518.646 416.381H503.934C502.837 416.38 501.786 415.943 501.01 415.168C500.234 414.392 499.798 413.34 499.797 412.243V392.934C499.798 391.837 500.234 390.786 501.01 390.01C501.786 389.234 502.837 388.798 503.934 388.797H518.646C519.743 388.798 520.795 389.234 521.57 390.01C522.346 390.786 522.782 391.837 522.784 392.934V412.243C522.782 413.34 522.346 414.392 521.57 415.168C520.795 415.943 519.743 416.38 518.646 416.381Z" fill="#E6E6E6"/>
<path d="M642.774 573.609H567.378C565.306 573.607 563.319 572.783 561.854 571.317C560.389 569.852 559.565 567.866 559.562 565.794V419.599C559.565 417.527 560.389 415.54 561.854 414.075C563.319 412.61 565.306 411.786 567.378 411.783H642.774C644.846 411.786 646.833 412.61 648.298 414.075C649.763 415.54 650.587 417.527 650.59 419.599V565.794C650.587 567.866 649.763 569.852 648.298 571.317C646.833 572.783 644.846 573.607 642.774 573.609Z" fill="#E6E6E6"/>
<path d="M597.721 573.609H467.157C465.085 573.607 463.099 572.783 461.633 571.317C460.168 569.852 459.344 567.866 459.342 565.794V419.599C459.344 417.527 460.168 415.54 461.633 414.075C463.099 412.61 465.085 411.786 467.157 411.783H597.721C599.793 411.786 601.78 412.61 603.245 414.075C604.71 415.54 605.535 417.527 605.537 419.599V565.794C605.535 567.866 604.71 569.852 603.245 571.317C601.78 572.783 599.793 573.607 597.721 573.609V573.609Z" fill="#F2F2F2"/>
<path d="M504.857 416.381H490.145C489.048 416.38 487.997 415.943 487.221 415.168C486.445 414.392 486.009 413.34 486.008 412.243V392.934C486.009 391.837 486.445 390.786 487.221 390.01C487.997 389.234 489.048 388.798 490.145 388.797H504.857C505.954 388.798 507.006 389.234 507.781 390.01C508.557 390.786 508.993 391.837 508.994 392.934V412.243C508.993 413.34 508.557 414.392 507.781 415.168C507.006 415.943 505.954 416.38 504.857 416.381V416.381Z" fill="#F2F2F2"/>
<path d="M524.165 483.961H506.695C506.086 483.96 505.501 483.718 505.071 483.287C504.64 482.856 504.397 482.272 504.396 481.662V454.998C504.397 454.388 504.64 453.804 505.071 453.373C505.501 452.942 506.086 452.7 506.695 452.699H524.165C524.774 452.7 525.359 452.942 525.79 453.373C526.221 453.804 526.463 454.388 526.464 454.998V481.662C526.463 482.272 526.221 482.856 525.79 483.287C525.359 483.718 524.774 483.96 524.165 483.961V483.961Z" fill="white"/>
<path d="M558.185 483.961H540.715C540.105 483.96 539.521 483.718 539.09 483.287C538.659 482.856 538.417 482.272 538.416 481.662V454.998C538.417 454.388 538.659 453.804 539.09 453.373C539.521 452.942 540.105 452.7 540.715 452.699H558.185C558.794 452.7 559.378 452.942 559.809 453.373C560.24 453.804 560.482 454.388 560.483 454.998V481.662C560.482 482.272 560.24 482.856 559.809 483.287C559.378 483.718 558.794 483.96 558.185 483.961V483.961Z" fill="white"/>
<path d="M524.165 532.693H506.695C506.086 532.693 505.501 532.45 505.071 532.019C504.64 531.588 504.397 531.004 504.396 530.395V503.73C504.397 503.121 504.64 502.537 505.071 502.106C505.501 501.675 506.086 501.432 506.695 501.432H524.165C524.774 501.432 525.359 501.675 525.79 502.106C526.221 502.537 526.463 503.121 526.464 503.73V530.395C526.463 531.004 526.221 531.588 525.79 532.019C525.359 532.45 524.774 532.693 524.165 532.693V532.693Z" fill="white"/>
<path d="M558.185 532.693H540.715C540.105 532.693 539.521 532.45 539.09 532.019C538.659 531.588 538.417 531.004 538.416 530.395V503.73C538.417 503.121 538.659 502.537 539.09 502.106C539.521 501.675 540.105 501.432 540.715 501.432H558.185C558.794 501.432 559.378 501.675 559.809 502.106C560.24 502.537 560.482 503.121 560.483 503.73V530.395C560.482 531.004 560.24 531.588 559.809 532.019C559.378 532.45 558.794 532.693 558.185 532.693Z" fill="white"/>
<path d="M260.277 507.316C260.277 491.077 247.104 452.543 230.855 452.543C214.605 452.543 201.432 491.077 201.432 507.316C201.432 515.119 204.532 522.603 210.049 528.121C215.567 533.639 223.051 536.739 230.855 536.739C238.658 536.739 246.142 533.639 251.66 528.121C257.178 522.603 260.277 515.119 260.277 507.316H260.277Z" fill="#E6E6E6"/>
<path d="M252.922 507.316C252.922 491.077 239.749 452.543 223.499 452.543C207.249 452.543 194.076 491.077 194.076 507.316C194.076 515.119 197.176 522.603 202.694 528.121C208.212 533.639 215.696 536.739 223.499 536.739C231.303 536.739 238.786 533.639 244.304 528.121C249.822 522.603 252.922 515.119 252.922 507.316H252.922Z" fill="#F2F2F2"/>
<path d="M224.418 573.101C224.174 573.101 223.94 573.005 223.767 572.832C223.595 572.66 223.498 572.426 223.498 572.182V490.22C223.498 489.976 223.595 489.743 223.767 489.57C223.94 489.398 224.174 489.301 224.418 489.301C224.661 489.301 224.895 489.398 225.068 489.57C225.24 489.743 225.337 489.976 225.337 490.22V572.182C225.337 572.426 225.24 572.66 225.068 572.832C224.895 573.005 224.661 573.101 224.418 573.101Z" fill="#CCCCCC"/>
<path d="M224.417 503.657C224.235 503.657 224.058 503.603 223.907 503.502C223.755 503.401 223.638 503.257 223.568 503.089C223.498 502.921 223.48 502.736 223.516 502.558C223.551 502.38 223.639 502.216 223.767 502.087L235.792 490.062C235.964 489.89 236.198 489.793 236.442 489.793C236.686 489.793 236.919 489.89 237.092 490.062C237.264 490.235 237.361 490.469 237.361 490.712C237.361 490.956 237.264 491.19 237.092 491.362L225.067 503.387C224.982 503.473 224.881 503.541 224.769 503.587C224.658 503.633 224.538 503.657 224.417 503.657Z" fill="#CCCCCC"/>
<path d="M730.125 507.316C730.125 491.077 716.952 452.543 700.702 452.543C684.452 452.543 671.279 491.077 671.279 507.316C671.279 515.119 674.379 522.603 679.897 528.121C685.415 533.639 692.899 536.739 700.702 536.739C708.506 536.739 715.99 533.639 721.507 528.121C727.025 522.603 730.125 515.119 730.125 507.316H730.125Z" fill="#E6E6E6"/>
<path d="M722.768 507.316C722.768 491.077 709.595 452.543 693.345 452.543C677.095 452.543 663.922 491.077 663.922 507.316C663.922 515.119 667.022 522.603 672.54 528.121C678.058 533.639 685.541 536.739 693.345 536.739C701.148 536.739 708.632 533.639 714.15 528.121C719.668 522.603 722.768 515.119 722.768 507.316H722.768Z" fill="#F2F2F2"/>
<path d="M694.265 573.101C694.021 573.101 693.787 573.005 693.615 572.832C693.443 572.66 693.346 572.426 693.346 572.182V490.22C693.346 489.976 693.443 489.743 693.615 489.57C693.787 489.398 694.021 489.301 694.265 489.301C694.509 489.301 694.743 489.398 694.915 489.57C695.088 489.743 695.185 489.976 695.185 490.22V572.182C695.185 572.426 695.088 572.66 694.915 572.832C694.743 573.005 694.509 573.101 694.265 573.101Z" fill="#CCCCCC"/>
<path d="M694.265 503.657C694.083 503.657 693.905 503.603 693.754 503.502C693.603 503.401 693.485 503.257 693.416 503.089C693.346 502.921 693.328 502.736 693.363 502.558C693.399 502.38 693.486 502.216 693.615 502.087L705.639 490.062C705.812 489.89 706.046 489.793 706.289 489.793C706.533 489.793 706.767 489.89 706.94 490.062C707.112 490.235 707.209 490.469 707.209 490.712C707.209 490.956 707.112 491.19 706.94 491.362L694.915 503.387C694.83 503.473 694.728 503.541 694.617 503.587C694.505 503.633 694.386 503.657 694.265 503.657V503.657Z" fill="#CCCCCC"/>
<path d="M717.734 571.462C717.738 567.279 719.402 563.267 722.361 560.31C725.321 557.353 729.334 555.691 733.517 555.691C737.701 555.691 741.714 557.353 744.673 560.31C747.633 563.267 749.297 567.279 749.3 571.462" fill="#F2F2F2"/>
<path d="M733.516 571.464C733.403 571.464 733.295 571.419 733.215 571.339C733.135 571.259 733.09 571.151 733.09 571.038V562.72C733.09 562.606 733.135 562.498 733.215 562.418C733.295 562.338 733.403 562.293 733.516 562.293C733.63 562.293 733.738 562.338 733.818 562.418C733.898 562.498 733.943 562.606 733.943 562.72V571.038C733.943 571.151 733.898 571.259 733.818 571.339C733.738 571.419 733.63 571.464 733.516 571.464V571.464Z" fill="#CCCCCC"/>
<path d="M733.517 568.604C733.415 568.605 733.316 568.568 733.239 568.502L728.12 564.108C728.077 564.072 728.042 564.027 728.016 563.977C727.99 563.927 727.975 563.873 727.97 563.816C727.966 563.76 727.972 563.704 727.99 563.65C728.007 563.597 728.035 563.547 728.072 563.504C728.108 563.461 728.153 563.426 728.203 563.401C728.254 563.376 728.309 563.361 728.365 563.357C728.421 563.353 728.477 563.36 728.531 563.378C728.584 563.395 728.634 563.424 728.676 563.461L733.795 567.854C733.861 567.911 733.908 567.987 733.93 568.071C733.952 568.155 733.947 568.244 733.917 568.326C733.887 568.408 733.832 568.478 733.761 568.528C733.689 568.578 733.604 568.605 733.517 568.604L733.517 568.604Z" fill="#CCCCCC"/>
<path d="M766.363 571.462C766.366 567.279 768.031 563.267 770.99 560.31C773.95 557.353 777.962 555.691 782.146 555.691C786.33 555.691 790.343 557.353 793.302 560.31C796.262 563.267 797.926 567.279 797.929 571.462" fill="#F2F2F2"/>
<path d="M782.145 571.464C782.032 571.464 781.924 571.419 781.844 571.339C781.764 571.259 781.719 571.151 781.719 571.038V562.72C781.719 562.606 781.764 562.498 781.844 562.418C781.924 562.338 782.032 562.293 782.145 562.293C782.259 562.293 782.367 562.338 782.447 562.418C782.527 562.498 782.572 562.606 782.572 562.72V571.038C782.572 571.151 782.527 571.259 782.447 571.339C782.367 571.419 782.258 571.464 782.145 571.464V571.464Z" fill="#CCCCCC"/>
<path d="M782.146 568.605C782.044 568.605 781.946 568.568 781.868 568.502L776.75 564.108C776.706 564.072 776.671 564.028 776.645 563.978C776.619 563.927 776.604 563.873 776.599 563.817C776.594 563.76 776.601 563.704 776.619 563.65C776.636 563.597 776.664 563.547 776.701 563.504C776.737 563.461 776.782 563.426 776.833 563.401C776.883 563.376 776.938 563.361 776.994 563.357C777.05 563.353 777.107 563.36 777.16 563.378C777.213 563.396 777.263 563.424 777.305 563.461L782.424 567.854C782.49 567.911 782.537 567.987 782.559 568.071C782.581 568.156 782.577 568.245 782.546 568.326C782.516 568.408 782.461 568.479 782.39 568.528C782.318 568.578 782.233 568.605 782.146 568.605V568.605Z" fill="#CCCCCC"/>
<path fill-rule="evenodd" clip-rule="evenodd" d="M431.679 157.588H406.102V31.3042H394.96V31.3008H446.275V31.3327C464.431 31.7117 480.787 39.0929 492.492 50.763V138.124C480.787 149.794 464.431 157.175 446.275 157.554H431.679V157.588ZM431.679 69.6481V119.2H446.275V119.238C459.959 118.506 470.822 107.702 470.822 94.443C470.822 81.1834 459.959 70.3813 446.275 69.6481H431.679Z" fill="#F2F2F2"/>
<path fill-rule="evenodd" clip-rule="evenodd" d="M289.992 157.589H264.794V31.3047H301.519H289.992V157.589Z" fill="#F1F1F1"/>
<path fill-rule="evenodd" clip-rule="evenodd" d="M509.797 157.589H492.49V138.125C503.868 126.786 510.854 111.399 510.854 94.4435C510.854 77.4897 503.868 62.1023 492.49 50.7634V31.3047H529.218V99.5227L509.797 157.589Z" fill="#F0F0F0"/>
<path fill-rule="evenodd" clip-rule="evenodd" d="M492.491 138.123V50.7617C503.869 62.1006 510.855 77.488 510.855 94.4418C510.855 111.397 503.869 126.785 492.491 138.123Z" fill="#EDEDED"/>
<path fill-rule="evenodd" clip-rule="evenodd" d="M406.101 157.589H369.379L326.712 94.9756V157.589H289.991H301.518V31.3047H326.712L369.379 93.2677V31.3047H394.958V157.589H406.101Z" fill="#F6F6F6"/>
<path fill-rule="evenodd" clip-rule="evenodd" d="M394.96 157.589H406.102V31.3047H394.96V157.589Z" fill="#F0F0F0"/>
<path fill-rule="evenodd" clip-rule="evenodd" d="M289.991 157.589H301.518V31.3047H289.991V157.589Z" fill="#F0F0F0"/>
<path fill-rule="evenodd" clip-rule="evenodd" d="M630.99 157.589H594.265L589.05 141.986H551.744L546.525 157.589H509.8H529.221V99.5227L552.033 31.3197L588.754 31.3047L630.99 157.589ZM570.394 86.2208L563.488 106.87H577.302L570.394 86.2208Z" fill="#EFEFEF"/>
<path fill-rule="evenodd" clip-rule="evenodd" d="M529.221 157.589H509.8L529.221 99.5234V157.589Z" fill="#ECECEC"/>
<path d="M292.751 256.929C286.012 241.466 280.14 235.769 288.276 230.479C290.81 228.832 298.167 230.143 305.361 234.956C321.265 245.595 342.694 267.202 354.178 268.323C370.857 269.95 379.806 251.639 381.026 243.501C382.246 235.362 383.874 193.45 384.281 191.416C384.689 189.381 385.5 185.719 388.348 185.719C391.197 185.719 394.045 189.381 394.451 193.45C394.857 197.519 394.451 207.285 394.451 211.761C394.451 216.237 395.266 217.051 397.299 217.458C399.332 217.865 402.587 216.644 403.4 211.354C404.213 206.065 404.213 201.182 405.434 196.705C406.655 192.229 407.699 189.381 411.767 189.788C415.835 190.195 417.055 193.45 417.462 196.299C417.869 201.588 418.047 212.575 418.453 215.017C418.859 217.458 419.267 219.493 421.707 219.086C424.147 218.679 425.775 215.424 426.995 212.168C428.214 208.913 429.029 195.485 429.029 195.485C429.029 195.485 430.251 190.195 435.131 189.788C440.012 189.381 442.048 193.45 442.047 196.705C442.046 199.961 440.827 282.565 442.047 294.365C443.267 306.166 460.759 302.91 477.031 295.586C493.303 288.261 498.185 286.227 509.983 287.855C521.78 289.482 546.188 301.69 541.306 316.339C536.425 330.988 503.067 315.525 467.269 337.091C420.893 374.528 386.722 379.818 374.925 379.818C363.127 379.818 314.718 383.887 305.362 332.615C296.005 281.344 299.489 272.392 292.751 256.929Z" fill="#3F1B7E"/>
<path d="M288.206 256.308C281.467 240.845 275.595 235.148 283.731 229.858C286.265 228.211 293.622 229.522 300.816 234.334C316.72 244.974 338.149 266.581 349.633 267.702C366.312 269.329 375.261 251.018 376.481 242.88C377.702 234.741 379.329 192.829 379.736 190.794C380.144 188.76 380.955 185.098 383.804 185.098C386.652 185.098 389.5 188.76 389.906 192.829C390.312 196.898 389.906 206.664 389.906 211.14C389.906 215.616 390.721 216.43 392.754 216.837C394.787 217.244 398.042 216.023 398.855 210.733C399.668 205.443 399.668 200.56 400.889 196.084C402.11 191.608 403.154 188.76 407.222 189.167C411.29 189.574 412.51 192.829 412.917 195.677C413.324 200.967 413.502 211.954 413.908 214.396C414.314 216.837 414.722 218.872 417.162 218.465C419.602 218.058 421.23 214.802 422.45 211.547C423.669 208.292 424.485 194.864 424.485 194.864C424.485 194.864 425.706 189.574 430.587 189.167C435.467 188.76 437.503 192.829 437.502 196.084C437.501 199.34 436.282 281.944 437.502 293.744C438.722 305.545 456.214 302.289 472.486 294.965C488.759 287.64 493.64 285.606 505.438 287.233C517.235 288.861 541.643 301.069 536.762 315.718C531.88 330.367 498.523 314.904 462.724 336.47C416.348 373.907 382.177 379.196 370.38 379.196C358.583 379.196 310.173 383.266 300.817 331.994C291.46 280.723 294.944 271.771 288.206 256.308Z" fill="#642CC7"/>
</g>
<defs>
<clipPath id="clip0_21178_37536">
<rect width="820" height="573" fill="white"/>
</clipPath>
</defs>
</svg>
