<svg width="820" height="574" viewBox="0 0 820 574" fill="none" xmlns="http://www.w3.org/2000/svg">
<g clip-path="url(#clip0_6093_4558)">
<path d="M326.188 93.436C326.188 105.844 322.272 115.304 314.44 121.816C306.608 128.328 295.476 131.584 281.044 131.584C266.612 131.584 255.436 128.328 247.516 121.816C239.684 115.304 235.768 105.844 235.768 93.436V39.184H264.94V93.04C264.94 98.144 266.304 102.236 269.032 105.316C271.76 108.308 275.72 109.804 280.912 109.804C286.104 109.804 290.064 108.264 292.792 105.184C295.608 102.104 297.016 98.056 297.016 93.04V39.184H326.188V93.436ZM501.839 130L498.011 117.196H466.199L462.371 130H432.539L465.671 39.184H499.595L532.727 130H501.839ZM472.271 96.868H491.939L482.435 64.528H481.907L472.271 96.868Z" fill="#F1F1F1"/>
<path d="M383.873 37.6C395.489 37.6 405.037 39.976 412.517 44.728C419.997 49.392 423.825 56.344 424.001 65.584V67.168H396.677V66.64C396.677 64 395.709 61.8 393.773 60.04C391.837 58.28 388.889 57.4 384.929 57.4C381.057 57.4 378.065 57.972 375.953 59.116C373.929 60.26 372.917 61.668 372.917 63.34C372.917 65.716 374.325 67.476 377.141 68.62C379.957 69.764 384.489 70.952 390.737 72.184C398.041 73.68 404.025 75.264 408.689 76.936C413.441 78.52 417.577 81.16 421.097 84.856C424.617 88.552 426.421 93.568 426.509 99.904C426.509 110.64 422.857 118.604 415.553 123.796C408.337 128.988 398.657 131.584 386.513 131.584C372.345 131.584 361.301 129.208 353.381 124.456C345.549 119.704 341.633 111.3 341.633 99.244H369.221C369.221 103.82 370.409 106.9 372.785 108.484C375.161 109.98 378.857 110.728 383.873 110.728C387.569 110.728 390.605 110.332 392.981 109.54C395.445 108.748 396.677 107.12 396.677 104.656C396.677 102.456 395.313 100.828 392.585 99.772C389.945 98.628 385.589 97.44 379.517 96.208C372.125 94.624 366.009 92.996 361.169 91.324C356.329 89.564 352.105 86.704 348.497 82.744C344.889 78.784 343.085 73.416 343.085 66.64C343.085 56.696 346.913 49.392 354.569 44.728C362.313 39.976 372.081 37.6 383.873 37.6Z" fill="#F6F6F6"/>
<path fill-rule="evenodd" clip-rule="evenodd" d="M925.602 665.067C690.537 454.367 90.0647 452.95 -145 665.067C90.0647 539.78 690.537 544.563 925.602 665.067Z" fill="#F2F2F2"/>
<path d="M174.479 145.771H164.752V555.672H174.479V145.771Z" fill="#CCCCCC"/>
<path d="M241.133 145.771H231.406V555.672H241.133V145.771Z" fill="#CCCCCC"/>
<path d="M241.115 205.289H164.752V215.016H241.115V205.289Z" fill="#CCCCCC"/>
<path d="M241.115 344.828H164.752V354.555H241.115V344.828Z" fill="#CCCCCC"/>
<path d="M545.411 348.145C561.369 314.472 569.292 283.81 574.687 259.269L580.726 260.573C576.152 281.427 569.759 306.645 558.261 334.408V392.51C562.625 387.824 566.844 383.154 570.886 378.532C610.92 332.846 635.333 290.88 642.258 259.269L648.297 260.573C644.883 276.145 637.411 294.068 626.106 313.634V541.324H619.922V323.876C615.445 331.01 610.469 338.337 605.042 345.809V537.346H598.858V354.119C591.773 363.411 583.995 372.928 575.524 382.59C570.049 388.822 564.3 395.135 558.261 401.496V537.346H552.077V407.921C549.887 410.16 547.665 412.414 545.411 414.669V405.924C547.665 403.621 549.887 401.335 552.077 399.048V348.483C550 352.959 547.778 357.485 545.411 362.058V348.145ZM526.36 383.073C528.614 379.45 530.756 375.859 532.801 372.284C537.488 364.103 541.674 356.051 545.411 348.161V362.074C543.317 366.132 541.095 370.223 538.744 374.345V412.623C540.998 410.385 543.22 408.163 545.411 405.94V414.685C543.22 416.875 540.998 419.065 538.744 421.255V537.362H532.56V427.213C530.515 429.162 528.453 431.094 526.36 433.043V424.588C528.453 422.608 530.515 420.627 532.56 418.662V384.796C530.579 388.033 528.502 391.27 526.36 394.539V383.089V383.073ZM507.052 411.094C514.218 401.657 520.627 392.285 526.36 383.073V394.523C524.363 397.55 522.302 400.578 520.16 403.622V430.37C522.253 428.437 524.315 426.505 526.36 424.572V433.027C524.315 434.927 522.253 436.827 520.16 438.744V537.346H513.976V444.315C511.69 446.361 509.387 448.39 507.052 450.435V442.238C509.387 440.177 511.69 438.099 513.976 436.038V412.156C511.754 415.152 509.435 418.147 507.052 421.158V411.094ZM487.711 434.557C494.716 426.698 501.142 418.872 507.052 411.094V421.158C504.813 423.976 502.51 426.811 500.127 429.645V448.293C502.462 446.28 504.765 444.251 507.052 442.238V450.435C504.765 452.432 502.462 454.428 500.127 456.409V537.33H493.943V461.643C491.882 463.366 489.805 465.105 487.711 466.828V458.825C489.805 457.069 491.882 455.33 493.943 453.575V436.811C491.914 439.114 489.837 441.417 487.711 443.72V434.524V434.557ZM326.949 434.557C348.028 458.213 374.326 482.111 407.338 505.413C440.334 482.094 466.632 458.213 487.711 434.557V443.752C485.682 445.958 483.605 448.164 481.479 450.37V463.994C483.573 462.271 485.65 460.564 487.711 458.841V466.844C485.65 468.535 483.573 470.242 481.479 471.933V537.362H475.295V476.893C460.577 488.584 445.004 500.227 428.611 511.725L425.084 506.685C442.814 494.253 459.562 481.66 475.295 469.018V456.683C456.792 475.138 434.94 493.625 409.093 511.725L407.338 509.197L405.583 511.725C379.736 493.609 357.9 475.138 339.381 456.683V469.018C355.114 481.66 371.862 494.253 389.592 506.685L386.065 511.725C369.656 500.227 354.083 488.584 339.381 476.893V537.362H333.197V471.933C331.103 470.242 329.026 468.535 326.965 466.844V458.841C329.026 460.564 331.103 462.271 333.197 463.994V450.37C331.071 448.164 328.994 445.958 326.965 443.752V434.557H326.949ZM307.608 411.094C313.518 418.872 319.944 426.698 326.949 434.557V443.752C324.823 441.449 322.746 439.146 320.717 436.843V453.607C322.778 455.346 324.855 457.102 326.949 458.857V466.86C324.855 465.137 322.778 463.398 320.717 461.675V537.362H314.533V456.441C312.198 454.445 309.895 452.448 307.608 450.467V442.27C309.895 444.283 312.198 446.312 314.533 448.325V429.677C312.149 426.843 309.847 424.025 307.608 421.191V411.126V411.094ZM288.3 383.073C294.033 392.301 300.442 401.657 307.608 411.094V421.158C305.225 418.147 302.922 415.152 300.684 412.156V436.038C302.97 438.099 305.273 440.161 307.608 442.238V450.435C305.273 448.39 302.97 446.361 300.684 444.315V537.346H294.5V438.744C292.406 436.843 290.345 434.927 288.3 433.027V424.572C290.345 426.505 292.406 428.437 294.5 430.37V403.622C292.358 400.578 290.297 397.534 288.3 394.523V383.073ZM269.249 348.145C272.985 356.035 277.172 364.087 281.859 372.268C283.904 375.843 286.062 379.434 288.3 383.057V394.507C286.142 391.238 284.081 388.001 282.1 384.764V418.63C284.145 420.611 286.206 422.575 288.3 424.556V433.011C286.206 431.062 284.145 429.114 282.1 427.181V537.33H275.916V421.223C273.662 419.033 271.439 416.843 269.249 414.652V405.908C271.439 408.131 273.662 410.369 275.916 412.591V374.313C273.565 370.19 271.343 366.1 269.249 362.042V348.128V348.145ZM239.973 259.269C245.352 283.81 253.291 314.472 269.249 348.145V362.058C266.882 357.485 264.66 352.959 262.582 348.483V399.048C264.773 401.335 266.995 403.621 269.249 405.924V414.669C266.995 412.414 264.773 410.16 262.582 407.921V537.346H256.399V401.496C250.36 395.135 244.595 388.838 239.136 382.59C230.665 372.928 222.887 363.411 215.801 354.119V537.346H209.618V345.809C204.191 338.337 199.215 331.01 194.738 323.876V541.324H188.554V313.634C177.249 294.085 169.777 276.145 166.363 260.573L172.402 259.269C179.343 290.88 203.74 332.846 243.773 378.532C247.832 383.154 252.035 387.808 256.399 392.51V334.408C244.917 306.662 238.524 281.443 233.934 260.573L239.973 259.269Z" fill="#E6E6E6"/>
<path fill-rule="evenodd" clip-rule="evenodd" d="M426.193 171.583L447.434 166.204L423.585 166.881C422.763 165.625 421.829 164.352 420.799 163.145L436.403 150.713L416.998 159.457C416.338 158.942 415.645 158.459 414.937 158.024C413.939 157.428 412.763 156.832 411.459 156.301L414.889 137.331L406.386 154.69C404.421 154.223 402.36 153.933 400.331 153.885L385.773 132.338L395.162 154.384C393.02 154.9 391.039 155.818 389.397 157.267L376.836 151.083V153.37L386.852 160.407C385.741 162.211 385.097 163.821 384.759 165.222L376.852 166.333V168.652L384.549 168.958C384.936 171.567 386.401 172.887 386.401 172.887V173.29L376.852 176.35V177.638L386.659 176.994C386.82 179.281 387.062 181.954 387.335 183.371C387.867 186.157 388.269 187.622 389.461 187.751C390.653 187.88 391.716 186.817 391.716 186.817L391.989 188.943C391.989 188.943 390.798 191.857 389.864 193.725C388.93 195.577 388.012 198.106 388.012 198.106C388.012 198.106 382.971 195.722 381.232 194.128C379.509 192.534 379.38 192.663 378.575 190.408C377.786 188.154 378.317 186.817 377.11 184.836C377.013 184.675 376.932 184.53 376.852 184.369V576.396H491.333L491.059 519.164L495.97 511.788L488.337 508.519L488.611 496.78L468.836 491.643C468.433 490.934 468.015 490.145 467.548 489.259C462.507 479.565 459.576 466.682 459.576 466.682C459.576 466.682 461.831 468.808 461.17 460.708C460.51 452.607 458.642 443.444 458.385 438.662C458.127 433.879 459.045 427.776 459.045 427.776C459.045 427.776 462.765 425.908 461.831 421.527C460.897 417.147 459.979 406.519 459.979 406.519C459.979 406.519 462.104 407.179 461.444 400.947C460.784 394.715 455.727 329.624 455.727 329.624C455.727 329.624 459.447 330.558 461.299 332.007C463.167 333.473 471.267 333.473 475.116 326.435C478.965 319.398 480.43 313.826 480.688 310.235C480.946 306.644 484.279 301.201 484.005 297.626C483.748 294.035 484.794 286.466 482.669 283.809C480.543 281.152 480.817 277.706 480.141 275.049C479.48 272.392 479.738 271.86 478.82 270.54C477.886 269.219 476.437 266.949 476.437 266.949L482.411 252.6L476.694 242.777L470.978 241.585L465.535 253.132C465.535 253.132 463.538 251.94 462.475 251.135C461.412 250.346 454.632 237.318 452.652 233.212C450.655 229.089 448.143 225.772 445.872 223.115C443.618 220.458 442.812 219.797 440.558 218.734C438.303 217.672 441.218 216.738 437.24 214.886C433.263 213.018 429.801 210.103 428.48 206.786C427.16 203.468 427.417 204.257 427.417 204.257C427.417 204.257 429.414 204.917 429.946 202.937C430.477 200.94 428.094 197.091 428.094 197.091C428.094 197.091 429.559 192.18 428.883 189.651C428.206 187.123 426.226 185.802 426.226 185.802L425.42 181.825C425.42 181.825 426.209 183.419 427.417 181.551C428.609 179.683 428.351 178.363 427.288 174.514C427.063 173.709 426.693 172.71 426.177 171.583H426.193ZM376.852 151.099L365.966 145.737L376.852 153.386V151.099ZM376.852 166.365V168.684L367.286 168.298C367.786 171.132 369.283 171.986 370.475 172.114C371.699 172.243 372.601 174.868 374.098 177.268L376.868 176.382V177.67L374.468 177.831C376.047 180.15 375.95 182.469 376.868 184.385V576.412H328.75V515.347L324.66 508.519L332.019 503.334V490.789L352.664 488.889C352.97 488.518 353.324 488.164 353.759 487.81C358.413 483.961 365.048 480.241 368.768 474.653C372.488 469.081 374.34 445.973 374.871 438.13C375.403 430.288 375.145 427.115 375.145 427.115C375.145 427.115 372.762 420.738 371.022 415.167C369.299 409.595 367.576 404.28 366.771 400.029C365.982 395.778 365.708 392.589 364.516 386.341C363.325 380.093 363.325 361.912 363.325 361.912C363.325 361.912 363.067 358.723 362.262 356.066C361.473 353.409 361.199 349.818 361.199 349.818C361.199 349.818 360.265 347.29 359.347 343.312C358.413 339.334 357.914 333.827 357.511 325.55C357.109 317.256 359.524 307.127 359.524 307.127C359.524 307.127 358.075 305.034 356.384 302.296C354.693 299.559 354.21 288.946 357.028 277.11C359.846 265.29 366.916 256.352 366.916 256.352C366.916 256.352 366.272 254.984 364.178 249.75C362.085 244.516 362.568 244.033 361.521 236.964C360.474 229.878 359.911 231.408 357.656 229.073C355.402 226.738 356.449 221.907 355.482 222.47C354.516 223.034 354.033 221.263 350.571 221.504C347.108 221.746 348.155 217.156 348.316 210.328C348.477 203.484 352.181 194.563 353.228 192.389C354.275 190.215 353.389 186.833 352.262 183.065C351.134 179.281 350.007 175.013 346.947 167.541C343.888 160.053 341.553 145.656 340.828 141.389C340.103 137.121 339.379 130.454 339.379 131.324C339.379 132.193 337.849 133.981 336.4 133.981C334.95 133.981 333.098 129.875 333.098 129.875C333.098 129.875 332.535 129.714 332.454 126.976C332.374 124.238 331.327 124.238 330.602 122.789C329.878 121.34 331.246 120.615 331.246 120.615C331.246 120.615 331.085 119.085 331.81 117.394C332.535 115.703 331.407 110.309 331.407 110.309C331.407 110.309 329.958 109.906 328.75 107.652C327.543 105.397 329.717 104.592 329.717 104.592C329.717 104.592 327.945 103.465 327.945 101.613C327.945 99.7608 329.072 99.6803 329.072 99.6803C329.072 99.6803 327.382 98.1504 327.704 96.379C328.026 94.6076 329.958 94.9297 329.958 94.9297V92.5947C329.958 92.5947 329.475 91.1453 328.96 90.2274C326.673 89.0358 325.24 87.4737 326.431 86.5719C325.642 86.282 324.805 85.9922 324.096 85.7667C322.083 85.1226 321.198 83.4317 320.231 82.546C319.265 81.6603 319.507 80.6941 320.231 80.0499C320.956 79.4058 321.278 76.5877 321.761 75.702C321.6 73.6729 318.686 72.2075 318.686 72.2075L320.94 72.3363L320.28 70.4844L322.937 70.742L323.597 69.019L327.317 69.5504L329.314 67.0221L331.713 67.9722C331.649 67.0382 331.343 66.1686 330.457 64.671C328.525 62.0944 326.351 57.3438 328.847 54.0587C331.343 50.7574 332.712 52.3678 334.644 50.1133C336.577 47.8588 338.67 45.2017 340.764 46.1679C342.857 47.1341 340.683 52.8509 342.696 51.6431C344.709 50.4354 345.836 52.2068 348.01 50.7574C350.184 49.3081 351.795 45.9264 352.439 46.9731C353.083 48.0198 352.439 49.7107 352.197 51.8042C351.956 53.8976 346.158 58.5677 345.031 60.8866C343.904 63.2216 343.501 64.3489 342.535 64.7515C341.971 64.993 342.116 65.8949 342.342 66.9738C342.503 67.7468 342.696 68.6003 342.696 69.3249L347.785 68.4714L348.316 70.4683L351.762 69.9369L351.102 71.7888L353.485 72.0464C353.485 72.0464 351.891 73.5119 351.102 75.1061C350.313 76.7004 351.762 78.0209 352.825 80.1466C353.888 82.2722 351.36 83.2063 351.36 84.5268C351.36 85.8472 343.389 87.4415 343.389 87.4415C343.389 87.4415 344.58 88.6332 344.451 89.5672C344.323 90.5012 342.455 91.4191 342.455 91.4191L341.923 96.7333C341.923 96.7333 342.454 96.8621 344.58 99.5192C346.706 102.176 348.3 106.025 349.766 110.679C351.231 115.333 350.957 117.314 353.083 124.496C355.209 131.662 354.017 130.342 358.526 140.294C363.035 150.262 366.9 163.402 367.157 167.122C367.157 167.299 367.19 167.477 367.206 167.638L376.868 166.269L376.852 166.365Z" fill="#4b1bc4"/>
<path d="M649.891 145.771H640.164V555.672H649.891V145.771Z" fill="#CCCCCC"/>
<path d="M583.236 145.771H573.51V555.672H583.236V145.771Z" fill="#CCCCCC"/>
<path d="M649.873 205.289H573.51V215.016H649.873V205.289Z" fill="#CCCCCC"/>
<path d="M649.873 344.828H573.51V354.555H649.873V344.828Z" fill="#CCCCCC"/>
<path fill-rule="evenodd" clip-rule="evenodd" d="M167.235 385.633L157.975 381.124V372.219L151.115 368.869V353.12L146.316 350.769V330.897L142.258 328.916V348.788V358.144V364.553V373.459V477.585V553.111H167.235V385.633Z" fill="#E6E6E6"/>
<path fill-rule="evenodd" clip-rule="evenodd" d="M136.235 350.849L136.477 350.769V330.897L142.258 328.916V553.095H136.235V549.842H137.926V533.335C137.362 533.368 136.799 533.384 136.235 533.4V527.892L137.926 527.812V511.274C137.362 511.322 136.799 511.37 136.235 511.418V505.927L137.926 505.766V489.228C137.362 489.308 136.799 489.373 136.235 489.453V483.962L137.926 483.736V467.198C137.362 467.295 136.799 467.391 136.235 467.488V461.98L137.926 461.674V445.136C137.362 445.265 136.799 445.394 136.235 445.506V440.015L137.926 439.628V423.09C137.362 423.251 136.799 423.396 136.235 423.541V418.05L137.926 417.583V401.044C137.362 401.221 136.799 401.398 136.235 401.576V396.068L137.926 395.537V378.998L136.235 379.594V350.785V350.849ZM130.277 352.894L136.235 350.849V379.659L134.544 380.254V396.68L136.235 396.149V401.656C135.672 401.833 135.108 401.994 134.544 402.171V418.581L136.235 418.114V423.605L134.544 424.04V440.45L136.235 440.063V445.555L134.544 445.909V462.318L136.235 462.013V467.52C135.672 467.617 135.108 467.713 134.544 467.81V484.219L136.235 483.994V489.485C135.672 489.55 135.108 489.63 134.544 489.695V506.104L136.235 505.943V511.435C135.672 511.483 135.108 511.515 134.544 511.563V527.973L136.235 527.892V533.4C135.672 533.416 135.108 533.432 134.544 533.448V549.842H136.235V553.095H130.277V549.842H131.968V533.529C131.404 533.545 130.841 533.561 130.277 533.593V528.166L131.968 528.086V511.757L130.277 511.885V506.475C130.841 506.426 131.404 506.378 131.968 506.33V489.985C131.404 490.065 130.841 490.129 130.277 490.194V484.783L131.968 484.558V468.229L130.277 468.502V463.075C130.841 462.979 131.404 462.882 131.968 462.769V446.44C131.404 446.553 130.841 446.682 130.277 446.795V441.384C130.841 441.255 131.404 441.142 131.968 441.013V424.668L130.277 425.103V419.692C130.841 419.547 131.404 419.386 131.968 419.241V402.912C131.404 403.089 130.841 403.25 130.277 403.411V397.984C130.841 397.807 131.404 397.646 131.968 397.469V381.124C131.404 381.317 130.841 381.51 130.277 381.704V352.878V352.894ZM124.302 370.689L129.649 368.853V353.088L130.277 352.878V381.704C129.713 381.897 129.15 382.09 128.586 382.283V398.516C129.15 398.339 129.713 398.162 130.277 398.001V403.427C129.713 403.589 129.15 403.766 128.586 403.927V420.159C129.15 419.998 129.713 419.853 130.277 419.708V425.119L128.586 425.554V441.754C129.15 441.625 129.713 441.513 130.277 441.384V446.795C129.713 446.907 129.15 447.02 128.586 447.149V463.381C129.15 463.285 129.713 463.188 130.277 463.075V468.502L128.586 468.776V485.009L130.277 484.783V490.194C129.713 490.258 129.15 490.323 128.586 490.403V506.603C129.15 506.555 129.713 506.507 130.277 506.459V511.869L128.586 511.998V528.231L130.277 528.15V533.577C129.713 533.593 129.15 533.625 128.586 533.641V549.826H130.277V553.079H124.302V549.826H125.993V533.722L124.302 533.77V528.408C124.866 528.392 125.43 528.359 125.993 528.327V512.191L124.302 512.32V506.974C124.866 506.926 125.43 506.877 125.993 506.829V490.693L124.302 490.902V485.556L125.993 485.331V469.195L124.302 469.468V464.106L125.993 463.8V447.664L124.302 448.018V442.672C124.866 442.543 125.43 442.414 125.993 442.286V426.15L124.302 426.585V421.238C124.866 421.093 125.43 420.932 125.993 420.771V404.635L124.302 405.151V399.788C124.866 399.611 125.43 399.434 125.993 399.257V383.121L124.302 383.717V370.641V370.689ZM118.344 381.639L119.89 381.108V372.203L124.302 370.689V383.765L122.612 384.361V400.384C123.175 400.207 123.739 400.046 124.302 399.853V405.215L122.612 405.73V421.753C123.175 421.609 123.739 421.464 124.302 421.303V426.649L122.612 427.084V443.107C123.175 442.994 123.739 442.865 124.302 442.736V448.083L122.612 448.437V464.46C123.175 464.364 123.739 464.267 124.302 464.17V469.533L122.612 469.823V485.846C123.175 485.781 123.739 485.701 124.302 485.637V490.983L122.612 491.192V507.215C123.175 507.167 123.739 507.119 124.302 507.07V512.417L122.612 512.546V528.569C123.175 528.553 123.739 528.537 124.302 528.504V533.867L122.612 533.915V549.922H124.302V553.175H118.344V549.922H120.035V534.028L118.344 534.076V528.778L120.035 528.698V512.771L118.344 512.9V507.634L120.035 507.489V491.563L118.344 491.772V486.49C118.908 486.41 119.471 486.345 120.035 486.281V470.354C119.471 470.435 118.908 470.531 118.344 470.628V465.33L120.035 465.024V449.097L118.344 449.452V444.17C118.908 444.041 119.471 443.912 120.035 443.799V427.873C119.471 428.002 118.908 428.147 118.344 428.292V423.026C118.908 422.881 119.471 422.72 120.035 422.575V406.648C119.471 406.809 118.908 406.97 118.344 407.147V401.849C118.908 401.672 119.471 401.495 120.035 401.318V385.391C119.471 385.585 118.908 385.778 118.344 385.971V381.8V381.639ZM112.37 383.684L118.344 381.639V385.81L116.653 386.39V402.22L118.344 401.688V406.986L116.653 407.502V423.316C117.217 423.171 117.78 423.026 118.344 422.865V428.13C117.78 428.275 117.217 428.42 116.653 428.581V444.395C117.217 444.266 117.78 444.137 118.344 444.009V449.291L116.653 449.645V465.459C117.217 465.362 117.78 465.265 118.344 465.169V470.467C117.78 470.564 117.217 470.66 116.653 470.757V486.571C117.217 486.49 117.78 486.426 118.344 486.345V491.627L116.653 491.836V507.65C117.217 507.602 117.78 507.554 118.344 507.505V512.771C117.78 512.819 117.217 512.868 116.653 512.916V528.73L118.344 528.649V533.947L116.653 533.996V549.793H118.344V553.046H112.37V549.793H114.061V534.076C113.497 534.092 112.933 534.108 112.37 534.141V528.907C112.933 528.891 113.497 528.859 114.061 528.826V513.077C113.497 513.125 112.933 513.174 112.37 513.222V508.005L114.061 507.86V492.126L112.37 492.336V487.118C112.933 487.038 113.497 486.973 114.061 486.893V471.159L112.37 471.433V466.199C112.933 466.103 113.497 465.99 114.061 465.893V450.16L112.37 450.515V445.297C112.933 445.168 113.497 445.039 114.061 444.91V429.177L112.37 429.612V424.394C112.933 424.249 113.497 424.088 114.061 423.944V408.194C113.497 408.371 112.933 408.532 112.37 408.71V403.476C112.933 403.299 113.497 403.122 114.061 402.944V387.195C113.497 387.388 112.933 387.582 112.37 387.775V383.588V383.684ZM106.701 385.617L112.37 383.684V387.871C111.806 388.065 111.242 388.258 110.679 388.451V404.072L112.37 403.556V408.79C111.806 408.951 111.242 409.128 110.679 409.289V424.91C111.242 424.765 111.806 424.62 112.37 424.459V429.676L110.679 430.111V445.716C111.242 445.603 111.806 445.474 112.37 445.345V450.563L110.679 450.917V466.522C111.242 466.425 111.806 466.328 112.37 466.232V471.465L110.679 471.739V487.344C111.242 487.279 111.806 487.199 112.37 487.134V492.352L110.679 492.561V508.166C111.242 508.117 111.806 508.069 112.37 508.021V513.238L110.679 513.367V528.971C111.242 528.971 111.806 528.939 112.37 528.907V534.141C111.806 534.157 111.242 534.189 110.679 534.205V549.793H112.37V553.046H106.701V385.585V385.617Z" fill="#E6E6E6"/>
<path fill-rule="evenodd" clip-rule="evenodd" d="M648.15 414.2L656.991 410.4L672.016 403.975V491.369V554.769H648.15V414.2Z" fill="#E6E6E6"/>
<path fill-rule="evenodd" clip-rule="evenodd" d="M707.735 414.2L702.05 412.573V416.1C702.614 416.261 703.194 416.422 703.757 416.583V429.708L702.05 429.273V433.653C702.614 433.798 703.194 433.927 703.757 434.072V447.196C703.194 447.067 702.614 446.955 702.05 446.826V451.206L703.757 451.576V464.685C703.194 464.588 702.614 464.475 702.05 464.379V468.759L703.757 469.065V482.173C703.194 482.093 702.614 482.012 702.05 481.932V486.328L703.757 486.57V499.678C703.194 499.614 702.614 499.565 702.05 499.501V503.881L703.757 504.058V517.167C703.194 517.134 702.614 517.086 702.05 517.054V521.434C702.614 521.466 703.194 521.515 703.757 521.547V534.655C703.194 534.655 702.614 534.623 702.05 534.607V539.003C702.614 539.019 703.194 539.035 703.757 539.051V552.144H702.05V554.865H707.735V414.297V414.2ZM702.05 412.573L696.06 410.85V414.361L697.767 414.86V428.146L696.06 427.695V432.139L697.767 432.574V445.844C697.203 445.715 696.624 445.602 696.06 445.473V449.902C696.624 450.03 697.187 450.143 697.767 450.272V463.541C697.203 463.429 696.624 463.332 696.06 463.219V467.648L697.767 467.954V481.223C697.203 481.143 696.624 481.062 696.06 480.982V485.426C696.624 485.507 697.187 485.587 697.767 485.668V498.937L696.06 498.744V503.173L697.767 503.35V516.619C697.203 516.587 696.624 516.539 696.06 516.506V520.935C696.624 520.967 697.187 521.015 697.767 521.048V534.317L696.06 534.252V538.697L697.767 538.745V551.999H696.06V554.72H702.05V551.999H700.343V538.81C700.907 538.81 701.487 538.842 702.05 538.858V534.462L700.343 534.397V521.176C700.907 521.225 701.487 521.257 702.05 521.289V516.909L700.343 516.78V503.575L702.05 503.752V499.372C701.487 499.308 700.923 499.243 700.343 499.179V485.974L702.05 486.215V481.819L700.343 481.561V468.356L702.05 468.662V464.282L700.343 463.96V450.755L702.05 451.126V446.745C701.487 446.617 700.923 446.488 700.343 446.375V433.154C700.907 433.299 701.487 433.444 702.05 433.589V429.208C701.487 429.064 700.923 428.919 700.343 428.774V415.553C700.907 415.714 701.487 415.891 702.05 416.052V412.525V412.573ZM696.06 410.85L694.498 410.399L690.069 409.127V412.622L691.776 413.121V426.568C691.213 426.423 690.633 426.278 690.069 426.133V430.626L691.776 431.06V444.507C691.213 444.378 690.633 444.265 690.069 444.137V448.613L691.776 448.984V462.43C691.213 462.334 690.633 462.221 690.069 462.124V466.601L691.776 466.907V480.354C691.213 480.273 690.633 480.193 690.069 480.112V484.605L691.776 484.847V498.293C691.213 498.229 690.633 498.18 690.069 498.116V502.593L691.776 502.77V516.216C691.213 516.184 690.633 516.136 690.069 516.104V520.581L691.776 520.693V534.14C691.213 534.14 690.633 534.108 690.069 534.091V538.584L691.776 538.633V552.063H690.069V554.785H696.06V552.063H694.353V538.713L696.06 538.761V534.317L694.353 534.252V520.886C694.916 520.919 695.48 520.951 696.06 520.999V516.571L694.353 516.442V503.06L696.06 503.237V498.808C695.496 498.744 694.933 498.68 694.353 498.631V485.249C694.916 485.314 695.48 485.394 696.06 485.475V481.03L694.353 480.772V467.39L696.06 467.696V463.268C695.496 463.155 694.933 463.058 694.353 462.962V449.58C694.916 449.692 695.48 449.805 696.06 449.934V445.505C695.496 445.377 694.933 445.248 694.353 445.135V431.753C694.916 431.882 695.48 432.027 696.06 432.172V427.727C695.496 427.582 694.933 427.437 694.353 427.292V413.91C694.916 414.071 695.48 414.232 696.06 414.393V410.883V410.85ZM690.069 409.127L684.079 407.42V410.899C684.642 411.06 685.206 411.221 685.786 411.382V425.005C685.222 424.861 684.659 424.716 684.079 424.571V429.128C684.642 429.273 685.206 429.402 685.786 429.547V443.17C685.222 443.042 684.659 442.913 684.079 442.784V447.325L685.786 447.695V461.303C685.222 461.206 684.659 461.094 684.079 460.997V465.538C684.642 465.635 685.206 465.732 685.786 465.828V479.452C685.222 479.371 684.659 479.291 684.079 479.194V483.752L685.786 483.993V497.617L684.079 497.424V501.965C684.642 502.029 685.206 502.077 685.786 502.142V515.749C685.222 515.701 684.659 515.669 684.079 515.621V520.162L685.786 520.275V533.898L684.079 533.834V538.391C684.642 538.407 685.206 538.423 685.786 538.439V552.031H684.079V554.752H690.069V552.031H688.362V538.52L690.069 538.568V534.075L688.362 534.011V520.468L690.069 520.581V516.104C689.506 516.055 688.942 516.023 688.362 515.975V502.432L690.069 502.609V498.132L688.362 497.939V484.396L690.069 484.637V480.144L688.362 479.887V466.343L690.069 466.649V462.173L688.362 461.851V448.307L690.069 448.678V444.201L688.362 443.814V430.271L690.069 430.706V426.213L688.362 425.762V412.219L690.069 412.718V409.224V409.127ZM684.079 407.42L678.088 405.697V409.176L679.795 409.675V423.46L678.088 423.009V427.63L679.795 428.065V441.834L678.088 441.447V446.053L679.795 446.423V460.192L678.088 459.87V464.475C678.652 464.572 679.215 464.685 679.795 464.781V478.55L678.088 478.292V482.914L679.795 483.156V496.924L678.088 496.731V501.337C678.652 501.401 679.215 501.449 679.795 501.514V515.282L678.088 515.154V519.759L679.795 519.872V533.641L678.088 533.576V538.198L679.795 538.246V552.015H678.088V554.736H684.079V552.015H682.372V538.327C682.935 538.327 683.499 538.359 684.079 538.375V533.818L682.372 533.753V520.049L684.079 520.162V515.621C683.515 515.588 682.952 515.54 682.372 515.492V501.771C682.935 501.836 683.499 501.9 684.079 501.949V497.407L682.372 497.214V483.51L684.079 483.752V479.194C683.515 479.114 682.952 479.033 682.372 478.937V465.232C682.935 465.329 683.499 465.426 684.079 465.522V460.981C683.515 460.884 682.952 460.772 682.372 460.675V446.955L684.079 447.325V442.784C683.515 442.655 682.952 442.526 682.372 442.397V428.693C682.935 428.838 683.499 428.983 684.079 429.112V424.555C683.515 424.41 682.952 424.265 682.372 424.12V410.399C682.935 410.56 683.499 410.722 684.079 410.883V407.404V407.42ZM678.088 405.697L672.033 403.958V554.752H678.088V552.031H676.381V538.166C676.945 538.182 677.508 538.214 678.088 538.23V533.608L676.381 533.544V519.663C676.945 519.711 677.508 519.743 678.088 519.775V515.17L676.381 515.041V501.16C676.945 501.224 677.508 501.288 678.088 501.337V496.731L676.381 496.538V482.656C676.945 482.737 677.508 482.818 678.088 482.898V478.276L676.381 478.019V464.137C676.945 464.25 677.508 464.347 678.088 464.459V459.854L676.381 459.532V445.65C676.945 445.779 677.508 445.908 678.088 446.021V441.415L676.381 441.029V427.147C676.945 427.292 677.508 427.437 678.088 427.582V422.96L676.381 422.509V408.628L678.088 409.127V405.649V405.697Z" fill="#F2F2F2"/>
<path fill-rule="evenodd" clip-rule="evenodd" d="M746.528 464.815L740.2 463.64V466.184C740.828 466.297 741.456 466.41 742.1 466.538V476.007L740.2 475.701V478.874C740.828 478.97 741.456 479.083 742.1 479.18V488.649C741.472 488.568 740.844 488.472 740.2 488.375V491.531L742.1 491.789V501.258C741.472 501.194 740.844 501.113 740.2 501.032V504.189L742.1 504.414V513.883C741.472 513.819 740.844 513.77 740.2 513.706V516.878L742.1 517.056V526.525C741.472 526.476 740.844 526.444 740.2 526.396V529.552L742.1 529.681V539.15C741.472 539.118 740.844 539.101 740.2 539.069V542.226L742.1 542.306V551.775C741.472 551.775 740.844 551.759 740.2 551.743V554.915C740.828 554.915 741.456 554.947 742.1 554.947V564.4H740.2V566.365H746.528V464.848V464.815ZM740.2 463.64L733.533 462.4V464.928L735.417 465.282V474.88L733.533 474.558V477.779L735.417 478.085V487.666C734.789 487.586 734.161 487.489 733.533 487.393V490.597C734.161 490.678 734.789 490.774 735.417 490.871V500.453L733.533 500.227V503.432L735.417 503.657V513.239C734.789 513.175 734.161 513.126 733.533 513.062V516.266C734.161 516.331 734.789 516.379 735.417 516.444V526.025L733.533 525.88V529.085L735.417 529.214V538.795C734.789 538.763 734.161 538.747 733.533 538.715V541.903C734.161 541.936 734.789 541.968 735.417 541.984V551.566L733.533 551.517V554.738L735.417 554.77V564.352H733.533V566.317H740.2V564.352H738.299V554.835C738.928 554.835 739.556 554.851 740.2 554.867V551.694L738.299 551.646V542.097C738.928 542.129 739.556 542.161 740.2 542.177V539.021L738.299 538.924V529.391L740.2 529.52V526.363L738.299 526.219V516.685L740.2 516.862V513.69L738.299 513.497V503.963L740.2 504.173V501.016L738.299 500.791V491.258L740.2 491.515V488.359C739.572 488.262 738.944 488.182 738.299 488.085V478.536L740.2 478.842V475.669C739.572 475.556 738.944 475.46 738.299 475.347V465.798L740.2 466.152V463.608V463.64ZM733.533 462.4L731.794 462.078L726.866 461.16V463.688L728.766 464.042V473.753C728.138 473.656 727.51 473.544 726.866 473.431V476.684L728.766 476.99V486.7C728.138 486.62 727.51 486.523 726.866 486.426V489.663L728.766 489.921V499.631C728.138 499.567 727.51 499.487 726.866 499.406V502.643L728.766 502.852V512.563C728.138 512.498 727.51 512.45 726.866 512.386V515.638L728.766 515.816V525.526C728.138 525.478 727.51 525.446 726.866 525.397V528.634L728.766 528.763V538.473C728.138 538.441 727.51 538.425 726.866 538.393V541.63L728.766 541.71V551.421C728.138 551.421 727.51 551.405 726.866 551.389V554.641L728.766 554.674V564.368H726.866V566.333H733.533V564.368H731.633V554.722L733.533 554.754V551.533L731.633 551.485V541.823L733.533 541.903V538.715L731.633 538.618V528.956L733.533 529.085V525.88C732.905 525.832 732.277 525.784 731.633 525.752V516.089C732.261 516.138 732.889 516.202 733.533 516.25V513.046L731.633 512.869V503.206L733.533 503.416V500.211C732.905 500.131 732.277 500.066 731.633 499.986V490.324C732.261 490.404 732.889 490.485 733.533 490.581V487.377C732.905 487.28 732.277 487.199 731.633 487.103V477.441C732.261 477.537 732.889 477.634 733.533 477.747V474.526C732.905 474.413 732.277 474.317 731.633 474.204V464.542C732.261 464.654 732.889 464.767 733.533 464.896V462.368V462.4ZM726.866 461.16L720.199 459.92V462.432C720.827 462.545 721.455 462.657 722.099 462.786V472.626C721.471 472.513 720.843 472.416 720.199 472.304V475.589L722.099 475.895V485.734C721.471 485.637 720.843 485.557 720.199 485.46V488.745L722.099 489.003V498.826C721.471 498.762 720.843 498.681 720.199 498.601V501.886C720.827 501.95 721.455 502.031 722.099 502.095V511.935C721.471 511.87 720.843 511.806 720.199 511.757V515.043L722.099 515.22V525.059L720.199 524.914V528.199C720.827 528.248 721.455 528.28 722.099 528.328V538.151C721.471 538.119 720.843 538.087 720.199 538.071V541.356L722.099 541.436V551.276L720.199 551.227V554.513C720.827 554.513 721.455 554.545 722.099 554.545V564.352H720.199V566.317H726.866V564.352H724.982V554.593L726.866 554.625V551.372L724.982 551.324V541.533L726.866 541.614V538.377L724.982 538.28V528.489L726.866 528.618V525.381L724.982 525.236V515.445L726.866 515.622V512.369L724.982 512.176V502.385L726.866 502.594V499.358L724.982 499.132V489.341L726.866 489.599V486.362L724.982 486.088V476.297L726.866 476.603V473.35L724.982 473.028V463.237L726.866 463.591V461.063V461.16ZM720.199 459.92L713.532 458.68V461.192L715.416 461.546V471.498L713.532 471.176V474.51L715.416 474.816V484.768L713.532 484.494V487.827L715.416 488.085V498.037L713.532 497.812V501.145L715.416 501.371V511.323L713.532 511.129V514.463L715.416 514.64V524.592L713.532 524.447V527.781L715.416 527.909V537.861L713.532 537.765V541.098L715.416 541.179V551.131L713.532 551.083V554.416L715.416 554.448V564.384H713.532V566.349H720.199V564.384H718.315V554.497C718.943 554.497 719.571 554.513 720.199 554.529V551.244L718.315 551.195V541.292L720.199 541.372V538.087C719.571 538.055 718.943 538.022 718.315 538.006V528.103C718.943 528.151 719.571 528.183 720.199 528.231V524.946L718.315 524.801V514.898L720.199 515.075V511.79C719.571 511.725 718.943 511.677 718.315 511.613V501.709C718.943 501.789 719.571 501.854 720.199 501.918V498.633C719.571 498.552 718.943 498.488 718.315 498.408V488.504L720.199 488.761V485.476C719.571 485.38 718.943 485.299 718.315 485.203V475.299C718.943 475.395 719.571 475.508 720.199 475.605V472.32C719.571 472.223 718.943 472.11 718.315 471.998V462.094C718.943 462.207 719.571 462.335 720.199 462.448V459.936V459.92ZM713.532 458.68L706.801 457.424V566.333H713.532V564.368H711.632V554.352C712.26 554.352 712.888 554.384 713.532 554.384V551.05L711.632 551.002V540.986C712.26 541.018 712.888 541.05 713.532 541.066V537.733L711.632 537.636V527.62C712.26 527.668 712.888 527.716 713.532 527.748V524.415L711.632 524.27V514.254C712.26 514.318 712.888 514.382 713.532 514.431V511.097L711.632 510.904V500.888C712.26 500.968 712.888 501.049 713.532 501.113V497.78L711.632 497.554V487.538C712.26 487.634 712.888 487.715 713.532 487.811V484.478L711.632 484.204V474.188C712.26 474.3 712.888 474.397 713.532 474.51V471.176L711.632 470.854V460.838L713.532 461.192V458.68Z" fill="#F2F2F2"/>
<path fill-rule="evenodd" clip-rule="evenodd" d="M108.906 467.018L100.097 466.132L85.1367 464.635V522.56V564.574L108.906 560.162V467.018Z" fill="#E6E6E6"/>
<path fill-rule="evenodd" clip-rule="evenodd" d="M79.0995 466.905L85.1383 464.635V564.558L79.0995 565.669V563.865L80.7904 563.559V554.38C80.2267 554.493 79.6631 554.622 79.0995 554.735V551.675L80.7904 551.321V542.125C80.2267 542.254 79.6631 542.383 79.0995 542.512V539.452L80.7904 539.05V529.854C80.2267 529.999 79.6631 530.144 79.0995 530.289V527.23L80.7904 526.795V517.6C80.2267 517.761 79.6631 517.922 79.0995 518.083V515.023L80.7904 514.54V505.345C80.2267 505.522 79.6631 505.699 79.0995 505.86V502.8L80.7904 502.269V493.074C80.2267 493.267 79.6631 493.444 79.0995 493.637V490.578L80.7904 490.014V480.819C80.2267 481.028 79.6631 481.222 79.0995 481.431V478.371L80.7904 477.759V468.564L79.0995 469.208V466.905ZM73.125 469.144L79.0995 466.905V469.208L77.4086 469.852V478.983L79.0995 478.371V481.431L77.4086 482.027V491.157L79.0995 490.594V493.654L77.4086 494.217V503.348L79.0995 502.817V505.876L77.4086 506.392V515.522L79.0995 515.039V518.099L77.4086 518.566V527.697L79.0995 527.262V530.321L77.4086 530.756V539.887L79.0995 539.484V542.544L77.4086 542.931V552.061L79.0995 551.707V554.767L77.4086 555.105V564.22L79.0995 563.898V565.701L73.125 566.812V565.009L74.8159 564.703V555.636L73.125 555.991V552.963L74.8159 552.609V543.526L73.125 543.913V540.902C73.6886 540.773 74.2523 540.644 74.8159 540.499V531.417C74.2523 531.561 73.6886 531.706 73.125 531.851V528.84L74.8159 528.405V519.323L73.125 519.79V516.762C73.6886 516.601 74.2523 516.44 74.8159 516.279V507.197C74.2523 507.374 73.6886 507.535 73.125 507.712V504.701C73.6886 504.523 74.2523 504.362 74.8159 504.185V495.087L73.125 495.65V492.639L74.8159 492.075V482.993L73.125 483.589V480.561C73.6886 480.368 74.2523 480.159 74.8159 479.965V470.883L73.125 471.511V469.208V469.144ZM67.1506 471.382L73.125 469.144V471.447L71.4341 472.091V481.109C71.9978 480.899 72.5614 480.706 73.125 480.513V483.54C72.5614 483.734 71.9978 483.943 71.4341 484.136V493.154C71.9978 492.961 72.5614 492.784 73.125 492.591V495.602L71.4341 496.15V505.168C71.9978 504.99 72.5614 504.829 73.125 504.652V507.664C72.5614 507.825 71.9978 508.002 71.4341 508.179V517.197C71.9978 517.036 72.5614 516.875 73.125 516.714V519.741L71.4341 520.208V529.226L73.125 528.792V531.803C72.5614 531.948 71.9978 532.093 71.4341 532.238V541.256L73.125 540.853V543.865L71.4341 544.251V553.269L73.125 552.915V555.942C72.5614 556.055 71.9978 556.168 71.4341 556.281V565.282L73.125 564.96V566.764L67.1506 567.875V566.072L68.8414 565.749V556.796L67.1506 557.134V554.155L68.8414 553.801V544.831L67.1506 545.217V542.254L68.8414 541.852V532.882L67.1506 533.301V530.338L68.8414 529.903V520.917L67.1506 521.384V518.405L68.8414 517.922V508.936L67.1506 509.451V506.488L68.8414 505.957V496.987L67.1506 497.535V494.571L68.8414 494.008V485.038L67.1506 485.634V482.655L68.8414 482.043V473.057L67.1506 473.701V471.382ZM61.1761 473.621L62.7221 473.041L67.1345 471.382V473.701L65.4436 474.345V483.251C66.0072 483.057 66.5708 482.848 67.1345 482.655V485.634L65.4436 486.23V495.135C66.0072 494.942 66.5708 494.765 67.1345 494.571V497.535L65.4436 498.098V507.003C66.0072 506.826 66.5708 506.665 67.1345 506.488V509.451L65.4436 509.967V518.872C66.0072 518.711 66.5708 518.55 67.1345 518.389V521.368L65.4436 521.835V530.74C66.0072 530.595 66.5708 530.45 67.1345 530.305V533.268L65.4436 533.703V542.609C66.0072 542.48 66.5708 542.351 67.1345 542.222V545.185L65.4436 545.572V554.477C66.0072 554.364 66.5708 554.251 67.1345 554.123V557.102L65.4436 557.44V566.345L67.1345 566.039V567.843L61.16 568.954V567.15L62.8509 566.828V557.988L61.16 558.326V555.379L62.8509 555.024V546.167L61.16 546.554V543.623L62.8509 543.221V534.364L61.16 534.782V531.851C61.7237 531.706 62.2873 531.561 62.8509 531.417V522.56C62.2873 522.704 61.7237 522.866 61.16 523.027V520.08L62.8509 519.596V510.739L61.16 511.255V508.308C61.7237 508.131 62.2873 507.954 62.8509 507.793V498.936C62.2873 499.113 61.7237 499.306 61.16 499.483V496.552C61.7237 496.359 62.2873 496.182 62.8509 495.989V487.132C62.2873 487.325 61.7237 487.518 61.16 487.727V484.78C61.7237 484.571 62.2873 484.378 62.8509 484.185V475.328C62.2873 475.537 61.7237 475.746 61.16 475.956V473.637L61.1761 473.621ZM55.2017 475.859L61.1761 473.621V475.94L59.4852 476.584V485.392L61.1761 484.78V487.727L59.4852 488.323V497.116C60.0489 496.923 60.6125 496.745 61.1761 496.552V499.483C60.6125 499.676 60.0489 499.853 59.4852 500.047V508.839L61.1761 508.308V511.255L59.4852 511.77V520.563C60.0489 520.402 60.6125 520.241 61.1761 520.096V523.043C60.6125 523.204 60.0489 523.365 59.4852 523.526V532.318L61.1761 531.884V534.814L59.4852 535.249V544.042C60.0489 543.913 60.6125 543.784 61.1761 543.655V546.586C60.6125 546.715 60.0489 546.844 59.4852 546.973V555.765L61.1761 555.411V558.358L59.4852 558.696V567.489L61.1761 567.183V568.986L55.2017 570.097V568.294L56.8926 567.988V559.244C56.3289 559.356 55.7653 559.469 55.2017 559.598V556.683L56.8926 556.329V547.568C56.3289 547.697 55.7653 547.826 55.2017 547.955V545.056L56.8926 544.654V535.909L55.2017 536.344V533.446L56.8926 533.011V524.267L55.2017 524.734V521.819L56.8926 521.336V512.591L55.2017 513.107V510.208L56.8926 509.677V500.932L55.2017 501.48V498.581C55.7653 498.388 56.3289 498.211 56.8926 498.018V489.257L55.2017 489.853V486.938C55.7653 486.745 56.3289 486.536 56.8926 486.326V477.566L55.2017 478.21V475.875V475.859ZM49.5332 477.985L55.2017 475.859V478.194C54.638 478.403 54.0744 478.613 53.5108 478.822V487.518L55.2017 486.922V489.837C54.638 490.03 54.0744 490.24 53.5108 490.433V499.129C54.0744 498.936 54.638 498.758 55.2017 498.565V501.464L53.5108 502.027V510.707C54.0744 510.53 54.638 510.369 55.2017 510.192V513.091L53.5108 513.606V522.286C54.0744 522.125 54.638 521.964 55.2017 521.819V524.734L53.5108 525.201V533.88C54.0744 533.735 54.638 533.591 55.2017 533.446V536.344L53.5108 536.763V545.443C54.0744 545.314 54.638 545.185 55.2017 545.056V547.955L53.5108 548.341V557.021C54.0744 556.909 54.638 556.796 55.2017 556.667V559.582C54.638 559.695 54.0744 559.807 53.5108 559.936V568.616L55.2017 568.294V570.097L49.5332 571.144V478.001V477.985Z" fill="#F2F2F2"/>
<path fill-rule="evenodd" clip-rule="evenodd" d="M745.871 503.544L749.704 499.744L756.226 493.318V580.713V585.19H745.871V503.544Z" fill="#E6E6E6"/>
<path fill-rule="evenodd" clip-rule="evenodd" d="M786.209 503.544L781.426 501.918V505.444C781.909 505.605 782.376 505.766 782.859 505.928V519.036C782.376 518.891 781.909 518.746 781.426 518.601V522.981C781.909 523.126 782.376 523.255 782.859 523.4V536.524C782.376 536.396 781.909 536.283 781.426 536.154V540.534L782.859 540.905V554.013C782.376 553.916 781.909 553.804 781.426 553.707V558.087L782.859 558.393V571.502C782.376 571.421 781.909 571.34 781.426 571.26V575.656L782.859 575.898V585.222H786.209V503.576V503.544ZM781.426 501.918L776.402 500.195V503.705L777.835 504.204V517.49L776.402 517.039V521.484L777.835 521.918V535.188C777.352 535.059 776.885 534.946 776.402 534.817V539.246C776.869 539.375 777.352 539.487 777.835 539.616V552.886C777.352 552.773 776.885 552.676 776.402 552.564V556.992L777.835 557.298V570.567C777.352 570.487 776.885 570.406 776.402 570.326V574.771C776.869 574.851 777.352 574.932 777.835 575.012V585.173H780.009V575.366L781.442 575.608V571.212L780.009 570.954V557.749L781.442 558.055V553.675L780.009 553.353V540.148L781.442 540.518V536.138C780.959 536.009 780.492 535.88 780.009 535.768V522.546L781.442 522.981V518.601C780.959 518.456 780.492 518.311 780.009 518.15V504.929L781.442 505.428V501.902L781.426 501.918ZM776.402 500.195L775.098 499.744L771.378 498.472V501.966L772.811 502.465V515.912C772.328 515.767 771.861 515.622 771.378 515.477V519.97L772.811 520.405V533.851C772.328 533.722 771.861 533.61 771.378 533.481V537.958L772.811 538.328V551.775C772.328 551.678 771.861 551.565 771.378 551.469V555.945L772.811 556.251V569.698C772.328 569.617 771.861 569.537 771.378 569.456V573.949L772.811 574.191V585.19H774.985V574.561C775.452 574.626 775.935 574.706 776.418 574.787V570.342L774.985 570.084V556.702L776.418 557.008V552.58C775.935 552.467 775.468 552.37 774.985 552.274V538.892C775.452 539.004 775.935 539.117 776.418 539.246V534.817C775.935 534.689 775.468 534.56 774.985 534.447V521.065C775.452 521.194 775.935 521.339 776.418 521.484V517.039C775.935 516.894 775.468 516.749 774.985 516.604V503.222C775.452 503.383 775.935 503.544 776.418 503.705V500.195H776.402ZM771.378 498.488L766.353 496.765V500.243C766.82 500.404 767.303 500.565 767.787 500.726V514.35C767.303 514.205 766.836 514.06 766.353 513.915V518.472C766.82 518.617 767.303 518.746 767.787 518.891V532.515C767.303 532.386 766.836 532.257 766.353 532.128V536.669L767.787 537.04V550.647C767.303 550.551 766.836 550.438 766.353 550.341V554.883C766.82 554.979 767.303 555.076 767.787 555.172V568.796C767.303 568.716 766.836 568.635 766.353 568.538V573.096L767.787 573.337V585.173H769.96V573.692L771.394 573.933V569.44C770.927 569.36 770.444 569.263 769.96 569.183V555.639L771.394 555.945V551.469L769.96 551.147V537.603L771.394 537.974V533.497L769.96 533.11V519.567L771.394 520.002V515.509L769.96 515.058V501.515L771.394 502.014V498.52L771.378 498.488ZM766.353 496.765L761.329 495.058V498.536L762.762 499.035V512.82L761.329 512.369V516.991L762.762 517.425V531.194L761.329 530.808V535.413L762.762 535.784V549.552L761.329 549.23V553.836C761.812 553.932 762.279 554.045 762.762 554.142V567.91L761.329 567.653V572.275L762.762 572.516V585.19H764.936V572.886L766.369 573.128V568.571C765.886 568.49 765.419 568.41 764.936 568.313V554.609C765.403 554.705 765.886 554.802 766.369 554.899V550.357C765.886 550.261 765.419 550.148 764.936 550.051V536.331L766.369 536.702V532.16C765.886 532.032 765.419 531.903 764.936 531.774V518.07C765.403 518.215 765.886 518.36 766.369 518.488V513.931C765.886 513.786 765.419 513.641 764.936 513.496V499.776C765.403 499.937 765.886 500.098 766.369 500.259V496.781L766.353 496.765ZM761.329 495.058L756.24 493.318V585.19H759.896V572.033C760.379 572.113 760.846 572.194 761.329 572.291V567.669L759.896 567.411V553.53C760.379 553.643 760.846 553.739 761.329 553.836V549.23L759.896 548.908V535.027C760.379 535.156 760.846 535.284 761.329 535.397V530.792L759.896 530.405V516.524C760.379 516.669 760.846 516.814 761.329 516.959V512.337L759.896 511.886V498.005L761.329 498.504V495.025V495.058Z" fill="#F2F2F2"/>
<path fill-rule="evenodd" clip-rule="evenodd" d="M765.566 484.655C773.456 484.655 779.85 491.048 779.85 498.939C779.85 500.146 779.705 501.322 779.415 502.449L775.083 500.968L756.209 494.526L751.266 499.406C751.266 499.245 751.266 499.084 751.266 498.923C751.266 491.032 757.659 484.639 765.55 484.639L765.566 484.655Z" fill="#E6E6E6"/>
<path fill-rule="evenodd" clip-rule="evenodd" d="M784.582 519.276L789.655 516.684V603.224H784.582V519.276Z" fill="#E6E6E6"/>
<path fill-rule="evenodd" clip-rule="evenodd" d="M819.643 526.909L814.86 525.283V528.81C815.343 528.971 815.81 529.132 816.293 529.293V542.401C815.81 542.256 815.343 542.111 814.86 541.966V546.347C815.343 546.491 815.81 546.62 816.293 546.765V559.89C815.81 559.761 815.343 559.648 814.86 559.519V563.899L816.293 564.27V577.378C815.81 577.282 815.343 577.169 814.86 577.072V581.452L816.293 581.758V594.867C815.81 594.786 815.343 594.706 814.86 594.625V599.021L816.293 599.263V603.273H819.643V526.942V526.909ZM814.86 525.283L809.836 523.56V527.07L811.269 527.57V540.855L809.836 540.404V544.849L811.269 545.284V558.553C810.786 558.424 810.319 558.312 809.836 558.183V562.611C810.303 562.74 810.786 562.853 811.269 562.982V576.251C810.786 576.138 810.319 576.042 809.836 575.929V580.357L811.269 580.663V593.933C810.786 593.852 810.319 593.772 809.836 593.691V598.136C810.303 598.216 810.786 598.297 811.269 598.377V603.224H813.443V598.748L814.876 598.989V594.593L813.443 594.335V581.13L814.876 581.436V577.056L813.443 576.734V563.529L814.876 563.899V559.519C814.393 559.39 813.926 559.262 813.443 559.149V545.928L814.876 546.363V541.982C814.393 541.837 813.926 541.693 813.443 541.531V528.31L814.876 528.81V525.283H814.86ZM809.836 523.56L808.531 523.109L804.811 521.837V525.331L806.245 525.83V539.277C805.761 539.132 805.294 538.987 804.811 538.842V543.335L806.245 543.77V557.216C805.761 557.088 805.294 556.975 804.811 556.846V561.323L806.245 561.693V575.14C805.761 575.043 805.294 574.93 804.811 574.834V579.311L806.245 579.617V593.063C805.761 592.983 805.294 592.902 804.811 592.822V597.314L806.245 597.556V603.241H808.418V597.926C808.885 597.991 809.369 598.071 809.852 598.152V593.707L808.418 593.45V580.068L809.852 580.373V575.945C809.369 575.832 808.902 575.736 808.418 575.639V562.257C808.885 562.37 809.369 562.482 809.852 562.611V558.183C809.369 558.054 808.902 557.925 808.418 557.812V544.43C808.885 544.559 809.369 544.704 809.852 544.849V540.404C809.369 540.259 808.902 540.114 808.418 539.969V526.587C808.885 526.748 809.369 526.909 809.852 527.07V523.56H809.836ZM804.811 521.853L799.787 520.13V523.624C800.254 523.785 800.737 523.946 801.22 524.107V537.731C800.737 537.586 800.27 537.441 799.787 537.296V541.854C800.254 541.999 800.737 542.127 801.22 542.272V555.896C800.737 555.767 800.27 555.638 799.787 555.509V560.051L801.22 560.421V574.029C800.737 573.932 800.27 573.819 799.787 573.723V578.264C800.254 578.36 800.737 578.457 801.22 578.554V592.177C800.737 592.097 800.27 592.016 799.787 591.92V596.477L801.22 596.719V603.241H803.394V597.073L804.827 597.314V592.822C804.36 592.741 803.877 592.644 803.394 592.564V579.021L804.827 579.327V574.85L803.394 574.528V560.985L804.827 561.355V556.878L803.394 556.492V542.949L804.827 543.383V538.891L803.394 538.44V524.896L804.827 525.396V521.901L804.811 521.853ZM799.787 520.13L794.763 518.423V521.901L796.196 522.4V536.185L794.763 535.734V540.356L796.196 540.791V554.559L794.763 554.173V558.779L796.196 559.149V572.917L794.763 572.595V577.201C795.246 577.298 795.713 577.41 796.196 577.507V591.276L794.763 591.018V595.64L796.196 595.881V603.224H798.37V596.236L799.803 596.477V591.92C799.32 591.839 798.853 591.759 798.37 591.662V577.958C798.853 578.055 799.32 578.151 799.803 578.248V573.707C799.32 573.61 798.853 573.497 798.37 573.401V559.68L799.803 560.051V555.509C799.32 555.381 798.853 555.252 798.37 555.123V541.419C798.853 541.564 799.32 541.709 799.803 541.837V537.28C799.32 537.135 798.853 536.99 798.37 536.845V523.125C798.853 523.286 799.32 523.447 799.803 523.608V520.114L799.787 520.13ZM794.763 518.423L789.674 516.684V603.241H793.329V595.398C793.812 595.479 794.28 595.559 794.763 595.656V591.034L793.329 590.776V576.895C793.812 577.008 794.28 577.104 794.763 577.201V572.595L793.329 572.273V558.392C793.812 558.521 794.28 558.65 794.763 558.762V554.157L793.329 553.77V539.889C793.812 540.034 794.28 540.179 794.763 540.324V535.702L793.329 535.251V521.37L794.763 521.869V518.391V518.423Z" fill="#F2F2F2"/>
<path fill-rule="evenodd" clip-rule="evenodd" d="M771.864 476.344L768.257 475.12L762.137 473.026L760.028 475.12L758.771 476.344V492.335H771.864V476.344Z" fill="#E6E6E6"/>
<path fill-rule="evenodd" clip-rule="evenodd" d="M49.9008 502.834L44.8281 500.241V586.798H49.9008V502.834Z" fill="#E6E6E6"/>
<path fill-rule="evenodd" clip-rule="evenodd" d="M39.7395 501.98L44.8282 500.241V586.798H41.1727V578.956C40.6896 579.036 40.2226 579.117 39.7395 579.213V574.592L41.1727 574.334V560.453C40.6896 560.565 40.2226 560.662 39.7395 560.759V556.153L41.1727 555.831V541.95C40.6896 542.078 40.2226 542.207 39.7395 542.32V537.714L41.1727 537.328V523.447C40.6896 523.591 40.2226 523.736 39.7395 523.881V519.26L41.1727 518.809V504.927L39.7395 505.427V501.948V501.98ZM34.7152 503.687L39.7395 501.98V505.459L38.3063 505.958V519.743L39.7395 519.292V523.914L38.3063 524.348V538.117L39.7395 537.73V542.336L38.3063 542.706V556.475L39.7395 556.153V560.759C39.2564 560.855 38.7894 560.968 38.3063 561.065V574.833L39.7395 574.576V579.197L38.3063 579.439V586.782H36.1323V579.793L34.699 580.035V575.477C35.1822 575.397 35.6492 575.316 36.1323 575.22V561.516C35.6492 561.612 35.1822 561.709 34.699 561.805V557.264C35.1822 557.168 35.6492 557.055 36.1323 556.958V543.238L34.699 543.608V539.067C35.1822 538.938 35.6492 538.809 36.1323 538.681V524.976C35.6492 525.121 35.1822 525.266 34.699 525.395V520.838C35.1822 520.693 35.6492 520.548 36.1323 520.403V506.683C35.6492 506.844 35.1822 507.005 34.699 507.166V503.671L34.7152 503.687ZM29.6908 505.41L34.7152 503.687V507.182C34.232 507.343 33.765 507.504 33.2819 507.665V521.289C33.765 521.144 34.232 520.999 34.7152 520.854V525.411C34.232 525.556 33.765 525.685 33.2819 525.83V539.454C33.765 539.325 34.232 539.196 34.7152 539.067V543.608L33.2819 543.979V557.586C33.765 557.49 34.232 557.377 34.7152 557.28V561.821C34.232 561.918 33.765 562.015 33.2819 562.111V575.735C33.765 575.655 34.232 575.574 34.7152 575.477V580.035L33.2819 580.276V586.798H31.1079V580.631L29.6747 580.872V576.379C30.1578 576.299 30.6248 576.202 31.1079 576.122V562.578L29.6747 562.884V558.408L31.1079 558.085V544.542L29.6747 544.913V540.436L31.1079 540.049V526.506L29.6747 526.941V522.448L31.1079 521.997V508.454L29.6747 508.953V505.459L29.6908 505.41ZM24.6665 507.117L25.9709 506.667L29.6908 505.394V508.889L28.2576 509.388V522.835C28.7407 522.69 29.2077 522.545 29.6908 522.4V526.893L28.2576 527.328V540.774C28.7407 540.645 29.2077 540.533 29.6908 540.404V544.88L28.2576 545.251V558.697C28.7407 558.601 29.2077 558.488 29.6908 558.391V562.868L28.2576 563.174V576.621C28.7407 576.54 29.2077 576.46 29.6908 576.379V580.872L28.2576 581.114V586.798H26.0836V581.484C25.6005 581.548 25.1335 581.629 24.6504 581.709V577.265L26.0836 577.007V563.625L24.6504 563.931V559.503C25.1335 559.39 25.6005 559.293 26.0836 559.197V545.814C25.6005 545.927 25.1335 546.04 24.6504 546.169V541.74C25.1335 541.611 25.6005 541.483 26.0836 541.37V527.988C25.6005 528.117 25.1335 528.262 24.6504 528.406V523.962C25.1335 523.817 25.6005 523.672 26.0836 523.527V510.145C25.6005 510.306 25.1335 510.467 24.6504 510.628V507.117H24.6665ZM19.6422 508.841L24.6665 507.117V510.628L23.2333 511.127V524.413L24.6665 523.962V528.406L23.2333 528.841V542.111C23.7164 541.982 24.1834 541.869 24.6665 541.74V546.169C24.1995 546.298 23.7164 546.41 23.2333 546.539V559.809C23.7164 559.696 24.1834 559.599 24.6665 559.486V563.915L23.2333 564.221V577.49C23.7164 577.41 24.1834 577.329 24.6665 577.249V581.693C24.1995 581.774 23.7164 581.854 23.2333 581.935V586.782H21.0593V582.305L19.6261 582.547V578.151L21.0593 577.893V564.688L19.6261 564.994V560.614L21.0593 560.292V547.087L19.6261 547.457V543.077C20.1092 542.948 20.5762 542.819 21.0593 542.706V529.485L19.6261 529.92V525.54C20.1092 525.395 20.5762 525.25 21.0593 525.089V511.868L19.6261 512.367V508.841H19.6422ZM14.8594 510.467L19.6422 508.841V512.367C19.159 512.528 18.692 512.689 18.2089 512.85V525.959C18.692 525.814 19.159 525.669 19.6422 525.524V529.904C19.159 530.049 18.692 530.178 18.2089 530.323V543.447C18.692 543.318 19.159 543.206 19.6422 543.077V547.457L18.2089 547.827V560.936C18.692 560.839 19.159 560.726 19.6422 560.63V565.01L18.2089 565.316V578.424C18.692 578.344 19.159 578.263 19.6422 578.183V582.579L18.2089 582.821V586.83H14.8594V510.499V510.467Z" fill="#E6E6E6"/>
<path fill-rule="evenodd" clip-rule="evenodd" d="M73.8945 446.231L76.2618 445.345L80.2716 443.848L87.5826 445.345L91.8823 446.231L92.0272 467.311L80.4165 468.535L74.0395 470.773L73.8945 446.231Z" fill="#F2F2F2"/>
<path fill-rule="evenodd" clip-rule="evenodd" d="M77.5723 430.031L78.9894 429.5L81.3727 428.614L85.7207 429.5L88.2812 430.031L88.3617 447.472L81.4532 448.196L77.6528 449.533L77.5723 430.031Z" fill="#F2F2F2"/>
</g>
<defs>
<clipPath id="clip0_6093_4558">
<rect width="820" height="574" fill="white"/>
</clipPath>
</defs>
</svg>
