<svg width="405" height="209" viewBox="0 0 405 209" fill="none" xmlns="http://www.w3.org/2000/svg">
<g clip-path="url(#clip0_21455_31484)">
<path d="M202.5 405.5C314.062 405.5 404.5 315.062 404.5 203.5C404.5 91.9385 314.062 1.5 202.5 1.5C90.9385 1.5 0.5 91.9385 0.5 203.5C0.5 315.062 90.9385 405.5 202.5 405.5ZM376.5 203.5C376.5 107.402 298.598 29.5 202.5 29.5C106.402 29.5 28.5 107.402 28.5 203.5C28.5 299.598 106.402 377.5 202.5 377.5C298.598 377.5 376.5 299.598 376.5 203.5ZM346.5 203.5C346.5 123.971 282.029 59.5 202.5 59.5C122.971 59.5 58.5 123.971 58.5 203.5C58.5 283.029 122.971 347.5 202.5 347.5C282.029 347.5 346.5 283.029 346.5 203.5ZM321.5 203.5C321.5 137.778 268.222 84.5 202.5 84.5C136.778 84.5 83.5 137.778 83.5 203.5C83.5 269.222 136.778 322.5 202.5 322.5C268.222 322.5 321.5 269.222 321.5 203.5ZM292.5 203.5C292.5 153.794 252.206 113.5 202.5 113.5C152.794 113.5 112.5 153.794 112.5 203.5C112.5 253.206 152.794 293.5 202.5 293.5C252.206 293.5 292.5 253.206 292.5 203.5ZM264.5 203.5C264.5 169.258 236.742 141.5 202.5 141.5C168.258 141.5 140.5 169.258 140.5 203.5C140.5 237.742 168.258 265.5 202.5 265.5C236.742 265.5 264.5 237.742 264.5 203.5ZM237.5 203.5C237.5 184.17 221.83 168.5 202.5 168.5C183.17 168.5 167.5 184.17 167.5 203.5C167.5 222.83 183.17 238.5 202.5 238.5C221.83 238.5 237.5 222.83 237.5 203.5ZM219.5 203.5C219.5 194.111 211.889 186.5 202.5 186.5C193.111 186.5 185.5 194.111 185.5 203.5C185.5 212.889 193.111 220.5 202.5 220.5C211.889 220.5 219.5 212.889 219.5 203.5ZM220.5 203.5C220.5 213.441 212.441 221.5 202.5 221.5C192.559 221.5 184.5 213.441 184.5 203.5C184.5 193.559 192.559 185.5 202.5 185.5C212.441 185.5 220.5 193.559 220.5 203.5ZM238.5 203.5C238.5 223.382 222.382 239.5 202.5 239.5C182.618 239.5 166.5 223.382 166.5 203.5C166.5 183.618 182.618 167.5 202.5 167.5C222.382 167.5 238.5 183.618 238.5 203.5ZM265.5 203.5C265.5 238.294 237.294 266.5 202.5 266.5C167.706 266.5 139.5 238.294 139.5 203.5C139.5 168.706 167.706 140.5 202.5 140.5C237.294 140.5 265.5 168.706 265.5 203.5ZM293.5 203.5C293.5 253.758 252.758 294.5 202.5 294.5C152.242 294.5 111.5 253.758 111.5 203.5C111.5 153.242 152.242 112.5 202.5 112.5C252.758 112.5 293.5 153.242 293.5 203.5ZM322.5 203.5C322.5 269.774 268.774 323.5 202.5 323.5C136.226 323.5 82.5 269.774 82.5 203.5C82.5 137.226 136.226 83.5 202.5 83.5C268.774 83.5 322.5 137.226 322.5 203.5ZM347.5 203.5C347.5 283.581 282.581 348.5 202.5 348.5C122.419 348.5 57.5 283.581 57.5 203.5C57.5 123.419 122.419 58.5 202.5 58.5C282.581 58.5 347.5 123.419 347.5 203.5ZM377.5 203.5C377.5 300.15 299.15 378.5 202.5 378.5C105.85 378.5 27.5 300.15 27.5 203.5C27.5 106.85 105.85 28.5 202.5 28.5C299.15 28.5 377.5 106.85 377.5 203.5Z" stroke="url(#paint0_linear_21455_31484)" stroke-opacity="0.2"/>
</g>
<defs>
<linearGradient id="paint0_linear_21455_31484" x1="371.562" y1="39.3412" x2="45.6814" y2="360.934" gradientUnits="userSpaceOnUse">
<stop offset="0.42001" stop-color="#D7D7D7"/>
<stop offset="1" stop-color="#EEEEEE"/>
</linearGradient>
<clipPath id="clip0_21455_31484">
<rect width="405" height="209" fill="white"/>
</clipPath>
</defs>
</svg>
