<svg width="164" height="65" viewBox="0 0 164 65" fill="none" xmlns="http://www.w3.org/2000/svg">
<path d="M64.2238 11.8969V35.3826H57.395V32.8049C55.6149 34.7367 53.1361 35.9388 50.1895 35.9388C43.6402 35.9388 38.6826 30.646 38.6826 23.6427C38.6826 16.6395 43.6402 11.3467 50.1895 11.3467C53.1361 11.3467 55.6149 12.5428 57.395 14.4805V11.9029H64.2238V11.8969ZM57.395 23.6367C57.395 20.3235 54.9162 17.8356 51.5443 17.8356C48.1724 17.8356 45.7423 20.3235 45.7423 23.6367C45.7423 26.95 48.2211 29.4379 51.5443 29.4379C54.8676 29.4379 57.395 26.95 57.395 23.6367Z" fill="white"/>
<path d="M81.6178 11.8969V18.8044C77.3164 18.8044 74.9774 20.784 74.9774 24.4202V35.3826H68.1486V11.8969H74.9774V14.0798C76.7089 11.867 78.9507 11.8969 81.6178 11.8969Z" fill="white"/>
<path d="M83.2278 4.75611C83.2278 2.40575 85.0505 0.659424 87.4381 0.659424C89.8258 0.659424 91.697 2.41173 91.697 4.75611C91.697 7.10049 89.8744 8.90064 87.4381 8.90064C85.0019 8.90064 83.2278 7.14833 83.2278 4.75611Z" fill="#9C2FFB"/>
<path d="M90.8525 11.8969H84.0237V35.3826H90.8525V11.8969Z" fill="white"/>
<path d="M35.6995 0.659424H28.8707V35.3826H35.6995V0.659424Z" fill="white"/>
<path d="M119.201 25.8017H100.956C101.703 28.4272 103.811 30.0838 106.661 30.0838C108.951 30.0838 110.871 29.0731 111.667 27.7334H118.915C117.184 32.6136 112.457 35.9328 106.521 35.9328C99.1759 35.9328 93.6594 30.64 93.6594 23.6367C93.6594 16.6335 99.182 11.3407 106.521 11.3407C113.86 11.3407 119.383 16.5916 119.383 23.7264C119.383 24.3245 119.334 25.2455 119.195 25.7957L119.201 25.8017ZM112.044 21.3342C111.339 18.7566 109.146 17.1418 106.521 17.1418C103.897 17.1418 101.794 18.7506 100.999 21.3342H112.044Z" fill="white"/>
<path d="M145.58 20.2757V35.3766H138.751V22.5303C138.751 19.6776 136.929 17.8356 134.164 17.8356C131.218 17.8356 129.207 19.7255 129.207 22.626V35.3826H122.378V11.8969H129.207V14.4745C131.03 12.4052 133.508 11.3407 136.455 11.3407C141.929 11.3407 145.574 14.8872 145.574 20.2757H145.58Z" fill="white"/>
<path d="M18.6518 26.8363C17.6311 28.4212 15.8692 29.4379 13.7367 29.4379C10.3709 29.4379 7.88608 26.95 7.88608 23.6367C7.88608 20.3235 10.3649 17.8356 13.7367 17.8356C15.8692 17.8356 17.6311 18.8523 18.6518 20.4371H26.1611C24.7941 15.0786 19.8973 11.3407 13.7367 11.3407C6.39759 11.3407 0.875 16.6395 0.875 23.6367C0.875 30.634 6.39759 35.9328 13.7367 35.9328C19.8973 35.9328 24.7941 32.1949 26.1611 26.8363H18.6518Z" fill="white"/>
<path d="M162.549 18.631V11.8491H147.901V18.631H151.887V27.0397C151.887 33.0442 154.487 35.3766 160.739 35.3766H162.567V28.6843H161.401C159.694 28.6843 158.758 27.9188 158.758 26.6569V18.631H162.549Z" fill="white"/>
<path d="M151.091 4.75611C151.091 2.40575 152.913 0.659424 155.301 0.659424C157.689 0.659424 159.56 2.41173 159.56 4.75611C159.56 7.10049 157.737 8.90064 155.301 8.90064C152.865 8.90064 151.091 7.14833 151.091 4.75611Z" fill="#9C2FFB"/>
<g opacity="0.7">
<path d="M69 45.6594L69 64.4883" stroke="white" stroke-width="0.532528" stroke-linecap="round"/>
<path d="M73.798 53.0291H72.875L75.5445 45.7588H76.4533L79.1229 53.0291H78.1999L76.0273 46.909H75.9705L73.798 53.0291ZM74.1388 50.1891H77.8591V50.9701H74.1388V50.1891Z" fill="white"/>
<path d="M89.233 48.3041H87.6782C87.6498 48.103 87.5918 47.9243 87.5042 47.7681C87.4167 47.6095 87.3042 47.4746 87.167 47.3634C87.0297 47.2522 86.8712 47.167 86.6913 47.1078C86.5138 47.0486 86.3209 47.019 86.1127 47.019C85.7364 47.019 85.4086 47.1125 85.1293 47.2995C84.8501 47.4841 84.6335 47.7539 84.4797 48.1089C84.3259 48.4615 84.2489 48.8899 84.2489 49.3939C84.2489 49.9122 84.3259 50.3477 84.4797 50.7003C84.6359 51.0529 84.8536 51.3192 85.1329 51.499C85.4121 51.6789 85.7352 51.7688 86.102 51.7688C86.3079 51.7688 86.4984 51.7416 86.6735 51.6872C86.851 51.6328 87.0084 51.5535 87.1457 51.4493C87.2829 51.3428 87.3965 51.2139 87.4865 51.0624C87.5788 50.9109 87.6427 50.7382 87.6782 50.5441L89.233 50.5512C89.1928 50.8849 89.0922 51.2068 88.9313 51.5168C88.7727 51.8245 88.5586 52.1002 88.2888 52.3439C88.0213 52.5853 87.7018 52.777 87.3303 52.919C86.9611 53.0586 86.5434 53.1285 86.0772 53.1285C85.4287 53.1285 84.8489 52.9817 84.3377 52.6883C83.8289 52.3948 83.4266 51.97 83.1307 51.4138C82.8373 50.8577 82.6905 50.1844 82.6905 49.3939C82.6905 48.6011 82.8396 47.9266 83.1378 47.3705C83.436 46.8143 83.8407 46.3907 84.3519 46.0996C84.8631 45.8062 85.4382 45.6594 86.0772 45.6594C86.4984 45.6594 86.8889 45.7186 87.2486 45.8369C87.6107 45.9553 87.9314 46.128 88.2107 46.3552C88.4899 46.58 88.7171 46.8557 88.8922 47.1823C89.0697 47.5089 89.1833 47.8829 89.233 48.3041Z" fill="white"/>
<path d="M92.7918 53.1356C92.2309 53.1356 91.7482 53.022 91.3435 52.7948C90.9411 52.5652 90.6311 52.241 90.4134 51.8221C90.1957 51.4008 90.0868 50.9027 90.0868 50.3276C90.0868 49.7667 90.1957 49.2744 90.4134 48.8508C90.6311 48.4272 90.9376 48.097 91.3328 47.8604C91.7304 47.6237 92.1966 47.5054 92.7315 47.5054C93.0912 47.5054 93.4261 47.5634 93.7361 47.6793C94.0485 47.7929 94.3207 47.9645 94.5526 48.1941C94.7869 48.4236 94.9691 48.7124 95.0993 49.0602C95.2294 49.4058 95.2945 49.8105 95.2945 50.2743V50.6897H90.6903V49.7525H93.871C93.871 49.5348 93.8237 49.3419 93.729 49.1738C93.6343 49.0058 93.503 48.8745 93.335 48.7798C93.1693 48.6828 92.9764 48.6343 92.7563 48.6343C92.5268 48.6343 92.3232 48.6875 92.1458 48.794C91.9706 48.8981 91.8334 49.0389 91.734 49.2164C91.6346 49.3916 91.5837 49.5868 91.5813 49.8022V50.6932C91.5813 50.963 91.631 51.1961 91.7304 51.3925C91.8322 51.589 91.9754 51.7404 92.16 51.8469C92.3445 51.9534 92.5635 52.0067 92.8167 52.0067C92.9847 52.0067 93.1385 51.983 93.2782 51.9357C93.4178 51.8884 93.5373 51.8174 93.6367 51.7227C93.7361 51.628 93.8118 51.5121 93.8639 51.3748L95.2626 51.4671C95.1916 51.8032 95.046 52.0966 94.8259 52.3475C94.6082 52.596 94.3266 52.79 93.9811 52.9297C93.6379 53.0669 93.2415 53.1356 92.7918 53.1356Z" fill="white"/>
<path d="M96.2814 53.0291V47.5764H97.7475V48.5278H97.8043C97.9037 48.1893 98.0706 47.9337 98.3049 47.761C98.5392 47.5858 98.809 47.4983 99.1142 47.4983C99.19 47.4983 99.2716 47.503 99.3592 47.5125C99.4468 47.5219 99.5237 47.535 99.5899 47.5515V48.8934C99.5189 48.8721 99.4207 48.8532 99.2953 48.8366C99.1699 48.82 99.0551 48.8118 98.951 48.8118C98.7285 48.8118 98.5297 48.8603 98.3546 48.9573C98.1818 49.052 98.0445 49.1845 97.9428 49.3549C97.8434 49.5253 97.7937 49.7217 97.7937 49.9442V53.0291H96.2814Z" fill="white"/>
<path d="M102.603 53.1356C102.042 53.1356 101.559 53.022 101.155 52.7948C100.752 52.5652 100.442 52.241 100.224 51.8221C100.007 51.4008 99.8979 50.9027 99.8979 50.3276C99.8979 49.7667 100.007 49.2744 100.224 48.8508C100.442 48.4272 100.749 48.097 101.144 47.8604C101.542 47.6237 102.008 47.5054 102.543 47.5054C102.902 47.5054 103.237 47.5634 103.547 47.6793C103.86 47.7929 104.132 47.9645 104.364 48.1941C104.598 48.4236 104.78 48.7124 104.91 49.0602C105.041 49.4058 105.106 49.8105 105.106 50.2743V50.6897H100.501V49.7525H103.682C103.682 49.5348 103.635 49.3419 103.54 49.1738C103.445 49.0058 103.314 48.8745 103.146 48.7798C102.98 48.6828 102.788 48.6343 102.567 48.6343C102.338 48.6343 102.134 48.6875 101.957 48.794C101.782 48.8981 101.644 49.0389 101.545 49.2164C101.446 49.3916 101.395 49.5868 101.392 49.8022V50.6932C101.392 50.963 101.442 51.1961 101.542 51.3925C101.643 51.589 101.786 51.7404 101.971 51.8469C102.156 51.9534 102.375 52.0067 102.628 52.0067C102.796 52.0067 102.95 51.983 103.089 51.9357C103.229 51.8884 103.348 51.8174 103.448 51.7227C103.547 51.628 103.623 51.5121 103.675 51.3748L105.074 51.4671C105.003 51.8032 104.857 52.0966 104.637 52.3475C104.419 52.596 104.138 52.79 103.792 52.9297C103.449 53.0669 103.053 53.1356 102.603 53.1356Z" fill="white"/>
<path d="M106.121 53.0291V45.7588H107.633V48.4923H107.679C107.746 48.3455 107.841 48.1964 107.967 48.045C108.095 47.8911 108.26 47.7633 108.464 47.6616C108.67 47.5574 108.925 47.5054 109.231 47.5054C109.628 47.5054 109.995 47.6095 110.331 47.8178C110.667 48.0237 110.936 48.3349 111.137 48.7514C111.338 49.1656 111.439 49.685 111.439 50.3098C111.439 50.918 111.34 51.4316 111.144 51.8505C110.95 52.267 110.685 52.583 110.349 52.7983C110.015 53.0113 109.641 53.1178 109.227 53.1178C108.934 53.1178 108.684 53.0693 108.478 52.9723C108.275 52.8752 108.108 52.7534 107.978 52.6066C107.847 52.4575 107.748 52.3072 107.679 52.1558H107.612V53.0291H106.121ZM107.601 50.3027C107.601 50.6269 107.646 50.9098 107.736 51.1512C107.826 51.3925 107.956 51.5807 108.127 51.7156C108.297 51.8481 108.504 51.9144 108.748 51.9144C108.994 51.9144 109.202 51.8469 109.373 51.712C109.543 51.5748 109.672 51.3854 109.76 51.1441C109.85 50.9003 109.894 50.6198 109.894 50.3027C109.894 49.988 109.851 49.7111 109.763 49.472C109.676 49.233 109.547 49.046 109.376 48.9112C109.206 48.7763 108.996 48.7088 108.748 48.7088C108.502 48.7088 108.293 48.7739 108.123 48.9041C107.955 49.0342 107.826 49.2188 107.736 49.4578C107.646 49.6969 107.601 49.9785 107.601 50.3027Z" fill="white"/>
<path d="M112.448 53.0291V47.5764H113.914V48.5278H113.971C114.07 48.1893 114.237 47.9337 114.471 47.761C114.706 47.5858 114.975 47.4983 115.281 47.4983C115.356 47.4983 115.438 47.503 115.526 47.5125C115.613 47.5219 115.69 47.535 115.756 47.5515V48.8934C115.685 48.8721 115.587 48.8532 115.462 48.8366C115.336 48.82 115.221 48.8118 115.117 48.8118C114.895 48.8118 114.696 48.8603 114.521 48.9573C114.348 49.052 114.211 49.1845 114.109 49.3549C114.01 49.5253 113.96 49.7217 113.96 49.9442V53.0291H112.448Z" fill="white"/>
<path d="M118.769 53.1356C118.208 53.1356 117.726 53.022 117.321 52.7948C116.919 52.5652 116.609 52.241 116.391 51.8221C116.173 51.4008 116.064 50.9027 116.064 50.3276C116.064 49.7667 116.173 49.2744 116.391 48.8508C116.609 48.4272 116.915 48.097 117.31 47.8604C117.708 47.6237 118.174 47.5054 118.709 47.5054C119.069 47.5054 119.404 47.5634 119.714 47.6793C120.026 47.7929 120.298 47.9645 120.53 48.1941C120.764 48.4236 120.947 48.7124 121.077 49.0602C121.207 49.4058 121.272 49.8105 121.272 50.2743V50.6897H116.668V49.7525H119.848C119.848 49.5348 119.801 49.3419 119.706 49.1738C119.612 49.0058 119.48 48.8745 119.312 48.7798C119.147 48.6828 118.954 48.6343 118.734 48.6343C118.504 48.6343 118.301 48.6875 118.123 48.794C117.948 48.8981 117.811 49.0389 117.711 49.2164C117.612 49.3916 117.561 49.5868 117.559 49.8022V50.6932C117.559 50.963 117.608 51.1961 117.708 51.3925C117.81 51.589 117.953 51.7404 118.137 51.8469C118.322 51.9534 118.541 52.0067 118.794 52.0067C118.962 52.0067 119.116 51.983 119.256 51.9357C119.395 51.8884 119.515 51.8174 119.614 51.7227C119.714 51.628 119.789 51.5121 119.841 51.3748L121.24 51.4671C121.169 51.8032 121.023 52.0966 120.803 52.3475C120.586 52.596 120.304 52.79 119.958 52.9297C119.615 53.0669 119.219 53.1356 118.769 53.1356Z" fill="white"/>
<path d="M123.771 49.8767V53.0291H122.259V47.5764H123.7V48.5384H123.764C123.885 48.2213 124.087 47.9704 124.371 47.7858C124.655 47.5989 124.999 47.5054 125.404 47.5054C125.783 47.5054 126.113 47.5882 126.395 47.7539C126.676 47.9195 126.895 48.1562 127.051 48.4639C127.207 48.7692 127.286 49.1336 127.286 49.5572V53.0291H125.773V49.827C125.776 49.4933 125.69 49.233 125.518 49.046C125.345 48.8567 125.107 48.7621 124.804 48.7621C124.601 48.7621 124.421 48.8058 124.265 48.8934C124.111 48.981 123.99 49.1088 123.902 49.2768C123.817 49.4425 123.773 49.6424 123.771 49.8767Z" fill="white"/>
<path d="M131.378 47.5764V48.7124H128.094V47.5764H131.378ZM128.84 46.27H130.352V51.3535C130.352 51.4931 130.373 51.602 130.416 51.6801C130.458 51.7558 130.517 51.8091 130.593 51.8398C130.671 51.8706 130.761 51.886 130.863 51.886C130.934 51.886 131.005 51.8801 131.076 51.8682C131.147 51.854 131.201 51.8434 131.239 51.8363L131.477 52.9616C131.401 52.9853 131.295 53.0125 131.158 53.0433C131.02 53.0764 130.854 53.0965 130.657 53.1036C130.293 53.1178 129.973 53.0693 129.699 52.9581C129.426 52.8468 129.215 52.6741 129.063 52.4398C128.912 52.2055 128.837 51.9097 128.84 51.5523V46.27Z" fill="white"/>
<path d="M139.526 48.1089C139.476 47.9361 139.406 47.7835 139.316 47.6509C139.226 47.516 139.116 47.4024 138.986 47.3101C138.858 47.2155 138.712 47.1433 138.546 47.0936C138.383 47.0439 138.202 47.019 138.003 47.019C137.631 47.019 137.305 47.1113 137.023 47.2959C136.744 47.4805 136.526 47.7491 136.37 48.1018C136.214 48.452 136.135 48.8804 136.135 49.3868C136.135 49.8933 136.212 50.324 136.366 50.679C136.52 51.034 136.738 51.305 137.019 51.4919C137.301 51.6765 137.634 51.7688 138.017 51.7688C138.365 51.7688 138.662 51.7073 138.908 51.5842C139.156 51.4588 139.346 51.2825 139.476 51.0553C139.608 50.8281 139.675 50.5595 139.675 50.2495L139.987 50.2956H138.113V49.1383H141.155V50.0542C141.155 50.6932 141.02 51.2423 140.75 51.7014C140.481 52.1581 140.109 52.5108 139.636 52.7593C139.162 53.0054 138.62 53.1285 138.01 53.1285C137.328 53.1285 136.73 52.9782 136.214 52.6776C135.698 52.3747 135.295 51.9452 135.007 51.389C134.72 50.8305 134.577 50.1678 134.577 49.401C134.577 48.8118 134.662 48.2864 134.833 47.8249C135.005 47.361 135.247 46.9682 135.557 46.6463C135.867 46.3244 136.228 46.0795 136.64 45.9115C137.051 45.7434 137.497 45.6594 137.978 45.6594C138.39 45.6594 138.773 45.7198 139.128 45.8405C139.483 45.9588 139.798 46.1268 140.072 46.3446C140.349 46.5623 140.575 46.8214 140.75 47.122C140.926 47.4202 141.038 47.7491 141.088 48.1089H139.526Z" fill="white"/>
<path d="M142.281 53.0291V47.5764H143.747V48.5278H143.804C143.904 48.1893 144.07 47.9337 144.305 47.761C144.539 47.5858 144.809 47.4983 145.114 47.4983C145.19 47.4983 145.272 47.503 145.359 47.5125C145.447 47.5219 145.524 47.535 145.59 47.5515V48.8934C145.519 48.8721 145.421 48.8532 145.295 48.8366C145.17 48.82 145.055 48.8118 144.951 48.8118C144.728 48.8118 144.53 48.8603 144.354 48.9573C144.182 49.052 144.044 49.1845 143.943 49.3549C143.843 49.5253 143.794 49.7217 143.794 49.9442V53.0291H142.281Z" fill="white"/>
<path d="M148.582 53.1356C148.03 53.1356 147.553 53.0184 147.151 52.7841C146.751 52.5475 146.442 52.2185 146.224 51.7972C146.007 51.3736 145.898 50.8825 145.898 50.324C145.898 49.7608 146.007 49.2685 146.224 48.8473C146.442 48.4236 146.751 48.0947 147.151 47.8604C147.553 47.6237 148.03 47.5054 148.582 47.5054C149.133 47.5054 149.609 47.6237 150.009 47.8604C150.411 48.0947 150.721 48.4236 150.939 48.8473C151.156 49.2685 151.265 49.7608 151.265 50.324C151.265 50.8825 151.156 51.3736 150.939 51.7972C150.721 52.2185 150.411 52.5475 150.009 52.7841C149.609 53.0184 149.133 53.1356 148.582 53.1356ZM148.589 51.9641C148.839 51.9641 149.049 51.8931 149.217 51.7511C149.385 51.6067 149.512 51.4103 149.597 51.1618C149.684 50.9133 149.728 50.6305 149.728 50.3134C149.728 49.9962 149.684 49.7134 149.597 49.4649C149.512 49.2164 149.385 49.02 149.217 48.8757C149.049 48.7313 148.839 48.6591 148.589 48.6591C148.335 48.6591 148.122 48.7313 147.95 48.8757C147.779 49.02 147.65 49.2164 147.563 49.4649C147.477 49.7134 147.435 49.9962 147.435 50.3134C147.435 50.6305 147.477 50.9133 147.563 51.1618C147.65 51.4103 147.779 51.6067 147.95 51.7511C148.122 51.8931 148.335 51.9641 148.589 51.9641Z" fill="white"/>
<path d="M155.745 50.7074V47.5764H157.258V53.0291H155.806V52.0386H155.749C155.626 52.3581 155.421 52.6149 155.135 52.809C154.851 53.003 154.504 53.1001 154.095 53.1001C153.73 53.1001 153.409 53.0172 153.133 52.8516C152.856 52.6859 152.639 52.4504 152.483 52.1451C152.329 51.8398 152.251 51.4742 152.249 51.0482V47.5764H153.761V50.7784C153.763 51.1003 153.85 51.3547 154.02 51.5416C154.19 51.7286 154.419 51.8221 154.705 51.8221C154.887 51.8221 155.058 51.7807 155.216 51.6978C155.375 51.6126 155.503 51.4872 155.6 51.3215C155.699 51.1559 155.748 50.9512 155.745 50.7074Z" fill="white"/>
<path d="M158.467 55.0738V47.5764H159.958V48.4923H160.026C160.092 48.3455 160.188 48.1964 160.313 48.045C160.441 47.8911 160.607 47.7633 160.81 47.6616C161.016 47.5574 161.272 47.5054 161.577 47.5054C161.974 47.5054 162.341 47.6095 162.677 47.8178C163.013 48.0237 163.282 48.3349 163.483 48.7514C163.684 49.1656 163.785 49.685 163.785 50.3098C163.785 50.918 163.687 51.4316 163.49 51.8505C163.296 52.267 163.031 52.583 162.695 52.7983C162.361 53.0113 161.987 53.1178 161.573 53.1178C161.28 53.1178 161.03 53.0693 160.824 52.9723C160.621 52.8752 160.454 52.7534 160.324 52.6066C160.194 52.4575 160.094 52.3072 160.026 52.1558H159.979V55.0738H158.467ZM159.947 50.3027C159.947 50.6269 159.992 50.9098 160.082 51.1512C160.172 51.3925 160.302 51.5807 160.473 51.7156C160.643 51.8481 160.85 51.9144 161.094 51.9144C161.34 51.9144 161.548 51.8469 161.719 51.712C161.889 51.5748 162.018 51.3854 162.106 51.1441C162.196 50.9003 162.241 50.6198 162.241 50.3027C162.241 49.988 162.197 49.7111 162.109 49.472C162.022 49.233 161.893 49.046 161.722 48.9112C161.552 48.7763 161.343 48.7088 161.094 48.7088C160.848 48.7088 160.64 48.7739 160.469 48.9041C160.301 49.0342 160.172 49.2188 160.082 49.4578C159.992 49.6969 159.947 49.9785 159.947 50.3027Z" fill="white"/>
<path d="M79.0093 57.4452H78.1289C78.0768 57.1919 77.9857 56.9695 77.8555 56.7778C77.7277 56.5861 77.5716 56.4252 77.387 56.295C77.2047 56.1625 77.0024 56.0631 76.7799 55.9968C76.5575 55.9305 76.3255 55.8974 76.0841 55.8974C75.6439 55.8974 75.2452 56.0086 74.8878 56.2311C74.5328 56.4536 74.25 56.7813 74.0394 57.2144C73.8311 57.6475 73.727 58.1788 73.727 58.8083C73.727 59.4379 73.8311 59.9692 74.0394 60.4022C74.25 60.8353 74.5328 61.1631 74.8878 61.3856C75.2452 61.608 75.6439 61.7193 76.0841 61.7193C76.3255 61.7193 76.5575 61.6861 76.7799 61.6199C77.0024 61.5536 77.2047 61.4554 77.387 61.3252C77.5716 61.1927 77.7277 61.0306 77.8555 60.8389C77.9857 60.6448 78.0768 60.4224 78.1289 60.1715H79.0093C78.943 60.5431 78.8223 60.8756 78.6472 61.169C78.472 61.4625 78.2543 61.7122 77.994 61.9181C77.7337 62.1216 77.4414 62.2766 77.1172 62.3831C76.7953 62.4896 76.451 62.5429 76.0841 62.5429C75.4641 62.5429 74.9127 62.3914 74.4299 62.0885C73.9471 61.7855 73.5672 61.3548 73.2903 60.7963C73.0135 60.2378 72.875 59.5751 72.875 58.8083C72.875 58.0416 73.0135 57.3789 73.2903 56.8204C73.5672 56.2619 73.9471 55.8311 74.4299 55.5282C74.9127 55.2253 75.4641 55.0738 76.0841 55.0738C76.451 55.0738 76.7953 55.1271 77.1172 55.2336C77.4414 55.3401 77.7337 55.4963 77.994 55.7022C78.2543 55.9057 78.472 56.1542 78.6472 56.4476C78.8223 56.7387 78.943 57.0712 79.0093 57.4452Z" fill="white"/>
<path d="M82.5335 62.5571C82.0412 62.5571 81.6093 62.4399 81.2377 62.2056C80.8685 61.9713 80.5798 61.6435 80.3716 61.2223C80.1657 60.801 80.0627 60.3088 80.0627 59.7455C80.0627 59.1775 80.1657 58.6817 80.3716 58.2581C80.5798 57.8345 80.8685 57.5055 81.2377 57.2712C81.6093 57.0369 82.0412 56.9198 82.5335 56.9198C83.0257 56.9198 83.4564 57.0369 83.8256 57.2712C84.1972 57.5055 84.4859 57.8345 84.6918 58.2581C84.9001 58.6817 85.0042 59.1775 85.0042 59.7455C85.0042 60.3088 84.9001 60.801 84.6918 61.2223C84.4859 61.6435 84.1972 61.9713 83.8256 62.2056C83.4564 62.4399 83.0257 62.5571 82.5335 62.5571ZM82.5335 61.8045C82.9074 61.8045 83.215 61.7086 83.4564 61.5169C83.6978 61.3252 83.8765 61.0732 83.9925 60.7608C84.1084 60.4484 84.1664 60.11 84.1664 59.7455C84.1664 59.3811 84.1084 59.0414 83.9925 58.7267C83.8765 58.4119 83.6978 58.1575 83.4564 57.9635C83.215 57.7694 82.9074 57.6724 82.5335 57.6724C82.1595 57.6724 81.8519 57.7694 81.6105 57.9635C81.3691 58.1575 81.1904 58.4119 81.0744 58.7267C80.9585 59.0414 80.9005 59.3811 80.9005 59.7455C80.9005 60.11 80.9585 60.4484 81.0744 60.7608C81.1904 61.0732 81.3691 61.3252 81.6105 61.5169C81.8519 61.7086 82.1595 61.8045 82.5335 61.8045Z" fill="white"/>
<path d="M86.2831 62.4435V56.9908H87.0924V57.8428H87.1634C87.277 57.5517 87.4604 57.3257 87.7137 57.1647C87.9669 57.0014 88.271 56.9198 88.626 56.9198C88.9857 56.9198 89.2851 57.0014 89.5241 57.1647C89.7655 57.3257 89.9537 57.5517 90.0886 57.8428H90.1454C90.285 57.5611 90.4944 57.3375 90.7737 57.1718C91.053 57.0038 91.3878 56.9198 91.7783 56.9198C92.2658 56.9198 92.6646 57.0724 92.9747 57.3777C93.2847 57.6806 93.4397 58.1528 93.4397 58.7941V62.4435H92.6019V58.7941C92.6019 58.3918 92.4919 58.1043 92.2718 57.9315C92.0517 57.7587 91.7925 57.6724 91.4943 57.6724C91.111 57.6724 90.8139 57.7883 90.6033 58.0203C90.3927 58.2498 90.2874 58.5409 90.2874 58.8935V62.4435H89.4354V58.7089C89.4354 58.3989 89.3348 58.1492 89.1336 57.9599C88.9325 57.7682 88.6733 57.6724 88.3562 57.6724C88.1385 57.6724 87.935 57.7303 87.7456 57.8463C87.5587 57.9623 87.4072 58.1232 87.2912 58.3291C87.1776 58.5326 87.1208 58.7681 87.1208 59.0355V62.4435H86.2831Z" fill="white"/>
<path d="M94.9715 64.4882V56.9908H95.7809V57.857H95.8803C95.9418 57.7623 96.027 57.6416 96.1359 57.4949C96.2471 57.3458 96.4057 57.2132 96.6115 57.0973C96.8198 56.9789 97.1014 56.9198 97.4564 56.9198C97.9156 56.9198 98.3202 57.0346 98.6705 57.2641C99.0208 57.4937 99.2941 57.8191 99.4905 58.2403C99.687 58.6616 99.7852 59.1586 99.7852 59.7313C99.7852 60.3088 99.687 60.8093 99.4905 61.2329C99.2941 61.6542 99.022 61.9808 98.6741 62.2127C98.3262 62.4423 97.925 62.5571 97.4706 62.5571C97.1204 62.5571 96.8399 62.4991 96.6293 62.3831C96.4187 62.2648 96.2566 62.1311 96.143 61.982C96.0294 61.8305 95.9418 61.7051 95.8803 61.6057H95.8093V64.4882H94.9715ZM95.7951 59.7171C95.7951 60.1289 95.8554 60.4922 95.9761 60.8069C96.0968 61.1193 96.2731 61.3643 96.5051 61.5418C96.737 61.7169 97.021 61.8045 97.357 61.8045C97.7073 61.8045 97.9996 61.7122 98.2339 61.5276C98.4705 61.3406 98.648 61.0897 98.7664 60.775C98.8871 60.4579 98.9474 60.1052 98.9474 59.7171C98.9474 59.3337 98.8882 58.9882 98.7699 58.6805C98.6539 58.3705 98.4776 58.1256 98.241 57.9457C98.0067 57.7635 97.712 57.6724 97.357 57.6724C97.0162 57.6724 96.7299 57.7587 96.498 57.9315C96.266 58.1019 96.0909 58.3409 95.9726 58.6486C95.8542 58.9539 95.7951 59.3101 95.7951 59.7171Z" fill="white"/>
<path d="M102.668 62.5713C102.322 62.5713 102.009 62.5062 101.727 62.376C101.445 62.2435 101.222 62.053 101.056 61.8045C100.89 61.5536 100.808 61.2507 100.808 60.8957C100.808 60.5833 100.869 60.3301 100.992 60.136C101.115 59.9396 101.28 59.7857 101.486 59.6745C101.691 59.5633 101.919 59.4805 102.167 59.426C102.418 59.3692 102.67 59.3243 102.923 59.2911C103.255 59.2485 103.523 59.2166 103.729 59.1953C103.937 59.1716 104.089 59.1326 104.184 59.0781C104.281 59.0237 104.329 58.929 104.329 58.7941V58.7657C104.329 58.4155 104.233 58.1433 104.042 57.9493C103.852 57.7552 103.565 57.6582 103.179 57.6582C102.779 57.6582 102.465 57.7457 102.238 57.9209C102.011 58.096 101.851 58.2829 101.759 58.4817L100.964 58.1977C101.106 57.8664 101.295 57.6085 101.532 57.4239C101.771 57.2369 102.031 57.1067 102.313 57.0334C102.597 56.9576 102.876 56.9198 103.151 56.9198C103.326 56.9198 103.527 56.9411 103.754 56.9837C103.984 57.0239 104.205 57.1079 104.418 57.2357C104.633 57.3635 104.812 57.5564 104.954 57.8144C105.096 58.0723 105.167 58.4178 105.167 58.8509V62.4435H104.329V61.7051H104.286C104.23 61.8234 104.135 61.95 104.002 62.0849C103.87 62.2198 103.694 62.3346 103.474 62.4293C103.253 62.5239 102.985 62.5713 102.668 62.5713ZM102.796 61.8187C103.127 61.8187 103.406 61.7536 103.633 61.6234C103.863 61.4933 104.036 61.3252 104.152 61.1193C104.27 60.9134 104.329 60.6969 104.329 60.4697V59.7029C104.294 59.7455 104.215 59.7846 104.095 59.8201C103.976 59.8532 103.839 59.8828 103.683 59.9088C103.529 59.9325 103.379 59.9538 103.232 59.9727C103.088 59.9893 102.971 60.0035 102.881 60.0153C102.663 60.0437 102.459 60.0899 102.27 60.1538C102.083 60.2153 101.932 60.3088 101.816 60.4342C101.702 60.5573 101.645 60.7253 101.645 60.9383C101.645 61.2294 101.753 61.4495 101.968 61.5986C102.186 61.7453 102.462 61.8187 102.796 61.8187Z" fill="white"/>
<path d="M107.534 59.1633V62.4435H106.696V56.9908H107.505V57.8428H107.576C107.704 57.5659 107.898 57.3434 108.159 57.1754C108.419 57.005 108.755 56.9198 109.167 56.9198C109.536 56.9198 109.859 56.9955 110.136 57.147C110.413 57.2961 110.628 57.5233 110.782 57.8286C110.936 58.1315 111.013 58.5149 111.013 58.9787V62.4435H110.175V59.0355C110.175 58.6072 110.064 58.2735 109.841 58.0345C109.619 57.7931 109.313 57.6724 108.925 57.6724C108.658 57.6724 108.419 57.7303 108.208 57.8463C108 57.9623 107.836 58.1315 107.715 58.3539C107.594 58.5764 107.534 58.8462 107.534 59.1633Z" fill="white"/>
<path d="M112.888 64.4882C112.746 64.4882 112.619 64.4764 112.508 64.4527C112.397 64.4314 112.32 64.4101 112.277 64.3888L112.49 63.6504C112.694 63.7025 112.874 63.7214 113.03 63.7072C113.186 63.693 113.325 63.6232 113.445 63.4978C113.568 63.3747 113.681 63.1747 113.783 62.8978L113.939 62.4719L111.922 56.9908H112.831L114.336 61.3359H114.393L115.898 56.9908H116.807L114.493 63.2386C114.388 63.5203 114.259 63.7534 114.106 63.938C113.952 64.1249 113.773 64.2634 113.57 64.3533C113.368 64.4432 113.141 64.4882 112.888 64.4882Z" fill="white"/>
</g>
</svg>
