<svg width="820" height="557" viewBox="0 0 820 557" fill="none" xmlns="http://www.w3.org/2000/svg">
<g clip-path="url(#clip0_6093_6443)">
<g clip-path="url(#clip1_6093_6443)">
<path d="M241.561 68.184C273.329 68.184 289.213 83.32 289.213 113.592C289.213 143.864 273.329 159 241.561 159H202.225V68.184H241.561ZM231.397 137.22H241.033C253.265 137.22 259.381 130.664 259.381 117.552V109.632C259.381 96.52 253.265 89.964 241.033 89.964H231.397V137.22ZM475.376 68.184C479.952 68.184 484.132 69.152 487.916 71.088C491.788 72.936 494.824 75.576 497.024 79.008C499.312 82.44 500.456 86.268 500.456 90.492C500.456 101.668 495.396 108.708 485.276 111.612V112.14C496.804 114.78 502.568 122.348 502.568 134.844C502.568 139.596 501.38 143.82 499.004 147.516C496.716 151.124 493.548 153.94 489.5 155.964C485.452 157.988 481.008 159 476.168 159H414.92V68.184H475.376ZM444.092 103.56H464.156C466.092 103.56 467.676 102.9 468.908 101.58C470.228 100.172 470.888 98.456 470.888 96.432V95.112C470.888 93.176 470.228 91.548 468.908 90.228C467.588 88.82 466.004 88.116 464.156 88.116H444.092V103.56ZM444.092 137.88H466.268C468.204 137.88 469.788 137.22 471.02 135.9C472.34 134.492 473 132.776 473 130.752V129.432C473 127.408 472.34 125.736 471.02 124.416C469.788 123.008 468.204 122.304 466.268 122.304H444.092V137.88ZM619.526 159V68.184H648.698V159H619.526Z" fill="#F1F1F1"/>
<path d="M395.383 122.436C395.383 134.844 391.467 144.304 383.635 150.816C375.803 157.328 364.671 160.584 350.239 160.584C335.807 160.584 324.631 157.328 316.711 150.816C308.879 144.304 304.963 134.844 304.963 122.436V68.184H334.135V122.04C334.135 127.144 335.499 131.236 338.227 134.316C340.955 137.308 344.915 138.804 350.107 138.804C355.299 138.804 359.259 137.264 361.987 134.184C364.803 131.104 366.211 127.056 366.211 122.04V68.184H395.383V122.436ZM576.319 159L572.491 146.196H540.679L536.851 159H507.019L540.151 68.184H574.075L607.207 159H576.319ZM546.751 125.868H566.419L556.915 93.528H556.387L546.751 125.868Z" fill="#F6F6F6"/>
</g>
<path d="M36.6504 373.268V561.854H457.46V456.876H420.956V501.214H411.555V476.145H365.15V515.882H359.016V359H318.646V448.209H297.977V480.046H291.709V460.01H255.006V519.783H244.305V471.211H210.735V434.274H187.932V413.272H161.563V506.515H152.662V404.005H109.224V459.677H103.19V414.239H59.1193V373.268H36.6504Z" fill="#E6E6E6"/>
<path d="M446.817 470.943H452.984V462.476H446.817V470.943Z" fill="white"/>
<path d="M436.12 470.943H442.287V462.476H436.12V470.943Z" fill="white"/>
<path d="M425.383 470.943H431.551V462.476H425.383V470.943Z" fill="white"/>
<path d="M446.817 483.713H452.984V475.245H446.817V483.713Z" fill="white"/>
<path d="M436.12 483.713H442.287V475.245H436.12V483.713Z" fill="white"/>
<path d="M425.383 483.713H431.551V475.245H425.383V483.713Z" fill="white"/>
<path d="M446.817 496.441H452.984V487.974H446.817V496.441Z" fill="white"/>
<path d="M436.12 496.441H442.287V487.974H436.12V496.441Z" fill="white"/>
<path d="M425.383 496.441H431.551V487.974H425.383V496.441Z" fill="white"/>
<path d="M446.817 509.207H452.984V500.739H446.817V509.207Z" fill="white"/>
<path d="M436.12 509.207H442.287V500.739H436.12V509.207Z" fill="white"/>
<path d="M425.383 509.207H431.551V500.739H425.383V509.207Z" fill="white"/>
<path d="M232.969 484.342H239.137V477.274H232.969V484.342Z" fill="white"/>
<path d="M222.262 484.342H228.43V477.274H222.262V484.342Z" fill="white"/>
<path d="M211.565 484.342H217.732V477.274H211.565V484.342Z" fill="white"/>
<path d="M232.969 494.945H239.137V487.878H232.969V494.945Z" fill="white"/>
<path d="M222.262 494.945H228.43V487.878H222.262V494.945Z" fill="white"/>
<path d="M211.565 494.945H217.732V487.878H211.565V494.945Z" fill="white"/>
<path d="M232.969 505.609H239.137V498.542H232.969V505.609Z" fill="white"/>
<path d="M222.262 505.609H228.43V498.542H222.262V505.609Z" fill="white"/>
<path d="M211.565 505.609H217.732V498.542H211.565V505.609Z" fill="white"/>
<path d="M232.969 516.246H239.137V509.179H232.969V516.246Z" fill="white"/>
<path d="M222.262 516.246H228.43V509.179H222.262V516.246Z" fill="white"/>
<path d="M211.565 516.246H217.732V509.179H211.565V516.246Z" fill="white"/>
<path d="M232.969 527.148H239.137V520.081H232.969V527.148Z" fill="white"/>
<path d="M222.262 527.148H228.43V520.081H222.262V527.148Z" fill="white"/>
<path d="M211.565 527.148H217.732V520.081H211.565V527.148Z" fill="white"/>
<path d="M232.969 538.051H239.137V530.983H232.969V538.051Z" fill="white"/>
<path d="M222.262 538.051H228.43V530.983H222.262V538.051Z" fill="white"/>
<path d="M211.565 538.051H217.732V530.983H211.565V538.051Z" fill="white"/>
<path d="M232.969 548.988H239.137V541.921H232.969V548.988Z" fill="white"/>
<path d="M222.262 548.988H228.43V541.921H222.262V548.988Z" fill="white"/>
<path d="M211.565 548.988H217.732V541.921H211.565V548.988Z" fill="white"/>
<path d="M232.969 559.887H239.137V552.819H232.969V559.887Z" fill="white"/>
<path d="M222.262 559.887H228.43V552.819H222.262V559.887Z" fill="white"/>
<path d="M211.565 559.887H217.732V552.819H211.565V559.887Z" fill="white"/>
<path d="M370.711 486.848H406.281V481.547H370.711V486.848Z" fill="white"/>
<path d="M370.711 497.146H406.281V491.846H370.711V497.146Z" fill="white"/>
<path d="M370.711 507.41H406.281V502.11H370.711V507.41Z" fill="white"/>
<path d="M370.711 517.713H406.281V512.412H370.711V517.713Z" fill="white"/>
<path d="M370.711 528.016H406.281V522.715H370.711V528.016Z" fill="white"/>
<path d="M370.711 538.314H406.281V533.014H370.711V538.314Z" fill="white"/>
<path d="M370.711 548.584H406.281V543.283H370.711V548.584Z" fill="white"/>
<path d="M370.711 558.885H406.281V553.584H370.711V558.885Z" fill="white"/>
<path d="M114.724 414.238H147.428V408.938H114.724V414.238Z" fill="white"/>
<path d="M114.724 424.504H147.428V419.203H114.724V424.504Z" fill="white"/>
<path d="M114.724 434.811H147.428V429.51H114.724V434.811Z" fill="white"/>
<path d="M114.724 445.078H147.428V439.778H114.724V445.078Z" fill="white"/>
<path d="M147.422 450.08H114.719V455.381H147.422V450.08Z" fill="white"/>
<path d="M114.724 465.68H147.428V460.379H114.724V465.68Z" fill="white"/>
<path d="M114.724 475.979H147.428V470.678H114.724V475.979Z" fill="white"/>
<path d="M114.724 486.248H147.428V480.948H114.724V486.248Z" fill="white"/>
<path d="M114.724 496.012H147.428V490.711H114.724V496.012Z" fill="white"/>
<path d="M114.724 505.811H147.428V500.51H114.724V505.811Z" fill="white"/>
<path d="M114.724 515.547H147.428V510.246H114.724V515.547Z" fill="white"/>
<path d="M114.724 525.314H147.428V520.014H114.724V525.314Z" fill="white"/>
<path d="M61.8831 426.637H96.4199V421.336H61.8831V426.637Z" fill="white"/>
<path d="M61.8831 436.973H96.4199V431.672H61.8831V436.973Z" fill="white"/>
<path d="M61.8831 447.238H96.4199V441.938H61.8831V447.238Z" fill="white"/>
<path d="M61.8831 457.535H96.4199V452.235H61.8831V457.535Z" fill="white"/>
<path d="M61.8831 467.809H96.4199V462.508H61.8831V467.809Z" fill="white"/>
<path d="M61.8831 478.078H96.4199V472.778H61.8831V478.078Z" fill="white"/>
<path d="M61.8831 488.373H96.4199V483.073H61.8831V488.373Z" fill="white"/>
<path d="M61.8831 498.643H96.4199V493.342H61.8831V498.643Z" fill="white"/>
<path d="M61.8831 507.887H96.4199V502.586H61.8831V507.887Z" fill="white"/>
<path d="M61.8831 517.084H96.4199V511.783H61.8831V517.084Z" fill="white"/>
<path d="M61.8831 526.285H96.4199V520.985H61.8831V526.285Z" fill="white"/>
<path d="M269.946 469.945H280.914V464.811H269.946V469.945Z" fill="white"/>
<path d="M269.946 479.885H280.914V474.751H269.946V479.885Z" fill="white"/>
<path d="M269.946 489.816H280.914V484.683H269.946V489.816Z" fill="white"/>
<path d="M269.946 499.752H280.914V494.618H269.946V499.752Z" fill="white"/>
<path d="M269.946 509.691H280.914V504.558H269.946V509.691Z" fill="white"/>
<path d="M269.946 519.615H280.914V514.481H269.946V519.615Z" fill="white"/>
<path d="M269.946 529.555H280.914V524.421H269.946V529.555Z" fill="white"/>
<path d="M269.946 539.49H280.914V534.356H269.946V539.49Z" fill="white"/>
<path d="M255.042 469.945H266.01V464.811H255.042V469.945Z" fill="white"/>
<path d="M255.042 479.885H266.01V474.751H255.042V479.885Z" fill="white"/>
<path d="M255.042 489.816H266.01V484.683H255.042V489.816Z" fill="white"/>
<path d="M255.042 499.752H266.01V494.618H255.042V499.752Z" fill="white"/>
<path d="M255.042 509.691H266.01V504.558H255.042V509.691Z" fill="white"/>
<path d="M255.042 519.615H266.01V514.481H255.042V519.615Z" fill="white"/>
<path d="M255.042 529.555H266.01V524.421H255.042V529.555Z" fill="white"/>
<path d="M255.042 539.49H266.01V534.356H255.042V539.49Z" fill="white"/>
<path d="M341.427 372.434H352.861V364.366H341.427V372.434Z" fill="white"/>
<path d="M324.355 372.434H335.789V364.366H324.355V372.434Z" fill="white"/>
<path d="M341.427 384.27H352.861V376.202H341.427V384.27Z" fill="white"/>
<path d="M324.355 384.27H335.789V376.202H324.355V384.27Z" fill="white"/>
<path d="M341.427 396.168H352.861V388.101H341.427V396.168Z" fill="white"/>
<path d="M324.355 396.168H335.789V388.101H324.355V396.168Z" fill="white"/>
<path d="M341.427 408.033H352.861V399.966H341.427V408.033Z" fill="white"/>
<path d="M324.355 408.033H335.789V399.966H324.355V408.033Z" fill="white"/>
<path d="M341.427 419.869H352.861V411.802H341.427V419.869Z" fill="white"/>
<path d="M324.355 419.869H335.789V411.802H324.355V419.869Z" fill="white"/>
<path d="M341.427 431.742H352.861V423.675H341.427V431.742Z" fill="white"/>
<path d="M324.355 431.742H335.789V423.675H324.355V431.742Z" fill="white"/>
<path d="M341.427 443.604H352.861V435.536H341.427V443.604Z" fill="white"/>
<path d="M324.355 443.604H335.789V435.536H324.355V443.604Z" fill="white"/>
<path d="M341.427 455.475H352.861V447.407H341.427V455.475Z" fill="white"/>
<path d="M324.355 455.475H335.789V447.407H324.355V455.475Z" fill="white"/>
<path d="M303.218 459.775H314.652V451.708H303.218V459.775Z" fill="white"/>
<path d="M303.218 471.611H314.652V463.544H303.218V471.611Z" fill="white"/>
<path d="M303.218 483.473H314.652V475.405H303.218V483.473Z" fill="white"/>
<path d="M303.218 495.346H314.652V487.278H303.218V495.346Z" fill="white"/>
<path d="M303.218 507.211H314.652V499.144H303.218V507.211Z" fill="white"/>
<path d="M303.218 519.084H314.652V511.017H303.218V519.084Z" fill="white"/>
<path d="M341.423 467.176H352.857V459.108H341.423V467.176Z" fill="white"/>
<path d="M324.353 467.176H335.787V459.108H324.353V467.176Z" fill="white"/>
<path d="M303.218 530.783H314.652V522.716H303.218V530.783Z" fill="white"/>
<path d="M341.423 478.908H352.857V470.841H341.423V478.908Z" fill="white"/>
<path d="M324.353 478.908H335.787V470.841H324.353V478.908Z" fill="white"/>
<path d="M303.218 542.516H314.652V534.448H303.218V542.516Z" fill="white"/>
<path d="M341.423 490.611H352.857V482.544H341.423V490.611Z" fill="white"/>
<path d="M324.353 490.611H335.787V482.544H324.353V490.611Z" fill="white"/>
<path d="M303.218 554.219H314.652V546.151H303.218V554.219Z" fill="white"/>
<path d="M341.423 502.344H352.857V494.276H341.423V502.344Z" fill="white"/>
<path d="M324.353 502.344H335.787V494.276H324.353V502.344Z" fill="white"/>
<path d="M341.423 514.047H352.857V505.979H341.423V514.047Z" fill="white"/>
<path d="M324.353 514.047H335.787V505.979H324.353V514.047Z" fill="white"/>
<path d="M199.928 446.574H206.096V439.507H199.928V446.574Z" fill="white"/>
<path d="M189.229 446.574H195.396V439.507H189.229V446.574Z" fill="white"/>
<path d="M199.928 457.178H206.096V450.11H199.928V457.178Z" fill="white"/>
<path d="M189.229 457.178H195.396V450.11H189.229V457.178Z" fill="white"/>
<path d="M199.928 467.838H206.096V460.771H199.928V467.838Z" fill="white"/>
<path d="M189.229 467.838H195.396V460.771H189.229V467.838Z" fill="white"/>
<path d="M199.928 478.479H206.096V471.411H199.928V478.479Z" fill="white"/>
<path d="M189.229 478.479H195.396V471.411H189.229V478.479Z" fill="white"/>
<path d="M199.928 489.381H206.096V482.313H199.928V489.381Z" fill="white"/>
<path d="M189.229 489.381H195.396V482.313H189.229V489.381Z" fill="white"/>
<path d="M199.928 500.312H206.096V493.245H199.928V500.312Z" fill="white"/>
<path d="M189.229 500.312H195.396V493.245H189.229V500.312Z" fill="white"/>
<path d="M199.928 511.215H206.096V504.147H199.928V511.215Z" fill="white"/>
<path d="M189.229 511.215H195.396V504.147H189.229V511.215Z" fill="white"/>
<path d="M199.928 522.119H206.096V515.052H199.928V522.119Z" fill="white"/>
<path d="M189.229 522.119H195.396V515.052H189.229V522.119Z" fill="white"/>
<path d="M199.928 533.113H206.096V526.046H199.928V533.113Z" fill="white"/>
<path d="M189.229 533.113H195.396V526.046H189.229V533.113Z" fill="white"/>
<path d="M199.928 544.119H206.096V537.052H199.928V544.119Z" fill="white"/>
<path d="M189.229 544.119H195.396V537.052H189.229V544.119Z" fill="white"/>
<path d="M199.928 555.152H206.096V548.085H199.928V555.152Z" fill="white"/>
<path d="M189.229 555.152H195.396V548.085H189.229V555.152Z" fill="white"/>
<path d="M49.0846 385.373H55.252V377.039H49.0846V385.373Z" fill="white"/>
<path d="M38.3776 385.373H44.5449V377.039H38.3776V385.373Z" fill="white"/>
<path d="M49.0846 397.904H55.252V389.57H49.0846V397.904Z" fill="white"/>
<path d="M38.3776 397.904H44.5449V389.57H38.3776V397.904Z" fill="white"/>
<path d="M49.0846 410.438H55.252V402.103H49.0846V410.438Z" fill="white"/>
<path d="M38.3776 410.438H44.5449V402.103H38.3776V410.438Z" fill="white"/>
<path d="M49.0846 422.973H55.252V414.638H49.0846V422.973Z" fill="white"/>
<path d="M38.3776 422.973H44.5449V414.638H38.3776V422.973Z" fill="white"/>
<path d="M49.0846 435.84H55.252V427.506H49.0846V435.84Z" fill="white"/>
<path d="M38.3776 435.84H44.5449V427.506H38.3776V435.84Z" fill="white"/>
<path d="M49.0846 448.672H55.252V440.338H49.0846V448.672Z" fill="white"/>
<path d="M38.3776 448.672H44.5449V440.338H38.3776V448.672Z" fill="white"/>
<path d="M49.0846 461.508H55.252V453.174H49.0846V461.508Z" fill="white"/>
<path d="M38.3776 461.508H44.5449V453.174H38.3776V461.508Z" fill="white"/>
<path d="M49.0846 474.344H55.252V466.01H49.0846V474.344Z" fill="white"/>
<path d="M38.3776 474.344H44.5449V466.01H38.3776V474.344Z" fill="white"/>
<path d="M49.0846 487.344H55.252V479.01H49.0846V487.344Z" fill="white"/>
<path d="M38.3776 487.344H44.5449V479.01H38.3776V487.344Z" fill="white"/>
<path d="M49.0846 500.342H55.252V492.008H49.0846V500.342Z" fill="white"/>
<path d="M38.3776 500.342H44.5449V492.008H38.3776V500.342Z" fill="white"/>
<path d="M49.0846 513.312H55.252V504.978H49.0846V513.312Z" fill="white"/>
<path d="M38.3776 513.312H44.5449V504.978H38.3776V513.312Z" fill="white"/>
<path d="M49.0846 526.285H55.252V517.951H49.0846V526.285Z" fill="white"/>
<path d="M38.3776 526.285H44.5449V517.951H38.3776V526.285Z" fill="white"/>
<path d="M177.028 446.574H183.195V439.507H177.028V446.574Z" fill="white"/>
<path d="M166.329 446.574H172.496V439.507H166.329V446.574Z" fill="white"/>
<path d="M177.028 435.672H183.195V428.605H177.028V435.672Z" fill="white"/>
<path d="M166.329 435.672H172.496V428.605H166.329V435.672Z" fill="white"/>
<path d="M177.028 424.736H183.195V417.669H177.028V424.736Z" fill="white"/>
<path d="M166.329 424.736H172.496V417.669H166.329V424.736Z" fill="white"/>
<path d="M177.028 457.178H183.195V450.11H177.028V457.178Z" fill="white"/>
<path d="M166.329 457.178H172.496V450.11H166.329V457.178Z" fill="white"/>
<path d="M177.028 467.838H183.195V460.771H177.028V467.838Z" fill="white"/>
<path d="M166.329 467.838H172.496V460.771H166.329V467.838Z" fill="white"/>
<path d="M177.028 478.479H183.195V471.411H177.028V478.479Z" fill="white"/>
<path d="M166.329 478.479H172.496V471.411H166.329V478.479Z" fill="white"/>
<path d="M177.028 489.381H183.195V482.313H177.028V489.381Z" fill="white"/>
<path d="M166.329 489.381H172.496V482.313H166.329V489.381Z" fill="white"/>
<path d="M177.028 500.312H183.195V493.245H177.028V500.312Z" fill="white"/>
<path d="M166.329 500.312H172.496V493.245H166.329V500.312Z" fill="white"/>
<path d="M177.028 511.215H183.195V504.147H177.028V511.215Z" fill="white"/>
<path d="M166.329 511.215H172.496V504.147H166.329V511.215Z" fill="white"/>
<path d="M177.028 522.119H183.195V515.052H177.028V522.119Z" fill="white"/>
<path d="M166.329 522.119H172.496V515.052H166.329V522.119Z" fill="white"/>
<path d="M177.028 533.113H183.195V526.046H177.028V533.113Z" fill="white"/>
<path d="M166.329 533.113H172.496V526.046H166.329V533.113Z" fill="white"/>
<path d="M177.028 544.119H183.195V537.052H177.028V544.119Z" fill="white"/>
<path d="M166.329 544.119H172.496V537.052H166.329V544.119Z" fill="white"/>
<path d="M177.028 555.152H183.195V548.085H177.028V555.152Z" fill="white"/>
<path d="M166.329 555.152H172.496V548.085H166.329V555.152Z" fill="white"/>
<path d="M-384.189 373.268V561.854H36.653V456.876H0.149323V501.214H-9.25162V476.145H-55.6896V515.882H-61.8236V359H-102.161V448.209H-122.863V480.046H-129.13V460.01H-165.801V519.783H-176.535V471.211H-210.072V434.274H-232.874V413.272H-259.277V506.515H-268.144V404.005H-311.615V459.677H-317.616V414.239H-361.721V373.268H-384.189Z" fill="#E6E6E6"/>
<path d="M26.0183 470.943H32.1855V462.476H26.0183V470.943Z" fill="white"/>
<path d="M15.2839 470.943H21.4512V462.476H15.2839V470.943Z" fill="white"/>
<path d="M4.58076 470.943H10.748L10.748 462.476H4.58076L4.58076 470.943Z" fill="white"/>
<path d="M26.0183 483.713H32.1855V475.245H26.0183V483.713Z" fill="white"/>
<path d="M15.2839 483.713H21.4512V475.245H15.2839V483.713Z" fill="white"/>
<path d="M4.58076 483.713H10.748L10.748 475.245H4.58076L4.58076 483.713Z" fill="white"/>
<path d="M26.0183 496.441H32.1855V487.974H26.0183V496.441Z" fill="white"/>
<path d="M15.2839 496.441H21.4512V487.974H15.2839V496.441Z" fill="white"/>
<path d="M4.58076 496.441H10.748L10.748 487.974H4.58076L4.58076 496.441Z" fill="white"/>
<path d="M26.0183 509.207H32.1855V500.739H26.0183V509.207Z" fill="white"/>
<path d="M15.2839 509.207H21.4512V500.739H15.2839V509.207Z" fill="white"/>
<path d="M4.58076 509.207H10.748L10.748 500.739H4.58076L4.58076 509.207Z" fill="white"/>
<path d="M457.693 373.268V561.854H880.836V456.876H844.332V501.214H834.931V476.145H788.527V515.882H782.359V359H742.022V448.209H721.32V480.046H715.053V460.01H678.382V519.783H667.648V471.211H634.111V434.274H611.309V413.272H584.906V506.515H576.039V404.005H532.568V459.677H526.567V414.239H482.496V373.268H457.693Z" fill="#E6E6E6"/>
<path d="M656.354 484.342H662.521V477.274H656.354V484.342Z" fill="white"/>
<path d="M645.647 484.342H651.814V477.274H645.647V484.342Z" fill="white"/>
<path d="M634.95 484.342H641.117V477.274H634.95V484.342Z" fill="white"/>
<path d="M656.354 494.945H662.521V487.878H656.354V494.945Z" fill="white"/>
<path d="M645.647 494.945H651.814V487.878H645.647V494.945Z" fill="white"/>
<path d="M634.95 494.945H641.117V487.878H634.95V494.945Z" fill="white"/>
<path d="M656.354 505.609H662.521V498.542H656.354V505.609Z" fill="white"/>
<path d="M645.647 505.609H651.814V498.542H645.647V505.609Z" fill="white"/>
<path d="M634.95 505.609H641.117V498.542H634.95V505.609Z" fill="white"/>
<path d="M656.354 516.25H662.521V509.183H656.354V516.25Z" fill="white"/>
<path d="M645.647 516.25H651.814V509.183H645.647V516.25Z" fill="white"/>
<path d="M634.95 516.25H641.117V509.183H634.95V516.25Z" fill="white"/>
<path d="M656.354 527.148H662.521V520.081H656.354V527.148Z" fill="white"/>
<path d="M645.647 527.148H651.814V520.081H645.647V527.148Z" fill="white"/>
<path d="M634.95 527.148H641.117V520.081H634.95V527.148Z" fill="white"/>
<path d="M656.354 538.051H662.521V530.983H656.354V538.051Z" fill="white"/>
<path d="M645.647 538.051H651.814V530.983H645.647V538.051Z" fill="white"/>
<path d="M634.95 538.051H641.117V530.983H634.95V538.051Z" fill="white"/>
<path d="M656.354 548.988H662.521V541.921H656.354V548.988Z" fill="white"/>
<path d="M645.647 548.988H651.814V541.921H645.647V548.988Z" fill="white"/>
<path d="M634.95 548.988H641.117V541.921H634.95V548.988Z" fill="white"/>
<path d="M656.354 559.887H662.521V552.819H656.354V559.887Z" fill="white"/>
<path d="M645.647 559.887H651.814V552.819H645.647V559.887Z" fill="white"/>
<path d="M634.95 559.887H641.117V552.819H634.95V559.887Z" fill="white"/>
<path d="M794.096 486.848H829.666V481.547H794.096V486.848Z" fill="white"/>
<path d="M794.096 497.146H829.666V491.846H794.096V497.146Z" fill="white"/>
<path d="M794.096 507.414H829.666V502.114H794.096V507.414Z" fill="white"/>
<path d="M794.096 517.713H829.666V512.412H794.096V517.713Z" fill="white"/>
<path d="M794.096 528.016H829.666V522.715H794.096V528.016Z" fill="white"/>
<path d="M794.096 538.314H829.666V533.014H794.096V538.314Z" fill="white"/>
<path d="M794.096 548.584H829.666V543.283H794.096V548.584Z" fill="white"/>
<path d="M794.096 558.885H829.666V553.584H794.096V558.885Z" fill="white"/>
<path d="M538.068 414.238H570.771V408.938H538.068V414.238Z" fill="white"/>
<path d="M538.068 424.504H570.771V419.203H538.068V424.504Z" fill="white"/>
<path d="M538.068 434.811H570.771V429.51H538.068V434.811Z" fill="white"/>
<path d="M538.068 445.078H570.771V439.778H538.068V445.078Z" fill="white"/>
<path d="M570.807 450.08H538.104V455.381H570.807V450.08Z" fill="white"/>
<path d="M538.068 465.68H570.771V460.379H538.068V465.68Z" fill="white"/>
<path d="M538.068 475.979H570.771V470.678H538.068V475.979Z" fill="white"/>
<path d="M538.068 486.248H570.771V480.948H538.068V486.248Z" fill="white"/>
<path d="M538.068 496.012H570.771V490.711H538.068V496.012Z" fill="white"/>
<path d="M538.068 505.811H570.771V500.51H538.068V505.811Z" fill="white"/>
<path d="M538.068 515.547H570.771V510.246H538.068V515.547Z" fill="white"/>
<path d="M538.068 525.314H570.771V520.014H538.068V525.314Z" fill="white"/>
<path d="M485.235 426.637H519.771V421.336H485.235V426.637Z" fill="white"/>
<path d="M485.235 436.973H519.771V431.672H485.235V436.973Z" fill="white"/>
<path d="M485.235 447.238H519.771V441.938H485.235V447.238Z" fill="white"/>
<path d="M485.235 457.535H519.771V452.235H485.235V457.535Z" fill="white"/>
<path d="M485.235 467.809H519.771V462.508H485.235V467.809Z" fill="white"/>
<path d="M485.235 478.078H519.771V472.778H485.235V478.078Z" fill="white"/>
<path d="M485.235 488.373H519.771V483.073H485.235V488.373Z" fill="white"/>
<path d="M485.235 498.643H519.771V493.342H485.235V498.643Z" fill="white"/>
<path d="M485.235 507.887H519.771V502.586H485.235V507.887Z" fill="white"/>
<path d="M485.235 517.084H519.771V511.783H485.235V517.084Z" fill="white"/>
<path d="M485.235 526.285H519.771V520.985H485.235V526.285Z" fill="white"/>
<path d="M693.37 469.945H704.338V464.811H693.37V469.945Z" fill="white"/>
<path d="M693.37 479.885H704.338V474.751H693.37V479.885Z" fill="white"/>
<path d="M693.37 489.816H704.338V484.683H693.37V489.816Z" fill="white"/>
<path d="M693.37 499.752H704.338V494.618H693.37V499.752Z" fill="white"/>
<path d="M693.37 509.691H704.338V504.558H693.37V509.691Z" fill="white"/>
<path d="M693.37 519.615H704.338V514.481H693.37V519.615Z" fill="white"/>
<path d="M693.37 529.555H704.338V524.421H693.37V529.555Z" fill="white"/>
<path d="M693.37 539.49H704.338V534.356H693.37V539.49Z" fill="white"/>
<path d="M678.419 469.945H689.387V464.811H678.419V469.945Z" fill="white"/>
<path d="M678.419 479.885H689.387V474.751H678.419V479.885Z" fill="white"/>
<path d="M678.419 489.816H689.387V484.683H678.419V489.816Z" fill="white"/>
<path d="M678.419 499.752H689.387V494.618H678.419V499.752Z" fill="white"/>
<path d="M678.419 509.691H689.387V504.558H678.419V509.691Z" fill="white"/>
<path d="M678.419 519.615H689.387V514.481H678.419V519.615Z" fill="white"/>
<path d="M678.419 529.555H689.387V524.421H678.419V529.555Z" fill="white"/>
<path d="M678.419 539.49H689.387V534.356H678.419V539.49Z" fill="white"/>
<path d="M764.81 372.434H776.244V364.366H764.81V372.434Z" fill="white"/>
<path d="M747.737 372.434H759.172V364.366H747.737V372.434Z" fill="white"/>
<path d="M764.81 384.27H776.244V376.202H764.81V384.27Z" fill="white"/>
<path d="M747.737 384.27H759.172V376.202H747.737V384.27Z" fill="white"/>
<path d="M764.81 396.168H776.244V388.101H764.81V396.168Z" fill="white"/>
<path d="M747.737 396.168H759.172V388.101H747.737V396.168Z" fill="white"/>
<path d="M764.81 408.033H776.244V399.966H764.81V408.033Z" fill="white"/>
<path d="M747.737 408.033H759.172V399.966H747.737V408.033Z" fill="white"/>
<path d="M764.81 419.869H776.244V411.802H764.81V419.869Z" fill="white"/>
<path d="M747.737 419.869H759.172V411.802H747.737V419.869Z" fill="white"/>
<path d="M764.81 431.742H776.244V423.675H764.81V431.742Z" fill="white"/>
<path d="M747.737 431.742H759.172V423.675H747.737V431.742Z" fill="white"/>
<path d="M764.81 443.604H776.244V435.536H764.81V443.604Z" fill="white"/>
<path d="M747.737 443.604H759.172V435.536H747.737V443.604Z" fill="white"/>
<path d="M764.81 455.475H776.244V447.407H764.81V455.475Z" fill="white"/>
<path d="M747.737 455.475H759.172V447.407H747.737V455.475Z" fill="white"/>
<path d="M726.571 459.775H738.006V451.708H726.571V459.775Z" fill="white"/>
<path d="M726.571 471.611H738.006V463.544H726.571V471.611Z" fill="white"/>
<path d="M726.571 483.473H738.006V475.405H726.571V483.473Z" fill="white"/>
<path d="M726.571 495.346H738.006V487.278H726.571V495.346Z" fill="white"/>
<path d="M726.571 507.211H738.006V499.144H726.571V507.211Z" fill="white"/>
<path d="M726.571 519.084H738.006V511.017H726.571V519.084Z" fill="white"/>
<path d="M764.806 467.176H776.24V459.108H764.806V467.176Z" fill="white"/>
<path d="M747.735 467.176H759.17V459.108H747.735V467.176Z" fill="white"/>
<path d="M726.571 530.783H738.006V522.716H726.571V530.783Z" fill="white"/>
<path d="M764.806 478.908H776.24V470.841H764.806V478.908Z" fill="white"/>
<path d="M747.735 478.908H759.17V470.841H747.735V478.908Z" fill="white"/>
<path d="M726.571 542.516H738.006V534.448H726.571V542.516Z" fill="white"/>
<path d="M764.806 490.611H776.24V482.544H764.806V490.611Z" fill="white"/>
<path d="M747.735 490.611H759.17V482.544H747.735V490.611Z" fill="white"/>
<path d="M726.571 554.219H738.006V546.151H726.571V554.219Z" fill="white"/>
<path d="M764.806 502.344H776.24V494.276H764.806V502.344Z" fill="white"/>
<path d="M747.735 502.344H759.17V494.276H747.735V502.344Z" fill="white"/>
<path d="M764.806 514.047H776.24V505.979H764.806V514.047Z" fill="white"/>
<path d="M747.735 514.047H759.17V505.979H747.735V514.047Z" fill="white"/>
<path d="M623.284 446.574H629.451V439.507H623.284V446.574Z" fill="white"/>
<path d="M612.577 446.574H618.744V439.507H612.577V446.574Z" fill="white"/>
<path d="M623.284 457.178H629.451V450.11H623.284V457.178Z" fill="white"/>
<path d="M612.577 457.178H618.744V450.11H612.577V457.178Z" fill="white"/>
<path d="M623.284 467.838H629.451V460.771H623.284V467.838Z" fill="white"/>
<path d="M612.577 467.838H618.744V460.771H612.577V467.838Z" fill="white"/>
<path d="M623.284 478.479H629.451V471.411H623.284V478.479Z" fill="white"/>
<path d="M612.577 478.479H618.744V471.411H612.577V478.479Z" fill="white"/>
<path d="M623.284 489.381H629.451V482.313H623.284V489.381Z" fill="white"/>
<path d="M612.577 489.381H618.744V482.313H612.577V489.381Z" fill="white"/>
<path d="M623.284 500.312H629.451V493.245H623.284V500.312Z" fill="white"/>
<path d="M612.577 500.312H618.744V493.245H612.577V500.312Z" fill="white"/>
<path d="M623.284 511.215H629.451V504.147H623.284V511.215Z" fill="white"/>
<path d="M612.577 511.215H618.744V504.147H612.577V511.215Z" fill="white"/>
<path d="M623.284 522.119H629.451V515.052H623.284V522.119Z" fill="white"/>
<path d="M612.577 522.119H618.744V515.052H612.577V522.119Z" fill="white"/>
<path d="M623.284 533.113H629.451V526.046H623.284V533.113Z" fill="white"/>
<path d="M612.577 533.113H618.744V526.046H612.577V533.113Z" fill="white"/>
<path d="M623.284 544.119H629.451V537.052H623.284V544.119Z" fill="white"/>
<path d="M612.577 544.119H618.744V537.052H612.577V544.119Z" fill="white"/>
<path d="M623.284 555.152H629.451V548.085H623.284V555.152Z" fill="white"/>
<path d="M612.577 555.152H618.744V548.085H612.577V555.152Z" fill="white"/>
<path d="M472.469 385.373H478.637V377.039H472.469V385.373Z" fill="white"/>
<path d="M461.762 385.373H467.93V377.039H461.762V385.373Z" fill="white"/>
<path d="M472.469 397.904H478.637V389.57H472.469V397.904Z" fill="white"/>
<path d="M461.762 397.904H467.93V389.57H461.762V397.904Z" fill="white"/>
<path d="M472.469 410.438H478.637V402.103H472.469V410.438Z" fill="white"/>
<path d="M461.762 410.438H467.93V402.103H461.762V410.438Z" fill="white"/>
<path d="M472.469 422.973H478.637V414.638H472.469V422.973Z" fill="white"/>
<path d="M461.762 422.973H467.93V414.638H461.762V422.973Z" fill="white"/>
<path d="M472.469 435.84H478.637V427.506H472.469V435.84Z" fill="white"/>
<path d="M461.762 435.84H467.93V427.506H461.762V435.84Z" fill="white"/>
<path d="M472.469 448.672H478.637V440.338H472.469V448.672Z" fill="white"/>
<path d="M461.762 448.672H467.93V440.338H461.762V448.672Z" fill="white"/>
<path d="M472.469 461.508H478.637V453.174H472.469V461.508Z" fill="white"/>
<path d="M461.762 461.508H467.93V453.174H461.762V461.508Z" fill="white"/>
<path d="M472.469 474.344H478.637V466.01H472.469V474.344Z" fill="white"/>
<path d="M461.762 474.344H467.93V466.01H461.762V474.344Z" fill="white"/>
<path d="M472.469 487.348H478.637V479.013H472.469V487.348Z" fill="white"/>
<path d="M461.762 487.348H467.93V479.013H461.762V487.348Z" fill="white"/>
<path d="M472.469 500.342H478.637V492.008H472.469V500.342Z" fill="white"/>
<path d="M461.762 500.342H467.93V492.008H461.762V500.342Z" fill="white"/>
<path d="M472.469 513.312H478.637V504.978H472.469V513.312Z" fill="white"/>
<path d="M461.762 513.312H467.93V504.978H461.762V513.312Z" fill="white"/>
<path d="M472.469 526.285H478.637V517.951H472.469V526.285Z" fill="white"/>
<path d="M461.762 526.285H467.93V517.951H461.762V526.285Z" fill="white"/>
<path d="M600.413 446.574H606.58V439.507H600.413V446.574Z" fill="white"/>
<path d="M589.68 446.574H595.848V439.507H589.68V446.574Z" fill="white"/>
<path d="M600.413 435.672H606.58V428.605H600.413V435.672Z" fill="white"/>
<path d="M589.68 435.672H595.848V428.605H589.68V435.672Z" fill="white"/>
<path d="M600.413 424.736H606.58V417.669H600.413V424.736Z" fill="white"/>
<path d="M589.68 424.736H595.848V417.669H589.68V424.736Z" fill="white"/>
<path d="M600.413 457.178H606.58V450.11H600.413V457.178Z" fill="white"/>
<path d="M589.68 457.178H595.848V450.11H589.68V457.178Z" fill="white"/>
<path d="M600.413 467.838H606.58V460.771H600.413V467.838Z" fill="white"/>
<path d="M589.68 467.838H595.848V460.771H589.68V467.838Z" fill="white"/>
<path d="M600.413 478.479H606.58V471.411H600.413V478.479Z" fill="white"/>
<path d="M589.68 478.479H595.848V471.411H589.68V478.479Z" fill="white"/>
<path d="M600.413 489.381H606.58V482.313H600.413V489.381Z" fill="white"/>
<path d="M589.68 489.381H595.848V482.313H589.68V489.381Z" fill="white"/>
<path d="M600.413 500.312H606.58V493.245H600.413V500.312Z" fill="white"/>
<path d="M589.68 500.312H595.848V493.245H589.68V500.312Z" fill="white"/>
<path d="M600.413 511.215H606.58V504.147H600.413V511.215Z" fill="white"/>
<path d="M589.68 511.215H595.848V504.147H589.68V511.215Z" fill="white"/>
<path d="M600.413 522.119H606.58V515.052H600.413V522.119Z" fill="white"/>
<path d="M589.68 522.119H595.848V515.052H589.68V522.119Z" fill="white"/>
<path d="M600.413 533.113H606.58V526.046H600.413V533.113Z" fill="white"/>
<path d="M589.68 533.113H595.848V526.046H589.68V533.113Z" fill="white"/>
<path d="M600.413 544.119H606.58V537.052H600.413V544.119Z" fill="white"/>
<path d="M589.68 544.119H595.848V537.052H589.68V544.119Z" fill="white"/>
<path d="M600.413 555.152H606.58V548.085H600.413V555.152Z" fill="white"/>
<path d="M589.68 555.152H595.848V548.085H589.68V555.152Z" fill="white"/>
<path d="M724 279.842V227.221L732.807 219V279.842H724Z" fill="#CCCCCC"/>
<path opacity="0.6" d="M724 279.842V227.221L732.807 219V279.842H724Z" fill="#CCCCCC"/>
<path d="M713.141 351.06L721.878 352.738L724.191 284.469C724.191 284.469 716.854 294.824 715.156 297.505L713.141 351.05V351.06Z" fill="#CCCCCC"/>
<path opacity="0.6" d="M713.141 351.06L721.878 352.738L724.191 284.469C724.191 284.469 716.854 294.824 715.156 297.505L713.141 351.05V351.06Z" fill="white"/>
<path d="M732.998 271.074V572.009H714.392L723.893 293.91C723.893 293.91 607.689 382.711 637.654 572.009H620.11C579.919 374.182 732.998 271.074 732.998 271.074Z" fill="#E6E6E6"/>
<path opacity="0.6" d="M732.998 271.074V572.009H714.392L723.893 293.91C723.893 293.91 607.689 382.711 637.654 572.009H620.11C579.919 374.182 732.998 271.074 732.998 271.074Z" fill="#CCCCCC"/>
<path d="M732.999 282.098V572.012H714.393L723.894 293.913C723.894 293.913 723.825 293.962 723.696 294.062C726.654 290.021 729.752 286.029 732.999 282.098Z" fill="#FFC829"/>
<path d="M732.999 282.098V572.012H714.393L723.894 293.913C723.894 293.913 723.825 293.962 723.696 294.062C726.654 290.021 729.752 286.029 732.999 282.098Z" fill="#CCCCCC"/>
<path d="M714.391 572.011L721.877 352.749L687.712 346.176L677.496 348.469C677.496 348.469 613.169 434.61 637.653 572.011H714.4H714.391Z" fill="#F2F2F2"/>
<path d="M721.611 360.714L721.333 369.004L684.915 363.682L667.629 364.427C669.466 361.101 671.134 358.271 672.544 355.968L685.332 355.422L721.611 360.714Z" fill="#E6E6E6"/>
<path d="M720.945 380.044L720.667 388.334L680.327 382.446L658.236 383.399C659.567 380.411 660.877 377.601 662.158 374.98L680.754 374.176L720.945 380.044Z" fill="#E6E6E6"/>
<path d="M720.22 401.38L719.932 409.67L671.957 402.671L650.154 403.614C651.187 400.715 652.239 397.915 653.292 395.234L672.384 394.41L720.23 401.39L720.22 401.38Z" fill="#E6E6E6"/>
<path d="M719.506 422.222L719.228 430.513L667.083 422.897L643.721 423.9C644.525 421.041 645.339 418.261 646.183 415.55L667.51 414.627L719.515 422.222H719.506Z" fill="#E6E6E6"/>
<path d="M718.843 441.79L718.555 450.08L662.627 441.919L639.047 442.932C639.643 440.092 640.278 437.322 640.933 434.602L663.044 433.648L663.431 433.708L718.833 441.8L718.843 441.79Z" fill="#E6E6E6"/>
<path d="M718.107 463.404L717.829 471.695L659.876 463.226L635.303 464.288C635.7 461.478 636.127 458.708 636.583 455.978L660.303 454.955L718.117 463.394L718.107 463.404Z" fill="#E6E6E6"/>
<path d="M717.433 483.263L717.145 491.553L658.616 483.005L633.119 484.107C633.338 481.307 633.596 478.547 633.874 475.827L659.043 474.734L659.43 474.794L717.433 483.263Z" fill="#E6E6E6"/>
<path d="M716.758 502.961L716.48 511.251L658.546 502.792L632.156 503.934C632.206 501.144 632.295 498.394 632.414 495.673L658.973 494.521L716.768 502.961H716.758Z" fill="#E6E6E6"/>
<path d="M716.181 519.928L715.893 528.189L658.664 521.149L632.304 522.281C632.205 519.511 632.145 516.761 632.115 514.041L658.992 512.879L716.181 519.918V519.928Z" fill="#E6E6E6"/>
<path d="M715.624 536.13L715.346 544.391L660.48 538.573L633.385 539.744C633.147 536.984 632.938 534.234 632.77 531.524L660.738 530.322L661.046 530.352L715.633 536.14L715.624 536.13Z" fill="#E6E6E6"/>
<path d="M715.099 551.482L714.811 559.723L660.561 556.407L635.363 557.499C634.985 554.739 634.638 552.009 634.33 549.298L660.641 548.156L660.859 548.176L715.099 551.492V551.482Z" fill="#E6E6E6"/>
<path d="M721.877 352.738L718.173 352.033L704.283 572.011H714.391L721.877 352.738Z" fill="#E6E6E6"/>
<path d="M668.204 572.01C668.204 572.01 632.173 404.515 732.998 282.096C732.998 282.096 621.43 365.168 656.508 572.01H668.204Z" fill="#E6E6E6"/>
<path opacity="0.6" d="M668.204 572.01C668.204 572.01 632.173 404.515 732.998 282.096C732.998 282.096 621.43 365.168 656.508 572.01H668.204Z" fill="white"/>
<path d="M721.201 372.585L721.409 366.459L684.604 357.771L682.072 364.493L721.201 372.585Z" fill="#E6E6E6"/>
<path d="M718.759 444.111L719.027 436.248L666.148 427.113L665.234 435.612L718.759 444.111Z" fill="#E6E6E6"/>
<path d="M716.347 514.823L716.606 507.138L660.668 501.111V508.975L716.347 514.823Z" fill="#E6E6E6"/>
<path d="M662.654 509.182L714.392 572.01L714.501 568.713L665.524 509.48L662.654 509.182Z" fill="#E6E6E6"/>
<path d="M714.392 572.01H712.307L661.502 509.698L662.654 509.182L714.392 572.01Z" fill="#E6E6E6"/>
<path opacity="0.6" d="M714.392 572.01H712.307L661.502 509.698L662.654 509.182L714.392 572.01Z" fill="white"/>
<path d="M667.877 436.029L716.606 507.138L716.815 501.111L672.116 436.704L667.877 436.029Z" fill="#E6E6E6"/>
<path d="M667.876 436.028L666.158 435.76L715.136 506.977L716.605 507.136L667.876 436.028Z" fill="#E6E6E6"/>
<path opacity="0.6" d="M667.876 436.028L666.158 435.76L715.136 506.977L716.605 507.136L667.876 436.028Z" fill="white"/>
<path d="M719.028 436.247L685.162 365.129L687.773 365.685L719.326 431.134L719.028 436.247Z" fill="#E6E6E6"/>
<path d="M685.162 365.129L719.028 436.247L717.688 436.019L684.695 366.32L685.162 365.129Z" fill="#E6E6E6"/>
<path opacity="0.6" d="M685.162 365.129L719.028 436.247L717.688 436.019L684.695 366.32L685.162 365.129Z" fill="white"/>
<path d="M723.694 294.07C634.664 415.536 670.755 572.01 670.755 572.01H662.842C636.859 418.822 688.249 336.405 716.188 300.642C725.978 288.112 732.997 282.096 732.997 282.096C729.75 286.037 726.653 290.029 723.694 294.06V294.07Z" fill="#E6E6E6"/>
<path d="M663.535 357.312H655.98C655.98 357.312 652.326 350.918 649.397 349.577C646.478 348.237 642.457 347.75 642.457 346.162C642.457 344.573 656.099 341.287 674.01 344.821L663.535 357.312Z" fill="#E6E6E6"/>
<path opacity="0.1" d="M663.535 357.312H655.98C655.98 357.312 652.326 350.918 649.397 349.577C646.478 348.237 642.457 347.75 642.457 346.162C642.457 344.573 656.099 341.287 674.01 344.821L663.535 357.312Z" fill="#010101"/>
<path d="M455.493 55.2188H458.165L458.823 55.8569V108.03H452.92V59.8656L454.097 58.4696H455.493V55.2188Z" fill="#FF816E"/>
<path d="M455.193 82.9375H460.059L461.256 84.0942V179.365H450.486V91.4534L452.64 88.8608H455.193V82.9375Z" fill="#FF4E33"/>
<path d="M456.989 126.418H448.892L446.918 128.333V540.827H464.827V140.558L461.257 136.27H456.989V126.418Z" fill="#FF816E"/>
<path d="M468.355 166.503V540.825H445.619V166.503L456.987 157.289L468.355 166.503Z" fill="#FF4E33"/>
<path d="M468.355 183.714V540.825H445.619V183.714L456.987 174.48L468.355 183.714Z" fill="#FF816E"/>
<path d="M477.374 540.823V217.178L461.26 209.34V540.823H477.374Z" fill="#FF4E33"/>
<path d="M477.374 213.248V217.176L461.26 209.339V205.43L477.374 213.248Z" fill="#FF4E33"/>
<path d="M437.342 540.827V186.228L453.456 178.391V540.827H437.342Z" fill="#FF4E33"/>
<path d="M437.342 182.318V186.227L453.456 178.389V174.48L437.342 182.318Z" fill="#FF4E33"/>
<path d="M537.68 552.432H382V571.777H537.68V552.432Z" fill="#FF816E"/>
<path d="M530.661 546.627H389.021V552.431H530.661V546.627Z" fill="#FF4E33"/>
<path d="M516.876 540.822H402.799V546.626H516.876V540.822Z" fill="#FF816E"/>
<path d="M419.692 536.857H404.096V540.826H419.692V536.857Z" fill="#FF816E"/>
<path d="M448.414 540.827V280.682L432.818 281.32V540.827H448.414Z" fill="#FF816E"/>
<path d="M448.414 277.689V280.681L432.818 281.339V278.328L448.414 277.689Z" fill="#FF4E33"/>
<path d="M425.52 540.822V368.708L448.415 367.631V540.822H425.52Z" fill="#FF4E33"/>
<path d="M425.52 364.641V368.69L448.415 367.633V363.584L425.52 364.641Z" fill="#FF4E33"/>
<path d="M416.686 540.824V451.477L434.376 450.52V540.824H416.686Z" fill="#FF816E"/>
<path d="M416.686 448.906V451.459L434.376 450.522V447.969L416.686 448.906Z" fill="#FF4E33"/>
<path d="M457.425 31.1855H455.869V55.2176H457.425V31.1855Z" fill="#FF816E"/>
<path d="M467.639 540.824V307.164L487.104 308.939V540.824H467.639Z" fill="#FF816E"/>
<path d="M487.084 306.388V308.941L467.639 307.166V304.613L487.084 306.388Z" fill="#FF4E33"/>
<path d="M477.371 540.825V393.361L492.508 394.658V540.825H477.371Z" fill="#FF4E33"/>
<path d="M492.508 391.745V394.657L477.371 393.361V390.369L492.508 391.745Z" fill="#FF4E33"/>
<path d="M482.773 540.825V470.623L502.238 472.398V540.825H482.773Z" fill="#FF816E"/>
<path d="M502.238 469.845V472.398L482.773 470.623V468.09L502.238 469.845Z" fill="#FF4E33"/>
<path d="M446.916 128.711C449.309 128.612 451.703 128.612 454.096 128.592C456.489 128.592 458.882 128.612 461.275 128.711C458.882 128.811 456.489 128.811 454.096 128.831C451.703 128.831 449.309 128.811 446.916 128.711Z" fill="#FF4E33"/>
<path d="M446.916 134.014C449.309 133.914 451.703 133.914 454.096 133.895C456.489 133.895 458.882 133.914 461.275 134.014C458.882 134.114 456.489 134.114 454.096 134.134C451.703 134.134 449.309 134.114 446.916 134.014Z" fill="#FF4E33"/>
<path d="M446.916 139.323C449.728 139.223 452.54 139.243 455.352 139.203C458.164 139.243 460.976 139.203 463.788 139.323C460.976 139.423 458.164 139.403 455.352 139.442C452.54 139.403 449.728 139.442 446.916 139.323Z" fill="#FF4E33"/>
<path d="M446.916 144.626C449.908 144.526 452.879 144.546 455.871 144.506C458.862 144.546 461.834 144.506 464.825 144.626C461.834 144.725 458.862 144.705 455.871 144.745C452.879 144.705 449.908 144.745 446.916 144.626Z" fill="#FF4E33"/>
<path d="M446.916 149.934C449.908 149.834 452.879 149.854 455.871 149.814C458.862 149.854 461.834 149.814 464.825 149.934C461.834 150.034 458.862 150.014 455.871 150.054C452.879 150.014 449.908 150.054 446.916 149.934Z" fill="#FF4E33"/>
<path d="M446.916 155.237C449.908 155.137 452.879 155.157 455.871 155.117C458.862 155.157 461.834 155.117 464.825 155.237C461.834 155.337 458.862 155.317 455.871 155.357C452.879 155.317 449.908 155.357 446.916 155.237Z" fill="#FF4E33"/>
<path d="M446.916 160.543C449.908 160.444 452.879 160.464 455.871 160.424C458.862 160.464 461.834 160.424 464.825 160.543C461.834 160.643 458.862 160.623 455.871 160.663C452.879 160.623 449.908 160.663 446.916 160.543Z" fill="#FF4E33"/>
<path d="M446.42 165.844C449.95 165.745 453.46 165.764 456.99 165.725C460.52 165.764 464.03 165.725 467.56 165.844C464.03 165.944 460.52 165.924 456.99 165.964C453.46 165.924 449.95 165.964 446.42 165.844Z" fill="#FF4E33"/>
<path d="M445.619 171.151C449.408 171.051 453.198 171.071 456.987 171.031C460.776 171.071 464.566 171.031 468.355 171.151C464.566 171.251 460.776 171.231 456.987 171.271C453.198 171.231 449.408 171.271 445.619 171.151Z" fill="#FF4E33"/>
<path d="M445.619 176.473C449.408 176.373 453.198 176.393 456.987 176.354C460.776 176.393 464.566 176.354 468.355 176.473C464.566 176.573 460.776 176.553 456.987 176.593C453.198 176.553 449.408 176.593 445.619 176.473Z" fill="#FF4E33"/>
<path d="M445.619 181.782C449.408 181.682 453.198 181.702 456.987 181.662C460.776 181.702 464.566 181.662 468.355 181.782C464.566 181.882 460.776 181.862 456.987 181.901C453.198 181.862 449.408 181.901 445.619 181.782Z" fill="#FF4E33"/>
<path d="M437.342 187.085C442.507 186.985 447.673 187.005 452.838 186.965C458.003 187.005 463.169 186.965 468.334 187.085C463.169 187.184 458.003 187.164 452.838 187.204C447.673 187.164 442.507 187.204 437.342 187.085Z" fill="#FF4E33"/>
<path d="M437.342 192.393C442.507 192.293 447.673 192.313 452.838 192.273C458.003 192.313 463.169 192.273 468.334 192.393C463.169 192.493 458.003 192.473 452.838 192.513C447.673 192.473 442.507 192.513 437.342 192.393Z" fill="#FF4E33"/>
<path d="M437.342 197.696C442.507 197.596 447.673 197.616 452.838 197.576C458.003 197.616 463.169 197.576 468.334 197.696C463.169 197.796 458.003 197.776 452.838 197.815C447.673 197.776 442.507 197.815 437.342 197.696Z" fill="#FF4E33"/>
<path d="M437.342 202.999C442.507 202.899 447.673 202.919 452.838 202.879C458.003 202.919 463.169 202.879 468.334 202.999C463.169 203.098 458.003 203.078 452.838 203.118C447.673 203.078 442.507 203.118 437.342 202.999Z" fill="#FF4E33"/>
<path d="M437.342 208.307C442.507 208.207 447.673 208.227 452.838 208.188C458.003 208.227 463.169 208.187 468.334 208.307C463.169 208.407 458.003 208.387 452.838 208.427C447.673 208.387 442.507 208.427 437.342 208.307Z" fill="#FF4E33"/>
<path d="M437.342 213.631C442.786 213.532 448.251 213.552 453.696 213.512C459.14 213.552 464.605 213.512 470.049 213.631C464.605 213.731 459.14 213.711 453.696 213.751C448.251 213.711 442.786 213.751 437.342 213.631Z" fill="#FF4E33"/>
<path d="M437.342 218.917C444.003 218.817 450.684 218.837 457.345 218.797C464.006 218.837 470.688 218.797 477.349 218.917C470.688 219.016 464.006 218.996 457.345 219.036C450.684 218.996 444.003 219.036 437.342 218.917Z" fill="#FF4E33"/>
<path d="M437.342 224.243C444.003 224.143 450.684 224.163 457.345 224.123C464.006 224.163 470.688 224.123 477.349 224.243C470.688 224.342 464.006 224.322 457.345 224.362C450.684 224.322 444.003 224.362 437.342 224.243Z" fill="#FF4E33"/>
<path d="M437.342 229.547C444.003 229.448 450.684 229.468 457.345 229.428C464.006 229.468 470.688 229.428 477.349 229.547C470.688 229.647 464.006 229.627 457.345 229.667C450.684 229.627 444.003 229.667 437.342 229.547Z" fill="#FF4E33"/>
<path d="M437.342 234.854C444.003 234.754 450.684 234.774 457.345 234.734C464.006 234.774 470.688 234.734 477.349 234.854C470.688 234.954 464.006 234.934 457.345 234.974C450.684 234.934 444.003 234.974 437.342 234.854Z" fill="#FF4E33"/>
<path d="M437.342 240.157C444.003 240.057 450.684 240.077 457.345 240.037C464.006 240.077 470.688 240.037 477.349 240.157C470.688 240.256 464.006 240.237 457.345 240.276C450.684 240.237 444.003 240.276 437.342 240.157Z" fill="#FF4E33"/>
<path d="M437.342 245.458C444.003 245.358 450.684 245.378 457.345 245.338C464.006 245.378 470.688 245.338 477.349 245.458C470.688 245.557 464.006 245.537 457.345 245.577C450.684 245.537 444.003 245.577 437.342 245.458Z" fill="#FF4E33"/>
<path d="M437.342 250.766C444.003 250.666 450.684 250.686 457.345 250.646C464.006 250.686 470.688 250.646 477.349 250.766C470.688 250.866 464.006 250.846 457.345 250.886C450.684 250.846 444.003 250.886 437.342 250.766Z" fill="#FF4E33"/>
<path d="M437.342 256.069C444.003 255.969 450.684 255.989 457.345 255.949C464.006 255.989 470.688 255.949 477.349 256.069C470.688 256.169 464.006 256.149 457.345 256.189C450.684 256.149 444.003 256.189 437.342 256.069Z" fill="#FF4E33"/>
<path d="M437.342 261.395C444.003 261.295 450.684 261.315 457.345 261.275C464.006 261.315 470.688 261.275 477.349 261.395C470.688 261.495 464.006 261.475 457.345 261.515C450.684 261.475 444.003 261.515 437.342 261.395Z" fill="#FF4E33"/>
<path d="M437.342 266.702C444.003 266.602 450.684 266.622 457.345 266.582C464.006 266.622 470.688 266.582 477.349 266.702C470.688 266.801 464.006 266.781 457.345 266.821C450.684 266.781 444.003 266.821 437.342 266.702Z" fill="#FF4E33"/>
<path d="M437.342 272.006C444.003 271.907 450.684 271.927 457.345 271.887C464.006 271.927 470.688 271.887 477.349 272.006C470.688 272.106 464.006 272.086 457.345 272.126C450.684 272.086 444.003 272.126 437.342 272.006Z" fill="#FF4E33"/>
<path d="M437.342 277.309C444.003 277.209 450.684 277.229 457.345 277.189C464.006 277.229 470.688 277.189 477.349 277.309C470.688 277.409 464.006 277.389 457.345 277.429C450.684 277.389 444.003 277.429 437.342 277.309Z" fill="#FF4E33"/>
<path d="M432.836 282.616C440.255 282.516 447.674 282.536 455.093 282.496C462.512 282.536 469.931 282.496 477.35 282.616C469.931 282.715 462.512 282.696 455.093 282.735C447.674 282.696 440.255 282.735 432.836 282.616Z" fill="#FF4E33"/>
<path d="M432.836 287.922C440.255 287.823 447.674 287.843 455.093 287.803C462.512 287.843 469.931 287.803 477.35 287.922C469.931 288.022 462.512 288.002 455.093 288.042C447.674 288.002 440.255 288.042 432.836 287.922Z" fill="#FF4E33"/>
<path d="M432.836 293.227C440.255 293.127 447.674 293.147 455.093 293.107C462.512 293.147 469.931 293.107 477.35 293.227C469.931 293.327 462.512 293.307 455.093 293.347C447.674 293.307 440.255 293.347 432.836 293.227Z" fill="#FF4E33"/>
<path d="M432.836 298.534C440.255 298.434 447.674 298.454 455.093 298.414C462.512 298.454 469.931 298.414 477.35 298.534C469.931 298.633 462.512 298.613 455.093 298.653C447.674 298.613 440.255 298.653 432.836 298.534Z" fill="#FF4E33"/>
<path d="M432.836 303.838C440.255 303.739 447.674 303.759 455.093 303.719C462.512 303.759 469.931 303.719 477.35 303.838C469.931 303.938 462.512 303.918 455.093 303.958C447.674 303.918 440.255 303.958 432.836 303.838Z" fill="#FF4E33"/>
<path d="M432.836 309.141C441.87 309.041 450.925 309.061 459.959 309.021C468.994 309.061 478.048 309.022 487.083 309.141C478.048 309.241 468.994 309.221 459.959 309.261C450.925 309.221 441.87 309.261 432.836 309.141Z" fill="#FF4E33"/>
<path d="M432.836 314.467C441.87 314.368 450.925 314.388 459.959 314.348C468.994 314.388 478.048 314.348 487.083 314.467C478.048 314.567 468.994 314.547 459.959 314.587C450.925 314.547 441.87 314.587 432.836 314.467Z" fill="#FF4E33"/>
<path d="M432.836 319.772C441.87 319.672 450.925 319.692 459.959 319.652C468.994 319.692 478.048 319.652 487.083 319.772C478.048 319.872 468.994 319.852 459.959 319.892C450.925 319.852 441.87 319.892 432.836 319.772Z" fill="#FF4E33"/>
<path d="M432.836 325.079C441.87 324.979 450.925 324.999 459.959 324.959C468.994 324.999 478.048 324.959 487.083 325.079C478.048 325.178 468.994 325.158 459.959 325.198C450.925 325.158 441.87 325.198 432.836 325.079Z" fill="#FF4E33"/>
<path d="M432.836 330.379C441.87 330.28 450.925 330.3 459.959 330.26C468.994 330.3 478.048 330.26 487.083 330.379C478.048 330.479 468.994 330.459 459.959 330.499C450.925 330.459 441.87 330.499 432.836 330.379Z" fill="#FF4E33"/>
<path d="M432.836 335.686C441.87 335.586 450.925 335.606 459.959 335.566C468.994 335.606 478.048 335.566 487.083 335.686C478.048 335.786 468.994 335.766 459.959 335.806C450.925 335.766 441.87 335.806 432.836 335.686Z" fill="#FF4E33"/>
<path d="M432.836 340.991C441.87 340.891 450.925 340.911 459.959 340.871C468.994 340.911 478.048 340.871 487.083 340.991C478.048 341.09 468.994 341.071 459.959 341.11C450.925 341.071 441.87 341.11 432.836 340.991Z" fill="#FF4E33"/>
<path d="M432.836 346.297C441.87 346.198 450.925 346.218 459.959 346.178C468.994 346.218 478.048 346.178 487.083 346.297C478.048 346.397 468.994 346.377 459.959 346.417C450.925 346.377 441.87 346.417 432.836 346.297Z" fill="#FF4E33"/>
<path d="M432.836 351.62C441.87 351.52 450.925 351.54 459.959 351.5C468.994 351.54 478.048 351.5 487.083 351.62C478.048 351.719 468.994 351.699 459.959 351.739C450.925 351.699 441.87 351.739 432.836 351.62Z" fill="#FF4E33"/>
<path d="M432.836 356.907C441.87 356.807 450.925 356.827 459.959 356.787C468.994 356.827 478.048 356.787 487.083 356.907C478.048 357.006 468.994 356.987 459.959 357.026C450.925 356.987 441.87 357.026 432.836 356.907Z" fill="#FF4E33"/>
<path d="M432.836 362.229C441.87 362.129 450.925 362.149 459.959 362.109C468.994 362.149 478.048 362.109 487.083 362.229C478.048 362.329 468.994 362.309 459.959 362.349C450.925 362.309 441.87 362.349 432.836 362.229Z" fill="#FF4E33"/>
<path d="M450.326 367.535L448.432 367.575V367.495L458.104 367.436H467.777C474.219 367.455 480.661 367.436 487.122 367.535C480.681 367.615 474.239 367.615 467.777 367.635H458.104L448.432 367.575V367.495L450.326 367.535Z" fill="#FF4E33"/>
<path d="M425.516 372.84C435.767 372.741 446.038 372.761 456.289 372.721C466.54 372.761 476.811 372.721 487.062 372.84C476.811 372.94 466.54 372.92 456.289 372.96C446.038 372.92 435.767 372.96 425.516 372.84Z" fill="#FF4E33"/>
<path d="M425.516 378.149C435.767 378.049 446.038 378.069 456.289 378.029C466.54 378.069 476.811 378.029 487.062 378.149C476.811 378.249 466.54 378.229 456.289 378.269C446.038 378.229 435.767 378.269 425.516 378.149Z" fill="#FF4E33"/>
<path d="M425.516 383.452C435.767 383.352 446.038 383.372 456.289 383.332C466.54 383.372 476.811 383.332 487.062 383.452C476.811 383.551 466.54 383.531 456.289 383.571C446.038 383.531 435.767 383.571 425.516 383.452Z" fill="#FF4E33"/>
<path d="M425.516 388.756C435.767 388.657 446.038 388.677 456.289 388.637C466.54 388.677 476.811 388.637 487.062 388.756C476.811 388.856 466.54 388.836 456.289 388.876C446.038 388.836 435.767 388.876 425.516 388.756Z" fill="#FF4E33"/>
<path d="M425.516 394.065C435.767 393.965 446.038 393.985 456.289 393.945C466.54 393.985 476.811 393.945 487.062 394.065C476.811 394.165 466.54 394.145 456.289 394.185C446.038 394.145 435.767 394.185 425.516 394.065Z" fill="#FF4E33"/>
<path d="M425.516 399.368C436.684 399.268 447.852 399.288 459.001 399.248C470.169 399.288 481.338 399.248 492.486 399.368C481.318 399.467 470.149 399.447 459.001 399.487C447.833 399.447 436.664 399.487 425.516 399.368Z" fill="#FF4E33"/>
<path d="M425.516 404.694C436.684 404.594 447.852 404.614 459.001 404.574C470.169 404.614 481.338 404.574 492.486 404.694C481.318 404.794 470.149 404.774 459.001 404.814C447.833 404.774 436.664 404.814 425.516 404.694Z" fill="#FF4E33"/>
<path d="M425.516 409.997C436.684 409.897 447.852 409.917 459.001 409.877C470.169 409.917 481.338 409.877 492.486 409.997C481.318 410.096 470.149 410.076 459.001 410.116C447.833 410.076 436.664 410.116 425.516 409.997Z" fill="#FF4E33"/>
<path d="M425.516 415.299C436.684 415.2 447.852 415.22 459.001 415.18C470.169 415.22 481.338 415.18 492.486 415.299C481.318 415.399 470.149 415.379 459.001 415.419C447.833 415.379 436.664 415.419 425.516 415.299Z" fill="#FF4E33"/>
<path d="M425.516 420.606C436.684 420.506 447.852 420.526 459.001 420.486C470.169 420.526 481.338 420.486 492.486 420.606C481.318 420.706 470.149 420.686 459.001 420.726C447.833 420.686 436.664 420.726 425.516 420.606Z" fill="#FF4E33"/>
<path d="M425.516 425.911C436.684 425.811 447.852 425.831 459.001 425.791C470.169 425.831 481.338 425.791 492.486 425.911C481.318 426.01 470.149 425.99 459.001 426.03C447.833 425.99 436.664 426.03 425.516 425.911Z" fill="#FF4E33"/>
<path d="M425.516 431.213C436.684 431.114 447.852 431.134 459.001 431.094C470.169 431.134 481.338 431.094 492.486 431.213C481.318 431.313 470.149 431.293 459.001 431.333C447.833 431.293 436.664 431.333 425.516 431.213Z" fill="#FF4E33"/>
<path d="M425.516 436.522C436.684 436.422 447.852 436.442 459.001 436.402C470.169 436.442 481.338 436.402 492.486 436.522C481.318 436.622 470.149 436.602 459.001 436.642C447.833 436.602 436.664 436.642 425.516 436.522Z" fill="#FF4E33"/>
<path d="M425.516 441.846C436.684 441.747 447.852 441.766 459.001 441.727C470.169 441.766 481.338 441.727 492.486 441.846C481.318 441.946 470.149 441.926 459.001 441.966C447.833 441.926 436.664 441.966 425.516 441.846Z" fill="#FF4E33"/>
<path d="M425.516 447.133C436.684 447.034 447.852 447.054 459.001 447.014C470.169 447.054 481.338 447.014 492.486 447.133C481.318 447.233 470.149 447.213 459.001 447.253C447.833 447.213 436.664 447.253 425.516 447.133Z" fill="#FF4E33"/>
<path d="M416.682 452.458C429.326 452.358 441.95 452.378 454.595 452.338C467.239 452.378 479.863 452.338 492.507 452.458C479.863 452.557 467.239 452.537 454.595 452.577C441.95 452.537 429.326 452.577 416.682 452.458Z" fill="#FF4E33"/>
<path d="M416.682 457.762C429.326 457.663 441.95 457.682 454.595 457.643C467.239 457.682 479.863 457.643 492.507 457.762C479.863 457.862 467.239 457.842 454.595 457.882C441.95 457.842 429.326 457.882 416.682 457.762Z" fill="#FF4E33"/>
<path d="M416.682 463.067C429.326 462.967 441.95 462.987 454.595 462.947C467.239 462.987 479.863 462.947 492.507 463.067C479.863 463.167 467.239 463.147 454.595 463.187C441.95 463.147 429.326 463.187 416.682 463.067Z" fill="#FF4E33"/>
<path d="M416.682 468.372C429.326 468.272 441.95 468.292 454.595 468.252C467.239 468.292 479.863 468.252 492.507 468.372C479.863 468.471 467.239 468.451 454.595 468.491C441.95 468.451 429.326 468.491 416.682 468.372Z" fill="#FF4E33"/>
<path d="M416.682 473.678C430.941 473.579 445.201 473.598 459.461 473.559C473.72 473.598 487.98 473.559 502.24 473.678C487.98 473.778 473.72 473.758 459.461 473.798C445.201 473.758 430.941 473.798 416.682 473.678Z" fill="#FF4E33"/>
<path d="M416.682 478.983C430.941 478.883 445.201 478.903 459.461 478.863C473.72 478.903 487.98 478.863 502.24 478.983C487.98 479.083 473.72 479.063 459.461 479.103C445.201 479.063 430.941 479.103 416.682 478.983Z" fill="#FF4E33"/>
<path d="M416.682 484.284C430.941 484.184 445.201 484.204 459.461 484.164C473.72 484.204 487.98 484.164 502.24 484.284C487.98 484.383 473.72 484.363 459.461 484.403C445.201 484.363 430.941 484.403 416.682 484.284Z" fill="#FF4E33"/>
<path d="M416.682 489.612C430.941 489.512 445.201 489.532 459.461 489.492C473.72 489.532 487.98 489.492 502.24 489.612C487.98 489.712 473.72 489.692 459.461 489.732C445.201 489.692 430.941 489.732 416.682 489.612Z" fill="#FF4E33"/>
<path d="M416.682 494.895C430.941 494.795 445.201 494.815 459.461 494.775C473.72 494.815 487.98 494.775 502.24 494.895C487.98 494.995 473.72 494.975 459.461 495.015C445.201 494.975 430.941 495.015 416.682 494.895Z" fill="#FF4E33"/>
<path d="M416.682 500.221C430.941 500.122 445.201 500.141 459.461 500.102C473.72 500.141 487.98 500.102 502.24 500.221C487.98 500.321 473.72 500.301 459.461 500.341C445.201 500.301 430.941 500.341 416.682 500.221Z" fill="#FF4E33"/>
<path d="M416.682 505.524C430.941 505.424 445.201 505.444 459.461 505.404C473.72 505.444 487.98 505.404 502.24 505.524C487.98 505.624 473.72 505.604 459.461 505.644C445.201 505.604 430.941 505.644 416.682 505.524Z" fill="#FF4E33"/>
<path d="M416.682 510.831C430.941 510.731 445.201 510.751 459.461 510.711C473.72 510.751 487.98 510.711 502.24 510.831C487.98 510.93 473.72 510.91 459.461 510.95C445.201 510.91 430.941 510.95 416.682 510.831Z" fill="#FF4E33"/>
<path d="M416.682 516.137C430.941 516.038 445.201 516.057 459.461 516.018C473.72 516.057 487.98 516.018 502.24 516.137C487.98 516.237 473.72 516.217 459.461 516.257C445.201 516.217 430.941 516.257 416.682 516.137Z" fill="#FF4E33"/>
<path d="M416.682 521.442C430.941 521.342 445.201 521.362 459.461 521.322C473.72 521.362 487.98 521.322 502.24 521.442C487.98 521.542 473.72 521.522 459.461 521.562C445.201 521.522 430.941 521.562 416.682 521.442Z" fill="#FF4E33"/>
<path d="M416.682 526.749C430.941 526.649 445.201 526.669 459.461 526.629C473.72 526.669 487.98 526.629 502.24 526.749C487.98 526.848 473.72 526.828 459.461 526.868C445.201 526.828 430.941 526.868 416.682 526.749Z" fill="#FF4E33"/>
<path d="M416.682 532.051C430.941 531.952 445.201 531.972 459.461 531.932C473.72 531.972 487.98 531.932 502.24 532.051C487.98 532.151 473.72 532.131 459.461 532.171C445.201 532.131 430.941 532.171 416.682 532.051Z" fill="#FF4E33"/>
<path d="M416.682 537.356C430.941 537.256 445.201 537.276 459.461 537.236C473.72 537.276 487.98 537.236 502.24 537.356C487.98 537.456 473.72 537.436 459.461 537.476C445.201 537.436 430.941 537.476 416.682 537.356Z" fill="#FF4E33"/>
<path d="M492.506 430.836H425.516V438.793H492.506V430.836Z" fill="#FF816E"/>
<path d="M487.103 335.303H432.836V343.26H487.103V335.303Z" fill="#FF816E"/>
<path d="M477.349 246.793H437.342V254.75H477.349V246.793Z" fill="#FF816E"/>
<path d="M502.24 510.348H416.682V518.305H502.24V510.348Z" fill="#FF816E"/>
</g>
<defs>
<clipPath id="clip0_6093_6443">
<rect width="820" height="557" fill="white"/>
</clipPath>
<clipPath id="clip1_6093_6443">
<rect width="471" height="126" fill="white" transform="translate(188 43)"/>
</clipPath>
</defs>
</svg>
