<svg width="820" height="552" viewBox="0 0 820 552" fill="none" xmlns="http://www.w3.org/2000/svg">
<rect x="382.754" y="320.159" width="4.59733" height="231.705" fill="#181818"/>
<path d="M357.73 524.905C357.974 524.905 358.208 524.808 358.38 524.635C358.553 524.463 358.65 524.229 358.65 523.985C358.65 523.741 358.553 523.507 358.38 523.335C358.208 523.163 357.974 523.066 357.73 523.066H348.995V519.388H357.73C357.974 519.388 358.208 519.291 358.38 519.118C358.553 518.946 358.65 518.712 358.65 518.468C358.65 518.224 358.553 517.991 358.38 517.818C358.208 517.646 357.974 517.549 357.73 517.549H283.253C283.01 517.549 282.776 517.646 282.603 517.818C282.431 517.991 282.334 518.224 282.334 518.468C282.334 518.712 282.431 518.946 282.603 519.118C282.776 519.291 283.01 519.388 283.253 519.388H291.988V523.066H283.253C283.01 523.066 282.776 523.163 282.603 523.335C282.431 523.507 282.334 523.741 282.334 523.985C282.334 524.229 282.431 524.463 282.603 524.635C282.776 524.808 283.01 524.905 283.253 524.905H291.988V528.582H283.253C283.01 528.582 282.776 528.679 282.603 528.852C282.431 529.024 282.334 529.258 282.334 529.502C282.334 529.746 282.431 529.98 282.603 530.152C282.776 530.325 283.01 530.421 283.253 530.421H291.988V534.099H284.173C283.685 534.099 283.217 534.293 282.873 534.638C282.528 534.983 282.334 535.45 282.334 535.938C282.334 536.426 282.528 536.894 282.873 537.238C283.217 537.583 283.685 537.777 284.173 537.777H291.613C291.559 537.924 291.53 538.08 291.529 538.237V551.109C291.529 551.475 291.674 551.826 291.933 552.085C292.191 552.343 292.542 552.489 292.908 552.489C293.274 552.489 293.624 552.343 293.883 552.085C294.142 551.826 294.287 551.475 294.287 551.109V538.237C294.285 538.08 294.257 537.924 294.203 537.777H346.781C346.727 537.924 346.698 538.08 346.697 538.237V551.109C346.697 551.475 346.842 551.826 347.101 552.085C347.359 552.343 347.71 552.489 348.076 552.489C348.442 552.489 348.792 552.343 349.051 552.085C349.31 551.826 349.455 551.475 349.455 551.109V538.237C349.453 538.08 349.425 537.924 349.371 537.777H356.811C357.298 537.777 357.766 537.583 358.111 537.238C358.456 536.894 358.65 536.426 358.65 535.938C358.65 535.45 358.456 534.983 358.111 534.638C357.766 534.293 357.298 534.099 356.811 534.099H348.995V530.421H357.73C357.974 530.421 358.208 530.325 358.38 530.152C358.553 529.98 358.65 529.746 358.65 529.502C358.65 529.258 358.553 529.024 358.38 528.852C358.208 528.679 357.974 528.582 357.73 528.582H348.995V524.905H357.73ZM293.827 519.388H347.156V523.066H293.827V519.388ZM347.156 534.099H293.827V530.421H347.156V534.099ZM347.156 528.582H293.827V524.905H347.156V528.582Z" fill="#181818"/>
<path d="M77.3028 486.314C77.3028 470.075 64.1297 431.541 47.8799 431.541C31.6301 431.541 18.457 470.075 18.457 486.314C18.457 494.117 21.5569 501.601 27.0748 507.119C32.5927 512.637 40.0765 515.737 47.88 515.737C55.6834 515.737 63.1672 512.637 68.6851 507.119C74.203 501.601 77.3029 494.117 77.3029 486.314H77.3028Z" fill="#E6E6E6"/>
<path d="M69.9474 486.314C69.9474 470.075 56.7743 431.541 40.5245 431.541C24.2747 431.541 11.1016 470.075 11.1016 486.314C11.1016 494.117 14.2015 501.601 19.7193 507.119C25.2372 512.637 32.721 515.737 40.5245 515.737C48.3279 515.737 55.8118 512.637 61.3296 507.119C66.8475 501.601 69.9474 494.117 69.9474 486.314H69.9474Z" fill="#F2F2F2"/>
<path d="M41.4449 552.101C41.201 552.101 40.9671 552.005 40.7947 551.832C40.6223 551.66 40.5254 551.426 40.5254 551.182V469.22C40.5254 468.976 40.6223 468.743 40.7947 468.57C40.9671 468.398 41.201 468.301 41.4449 468.301C41.6887 468.301 41.9226 468.398 42.095 468.57C42.2675 468.743 42.3643 468.976 42.3643 469.22V551.182C42.3643 551.426 42.2675 551.66 42.095 551.832C41.9226 552.005 41.6887 552.101 41.4449 552.101Z" fill="#CCCCCC"/>
<path d="M41.4447 482.657C41.2628 482.657 41.0851 482.603 40.9339 482.502C40.7828 482.401 40.665 482.257 40.5954 482.089C40.5258 481.921 40.5076 481.736 40.543 481.558C40.5785 481.38 40.6661 481.216 40.7946 481.087L52.819 469.062C52.9915 468.89 53.2253 468.793 53.4691 468.793C53.713 468.793 53.9468 468.89 54.1192 469.062C54.2916 469.235 54.3885 469.469 54.3885 469.712C54.3885 469.956 54.2916 470.19 54.1192 470.362L42.0948 482.387C42.0095 482.473 41.9082 482.541 41.7966 482.587C41.685 482.633 41.5654 482.657 41.4447 482.657Z" fill="#CCCCCC"/>
<path d="M138.91 234.473H124.198C123.101 234.472 122.049 234.036 121.274 233.26C120.498 232.484 120.062 231.433 120.061 230.336V196.315C120.062 195.218 120.498 194.167 121.274 193.391C122.049 192.615 123.101 192.179 124.198 192.178H138.91C140.007 192.179 141.058 192.615 141.834 193.391C142.61 194.167 143.046 195.218 143.047 196.315V230.336C143.046 231.433 142.61 232.484 141.834 233.26C141.058 234.036 140.007 234.472 138.91 234.473Z" fill="#E6E6E6"/>
<path d="M196.835 551.689H121.439C119.366 551.686 117.38 550.862 115.915 549.397C114.45 547.932 113.625 545.945 113.623 543.873V239.53C113.625 237.458 114.45 235.472 115.915 234.007C117.38 232.541 119.366 231.717 121.439 231.715H196.835C198.907 231.717 200.893 232.541 202.358 234.006C203.824 235.472 204.648 237.458 204.65 239.53V543.873C204.648 545.945 203.824 547.932 202.358 549.397C200.893 550.862 198.907 551.686 196.835 551.689Z" fill="#E6E6E6"/>
<path d="M151.78 551.689H76.3838C74.3117 551.686 72.3252 550.862 70.86 549.397C69.3949 547.932 68.5707 545.945 68.5684 543.873V239.53C68.5707 237.458 69.3949 235.472 70.86 234.007C72.3252 232.541 74.3117 231.717 76.3838 231.715H151.78C153.852 231.717 155.839 232.541 157.304 234.007C158.769 235.472 159.593 237.458 159.595 239.53V543.873C159.593 545.945 158.769 547.932 157.304 549.397C155.839 550.862 153.852 551.686 151.78 551.689Z" fill="#F2F2F2"/>
<path d="M125.117 234.473H110.405C109.308 234.472 108.256 234.036 107.481 233.26C106.705 232.484 106.269 231.433 106.268 230.336V196.315C106.269 195.218 106.705 194.167 107.481 193.391C108.256 192.615 109.308 192.179 110.405 192.178H125.117C126.214 192.179 127.265 192.615 128.041 193.391C128.817 194.167 129.253 195.218 129.254 196.315V230.336C129.253 231.433 128.817 232.484 128.041 233.26C127.265 234.036 126.214 234.472 125.117 234.473Z" fill="#F2F2F2"/>
<path d="M105.808 300.675H88.3377C87.7283 300.674 87.144 300.432 86.7131 300.001C86.2822 299.57 86.0398 298.986 86.0391 298.376V271.712C86.0398 271.102 86.2822 270.518 86.7131 270.087C87.144 269.656 87.7283 269.414 88.3377 269.413H105.808C106.417 269.414 107.001 269.656 107.432 270.087C107.863 270.518 108.106 271.102 108.106 271.712V298.376C108.106 298.986 107.863 299.57 107.432 300.001C107.001 300.432 106.417 300.674 105.808 300.675Z" fill="white"/>
<path d="M139.829 300.675H122.359C121.75 300.674 121.166 300.432 120.735 300.001C120.304 299.57 120.061 298.986 120.061 298.376V271.712C120.061 271.102 120.304 270.518 120.735 270.087C121.166 269.656 121.75 269.414 122.359 269.413H139.829C140.438 269.414 141.023 269.656 141.454 270.087C141.885 270.518 142.127 271.102 142.128 271.712V298.376C142.127 298.986 141.885 299.57 141.454 300.001C141.023 300.432 140.438 300.674 139.829 300.675Z" fill="white"/>
<path d="M105.808 349.406H88.3377C87.7283 349.406 87.144 349.163 86.7131 348.732C86.2822 348.301 86.0398 347.717 86.0391 347.108V320.443C86.0398 319.834 86.2822 319.249 86.7131 318.819C87.144 318.388 87.7283 318.145 88.3377 318.145H105.808C106.417 318.145 107.001 318.388 107.432 318.819C107.863 319.249 108.106 319.834 108.106 320.443V347.108C108.106 347.717 107.863 348.301 107.432 348.732C107.001 349.163 106.417 349.406 105.808 349.406Z" fill="white"/>
<path d="M139.829 349.406H122.359C121.75 349.406 121.166 349.163 120.735 348.732C120.304 348.301 120.061 347.717 120.061 347.108V320.443C120.061 319.834 120.304 319.249 120.735 318.819C121.166 318.388 121.75 318.145 122.359 318.145H139.829C140.438 318.145 141.023 318.388 141.454 318.819C141.885 319.249 142.127 319.834 142.128 320.443V347.108C142.127 347.717 141.885 348.301 141.454 348.732C141.023 349.163 140.438 349.406 139.829 349.406Z" fill="white"/>
<path d="M105.808 398.138H88.3377C87.7283 398.137 87.144 397.895 86.7131 397.464C86.2822 397.033 86.0398 396.449 86.0391 395.839V369.175C86.0398 368.565 86.2822 367.981 86.7131 367.55C87.144 367.119 87.7283 366.877 88.3377 366.876H105.808C106.417 366.877 107.001 367.119 107.432 367.55C107.863 367.981 108.106 368.565 108.106 369.175V395.839C108.106 396.449 107.863 397.033 107.432 397.464C107.001 397.895 106.417 398.137 105.808 398.138Z" fill="white"/>
<path d="M139.829 398.138H122.359C121.75 398.137 121.166 397.895 120.735 397.464C120.304 397.033 120.061 396.449 120.061 395.839V369.175C120.061 368.565 120.304 367.981 120.735 367.55C121.166 367.119 121.75 366.877 122.359 366.876H139.829C140.438 366.877 141.023 367.119 141.454 367.55C141.885 367.981 142.127 368.565 142.128 369.175V395.839C142.127 396.449 141.885 397.033 141.454 397.464C141.023 397.895 140.438 398.137 139.829 398.138Z" fill="white"/>
<path d="M105.808 446.87H88.3377C87.7283 446.87 87.144 446.627 86.7131 446.196C86.2822 445.765 86.0398 445.181 86.0391 444.572V417.907C86.0398 417.298 86.2822 416.713 86.7131 416.282C87.144 415.851 87.7283 415.609 88.3377 415.608H105.808C106.417 415.609 107.001 415.851 107.432 416.282C107.863 416.713 108.106 417.298 108.106 417.907V444.572C108.106 445.181 107.863 445.765 107.432 446.196C107.001 446.627 106.417 446.87 105.808 446.87Z" fill="white"/>
<path d="M139.829 446.87H122.359C121.75 446.87 121.166 446.627 120.735 446.196C120.304 445.765 120.061 445.181 120.061 444.572V417.907C120.061 417.298 120.304 416.713 120.735 416.282C121.166 415.851 121.75 415.609 122.359 415.608H139.829C140.438 415.609 141.023 415.851 141.454 416.282C141.885 416.713 142.127 417.298 142.128 417.907V444.572C142.127 445.181 141.885 445.765 141.454 446.196C141.023 446.627 140.438 446.87 139.829 446.87Z" fill="white"/>
<path d="M105.808 495.602H88.3377C87.7283 495.601 87.144 495.359 86.7131 494.928C86.2822 494.497 86.0398 493.912 86.0391 493.303V466.639C86.0398 466.029 86.2822 465.445 86.7131 465.014C87.144 464.583 87.7283 464.341 88.3377 464.34H105.808C106.417 464.341 107.001 464.583 107.432 465.014C107.863 465.445 108.106 466.029 108.106 466.639V493.303C108.106 493.912 107.863 494.497 107.432 494.928C107.001 495.359 106.417 495.601 105.808 495.602Z" fill="white"/>
<path d="M139.829 495.602H122.359C121.75 495.601 121.166 495.359 120.735 494.928C120.304 494.497 120.061 493.912 120.061 493.303V466.639C120.061 466.029 120.304 465.445 120.735 465.014C121.166 464.583 121.75 464.341 122.359 464.34H139.829C140.438 464.341 141.023 464.583 141.454 465.014C141.885 465.445 142.127 466.029 142.128 466.639V493.303C142.127 493.912 141.885 494.497 141.454 494.928C141.023 495.359 140.438 495.601 139.829 495.602Z" fill="white"/>
<path d="M518.646 395.38H503.934C502.837 395.379 501.786 394.942 501.01 394.167C500.234 393.391 499.798 392.339 499.797 391.242V371.933C499.798 370.837 500.234 369.785 501.01 369.009C501.786 368.233 502.837 367.797 503.934 367.796H518.646C519.743 367.797 520.795 368.233 521.57 369.009C522.346 369.785 522.782 370.837 522.784 371.933V391.242C522.782 392.339 522.346 393.391 521.57 394.167C520.795 394.942 519.743 395.379 518.646 395.38Z" fill="#E6E6E6"/>
<path d="M642.774 552.608H567.378C565.306 552.606 563.319 551.782 561.854 550.316C560.389 548.851 559.565 546.865 559.562 544.793V398.598C559.565 396.526 560.389 394.539 561.854 393.074C563.319 391.609 565.306 390.785 567.378 390.782H642.774C644.846 390.785 646.833 391.609 648.298 393.074C649.763 394.539 650.587 396.526 650.59 398.598V544.793C650.587 546.865 649.763 548.851 648.298 550.316C646.833 551.782 644.846 552.606 642.774 552.608Z" fill="#E6E6E6"/>
<path d="M597.721 552.608H467.157C465.085 552.606 463.099 551.782 461.633 550.316C460.168 548.851 459.344 546.865 459.342 544.793V398.598C459.344 396.526 460.168 394.539 461.633 393.074C463.099 391.609 465.085 390.785 467.157 390.782H597.721C599.793 390.785 601.78 391.609 603.245 393.074C604.71 394.539 605.535 396.526 605.537 398.598V544.793C605.535 546.865 604.71 548.851 603.245 550.316C601.78 551.782 599.793 552.606 597.721 552.608Z" fill="#F2F2F2"/>
<path d="M504.857 395.38H490.145C489.048 395.379 487.997 394.942 487.221 394.167C486.445 393.391 486.009 392.339 486.008 391.242V371.933C486.009 370.837 486.445 369.785 487.221 369.009C487.997 368.233 489.048 367.797 490.145 367.796H504.857C505.954 367.797 507.006 368.233 507.781 369.009C508.557 369.785 508.993 370.837 508.994 371.933V391.242C508.993 392.339 508.557 393.391 507.781 394.167C507.006 394.942 505.954 395.379 504.857 395.38Z" fill="#F2F2F2"/>
<path d="M524.165 462.96H506.695C506.086 462.959 505.501 462.717 505.071 462.286C504.64 461.855 504.397 461.271 504.396 460.661V433.997C504.397 433.387 504.64 432.803 505.071 432.372C505.501 431.941 506.086 431.699 506.695 431.698H524.165C524.774 431.699 525.359 431.941 525.79 432.372C526.221 432.803 526.463 433.387 526.464 433.997V460.661C526.463 461.271 526.221 461.855 525.79 462.286C525.359 462.717 524.774 462.959 524.165 462.96Z" fill="white"/>
<path d="M558.185 462.96H540.715C540.105 462.959 539.521 462.717 539.09 462.286C538.659 461.855 538.417 461.271 538.416 460.661V433.997C538.417 433.387 538.659 432.803 539.09 432.372C539.521 431.941 540.105 431.699 540.715 431.698H558.185C558.794 431.699 559.378 431.941 559.809 432.372C560.24 432.803 560.482 433.387 560.483 433.997V460.661C560.482 461.271 560.24 461.855 559.809 462.286C559.378 462.717 558.794 462.959 558.185 462.96Z" fill="white"/>
<path d="M524.165 511.692H506.695C506.086 511.692 505.501 511.449 505.071 511.018C504.64 510.588 504.397 510.003 504.396 509.394V482.729C504.397 482.12 504.64 481.536 505.071 481.105C505.501 480.674 506.086 480.431 506.695 480.431H524.165C524.774 480.431 525.359 480.674 525.79 481.105C526.221 481.536 526.463 482.12 526.464 482.729V509.394C526.463 510.003 526.221 510.588 525.79 511.018C525.359 511.449 524.774 511.692 524.165 511.692Z" fill="white"/>
<path d="M558.185 511.692H540.715C540.105 511.692 539.521 511.449 539.09 511.018C538.659 510.588 538.417 510.003 538.416 509.394V482.729C538.417 482.12 538.659 481.536 539.09 481.105C539.521 480.674 540.105 480.431 540.715 480.431H558.185C558.794 480.431 559.378 480.674 559.809 481.105C560.24 481.536 560.482 482.12 560.483 482.729V509.394C560.482 510.003 560.24 510.588 559.809 511.018C559.378 511.449 558.794 511.692 558.185 511.692Z" fill="white"/>
<path d="M260.277 486.314C260.277 470.075 247.104 431.541 230.855 431.541C214.605 431.541 201.432 470.075 201.432 486.314C201.432 494.117 204.532 501.601 210.049 507.119C215.567 512.637 223.051 515.737 230.855 515.737C238.658 515.737 246.142 512.637 251.66 507.119C257.178 501.601 260.277 494.117 260.277 486.314H260.277Z" fill="#E6E6E6"/>
<path d="M252.922 486.314C252.922 470.075 239.749 431.541 223.499 431.541C207.249 431.541 194.076 470.075 194.076 486.314C194.076 494.117 197.176 501.601 202.694 507.119C208.212 512.637 215.696 515.737 223.499 515.737C231.303 515.737 238.786 512.637 244.304 507.119C249.822 501.601 252.922 494.117 252.922 486.314H252.922Z" fill="#F2F2F2"/>
<path d="M224.418 552.101C224.174 552.101 223.94 552.005 223.767 551.832C223.595 551.66 223.498 551.426 223.498 551.182V469.22C223.498 468.976 223.595 468.743 223.767 468.57C223.94 468.398 224.174 468.301 224.418 468.301C224.661 468.301 224.895 468.398 225.068 468.57C225.24 468.743 225.337 468.976 225.337 469.22V551.182C225.337 551.426 225.24 551.66 225.068 551.832C224.895 552.005 224.661 552.101 224.418 552.101Z" fill="#CCCCCC"/>
<path d="M224.417 482.657C224.235 482.657 224.058 482.603 223.907 482.502C223.755 482.401 223.638 482.257 223.568 482.089C223.498 481.921 223.48 481.736 223.516 481.558C223.551 481.38 223.639 481.216 223.767 481.087L235.792 469.062C235.964 468.89 236.198 468.793 236.442 468.793C236.686 468.793 236.919 468.89 237.092 469.062C237.264 469.235 237.361 469.469 237.361 469.712C237.361 469.956 237.264 470.19 237.092 470.362L225.067 482.387C224.982 482.473 224.881 482.541 224.769 482.587C224.658 482.633 224.538 482.657 224.417 482.657Z" fill="#CCCCCC"/>
<path d="M730.125 486.314C730.125 470.075 716.952 431.541 700.702 431.541C684.452 431.541 671.279 470.075 671.279 486.314C671.279 494.117 674.379 501.601 679.897 507.119C685.415 512.637 692.899 515.737 700.702 515.737C708.506 515.737 715.99 512.637 721.507 507.119C727.025 501.601 730.125 494.117 730.125 486.314H730.125Z" fill="#E6E6E6"/>
<path d="M722.768 486.314C722.768 470.075 709.595 431.541 693.345 431.541C677.095 431.541 663.922 470.075 663.922 486.314C663.922 494.117 667.022 501.601 672.54 507.119C678.058 512.637 685.541 515.737 693.345 515.737C701.148 515.737 708.632 512.637 714.15 507.119C719.668 501.601 722.768 494.117 722.768 486.314H722.768Z" fill="#F2F2F2"/>
<path d="M694.265 552.101C694.021 552.101 693.787 552.005 693.615 551.832C693.443 551.66 693.346 551.426 693.346 551.182V469.22C693.346 468.976 693.443 468.743 693.615 468.57C693.787 468.398 694.021 468.301 694.265 468.301C694.509 468.301 694.743 468.398 694.915 468.57C695.088 468.743 695.185 468.976 695.185 469.22V551.182C695.185 551.426 695.088 551.66 694.915 551.832C694.743 552.005 694.509 552.101 694.265 552.101Z" fill="#CCCCCC"/>
<path d="M694.265 482.657C694.083 482.657 693.905 482.603 693.754 482.502C693.603 482.401 693.485 482.257 693.416 482.089C693.346 481.921 693.328 481.736 693.363 481.558C693.399 481.38 693.486 481.216 693.615 481.087L705.639 469.062C705.812 468.89 706.046 468.793 706.289 468.793C706.533 468.793 706.767 468.89 706.94 469.062C707.112 469.235 707.209 469.469 707.209 469.712C707.209 469.956 707.112 470.19 706.94 470.362L694.915 482.387C694.83 482.473 694.728 482.541 694.617 482.587C694.505 482.633 694.386 482.657 694.265 482.657Z" fill="#CCCCCC"/>
<path d="M717.734 550.461C717.738 546.278 719.402 542.266 722.361 539.309C725.321 536.352 729.334 534.69 733.517 534.69C737.701 534.69 741.714 536.352 744.673 539.309C747.633 542.266 749.297 546.278 749.3 550.461" fill="#F2F2F2"/>
<path d="M733.516 550.462C733.403 550.462 733.295 550.417 733.215 550.337C733.135 550.257 733.09 550.149 733.09 550.036V541.718C733.09 541.604 733.135 541.496 733.215 541.416C733.295 541.336 733.403 541.291 733.516 541.291C733.63 541.291 733.738 541.336 733.818 541.416C733.898 541.496 733.943 541.604 733.943 541.718V550.036C733.943 550.149 733.898 550.257 733.818 550.337C733.738 550.417 733.63 550.462 733.516 550.462Z" fill="#CCCCCC"/>
<path d="M733.517 547.603C733.415 547.604 733.316 547.567 733.239 547.501L728.12 543.107C728.077 543.071 728.042 543.026 728.016 542.976C727.99 542.926 727.975 542.872 727.97 542.815C727.966 542.759 727.972 542.703 727.99 542.649C728.007 542.596 728.035 542.546 728.072 542.503C728.108 542.46 728.153 542.425 728.203 542.4C728.254 542.375 728.309 542.36 728.365 542.356C728.421 542.352 728.477 542.359 728.531 542.377C728.584 542.394 728.634 542.423 728.676 542.46L733.795 546.853C733.861 546.91 733.908 546.986 733.93 547.07C733.952 547.154 733.947 547.243 733.917 547.325C733.887 547.407 733.832 547.477 733.761 547.527C733.689 547.577 733.604 547.604 733.517 547.604L733.517 547.603Z" fill="#CCCCCC"/>
<path d="M766.363 550.461C766.366 546.278 768.031 542.266 770.99 539.309C773.95 536.352 777.962 534.69 782.146 534.69C786.33 534.69 790.343 536.352 793.302 539.309C796.262 542.266 797.926 546.278 797.929 550.461" fill="#F2F2F2"/>
<path d="M782.145 550.462C782.032 550.462 781.924 550.417 781.844 550.337C781.764 550.257 781.719 550.149 781.719 550.036V541.718C781.719 541.604 781.764 541.496 781.844 541.416C781.924 541.336 782.032 541.291 782.145 541.291C782.259 541.291 782.367 541.336 782.447 541.416C782.527 541.496 782.572 541.604 782.572 541.718V550.036C782.572 550.149 782.527 550.257 782.447 550.337C782.367 550.417 782.258 550.462 782.145 550.462Z" fill="#CCCCCC"/>
<path d="M782.146 547.604C782.044 547.604 781.946 547.567 781.868 547.501L776.75 543.107C776.706 543.071 776.671 543.027 776.645 542.977C776.619 542.926 776.604 542.872 776.599 542.816C776.594 542.759 776.601 542.703 776.619 542.649C776.636 542.596 776.664 542.546 776.701 542.503C776.737 542.46 776.782 542.425 776.833 542.4C776.883 542.375 776.938 542.36 776.994 542.356C777.05 542.352 777.107 542.359 777.16 542.377C777.213 542.395 777.263 542.423 777.305 542.46L782.424 546.853C782.49 546.91 782.537 546.986 782.559 547.07C782.581 547.155 782.577 547.244 782.546 547.325C782.516 547.407 782.461 547.478 782.39 547.527C782.318 547.577 782.233 547.604 782.146 547.604V547.604Z" fill="#CCCCCC"/>
<path fill-rule="evenodd" clip-rule="evenodd" d="M431.679 136.587H406.102V10.3033H394.96V10.2998H446.275V10.3318C464.431 10.7107 480.787 18.0919 492.492 29.762V117.123C480.787 128.793 464.431 136.174 446.275 136.553H431.679V136.587ZM431.679 48.6471V98.1989H446.275V98.2366C459.959 97.5055 470.822 86.7013 470.822 73.442C470.822 60.1824 459.959 49.3803 446.275 48.6471H431.679Z" fill="#F2F2F2"/>
<path fill-rule="evenodd" clip-rule="evenodd" d="M289.992 136.588H264.794V10.3037H301.519H289.992V136.588Z" fill="#F1F1F1"/>
<path fill-rule="evenodd" clip-rule="evenodd" d="M509.797 136.587H492.49V117.123C503.868 105.784 510.854 90.397 510.854 73.4415C510.854 56.4877 503.868 41.1004 492.49 29.7615V10.3027H529.218V78.5208L509.797 136.587Z" fill="#F0F0F0"/>
<path fill-rule="evenodd" clip-rule="evenodd" d="M492.491 117.123V29.7617C503.869 41.1006 510.855 56.488 510.855 73.4418C510.855 90.3973 503.869 105.785 492.491 117.123Z" fill="#EDEDED"/>
<path fill-rule="evenodd" clip-rule="evenodd" d="M406.101 136.587H369.379L326.712 73.9736V136.587H289.991H301.518V10.3027H326.712L369.379 72.2658V10.3027H394.958V136.587H406.101Z" fill="#F6F6F6"/>
<path fill-rule="evenodd" clip-rule="evenodd" d="M394.96 136.587H406.102V10.3027H394.96V136.587Z" fill="#F0F0F0"/>
<path fill-rule="evenodd" clip-rule="evenodd" d="M289.991 136.587H301.518V10.3027H289.991V136.587Z" fill="#F0F0F0"/>
<path fill-rule="evenodd" clip-rule="evenodd" d="M630.99 136.587H594.265L589.05 120.984H551.744L546.525 136.587H509.8H529.221V78.5208L552.033 10.3177L588.754 10.3027L630.99 136.587ZM570.394 65.2189L563.488 85.8683H577.302L570.394 65.2189Z" fill="#EFEFEF"/>
<path fill-rule="evenodd" clip-rule="evenodd" d="M529.221 136.587H509.8L529.221 78.5215V136.587Z" fill="#ECECEC"/>
<path d="M292.751 235.928C286.012 220.465 280.14 214.768 288.276 209.478C290.81 207.831 298.167 209.142 305.361 213.955C321.265 224.594 342.694 246.201 354.178 247.322C370.857 248.949 379.806 230.638 381.026 222.5C382.246 214.361 383.874 172.449 384.281 170.415C384.689 168.38 385.5 164.718 388.348 164.718C391.197 164.718 394.045 168.38 394.451 172.449C394.857 176.518 394.451 186.284 394.451 190.76C394.451 195.236 395.266 196.05 397.299 196.457C399.332 196.864 402.587 195.643 403.4 190.353C404.213 185.064 404.213 180.181 405.434 175.704C406.655 171.228 407.699 168.38 411.767 168.787C415.835 169.194 417.055 172.449 417.462 175.298C417.869 180.587 418.047 191.574 418.453 194.016C418.859 196.457 419.267 198.492 421.707 198.085C424.147 197.678 425.775 194.423 426.995 191.167C428.214 187.912 429.029 174.484 429.029 174.484C429.029 174.484 430.251 169.194 435.131 168.787C440.012 168.38 442.048 172.449 442.047 175.704C442.046 178.96 440.827 261.564 442.047 273.364C443.267 285.165 460.759 281.909 477.031 274.585C493.303 267.261 498.185 265.226 509.983 266.854C521.78 268.481 546.188 280.689 541.306 295.338C536.425 309.987 503.067 294.524 467.269 316.09C420.893 353.527 386.722 358.817 374.925 358.817C363.127 358.817 314.718 362.886 305.362 311.614C296.005 260.343 299.489 251.391 292.751 235.928Z" fill="#AE3521"/>
<path d="M288.206 235.308C281.467 219.845 275.595 214.148 283.731 208.858C286.265 207.211 293.622 208.522 300.816 213.334C316.72 223.974 338.149 245.581 349.633 246.702C366.312 248.329 375.261 230.018 376.481 221.88C377.702 213.741 379.329 171.829 379.736 169.794C380.144 167.76 380.955 164.098 383.804 164.098C386.652 164.098 389.5 167.76 389.906 171.829C390.312 175.898 389.906 185.664 389.906 190.14C389.906 194.616 390.721 195.43 392.754 195.837C394.787 196.244 398.042 195.023 398.855 189.733C399.668 184.443 399.668 179.56 400.889 175.084C402.11 170.608 403.154 167.76 407.222 168.167C411.29 168.574 412.51 171.829 412.917 174.677C413.324 179.967 413.502 190.954 413.908 193.396C414.314 195.837 414.722 197.872 417.162 197.465C419.602 197.058 421.23 193.802 422.45 190.547C423.669 187.292 424.485 173.864 424.485 173.864C424.485 173.864 425.706 168.574 430.587 168.167C435.467 167.76 437.503 171.829 437.502 175.084C437.501 178.34 436.282 260.944 437.502 272.744C438.722 284.545 456.214 281.289 472.486 273.965C488.759 266.64 493.64 264.606 505.438 266.233C517.235 267.861 541.643 280.069 536.762 294.718C531.88 309.367 498.523 293.904 462.724 315.47C416.348 352.907 382.177 358.196 370.38 358.196C358.583 358.196 310.173 362.266 300.817 310.994C291.46 259.723 294.944 250.771 288.206 235.308Z" fill="#FF4E33"/>
</svg>
