<svg width="820" height="557" viewBox="0 0 820 557" fill="none" xmlns="http://www.w3.org/2000/svg">
<g clip-path="url(#clip0_6093_4626)">
<g clip-path="url(#clip1_6093_4626)">
<path d="M370.916 66.6C382.532 66.6 392.08 68.976 399.56 73.728C407.04 78.392 410.868 85.344 411.044 94.584V96.168H383.72V95.64C383.72 93 382.752 90.8 380.816 89.04C378.88 87.28 375.932 86.4 371.972 86.4C368.1 86.4 365.108 86.972 362.996 88.116C360.972 89.26 359.96 90.668 359.96 92.34C359.96 94.716 361.368 96.476 364.184 97.62C367 98.764 371.532 99.952 377.78 101.184C385.084 102.68 391.068 104.264 395.732 105.936C400.484 107.52 404.62 110.16 408.14 113.856C411.66 117.552 413.464 122.568 413.552 128.904C413.552 139.64 409.9 147.604 402.596 152.796C395.38 157.988 385.7 160.584 373.556 160.584C359.388 160.584 348.344 158.208 340.424 153.456C332.592 148.704 328.676 140.3 328.676 128.244H356.264C356.264 132.82 357.452 135.9 359.828 137.484C362.204 138.98 365.9 139.728 370.916 139.728C374.612 139.728 377.648 139.332 380.024 138.54C382.488 137.748 383.72 136.12 383.72 133.656C383.72 131.456 382.356 129.828 379.628 128.772C376.988 127.628 372.632 126.44 366.56 125.208C359.168 123.624 353.052 121.996 348.212 120.324C343.372 118.564 339.148 115.704 335.54 111.744C331.932 107.784 330.128 102.416 330.128 95.64C330.128 85.696 333.956 78.392 341.612 73.728C349.356 68.976 359.124 66.6 370.916 66.6Z" fill="#F1F1F1"/>
<path d="M473.702 66.6C482.414 66.6 490.246 67.92 497.198 70.56C504.15 73.2 509.65 77.116 513.698 82.308C517.834 87.412 519.902 93.66 519.902 101.052H492.05C492.05 97.268 490.378 94.232 487.034 91.944C483.69 89.568 479.642 88.38 474.89 88.38C468.026 88.38 462.834 90.228 459.314 93.924C455.794 97.532 454.034 102.68 454.034 109.368V117.816C454.034 124.504 455.794 129.696 459.314 133.392C462.834 137 468.026 138.804 474.89 138.804C479.642 138.804 483.69 137.704 487.034 135.504C490.378 133.216 492.05 130.312 492.05 126.792H471.458V108.312H519.902V159H504.854L501.95 150.024C493.678 157.064 482.854 160.584 469.478 160.584C454.43 160.584 443.122 156.668 435.554 148.836C427.986 140.916 424.202 129.168 424.202 113.592C424.202 98.192 428.47 86.532 437.006 78.612C445.63 70.604 457.862 66.6 473.702 66.6Z" fill="#F6F6F6"/>
<path d="M22.2652 471.642C24.2269 470.54 26.4862 469.923 28.9109 469.956C35.9423 470.077 41.7613 475.951 41.8054 482.982C41.8495 489.617 36.9672 495.105 30.5971 496.031C30.6742 496.637 30.7293 497.221 30.7734 497.817C38.411 496.737 44.1859 489.904 43.5357 481.836C42.9626 474.673 37.1546 468.842 29.9909 468.214C27.5443 468.005 25.2188 468.391 23.1248 469.228C22.177 469.614 21.7693 470.716 22.2432 471.609L22.2652 471.642Z" fill="#E6E6E6"/>
<g style="mix-blend-mode:multiply" opacity="0.5">
<path d="M22.2652 471.642C24.2269 470.54 26.4862 469.923 28.9109 469.956C35.9423 470.077 41.7613 475.951 41.8054 482.982C41.8495 489.617 36.9672 495.105 30.5971 496.031C30.6742 496.637 30.7293 497.221 30.7734 497.817C38.411 496.737 44.1859 489.904 43.5357 481.836C42.9626 474.673 37.1546 468.842 29.9909 468.214C27.5443 468.005 25.2188 468.391 23.1248 469.228C22.177 469.614 21.7693 470.716 22.2432 471.609L22.2652 471.642Z" fill="#E6E6E6"/>
</g>
<path d="M41.8051 483.072C41.8051 475.831 35.9309 469.957 28.6791 469.957C26.3427 469.957 24.1605 470.574 22.2539 471.643C22.5956 472.293 22.9372 472.944 23.2568 473.594C24.8549 472.679 26.6954 472.15 28.6681 472.15C34.7076 472.15 39.6009 477.044 39.6009 483.083C39.6009 488.571 35.5452 493.112 30.2772 493.884C30.3984 494.622 30.4976 495.338 30.5858 496.044C36.9228 495.118 41.7941 489.674 41.7941 483.083L41.8051 483.072Z" fill="#E6E6E6"/>
<g style="mix-blend-mode:multiply" opacity="0.5">
<path d="M41.8051 483.072C41.8051 475.831 35.9309 469.957 28.6791 469.957C26.3427 469.957 24.1605 470.574 22.2539 471.643C22.5956 472.293 22.9372 472.944 23.2568 473.594C24.8549 472.679 26.6954 472.15 28.6681 472.15C34.7076 472.15 39.6009 477.044 39.6009 483.083C39.6009 488.571 35.5452 493.112 30.2772 493.884C30.3984 494.622 30.4976 495.338 30.5858 496.044C36.9228 495.118 41.7941 489.674 41.7941 483.083L41.8051 483.072Z" fill="#E6E6E6"/>
</g>
<g style="mix-blend-mode:multiply" opacity="0.2">
<path d="M41.8051 483.072C41.8051 475.831 35.9309 469.957 28.6791 469.957C26.3427 469.957 24.1605 470.574 22.2539 471.643C22.5956 472.293 22.9372 472.944 23.2568 473.594C24.8549 472.679 26.6954 472.15 28.6681 472.15C34.7076 472.15 39.6009 477.044 39.6009 483.083C39.6009 488.571 35.5452 493.112 30.2772 493.884C30.3984 494.622 30.4976 495.338 30.5858 496.044C36.9228 495.118 41.7941 489.674 41.7941 483.083L41.8051 483.072Z" fill="#E6E6E6"/>
</g>
<path d="M39.6195 483.07C39.6195 477.03 34.7262 472.137 28.6867 472.137C26.7139 472.137 24.8734 472.666 23.2754 473.58C23.617 474.264 23.9587 474.947 24.2783 475.619C25.5678 474.848 27.0776 474.396 28.6977 474.396C33.4808 474.396 37.3712 478.275 37.3712 483.07C37.3712 487.456 34.109 491.071 29.888 491.644C30.0423 492.393 30.1856 493.143 30.3068 493.87C35.5858 493.088 39.6305 488.558 39.6305 483.07H39.6195Z" fill="#E6E6E6"/>
<g style="mix-blend-mode:multiply" opacity="0.5">
<path d="M39.6195 483.07C39.6195 477.03 34.7262 472.137 28.6867 472.137C26.7139 472.137 24.8734 472.666 23.2754 473.58C23.617 474.264 23.9587 474.947 24.2783 475.619C25.5678 474.848 27.0776 474.396 28.6977 474.396C33.4808 474.396 37.3712 478.275 37.3712 483.07C37.3712 487.456 34.109 491.071 29.888 491.644C30.0423 492.393 30.1856 493.143 30.3068 493.87C35.5858 493.088 39.6305 488.558 39.6305 483.07H39.6195Z" fill="#E6E6E6"/>
</g>
<g style="mix-blend-mode:multiply" opacity="0.2">
<path d="M39.6195 483.07C39.6195 477.03 34.7262 472.137 28.6867 472.137C26.7139 472.137 24.8734 472.666 23.2754 473.58C23.617 474.264 23.9587 474.947 24.2783 475.619C25.5678 474.848 27.0776 474.396 28.6977 474.396C33.4808 474.396 37.3712 478.275 37.3712 483.07C37.3712 487.456 34.109 491.071 29.888 491.644C30.0423 492.393 30.1856 493.143 30.3068 493.87C35.5858 493.088 39.6305 488.558 39.6305 483.07H39.6195Z" fill="#E6E6E6"/>
</g>
<path opacity="0.5" d="M39.6195 483.07C39.6195 477.03 34.7262 472.137 28.6867 472.137C26.7139 472.137 24.8734 472.666 23.2754 473.58C23.617 474.264 23.9587 474.947 24.2783 475.619C25.5678 474.848 27.0776 474.396 28.6977 474.396C33.4808 474.396 37.3712 478.275 37.3712 483.07C37.3712 487.456 34.109 491.071 29.888 491.644C30.0423 492.393 30.1856 493.143 30.3068 493.87C35.5858 493.088 39.6305 488.558 39.6305 483.07H39.6195Z" fill="#E6E6E6"/>
<path d="M37.3507 483.072C37.3507 478.289 33.4714 474.398 28.6772 474.398C27.0571 474.398 25.5583 474.85 24.2578 475.622C27.0571 481.507 28.8425 486.83 29.8565 491.646C34.0775 491.073 37.3397 487.447 37.3397 483.072H37.3507Z" fill="#E6E6E6"/>
<g style="mix-blend-mode:multiply" opacity="0.5">
<path d="M37.3507 483.072C37.3507 478.289 33.4714 474.398 28.6772 474.398C27.0571 474.398 25.5583 474.85 24.2578 475.622C27.0571 481.507 28.8425 486.83 29.8565 491.646C34.0775 491.073 37.3397 487.447 37.3397 483.072H37.3507Z" fill="#E6E6E6"/>
</g>
<g style="mix-blend-mode:multiply" opacity="0.2">
<path d="M37.3507 483.072C37.3507 478.289 33.4714 474.398 28.6772 474.398C27.0571 474.398 25.5583 474.85 24.2578 475.622C27.0571 481.507 28.8425 486.83 29.8565 491.646C34.0775 491.073 37.3397 487.447 37.3397 483.072H37.3507Z" fill="#E6E6E6"/>
</g>
<path opacity="0.5" d="M37.3507 483.072C37.3507 478.289 33.4714 474.398 28.6772 474.398C27.0571 474.398 25.5583 474.85 24.2578 475.622C27.0571 481.507 28.8425 486.83 29.8565 491.646C34.0775 491.073 37.3397 487.447 37.3397 483.072H37.3507Z" fill="#E6E6E6"/>
<path opacity="0.3" d="M37.3507 483.072C37.3507 478.289 33.4714 474.398 28.6772 474.398C27.0571 474.398 25.5583 474.85 24.2578 475.622C27.0571 481.507 28.8425 486.83 29.8565 491.646C34.0775 491.073 37.3397 487.447 37.3397 483.072H37.3507Z" fill="#F2F2F2"/>
<path d="M73.4082 453.253C73.4082 461.067 79.4146 467.459 87.0632 468.098C87.0963 467.503 87.1403 466.908 87.2065 466.313C80.4837 465.74 75.2046 460.119 75.2046 453.253C75.2046 446.012 81.0788 440.127 88.3196 440.127C90.8214 440.127 93.1358 440.833 95.1306 442.045C95.4061 441.516 95.6706 440.987 95.9571 440.458C93.7199 439.124 91.1189 438.342 88.3306 438.342C80.0979 438.342 73.4192 445.021 73.4192 453.253H73.4082Z" fill="#E6E6E6"/>
<g style="mix-blend-mode:multiply" opacity="0.5">
<path d="M73.4082 453.253C73.4082 461.067 79.4146 467.459 87.0632 468.098C87.0963 467.503 87.1403 466.908 87.2065 466.313C80.4837 465.74 75.2046 460.119 75.2046 453.253C75.2046 446.012 81.0788 440.127 88.3196 440.127C90.8214 440.127 93.1358 440.833 95.1306 442.045C95.4061 441.516 95.6706 440.987 95.9571 440.458C93.7199 439.124 91.1189 438.342 88.3306 438.342C80.0979 438.342 73.4192 445.021 73.4192 453.253H73.4082Z" fill="#E6E6E6"/>
</g>
<path d="M75.207 453.256C75.207 460.122 80.4861 465.753 87.2089 466.315C87.275 465.588 87.3632 464.861 87.4624 464.144C81.8306 463.703 77.4002 458.998 77.4002 453.256C77.4002 447.216 82.2935 442.323 88.333 442.323C90.4821 442.323 92.4769 442.951 94.1631 444.02C94.4827 443.37 94.8134 442.709 95.144 442.058C93.1602 440.846 90.8348 440.141 88.333 440.141C81.0922 440.141 75.218 446.015 75.218 453.267L75.207 453.256Z" fill="#E6E6E6"/>
<g style="mix-blend-mode:multiply" opacity="0.5">
<path d="M75.207 453.256C75.207 460.122 80.4861 465.753 87.2089 466.315C87.275 465.588 87.3632 464.861 87.4624 464.144C81.8306 463.703 77.4002 458.998 77.4002 453.256C77.4002 447.216 82.2935 442.323 88.333 442.323C90.4821 442.323 92.4769 442.951 94.1631 444.02C94.4827 443.37 94.8134 442.709 95.144 442.058C93.1602 440.846 90.8348 440.141 88.333 440.141C81.0922 440.141 75.218 446.015 75.218 453.267L75.207 453.256Z" fill="#E6E6E6"/>
</g>
<g style="mix-blend-mode:multiply" opacity="0.2">
<path d="M75.207 453.256C75.207 460.122 80.4861 465.753 87.2089 466.315C87.275 465.588 87.3632 464.861 87.4624 464.144C81.8306 463.703 77.4002 458.998 77.4002 453.256C77.4002 447.216 82.2935 442.323 88.333 442.323C90.4821 442.323 92.4769 442.951 94.1631 444.02C94.4827 443.37 94.8134 442.709 95.144 442.058C93.1602 440.846 90.8348 440.141 88.333 440.141C81.0922 440.141 75.218 446.015 75.218 453.267L75.207 453.256Z" fill="#E6E6E6"/>
</g>
<path d="M77.386 453.252C77.386 458.994 81.8165 463.7 87.4482 464.141C87.5584 463.381 87.6796 462.631 87.8119 461.893C83.2602 461.628 79.6453 457.87 79.6453 453.252C79.6453 448.635 83.5247 444.579 88.3188 444.579C90.1152 444.579 91.7794 445.119 93.157 446.056C93.4766 445.372 93.8073 444.689 94.1379 444.006C92.4517 442.937 90.4569 442.309 88.3078 442.309C82.2683 442.309 77.375 447.202 77.375 453.241L77.386 453.252Z" fill="#E6E6E6"/>
<g style="mix-blend-mode:multiply" opacity="0.5">
<path d="M77.386 453.252C77.386 458.994 81.8165 463.7 87.4482 464.141C87.5584 463.381 87.6796 462.631 87.8119 461.893C83.2602 461.628 79.6453 457.87 79.6453 453.252C79.6453 448.635 83.5247 444.579 88.3188 444.579C90.1152 444.579 91.7794 445.119 93.157 446.056C93.4766 445.372 93.8073 444.689 94.1379 444.006C92.4517 442.937 90.4569 442.309 88.3078 442.309C82.2683 442.309 77.375 447.202 77.375 453.241L77.386 453.252Z" fill="#E6E6E6"/>
</g>
<g style="mix-blend-mode:multiply" opacity="0.2">
<path d="M77.386 453.252C77.386 458.994 81.8165 463.7 87.4482 464.141C87.5584 463.381 87.6796 462.631 87.8119 461.893C83.2602 461.628 79.6453 457.87 79.6453 453.252C79.6453 448.635 83.5247 444.579 88.3188 444.579C90.1152 444.579 91.7794 445.119 93.157 446.056C93.4766 445.372 93.8073 444.689 94.1379 444.006C92.4517 442.937 90.4569 442.309 88.3078 442.309C82.2683 442.309 77.375 447.202 77.375 453.241L77.386 453.252Z" fill="#E6E6E6"/>
</g>
<path opacity="0.5" d="M77.386 453.252C77.386 458.994 81.8165 463.7 87.4482 464.141C87.5584 463.381 87.6796 462.631 87.8119 461.893C83.2602 461.628 79.6453 457.87 79.6453 453.252C79.6453 448.635 83.5247 444.579 88.3188 444.579C90.1152 444.579 91.7794 445.119 93.157 446.056C93.4766 445.372 93.8073 444.689 94.1379 444.006C92.4517 442.937 90.4569 442.309 88.3078 442.309C82.2683 442.309 77.375 447.202 77.375 453.241L77.386 453.252Z" fill="#E6E6E6"/>
<path d="M79.6543 453.256C79.6543 457.873 83.2692 461.642 87.8208 461.896C88.8678 456.297 90.7965 451.128 93.166 446.059C91.7884 445.122 90.1132 444.582 88.3278 444.582C83.5447 444.582 79.6543 448.461 79.6543 453.256Z" fill="#E6E6E6"/>
<g style="mix-blend-mode:multiply" opacity="0.5">
<path d="M79.6543 453.256C79.6543 457.873 83.2692 461.642 87.8208 461.896C88.8678 456.297 90.7965 451.128 93.166 446.059C91.7884 445.122 90.1132 444.582 88.3278 444.582C83.5447 444.582 79.6543 448.461 79.6543 453.256Z" fill="#E6E6E6"/>
</g>
<g style="mix-blend-mode:multiply" opacity="0.2">
<path d="M79.6543 453.256C79.6543 457.873 83.2692 461.642 87.8208 461.896C88.8678 456.297 90.7965 451.128 93.166 446.059C91.7884 445.122 90.1132 444.582 88.3278 444.582C83.5447 444.582 79.6543 448.461 79.6543 453.256Z" fill="#E6E6E6"/>
</g>
<path opacity="0.5" d="M79.6543 453.256C79.6543 457.873 83.2692 461.642 87.8208 461.896C88.8678 456.297 90.7965 451.128 93.166 446.059C91.7884 445.122 90.1132 444.582 88.3278 444.582C83.5447 444.582 79.6543 448.461 79.6543 453.256Z" fill="#E6E6E6"/>
<path opacity="0.3" d="M79.6543 453.256C79.6543 457.873 83.2692 461.642 87.8208 461.896C88.8678 456.297 90.7965 451.128 93.166 446.059C91.7884 445.122 90.1132 444.582 88.3278 444.582C83.5447 444.582 79.6543 448.461 79.6543 453.256Z" fill="#F2F2F2"/>
<path d="M43.9976 543.55C43.9976 543.34 44.0306 543.142 44.0306 542.922C44.0306 534.568 37.2638 527.801 28.9099 527.801C20.5559 527.801 13.7891 534.568 13.7891 542.922C13.7891 543.131 13.8111 543.34 13.8221 543.55H44.0086H43.9976Z" fill="#E6E6E6"/>
<g style="mix-blend-mode:multiply" opacity="0.5">
<path d="M43.9976 543.55C43.9976 543.34 44.0306 543.142 44.0306 542.922C44.0306 534.568 37.2638 527.801 28.9099 527.801C20.5559 527.801 13.7891 534.568 13.7891 542.922C13.7891 543.131 13.8111 543.34 13.8221 543.55H44.0086H43.9976Z" fill="#E6E6E6"/>
</g>
<g style="mix-blend-mode:multiply" opacity="0.2">
<path d="M42.1815 543.553C42.1815 543.343 42.2146 543.145 42.2146 542.925C42.2146 535.574 36.2522 529.611 28.9012 529.611C21.5502 529.611 15.5879 535.574 15.5879 542.925C15.5879 543.134 15.6099 543.343 15.621 543.553H42.1815Z" fill="#E6E6E6"/>
</g>
<path opacity="0.5" d="M39.9654 543.551C39.9764 543.342 39.9984 543.143 39.9984 542.923C39.9984 536.795 35.028 531.836 28.9113 531.836C22.7947 531.836 17.8242 536.806 17.8242 542.923C17.8242 543.132 17.8463 543.342 17.8573 543.551H39.9764H39.9654Z" fill="#E6E6E6"/>
<path opacity="0.3" d="M37.6717 543.55C37.6827 543.34 37.7047 543.142 37.7047 542.922C37.7047 538.061 33.7702 534.127 28.91 534.127C24.0497 534.127 20.1152 538.061 20.1152 542.922C20.1152 543.131 20.1373 543.34 20.1483 543.55H37.6717Z" fill="#F2F2F2"/>
<path d="M74.2495 543.55C74.2495 543.34 74.2826 543.142 74.2826 542.922C74.2826 534.568 67.5157 527.801 59.1618 527.801C50.8079 527.801 44.041 534.568 44.041 542.922C44.041 543.131 44.0631 543.34 44.0741 543.55H74.2605H74.2495Z" fill="#E6E6E6"/>
<g style="mix-blend-mode:multiply" opacity="0.5">
<path d="M74.2495 543.55C74.2495 543.34 74.2826 543.142 74.2826 542.922C74.2826 534.568 67.5157 527.801 59.1618 527.801C50.8079 527.801 44.041 534.568 44.041 542.922C44.041 543.131 44.0631 543.34 44.0741 543.55H74.2605H74.2495Z" fill="#E6E6E6"/>
</g>
<g style="mix-blend-mode:multiply" opacity="0.2">
<path d="M72.4335 543.553C72.4335 543.343 72.4665 543.145 72.4665 542.925C72.4665 535.574 66.5042 529.611 59.1532 529.611C51.8022 529.611 45.8398 535.574 45.8398 542.925C45.8398 543.134 45.8619 543.343 45.8729 543.553H72.4335Z" fill="#E6E6E6"/>
</g>
<path opacity="0.5" d="M70.2173 543.551C70.2283 543.342 70.2504 543.143 70.2504 542.923C70.2504 536.795 65.2799 531.836 59.1633 531.836C53.0466 531.836 48.0762 536.806 48.0762 542.923C48.0762 543.132 48.0982 543.342 48.1092 543.551H70.2283H70.2173Z" fill="#E6E6E6"/>
<path opacity="0.3" d="M67.9236 543.55C67.9346 543.34 67.9567 543.142 67.9567 542.922C67.9567 538.061 64.0222 534.127 59.1619 534.127C54.3017 534.127 50.3672 538.061 50.3672 542.922C50.3672 543.131 50.3892 543.34 50.4002 543.55H67.9236Z" fill="#F2F2F2"/>
<path d="M104.503 543.55C104.503 543.34 104.536 543.142 104.536 542.922C104.536 534.568 97.7696 527.801 89.4157 527.801C81.0618 527.801 74.2949 534.568 74.2949 542.922C74.2949 543.131 74.317 543.34 74.328 543.55H104.514H104.503Z" fill="#E6E6E6"/>
<g style="mix-blend-mode:multiply" opacity="0.5">
<path d="M104.503 543.55C104.503 543.34 104.536 543.142 104.536 542.922C104.536 534.568 97.7696 527.801 89.4157 527.801C81.0618 527.801 74.2949 534.568 74.2949 542.922C74.2949 543.131 74.317 543.34 74.328 543.55H104.514H104.503Z" fill="#E6E6E6"/>
</g>
<g style="mix-blend-mode:multiply" opacity="0.2">
<path d="M102.687 543.553C102.687 543.343 102.72 543.145 102.72 542.925C102.72 535.574 96.7581 529.611 89.4071 529.611C82.0561 529.611 76.0938 535.574 76.0938 542.925C76.0938 543.134 76.1158 543.343 76.1268 543.553H102.687Z" fill="#E6E6E6"/>
</g>
<path opacity="0.5" d="M100.471 543.551C100.482 543.342 100.504 543.143 100.504 542.923C100.504 536.795 95.5338 531.836 89.4172 531.836C83.3005 531.836 78.3301 536.806 78.3301 542.923C78.3301 543.132 78.3521 543.342 78.3631 543.551H100.482H100.471Z" fill="#E6E6E6"/>
<path opacity="0.3" d="M98.1658 543.55C98.1768 543.34 98.1989 543.142 98.1989 542.922C98.1989 538.061 94.2644 534.127 89.4041 534.127C84.5439 534.127 80.6094 538.061 80.6094 542.922C80.6094 543.131 80.6314 543.34 80.6424 543.55H98.1658Z" fill="#F2F2F2"/>
<path d="M54.1436 539.181C59.9668 533.357 59.9668 523.916 54.1436 518.093C48.3203 512.27 38.8789 512.27 33.0557 518.093C27.2324 523.916 27.2324 533.357 33.0557 539.181C38.8789 545.004 48.3203 545.004 54.1436 539.181Z" fill="#E6E6E6"/>
<g style="mix-blend-mode:multiply" opacity="0.5">
<path d="M54.1436 539.181C59.9668 533.357 59.9668 523.916 54.1436 518.093C48.3203 512.27 38.8789 512.27 33.0557 518.093C27.2324 523.916 27.2324 533.357 33.0557 539.181C38.8789 545.004 48.3203 545.004 54.1436 539.181Z" fill="#E6E6E6"/>
</g>
<g style="mix-blend-mode:multiply" opacity="0.2">
<path d="M52.8718 537.91C57.9935 532.789 57.9936 524.485 52.8718 519.363C47.7501 514.241 39.4462 514.241 34.3245 519.363C29.2028 524.485 29.2028 532.789 34.3245 537.91C39.4462 543.032 47.7501 543.032 52.8718 537.91Z" fill="#E6E6E6"/>
</g>
<path opacity="0.5" d="M43.5969 539.571C49.6349 539.571 54.5297 534.676 54.5297 528.638C54.5297 522.6 49.6349 517.705 43.5969 517.705C37.5588 517.705 32.6641 522.6 32.6641 528.638C32.6641 534.676 37.5588 539.571 43.5969 539.571Z" fill="#E6E6E6"/>
<path opacity="0.3" d="M43.5973 537.312C48.3876 537.312 52.2709 533.429 52.2709 528.638C52.2709 523.848 48.3876 519.965 43.5973 519.965C38.8071 519.965 34.9238 523.848 34.9238 528.638C34.9238 533.429 38.8071 537.312 43.5973 537.312Z" fill="#F2F2F2"/>
<path d="M83.9521 539.181C89.7754 533.357 89.7754 523.916 83.9521 518.093C78.1289 512.27 68.6875 512.27 62.8643 518.093C57.041 523.916 57.041 533.357 62.8643 539.181C68.6875 545.004 78.1289 545.004 83.9521 539.181Z" fill="#E6E6E6"/>
<g style="mix-blend-mode:multiply" opacity="0.5">
<path d="M83.9521 539.181C89.7754 533.357 89.7754 523.916 83.9521 518.093C78.1289 512.27 68.6875 512.27 62.8643 518.093C57.041 523.916 57.041 533.357 62.8643 539.181C68.6875 545.004 78.1289 545.004 83.9521 539.181Z" fill="#E6E6E6"/>
</g>
<g style="mix-blend-mode:multiply" opacity="0.2">
<path d="M82.6804 537.91C87.8021 532.789 87.8021 524.485 82.6804 519.363C77.5587 514.241 69.2548 514.241 64.1331 519.363C59.0113 524.485 59.0114 532.789 64.1331 537.91C69.2548 543.032 77.5587 543.032 82.6804 537.91Z" fill="#E6E6E6"/>
</g>
<path opacity="0.5" d="M73.4094 539.571C79.4474 539.571 84.3422 534.676 84.3422 528.638C84.3422 522.6 79.4474 517.705 73.4094 517.705C67.3713 517.705 62.4766 522.6 62.4766 528.638C62.4766 534.676 67.3713 539.571 73.4094 539.571Z" fill="#E6E6E6"/>
<path opacity="0.3" d="M73.4059 537.306C78.1962 537.306 82.0795 533.423 82.0795 528.633C82.0795 523.842 78.1962 519.959 73.4059 519.959C68.6157 519.959 64.7324 523.842 64.7324 528.633C64.7324 533.423 68.6157 537.306 73.4059 537.306Z" fill="#F2F2F2"/>
<path d="M113.784 539.179C119.607 533.355 119.607 523.914 113.784 518.091C107.961 512.268 98.5195 512.268 92.6963 518.091C86.873 523.914 86.873 533.355 92.6963 539.179C98.5196 545.002 107.961 545.002 113.784 539.179Z" fill="#E6E6E6"/>
<g style="mix-blend-mode:multiply" opacity="0.5">
<path d="M113.784 539.179C119.607 533.355 119.607 523.914 113.784 518.091C107.961 512.268 98.5195 512.268 92.6963 518.091C86.873 523.914 86.873 533.355 92.6963 539.179C98.5196 545.002 107.961 545.002 113.784 539.179Z" fill="#E6E6E6"/>
</g>
<g style="mix-blend-mode:multiply" opacity="0.2">
<path d="M112.512 537.908C117.634 532.787 117.634 524.483 112.512 519.361C107.391 514.239 99.0868 514.239 93.9651 519.361C88.8434 524.483 88.8434 532.787 93.9651 537.908C99.0868 543.03 107.391 543.03 112.512 537.908Z" fill="#E6E6E6"/>
</g>
<path opacity="0.5" d="M103.232 539.571C109.27 539.571 114.164 534.676 114.164 528.638C114.164 522.6 109.27 517.705 103.232 517.705C97.1936 517.705 92.2988 522.6 92.2988 528.638C92.2988 534.676 97.1936 539.571 103.232 539.571Z" fill="#E6E6E6"/>
<path opacity="0.3" d="M103.234 537.31C108.024 537.31 111.908 533.427 111.908 528.636C111.908 523.846 108.024 519.963 103.234 519.963C98.4438 519.963 94.5605 523.846 94.5605 528.636C94.5605 533.427 98.4438 537.31 103.234 537.31Z" fill="#F2F2F2"/>
<path d="M69.0439 523.437C74.8672 517.613 74.8672 508.172 69.0439 502.349C63.2207 496.525 53.7793 496.525 47.9561 502.349C42.1328 508.172 42.1328 517.613 47.9561 523.437C53.7793 529.26 63.2207 529.26 69.0439 523.437Z" fill="#E6E6E6"/>
<g style="mix-blend-mode:multiply" opacity="0.5">
<path d="M69.0439 523.437C74.8672 517.613 74.8672 508.172 69.0439 502.349C63.2207 496.525 53.7793 496.525 47.9561 502.349C42.1328 508.172 42.1328 517.613 47.9561 523.437C53.7793 529.26 63.2207 529.26 69.0439 523.437Z" fill="#E6E6E6"/>
</g>
<g style="mix-blend-mode:multiply" opacity="0.2">
<path d="M67.7722 522.166C72.8939 517.045 72.8939 508.741 67.7722 503.619C62.6505 498.497 54.3466 498.497 49.2248 503.619C44.1031 508.741 44.1031 517.045 49.2248 522.166C54.3466 527.288 62.6505 527.288 67.7722 522.166Z" fill="#E6E6E6"/>
</g>
<path opacity="0.5" d="M58.5051 523.823C64.5431 523.823 69.4379 518.928 69.4379 512.89C69.4379 506.852 64.5431 501.957 58.5051 501.957C52.4671 501.957 47.5723 506.852 47.5723 512.89C47.5723 518.928 52.4671 523.823 58.5051 523.823Z" fill="#E6E6E6"/>
<path opacity="0.3" d="M58.5016 521.562C63.2919 521.562 67.1751 517.679 67.1751 512.888C67.1751 508.098 63.2919 504.215 58.5016 504.215C53.7114 504.215 49.8281 508.098 49.8281 512.888C49.8281 517.679 53.7114 521.562 58.5016 521.562Z" fill="#F2F2F2"/>
<path d="M98.874 523.433C104.697 517.609 104.697 508.168 98.874 502.345C93.0508 496.521 83.6094 496.521 77.7861 502.345C71.9629 508.168 71.9629 517.609 77.7861 523.433C83.6094 529.256 93.0508 529.256 98.874 523.433Z" fill="#E6E6E6"/>
<g style="mix-blend-mode:multiply" opacity="0.5">
<path d="M98.874 523.433C104.697 517.609 104.697 508.168 98.874 502.345C93.0508 496.521 83.6094 496.521 77.7861 502.345C71.9629 508.168 71.9629 517.609 77.7861 523.433C83.6094 529.256 93.0508 529.256 98.874 523.433Z" fill="#E6E6E6"/>
</g>
<g style="mix-blend-mode:multiply" opacity="0.2">
<path d="M97.6023 522.162C102.724 517.041 102.724 508.737 97.6023 503.615C92.4806 498.493 84.1766 498.493 79.0549 503.615C73.9332 508.737 73.9332 517.041 79.0549 522.162C84.1766 527.284 92.4806 527.284 97.6023 522.162Z" fill="#E6E6E6"/>
</g>
<path opacity="0.5" d="M88.3273 523.823C94.3654 523.823 99.2602 518.928 99.2602 512.89C99.2602 506.852 94.3654 501.957 88.3273 501.957C82.2893 501.957 77.3945 506.852 77.3945 512.89C77.3945 518.928 82.2893 523.823 88.3273 523.823Z" fill="#E6E6E6"/>
<path opacity="0.3" d="M88.3278 521.564C93.1181 521.564 97.0013 517.681 97.0013 512.89C97.0013 508.1 93.1181 504.217 88.3278 504.217C83.5376 504.217 79.6543 508.1 79.6543 512.89C79.6543 517.681 83.5376 521.564 88.3278 521.564Z" fill="#F2F2F2"/>
<path d="M54.1435 509.353C59.9668 503.529 59.9668 494.088 54.1435 488.265C48.3203 482.441 38.8789 482.441 33.0557 488.265C27.2324 494.088 27.2324 503.529 33.0557 509.353C38.8789 515.176 48.3203 515.176 54.1435 509.353Z" fill="#E6E6E6"/>
<g style="mix-blend-mode:multiply" opacity="0.5">
<path d="M54.1435 509.353C59.9668 503.529 59.9668 494.088 54.1435 488.265C48.3203 482.441 38.8789 482.441 33.0557 488.265C27.2324 494.088 27.2324 503.529 33.0557 509.353C38.8789 515.176 48.3203 515.176 54.1435 509.353Z" fill="#E6E6E6"/>
</g>
<g style="mix-blend-mode:multiply" opacity="0.2">
<path d="M52.8718 508.082C57.9935 502.961 57.9935 494.657 52.8718 489.535C47.7501 484.413 39.4462 484.413 34.3245 489.535C29.2028 494.657 29.2027 502.961 34.3245 508.082C39.4462 513.204 47.7501 513.204 52.8718 508.082Z" fill="#E6E6E6"/>
</g>
<path opacity="0.5" d="M43.6008 509.745C49.6388 509.745 54.5336 504.85 54.5336 498.812C54.5336 492.774 49.6388 487.879 43.6008 487.879C37.5628 487.879 32.668 492.774 32.668 498.812C32.668 504.85 37.5628 509.745 43.6008 509.745Z" fill="#E6E6E6"/>
<path opacity="0.3" d="M43.6012 507.488C48.3915 507.488 52.2748 503.604 52.2748 498.814C52.2748 494.024 48.3915 490.141 43.6012 490.141C38.811 490.141 34.9277 494.024 34.9277 498.814C34.9277 503.604 38.811 507.488 43.6012 507.488Z" fill="#F2F2F2"/>
<path d="M83.9482 509.372C89.7715 503.549 89.7715 494.107 83.9482 488.284C78.125 482.461 68.6836 482.461 62.8603 488.284C57.0371 494.107 57.0371 503.549 62.8603 509.372C68.6836 515.195 78.125 515.195 83.9482 509.372Z" fill="#E6E6E6"/>
<g style="mix-blend-mode:multiply" opacity="0.5">
<path d="M83.9482 509.372C89.7715 503.549 89.7715 494.107 83.9482 488.284C78.125 482.461 68.6836 482.461 62.8603 488.284C57.0371 494.107 57.0371 503.549 62.8603 509.372C68.6836 515.195 78.125 515.195 83.9482 509.372Z" fill="#E6E6E6"/>
</g>
<g style="mix-blend-mode:multiply" opacity="0.2">
<path d="M82.6765 508.102C87.7982 502.98 87.7982 494.676 82.6765 489.554C77.5548 484.433 69.2509 484.433 64.1291 489.554C59.0074 494.676 59.0074 502.98 64.1291 508.102C69.2509 513.224 77.5548 513.224 82.6765 508.102Z" fill="#E6E6E6"/>
</g>
<path opacity="0.5" d="M73.4094 509.752C79.4474 509.752 84.3422 504.858 84.3422 498.82C84.3422 492.782 79.4474 487.887 73.4094 487.887C67.3713 487.887 62.4766 492.782 62.4766 498.82C62.4766 504.858 67.3713 509.752 73.4094 509.752Z" fill="#E6E6E6"/>
<path opacity="0.3" d="M73.4059 507.495C78.1962 507.495 82.0795 503.612 82.0795 498.822C82.0795 494.032 78.1962 490.148 73.4059 490.148C68.6157 490.148 64.7324 494.032 64.7324 498.822C64.7324 503.612 68.6157 507.495 73.4059 507.495Z" fill="#F2F2F2"/>
<path d="M69.0498 493.624C74.873 487.801 74.873 478.359 69.0498 472.536C63.2265 466.713 53.7852 466.713 47.9619 472.536C42.1387 478.359 42.1387 487.801 47.9619 493.624C53.7852 499.447 63.2265 499.447 69.0498 493.624Z" fill="#E6E6E6"/>
<g style="mix-blend-mode:multiply" opacity="0.5">
<path d="M69.0498 493.624C74.873 487.801 74.873 478.359 69.0498 472.536C63.2265 466.713 53.7852 466.713 47.9619 472.536C42.1387 478.359 42.1387 487.801 47.9619 493.624C53.7852 499.447 63.2265 499.447 69.0498 493.624Z" fill="#E6E6E6"/>
</g>
<g style="mix-blend-mode:multiply" opacity="0.2">
<path d="M67.7781 492.354C72.8998 487.232 72.8998 478.928 67.7781 473.806C62.6564 468.685 54.3524 468.685 49.2307 473.806C44.109 478.928 44.109 487.232 49.2307 492.354C54.3524 497.475 62.6564 497.475 67.7781 492.354Z" fill="#E6E6E6"/>
</g>
<path opacity="0.5" d="M58.5031 494C64.5411 494 69.4359 489.106 69.4359 483.068C69.4359 477.03 64.5411 472.135 58.5031 472.135C52.4651 472.135 47.5703 477.03 47.5703 483.068C47.5703 489.106 52.4651 494 58.5031 494Z" fill="#E6E6E6"/>
<path opacity="0.3" d="M58.4997 491.743C63.2899 491.743 67.1732 487.86 67.1732 483.07C67.1732 478.28 63.2899 474.396 58.4997 474.396C53.7094 474.396 49.8262 478.28 49.8262 483.07C49.8262 487.86 53.7094 491.743 58.4997 491.743Z" fill="#F2F2F2"/>
<path d="M54.1416 479.54C59.9648 473.717 59.9648 464.275 54.1416 458.452C48.3183 452.629 38.877 452.629 33.0537 458.452C27.2304 464.275 27.2304 473.717 33.0537 479.54C38.877 485.363 48.3183 485.363 54.1416 479.54Z" fill="#E6E6E6"/>
<g style="mix-blend-mode:multiply" opacity="0.5">
<path d="M54.1416 479.54C59.9648 473.717 59.9648 464.275 54.1416 458.452C48.3183 452.629 38.877 452.629 33.0537 458.452C27.2304 464.275 27.2304 473.717 33.0537 479.54C38.877 485.363 48.3183 485.363 54.1416 479.54Z" fill="#E6E6E6"/>
</g>
<g style="mix-blend-mode:multiply" opacity="0.2">
<path d="M52.8699 478.27C57.9916 473.148 57.9916 464.844 52.8699 459.722C47.7482 454.601 39.4442 454.601 34.3225 459.722C29.2008 464.844 29.2008 473.148 34.3225 478.27C39.4442 483.391 47.7482 483.391 52.8699 478.27Z" fill="#E6E6E6"/>
</g>
<path opacity="0.5" d="M43.6066 479.93C49.6447 479.93 54.5394 475.035 54.5394 468.997C54.5394 462.959 49.6447 458.064 43.6066 458.064C37.5686 458.064 32.6738 462.959 32.6738 468.997C32.6738 475.035 37.5686 479.93 43.6066 479.93Z" fill="#E6E6E6"/>
<path opacity="0.3" d="M43.6032 477.671C48.3935 477.671 52.2767 473.788 52.2767 468.998C52.2767 464.207 48.3935 460.324 43.6032 460.324C38.813 460.324 34.9297 464.207 34.9297 468.998C34.9297 473.788 38.813 477.671 43.6032 477.671Z" fill="#F2F2F2"/>
<path d="M83.958 479.542C89.7813 473.719 89.7813 464.277 83.958 458.454C78.1347 452.631 68.6934 452.631 62.8701 458.454C57.0469 464.277 57.0469 473.719 62.8701 479.542C68.6934 485.365 78.1347 485.365 83.958 479.542Z" fill="#E6E6E6"/>
<g style="mix-blend-mode:multiply" opacity="0.5">
<path d="M83.958 479.542C89.7813 473.719 89.7813 464.277 83.958 458.454C78.1347 452.631 68.6934 452.631 62.8701 458.454C57.0469 464.277 57.0469 473.719 62.8701 479.542C68.6934 485.365 78.1347 485.365 83.958 479.542Z" fill="#E6E6E6"/>
</g>
<g style="mix-blend-mode:multiply" opacity="0.2">
<path d="M82.6863 478.272C87.808 473.15 87.808 464.846 82.6863 459.724C77.5646 454.603 69.2606 454.603 64.1389 459.724C59.0172 464.846 59.0172 473.15 64.1389 478.272C69.2606 483.393 77.5646 483.393 82.6863 478.272Z" fill="#E6E6E6"/>
</g>
<path opacity="0.5" d="M73.4113 479.928C79.4494 479.928 84.3441 475.033 84.3441 468.995C84.3441 462.957 79.4494 458.062 73.4113 458.062C67.3733 458.062 62.4785 462.957 62.4785 468.995C62.4785 475.033 67.3733 479.928 73.4113 479.928Z" fill="#E6E6E6"/>
<path opacity="0.3" d="M73.4118 477.667C78.202 477.667 82.0853 473.784 82.0853 468.994C82.0853 464.204 78.202 460.32 73.4118 460.32C68.6215 460.32 64.7383 464.204 64.7383 468.994C64.7383 473.784 68.6215 477.667 73.4118 477.667Z" fill="#F2F2F2"/>
<path d="M35.7625 466.375C43.0142 462.472 45.7288 453.43 41.8258 446.178C37.9228 438.926 28.8801 436.212 21.6284 440.115C14.3767 444.018 11.6621 453.06 15.5651 460.312C19.4681 467.564 28.5108 470.278 35.7625 466.375Z" fill="#E6E6E6"/>
<g style="mix-blend-mode:multiply" opacity="0.5">
<path d="M35.7625 466.375C43.0142 462.472 45.7288 453.43 41.8258 446.178C37.9228 438.926 28.8801 436.212 21.6284 440.115C14.3767 444.018 11.6621 453.06 15.5651 460.312C19.4681 467.564 28.5108 470.278 35.7625 466.375Z" fill="#E6E6E6"/>
</g>
<g style="mix-blend-mode:multiply" opacity="0.2">
<path d="M35.1609 464.662C41.4638 461.093 43.6801 453.09 40.1112 446.787C36.5423 440.484 28.5396 438.268 22.2367 441.837C15.9337 445.406 13.7174 453.408 17.2863 459.711C20.8552 466.014 28.8579 468.231 35.1609 464.662Z" fill="#E6E6E6"/>
</g>
<path opacity="0.5" d="M28.6906 464.188C34.7287 464.188 39.6234 459.293 39.6234 453.255C39.6234 447.217 34.7287 442.322 28.6906 442.322C22.6526 442.322 17.7578 447.217 17.7578 453.255C17.7578 459.293 22.6526 464.188 28.6906 464.188Z" fill="#E6E6E6"/>
<path opacity="0.3" d="M28.693 461.929C33.4833 461.929 37.3666 458.046 37.3666 453.256C37.3666 448.465 33.4833 444.582 28.693 444.582C23.9028 444.582 20.0195 448.465 20.0195 453.256C20.0195 458.046 23.9028 461.929 28.693 461.929Z" fill="#F2F2F2"/>
<path d="M69.0517 463.804C74.875 457.98 74.875 448.539 69.0517 442.716C63.2285 436.893 53.7871 436.893 47.9639 442.716C42.1406 448.539 42.1406 457.98 47.9639 463.804C53.7871 469.627 63.2285 469.627 69.0517 463.804Z" fill="#E6E6E6"/>
<g style="mix-blend-mode:multiply" opacity="0.5">
<path d="M69.0517 463.804C74.875 457.98 74.875 448.539 69.0517 442.716C63.2285 436.893 53.7871 436.893 47.9639 442.716C42.1406 448.539 42.1406 457.98 47.9639 463.804C53.7871 469.627 63.2285 469.627 69.0517 463.804Z" fill="#E6E6E6"/>
</g>
<g style="mix-blend-mode:multiply" opacity="0.2">
<path d="M67.78 462.533C72.9017 457.412 72.9017 449.108 67.78 443.986C62.6583 438.864 54.3544 438.864 49.2327 443.986C44.1109 449.108 44.1109 457.412 49.2327 462.533C54.3544 467.655 62.6583 467.655 67.78 462.533Z" fill="#E6E6E6"/>
</g>
<path opacity="0.5" d="M58.4992 464.19C64.5372 464.19 69.432 459.295 69.432 453.257C69.432 447.219 64.5372 442.324 58.4992 442.324C52.4612 442.324 47.5664 447.219 47.5664 453.257C47.5664 459.295 52.4612 464.19 58.4992 464.19Z" fill="#E6E6E6"/>
<path opacity="0.3" d="M58.5016 461.929C63.2919 461.929 67.1751 458.046 67.1751 453.256C67.1751 448.465 63.2919 444.582 58.5016 444.582C53.7114 444.582 49.8281 448.465 49.8281 453.256C49.8281 458.046 53.7114 461.929 58.5016 461.929Z" fill="#F2F2F2"/>
<path d="M54.1416 449.729C59.9648 443.906 59.9648 434.465 54.1416 428.642C48.3183 422.818 38.877 422.818 33.0537 428.642C27.2304 434.465 27.2304 443.906 33.0537 449.729C38.877 455.553 48.3183 455.553 54.1416 449.729Z" fill="#E6E6E6"/>
<g style="mix-blend-mode:multiply" opacity="0.5">
<path d="M54.1416 449.729C59.9648 443.906 59.9648 434.465 54.1416 428.642C48.3183 422.818 38.877 422.818 33.0537 428.642C27.2304 434.465 27.2304 443.906 33.0537 449.729C38.877 455.553 48.3183 455.553 54.1416 449.729Z" fill="#E6E6E6"/>
</g>
<g style="mix-blend-mode:multiply" opacity="0.2">
<path d="M52.8699 448.459C57.9916 443.338 57.9916 435.034 52.8699 429.912C47.7482 424.79 39.4442 424.79 34.3225 429.912C29.2008 435.034 29.2008 443.338 34.3225 448.459C39.4442 453.581 47.7482 453.581 52.8699 448.459Z" fill="#E6E6E6"/>
</g>
<path opacity="0.5" d="M43.5988 450.116C49.6369 450.116 54.5316 445.221 54.5316 439.183C54.5316 433.145 49.6369 428.25 43.5988 428.25C37.5608 428.25 32.666 433.145 32.666 439.183C32.666 445.221 37.5608 450.116 43.5988 450.116Z" fill="#E6E6E6"/>
<path opacity="0.3" d="M43.5993 447.855C48.3895 447.855 52.2728 443.972 52.2728 439.181C52.2728 434.391 48.3895 430.508 43.5993 430.508C38.809 430.508 34.9258 434.391 34.9258 439.181C34.9258 443.972 38.809 447.855 43.5993 447.855Z" fill="#F2F2F2"/>
<path d="M83.9658 449.735C89.7891 443.912 89.7891 434.471 83.9658 428.647C78.1425 422.824 68.7012 422.824 62.8779 428.647C57.0547 434.471 57.0547 443.912 62.8779 449.735C68.7012 455.559 78.1425 455.559 83.9658 449.735Z" fill="#E6E6E6"/>
<g style="mix-blend-mode:multiply" opacity="0.5">
<path d="M83.9658 449.735C89.7891 443.912 89.7891 434.471 83.9658 428.647C78.1425 422.824 68.7012 422.824 62.8779 428.647C57.0547 434.471 57.0547 443.912 62.8779 449.735C68.7012 455.559 78.1425 455.559 83.9658 449.735Z" fill="#E6E6E6"/>
</g>
<g style="mix-blend-mode:multiply" opacity="0.2">
<path d="M82.6941 448.465C87.8158 443.343 87.8158 435.039 82.6941 429.918C77.5724 424.796 69.2684 424.796 64.1467 429.918C59.025 435.039 59.025 443.343 64.1467 448.465C69.2684 453.587 77.5724 453.587 82.6941 448.465Z" fill="#E6E6E6"/>
</g>
<path opacity="0.5" d="M73.4191 450.116C79.4572 450.116 84.3519 445.221 84.3519 439.183C84.3519 433.145 79.4572 428.25 73.4191 428.25C67.3811 428.25 62.4863 433.145 62.4863 439.183C62.4863 445.221 67.3811 450.116 73.4191 450.116Z" fill="#E6E6E6"/>
<path opacity="0.3" d="M73.4157 447.859C78.2059 447.859 82.0892 443.975 82.0892 439.185C82.0892 434.395 78.2059 430.512 73.4157 430.512C68.6254 430.512 64.7422 434.395 64.7422 439.185C64.7422 443.975 68.6254 447.859 73.4157 447.859Z" fill="#F2F2F2"/>
<path d="M28.6897 439.181C28.6897 430.948 22.0109 424.27 13.7783 424.27C12.9958 424.27 12.2243 424.347 11.4749 424.468C11.3867 425.074 11.3096 425.691 11.2324 426.308C12.059 426.143 12.9076 426.055 13.7783 426.055C21.0191 426.055 26.8932 431.929 26.8932 439.17C26.8932 446.411 21.0191 452.285 13.7783 452.285C13.2493 452.285 12.7203 452.241 12.2133 452.186C12.4447 453.674 13.4366 454.081 13.7783 454.081C22.0109 454.081 28.6897 447.403 28.6897 439.17V439.181Z" fill="#E6E6E6"/>
<g style="mix-blend-mode:multiply" opacity="0.5">
<path d="M28.6897 439.181C28.6897 430.948 22.0109 424.27 13.7783 424.27C12.9958 424.27 12.2243 424.347 11.4749 424.468C11.3867 425.074 11.3096 425.691 11.2324 426.308C12.059 426.143 12.9076 426.055 13.7783 426.055C21.0191 426.055 26.8932 431.929 26.8932 439.17C26.8932 446.411 21.0191 452.285 13.7783 452.285C13.2493 452.285 12.7203 452.241 12.2133 452.186C12.4006 453.685 13.4366 454.081 13.7783 454.081C22.0109 454.081 28.6897 447.403 28.6897 439.17V439.181Z" fill="#E6E6E6"/>
</g>
<path d="M26.8909 439.183C26.8909 431.943 21.0167 426.068 13.7759 426.068C12.9052 426.068 12.0566 426.157 11.23 426.322C11.1309 427.093 11.0537 427.865 10.9766 428.636C11.8693 428.394 12.806 428.262 13.7869 428.262C19.8264 428.262 24.7197 433.155 24.7197 439.194C24.7197 445.234 19.8264 450.127 13.7869 450.127C13.0595 450.127 12.3542 450.05 11.6709 449.918C11.8362 450.689 12.0236 451.461 12.2219 452.21C12.7399 452.276 13.2579 452.309 13.7869 452.309C21.0277 452.309 26.9019 446.435 26.9019 439.194L26.8909 439.183Z" fill="#E6E6E6"/>
<g style="mix-blend-mode:multiply" opacity="0.5">
<path d="M26.8909 439.183C26.8909 431.943 21.0167 426.068 13.7759 426.068C12.9052 426.068 12.0566 426.157 11.23 426.322C11.1309 427.093 11.0537 427.865 10.9766 428.636C11.8693 428.394 12.806 428.262 13.7869 428.262C19.8264 428.262 24.7197 433.155 24.7197 439.194C24.7197 445.234 19.8264 450.127 13.7869 450.127C13.0595 450.127 12.3542 450.05 11.6709 449.918C11.8362 450.689 12.0236 451.461 12.2219 452.21C12.7399 452.276 13.2579 452.309 13.7869 452.309C21.0277 452.309 26.9019 446.435 26.9019 439.194L26.8909 439.183Z" fill="#E6E6E6"/>
</g>
<g style="mix-blend-mode:multiply" opacity="0.2">
<path d="M26.8909 439.183C26.8909 431.943 21.0167 426.068 13.7759 426.068C12.9052 426.068 12.0566 426.157 11.23 426.322C11.1309 427.093 11.0537 427.865 10.9766 428.636C11.8693 428.394 12.806 428.262 13.7869 428.262C19.8264 428.262 24.7197 433.155 24.7197 439.194C24.7197 445.234 19.8264 450.127 13.7869 450.127C13.0595 450.127 12.3542 450.05 11.6709 449.918C11.8362 450.689 12.0236 451.461 12.2219 452.21C12.7399 452.276 13.2579 452.309 13.7869 452.309C21.0277 452.309 26.9019 446.435 26.9019 439.194L26.8909 439.183Z" fill="#E6E6E6"/>
</g>
<path d="M24.7136 439.181C24.7136 433.141 19.8203 428.248 13.7808 428.248C12.8109 428.248 11.8741 428.391 10.9704 428.623C10.8933 429.438 10.8161 430.243 10.75 431.058C11.6978 430.706 12.7117 430.507 13.7697 430.507C18.5529 430.507 22.4433 434.387 22.4433 439.181C22.4433 443.975 18.5639 447.854 13.7697 447.854C12.877 447.854 12.0174 447.722 11.2019 447.469C11.3341 448.295 11.4774 449.111 11.6537 449.915C12.337 450.048 13.0424 450.125 13.7697 450.125C19.8092 450.125 24.7026 445.231 24.7026 439.192L24.7136 439.181Z" fill="#E6E6E6"/>
<g style="mix-blend-mode:multiply" opacity="0.5">
<path d="M24.7136 439.181C24.7136 433.141 19.8203 428.248 13.7808 428.248C12.8109 428.248 11.8741 428.391 10.9704 428.623C10.8933 429.438 10.8161 430.243 10.75 431.058C11.6978 430.706 12.7117 430.507 13.7697 430.507C18.5529 430.507 22.4433 434.387 22.4433 439.181C22.4433 443.975 18.5639 447.854 13.7697 447.854C12.877 447.854 12.0174 447.722 11.2019 447.469C11.3341 448.295 11.4774 449.111 11.6537 449.915C12.337 450.048 13.0424 450.125 13.7697 450.125C19.8092 450.125 24.7026 445.231 24.7026 439.192L24.7136 439.181Z" fill="#E6E6E6"/>
</g>
<g style="mix-blend-mode:multiply" opacity="0.2">
<path d="M24.7136 439.181C24.7136 433.141 19.8203 428.248 13.7808 428.248C12.8109 428.248 11.8741 428.391 10.9704 428.623C10.8933 429.438 10.8161 430.243 10.75 431.058C11.6978 430.706 12.7117 430.507 13.7697 430.507C18.5529 430.507 22.4433 434.387 22.4433 439.181C22.4433 443.975 18.5639 447.854 13.7697 447.854C12.877 447.854 12.0174 447.722 11.2019 447.469C11.3341 448.295 11.4774 449.111 11.6537 449.915C12.337 450.048 13.0424 450.125 13.7697 450.125C19.8092 450.125 24.7026 445.231 24.7026 439.192L24.7136 439.181Z" fill="#E6E6E6"/>
</g>
<path opacity="0.5" d="M24.7136 439.181C24.7136 433.141 19.8203 428.248 13.7808 428.248C12.8109 428.248 11.8741 428.391 10.9704 428.623C10.8933 429.438 10.8161 430.243 10.75 431.058C11.6978 430.706 12.7117 430.507 13.7697 430.507C18.5529 430.507 22.4433 434.387 22.4433 439.181C22.4433 443.975 18.5639 447.854 13.7697 447.854C12.877 447.854 12.0174 447.722 11.2019 447.469C11.3341 448.295 11.4774 449.111 11.6537 449.915C12.337 450.048 13.0424 450.125 13.7697 450.125C19.8092 450.125 24.7026 445.231 24.7026 439.192L24.7136 439.181Z" fill="#E6E6E6"/>
<path d="M22.4512 439.183C22.4512 434.4 18.5719 430.51 13.7777 430.51C12.7087 430.51 11.6948 430.708 10.758 431.061C10.3392 436.593 10.3833 442.214 11.2098 447.46C12.0254 447.714 12.885 447.846 13.7777 447.846C18.5608 447.846 22.4512 443.966 22.4512 439.172V439.183Z" fill="#E6E6E6"/>
<g style="mix-blend-mode:multiply" opacity="0.5">
<path d="M22.4512 439.183C22.4512 434.4 18.5719 430.51 13.7777 430.51C12.7087 430.51 11.6948 430.708 10.758 431.061C10.3392 436.593 10.3833 442.214 11.2098 447.46C12.0254 447.714 12.885 447.846 13.7777 447.846C18.5608 447.846 22.4512 443.966 22.4512 439.172V439.183Z" fill="#E6E6E6"/>
</g>
<g style="mix-blend-mode:multiply" opacity="0.2">
<path d="M22.4512 439.183C22.4512 434.4 18.5719 430.51 13.7777 430.51C12.7087 430.51 11.6948 430.708 10.758 431.061C10.3392 436.593 10.3833 442.214 11.2098 447.46C12.0254 447.714 12.885 447.846 13.7777 447.846C18.5608 447.846 22.4512 443.966 22.4512 439.172V439.183Z" fill="#E6E6E6"/>
</g>
<path opacity="0.5" d="M22.4512 439.183C22.4512 434.4 18.5719 430.51 13.7777 430.51C12.7087 430.51 11.6948 430.708 10.758 431.061C10.3392 436.593 10.3833 442.214 11.2098 447.46C12.0254 447.714 12.885 447.846 13.7777 447.846C18.5608 447.846 22.4512 443.966 22.4512 439.172V439.183Z" fill="#E6E6E6"/>
<path opacity="0.3" d="M22.4512 439.183C22.4512 434.4 18.5719 430.51 13.7777 430.51C12.7087 430.51 11.6948 430.708 10.758 431.061C10.3392 436.593 10.3833 442.214 11.2098 447.46C12.0254 447.714 12.885 447.846 13.7777 447.846C18.5608 447.846 22.4512 443.966 22.4512 439.172V439.183Z" fill="#F2F2F2"/>
<path d="M153.895 564.658H-0.0351562L4.97939 543.553H148.88L153.895 564.658Z" fill="#F2F2F2"/>
<g style="mix-blend-mode:multiply" opacity="0.3">
<path d="M153.895 564.658H-0.0351562L4.97939 543.553H148.88L153.895 564.658Z" fill="#F2F2F2"/>
</g>
<path d="M28.6868 438.342C36.9221 438.342 43.5982 431.666 43.5982 423.431C43.5982 415.196 36.9221 408.52 28.6868 408.52C20.4514 408.52 13.7754 415.196 13.7754 423.431C13.7754 431.666 20.4514 438.342 28.6868 438.342Z" fill="#E6E6E6"/>
<g style="mix-blend-mode:multiply" opacity="0.5">
<path d="M28.6868 438.342C36.9221 438.342 43.5982 431.666 43.5982 423.431C43.5982 415.196 36.9221 408.52 28.6868 408.52C20.4514 408.52 13.7754 415.196 13.7754 423.431C13.7754 431.666 20.4514 438.342 28.6868 438.342Z" fill="#E6E6E6"/>
</g>
<g style="mix-blend-mode:multiply" opacity="0.2">
<path d="M35.155 434.841C41.4579 431.272 43.6743 423.27 40.1053 416.967C36.5364 410.664 28.5337 408.447 22.2308 412.016C15.9279 415.585 13.7115 423.588 17.2805 429.891C20.8494 436.194 28.8521 438.41 35.155 434.841Z" fill="#E6E6E6"/>
</g>
<path opacity="0.5" d="M28.6906 434.368C34.7287 434.368 39.6234 429.473 39.6234 423.435C39.6234 417.397 34.7287 412.502 28.6906 412.502C22.6526 412.502 17.7578 417.397 17.7578 423.435C17.7578 429.473 22.6526 434.368 28.6906 434.368Z" fill="#E6E6E6"/>
<path opacity="0.3" d="M28.6891 432.107C33.4794 432.107 37.3626 428.224 37.3626 423.433C37.3626 418.643 33.4794 414.76 28.6891 414.76C23.8989 414.76 20.0156 418.643 20.0156 423.433C20.0156 428.224 23.8989 432.107 28.6891 432.107Z" fill="#F2F2F2"/>
<path d="M58.5051 438.346C66.7405 438.346 73.4165 431.67 73.4165 423.435C73.4165 415.199 66.7405 408.523 58.5051 408.523C50.2698 408.523 43.5938 415.199 43.5938 423.435C43.5938 431.67 50.2698 438.346 58.5051 438.346Z" fill="#E6E6E6"/>
<g style="mix-blend-mode:multiply" opacity="0.5">
<path d="M58.5051 438.346C66.7405 438.346 73.4165 431.67 73.4165 423.435C73.4165 415.199 66.7405 408.523 58.5051 408.523C50.2698 408.523 43.5938 415.199 43.5938 423.435C43.5938 431.67 50.2698 438.346 58.5051 438.346Z" fill="#E6E6E6"/>
</g>
<g style="mix-blend-mode:multiply" opacity="0.2">
<path d="M67.78 432.711C72.9017 427.589 72.9017 419.286 67.78 414.164C62.6583 409.042 54.3544 409.042 49.2327 414.164C44.1109 419.286 44.111 427.589 49.2327 432.711C54.3544 437.833 62.6583 437.833 67.78 432.711Z" fill="#E6E6E6"/>
</g>
<path opacity="0.5" d="M58.5051 434.366C64.5431 434.366 69.4379 429.471 69.4379 423.433C69.4379 417.395 64.5431 412.5 58.5051 412.5C52.4671 412.5 47.5723 417.395 47.5723 423.433C47.5723 429.471 52.4671 434.366 58.5051 434.366Z" fill="#E6E6E6"/>
<path opacity="0.3" d="M58.5055 432.105C63.2958 432.105 67.1791 428.222 67.1791 423.431C67.1791 418.641 63.2958 414.758 58.5055 414.758C53.7153 414.758 49.832 418.641 49.832 423.431C49.832 428.222 53.7153 432.105 58.5055 432.105Z" fill="#F2F2F2"/>
<path d="M88.3235 438.346C96.5588 438.346 103.235 431.67 103.235 423.435C103.235 415.199 96.5588 408.523 88.3235 408.523C80.0882 408.523 73.4121 415.199 73.4121 423.435C73.4121 431.67 80.0882 438.346 88.3235 438.346Z" fill="#E6E6E6"/>
<g style="mix-blend-mode:multiply" opacity="0.5">
<path d="M88.3235 438.346C96.5588 438.346 103.235 431.67 103.235 423.435C103.235 415.199 96.5588 408.523 88.3235 408.523C80.0882 408.523 73.4121 415.199 73.4121 423.435C73.4121 431.67 80.0882 438.346 88.3235 438.346Z" fill="#E6E6E6"/>
</g>
<g style="mix-blend-mode:multiply" opacity="0.2">
<path d="M97.5925 432.707C102.714 427.586 102.714 419.282 97.5925 414.16C92.4708 409.038 84.1669 409.038 79.0452 414.16C73.9234 419.282 73.9235 427.586 79.0452 432.707C84.1669 437.829 92.4708 437.829 97.5925 432.707Z" fill="#E6E6E6"/>
</g>
<path opacity="0.5" d="M88.3215 434.364C94.3595 434.364 99.2543 429.469 99.2543 423.431C99.2543 417.393 94.3595 412.498 88.3215 412.498C82.2835 412.498 77.3887 417.393 77.3887 423.431C77.3887 429.469 82.2835 434.364 88.3215 434.364Z" fill="#E6E6E6"/>
<path opacity="0.3" d="M88.3219 432.107C93.1122 432.107 96.9955 428.224 96.9955 423.433C96.9955 418.643 93.1122 414.76 88.3219 414.76C83.5317 414.76 79.6484 418.643 79.6484 423.433C79.6484 428.224 83.5317 432.107 88.3219 432.107Z" fill="#F2F2F2"/>
<path d="M21.7425 396.796C20.7616 401.083 19.88 405.393 19.0975 409.713C18.2489 414.419 17.279 419.158 16.9043 423.93C23.6381 422.497 28.6967 416.513 28.6967 409.349C28.6967 404.048 25.9195 399.419 21.7535 396.785L21.7425 396.796Z" fill="#E6E6E6"/>
<g style="mix-blend-mode:multiply" opacity="0.5">
<path d="M21.7425 396.796C20.7616 401.083 19.88 405.393 19.0975 409.713C18.2489 414.419 17.279 419.158 16.9043 423.93C23.6381 422.497 28.6967 416.513 28.6967 409.349C28.6967 404.048 25.9195 399.419 21.7535 396.785L21.7425 396.796Z" fill="#E6E6E6"/>
</g>
<g style="mix-blend-mode:multiply" opacity="0.2">
<path d="M21.3121 398.646C20.4966 402.316 19.7582 406.009 19.0969 409.712C18.3585 413.8 17.5319 417.911 17.0801 422.044C22.7228 420.578 26.8998 415.465 26.8998 409.359C26.8998 404.917 24.6846 401.016 21.3121 398.646Z" fill="#E6E6E6"/>
</g>
<path opacity="0.5" d="M20.8057 401.008C20.1886 403.906 19.6155 406.805 19.0865 409.714C18.4913 413.021 17.8411 416.338 17.3672 419.666C21.6323 418.179 24.7072 414.134 24.7072 409.362C24.7072 406 23.1863 403.014 20.8057 401.008Z" fill="#E6E6E6"/>
<path opacity="0.3" d="M19.0869 409.724C18.6461 412.159 18.1832 414.595 17.7754 417.041C20.5417 415.598 22.4483 412.71 22.4483 409.36C22.4483 407.156 21.6217 405.15 20.2661 403.629C19.8584 405.657 19.4616 407.685 19.0979 409.712L19.0869 409.724Z" fill="#F2F2F2"/>
<path d="M54.1435 419.901C59.9668 414.078 59.9668 404.637 54.1435 398.813C48.3203 392.99 38.8789 392.99 33.0557 398.813C27.2324 404.637 27.2324 414.078 33.0557 419.901C38.8789 425.725 48.3203 425.725 54.1435 419.901Z" fill="#E6E6E6"/>
<g style="mix-blend-mode:multiply" opacity="0.5">
<path d="M54.1435 419.901C59.9668 414.078 59.9668 404.637 54.1435 398.813C48.3203 392.99 38.8789 392.99 33.0557 398.813C27.2324 404.637 27.2324 414.078 33.0557 419.901C38.8789 425.725 48.3203 425.725 54.1435 419.901Z" fill="#E6E6E6"/>
</g>
<g style="mix-blend-mode:multiply" opacity="0.2">
<path d="M52.8718 418.631C57.9935 413.509 57.9935 405.205 52.8718 400.084C47.7501 394.962 39.4462 394.962 34.3245 400.084C29.2028 405.205 29.2028 413.509 34.3245 418.631C39.4462 423.753 47.7501 423.753 52.8718 418.631Z" fill="#E6E6E6"/>
</g>
<path opacity="0.5" d="M43.5969 420.291C49.6349 420.291 54.5297 415.397 54.5297 409.359C54.5297 403.321 49.6349 398.426 43.5969 398.426C37.5588 398.426 32.6641 403.321 32.6641 409.359C32.6641 415.397 37.5588 420.291 43.5969 420.291Z" fill="#E6E6E6"/>
<path opacity="0.3" d="M43.5973 418.033C48.3876 418.033 52.2709 414.149 52.2709 409.359C52.2709 404.569 48.3876 400.686 43.5973 400.686C38.8071 400.686 34.9238 404.569 34.9238 409.359C34.9238 414.149 38.8071 418.033 43.5973 418.033Z" fill="#F2F2F2"/>
<path d="M83.9521 419.907C89.7754 414.084 89.7754 404.643 83.9521 398.819C78.1289 392.996 68.6875 392.996 62.8643 398.819C57.041 404.643 57.041 414.084 62.8643 419.907C68.6875 425.73 78.1289 425.73 83.9521 419.907Z" fill="#E6E6E6"/>
<g style="mix-blend-mode:multiply" opacity="0.5">
<path d="M83.9521 419.907C89.7754 414.084 89.7754 404.643 83.9521 398.819C78.1289 392.996 68.6875 392.996 62.8643 398.819C57.041 404.643 57.041 414.084 62.8643 419.907C68.6875 425.73 78.1289 425.73 83.9521 419.907Z" fill="#E6E6E6"/>
</g>
<g style="mix-blend-mode:multiply" opacity="0.2">
<path d="M82.6804 418.637C87.8021 413.515 87.8021 405.211 82.6804 400.09C77.5587 394.968 69.2548 394.968 64.1331 400.09C59.0113 405.211 59.0113 413.515 64.1331 418.637C69.2548 423.759 77.5587 423.759 82.6804 418.637Z" fill="#E6E6E6"/>
</g>
<path opacity="0.5" d="M73.4094 420.297C79.4474 420.297 84.3422 415.402 84.3422 409.364C84.3422 403.326 79.4474 398.432 73.4094 398.432C67.3713 398.432 62.4766 403.326 62.4766 409.364C62.4766 415.402 67.3713 420.297 73.4094 420.297Z" fill="#E6E6E6"/>
<path opacity="0.3" d="M73.4059 418.033C78.1962 418.033 82.0795 414.149 82.0795 409.359C82.0795 404.569 78.1962 400.686 73.4059 400.686C68.6157 400.686 64.7324 404.569 64.7324 409.359C64.7324 414.149 68.6157 418.033 73.4059 418.033Z" fill="#F2F2F2"/>
<path d="M113.552 406.429C113.552 406.429 104.846 407.785 92.293 404.17C79.7401 400.555 71.8381 375.592 77.3045 370.302C82.7709 365.012 95.1254 367.238 95.1254 367.238L96.2385 390.217L113.552 406.418V406.429Z" fill="#E6E6E6"/>
<path d="M87.596 392.791C88.136 392.791 99.6088 404.804 105.009 413.18C105.009 413.18 108.789 429.513 106.629 437.889C106.629 437.889 83.6835 426.548 80.4434 405.355C85.5681 398.467 87.596 392.802 87.596 392.802V392.791Z" fill="#F2F2F2"/>
<g style="mix-blend-mode:multiply">
<path d="M95.2005 400.66C91.277 396.208 87.8825 392.791 87.596 392.791C87.596 392.791 85.5681 398.456 80.4434 405.344C80.8511 408.011 81.5675 410.513 82.5153 412.86C84.4991 406.424 91.6737 402.071 95.2005 400.649V400.66Z" fill="#F2F2F2"/>
</g>
<path d="M86.789 376.049C86.789 376.049 96.5095 396.294 76.3962 412.098C56.2829 427.903 62.8955 446.925 62.8955 446.925C62.8955 446.925 28.466 436.796 36.0264 408.175C43.5868 379.554 86.789 376.049 86.789 376.049Z" fill="#F2F2F2"/>
<g style="mix-blend-mode:multiply" opacity="0.3">
<path d="M86.789 376.049C86.789 376.049 96.5095 396.294 76.3962 412.098C56.2829 427.903 62.8955 446.925 62.8955 446.925C62.8955 446.925 28.466 436.796 36.0264 408.175C43.5868 379.554 86.789 376.049 86.789 376.049Z" fill="#F2F2F2"/>
</g>
<g style="mix-blend-mode:multiply">
<path d="M76.7903 409.266C55.9496 424.729 57.2281 439.938 58.5396 445.305C61.1515 446.418 62.8929 446.936 62.8929 446.936C62.8929 446.936 56.2803 427.903 76.3936 412.11C84.2846 405.916 87.5799 399.028 88.6709 392.955C87.1611 398.355 83.7335 404.13 76.8013 409.277L76.7903 409.266Z" fill="#F2F2F2"/>
</g>
<path d="M55.3386 393.874C55.3386 393.874 44.538 401.842 43.7335 413.579C43.7335 413.579 31.4451 411.155 25.9126 404.806C25.9126 404.806 18.76 436.933 19.1678 448.273C19.1678 448.273 9.85502 439.5 8.90721 430.585C8.17983 423.685 10.5273 402.911 15.9276 379.557C15.9276 379.557 11.4751 379.69 8.36719 376.053C8.36719 376.053 17.0076 339.606 37.7932 326.238C58.5788 312.869 85.5802 322.59 93.89 329.225C101.759 335.507 98.9486 340.686 98.5408 343.111C98.2984 344.555 80.0476 349.481 79.7721 359.036C78.6921 397.246 55.3386 393.863 55.3386 393.863V393.874Z" fill="#F2F2F2"/>
<g style="mix-blend-mode:multiply">
<path d="M55.3386 393.874C55.3386 393.874 44.538 401.842 43.7335 413.579C43.7335 413.579 31.4451 411.155 25.9126 404.806C25.9126 404.806 18.76 436.933 19.1678 448.273C19.1678 448.273 9.85502 439.5 8.90721 430.585C8.17983 423.685 10.5273 402.911 15.9276 379.557C15.9276 379.557 11.4751 379.69 8.36719 376.053C8.36719 376.053 17.0076 339.606 37.7932 326.238C58.5788 312.869 85.5802 322.59 93.89 329.225C101.759 335.507 98.9486 340.686 98.5408 343.111C98.2984 344.555 80.0476 349.481 79.7721 359.036C78.6921 397.246 55.3386 393.863 55.3386 393.863V393.874Z" fill="#F2F2F2"/>
</g>
<g style="mix-blend-mode:multiply">
<path d="M39.2619 328.024C55.8265 317.378 76.4247 320.673 88.3163 325.798C76.7884 320.012 55.1211 315.085 37.7741 326.239C20.0303 337.645 11.1364 365.87 8.91016 373.893C11.9519 365.087 22.1133 339.045 39.2509 328.024H39.2619Z" fill="#F2F2F2"/>
</g>
<path d="M15.9166 379.564C22.2316 360.663 27.6429 348.673 33.991 339.338C39.0386 331.91 26.2983 347.78 20.4131 361.369C13.525 377.261 8.36719 376.049 8.36719 376.049C11.4751 379.697 15.9276 379.553 15.9276 379.553L15.9166 379.564Z" fill="#E6E6E6"/>
<path d="M51.8217 337.85C53.3096 351.075 50.8739 365.259 40.0734 375.652C30.6504 384.722 25.9004 404.813 25.9004 404.813C26.4514 405.441 27.0796 406.036 27.7409 406.598C27.7519 406.543 27.774 406.488 27.785 406.433C34.2653 384.16 39.1696 384.612 47.0937 373.359C58.3021 357.434 51.8217 337.85 51.8217 337.85Z" fill="#E6E6E6"/>
<g style="mix-blend-mode:multiply">
<path d="M93.8797 329.224C93.1192 328.618 92.1934 327.979 91.1354 327.34C94.5409 329.775 95.0479 333.622 92.7114 335.286C88.9974 337.931 83.4648 334.691 83.4648 334.691V342.99H98.5636C99.0375 340.51 101.616 335.407 93.8907 329.235L93.8797 329.224Z" fill="#F2F2F2"/>
</g>
<path d="M121.042 384.075C119.058 386.202 113.041 385.21 112.6 389.276C112.115 393.784 99.8264 391.205 99.8264 391.205C99.8264 391.205 97.1593 378.95 99.5619 377.286C101.953 375.61 120.943 375.28 121.692 377.231C122.441 379.181 121.042 384.086 121.042 384.086V384.075Z" fill="#E6E6E6"/>
<path d="M76.7931 323.307C76.7931 323.307 77.5976 331.914 84.4857 335.253C94.1622 339.948 108.093 344.18 108.225 356.469C108.225 356.469 120.624 364.007 123.467 368.867C126.299 373.728 121.042 384.076 121.042 384.076C121.042 384.076 120.028 380.517 120.635 378.797C120.635 378.797 116.987 380.924 110.716 379.304C104.434 377.684 98.6697 381.938 100.753 386.997C102.725 391.769 111.73 388.716 115.774 389.223C115.774 389.223 117.703 399.351 113.548 406.438C106.329 407.628 83.7473 386.688 93.4017 385.377C94.3054 385.256 90.0073 382.489 86.7891 376.064C84.3976 371.292 84.0229 363.511 86.6238 360.062C91.4951 353.614 98.1297 357.835 98.1297 357.835C98.1297 357.835 94.2173 344.07 79.5043 344.61C66.235 345.095 70.0152 328.376 76.8041 323.318L76.7931 323.307Z" fill="#F2F2F2"/>
<path d="M113.55 381.422C113.55 381.422 113.099 384.464 111.776 386.183C110.453 387.903 116.636 384.971 118.102 382.282C118.102 382.282 117.143 380.563 113.55 381.422Z" fill="#F2F2F2"/>
<path d="M102.142 352.117C102.275 352.591 106.396 355.302 108.237 356.459C108.237 356.459 109.13 351.544 106.319 349.406C105.581 348.844 102.01 351.654 102.142 352.117Z" fill="#E6E6E6"/>
<path opacity="0.5" d="M120.45 366.993C119.58 368.536 122.026 374.201 124.12 374.818C124.451 372.614 124.396 370.443 123.47 368.856C123.272 368.514 123.029 368.173 122.743 367.809C121.641 367.104 120.616 366.674 120.439 366.982L120.45 366.993Z" fill="#E6E6E6"/>
<path d="M120.335 365.462C119.42 367.071 122.131 373.188 124.28 373.353C125.934 373.485 125.625 369.694 125.515 369.187C125.173 367.611 120.71 364.779 120.335 365.451V365.462Z" fill="#F2F2F2"/>
<g opacity="0.5">
<path d="M76.2866 325.224C76.2866 325.224 76.518 333.633 83.4061 336.973C89.7432 340.048 99.089 342.516 104.82 347.299C100.059 341.579 91.242 338.527 84.4862 335.253C77.5981 331.914 76.7935 323.307 76.7935 323.307C74.0273 325.368 71.757 329.368 70.9414 333.358C71.9994 330.063 73.9611 326.966 76.2866 325.235V325.224Z" fill="white"/>
<path d="M86.1057 361.98C90.977 355.533 98.7799 360.382 98.7799 360.382C98.7799 360.382 98.5374 359.214 98.1186 357.825C94.5588 355.775 89.9961 355.566 86.6127 360.051C85.8633 361.043 85.3673 362.399 85.0918 363.942C85.3563 363.203 85.6869 362.531 86.1057 361.98Z" fill="white"/>
<path d="M122.961 370.783C124.097 372.734 123.931 375.555 123.325 378.245C124.284 375.06 124.879 371.279 123.468 368.855C121.529 365.526 115.103 360.942 111.246 358.385C114.112 360.92 120.757 367.003 122.961 370.772V370.783Z" fill="white"/>
<path d="M100.75 386.982C100.409 386.156 100.298 385.362 100.342 384.602C99.7032 385.858 99.604 387.346 100.243 388.9C102.216 393.672 111.22 390.619 115.265 391.126C115.265 391.126 116.367 396.967 115.089 402.874C117.138 396.372 115.772 389.197 115.772 389.197C111.727 388.69 102.723 391.743 100.75 386.971V386.982Z" fill="white"/>
</g>
<path d="M120.335 365.462C119.42 367.071 122.131 373.188 124.28 373.353C125.934 373.485 125.625 369.694 125.515 369.187C125.173 367.611 120.71 364.779 120.335 365.451V365.462Z" fill="#F2F2F2"/>
<path d="M86.7898 376.051C84.3983 371.279 84.0235 363.498 86.6245 360.049C91.4958 353.601 98.1304 357.822 98.1304 357.822C98.1304 357.822 94.3392 344.509 80.1993 344.586C77.984 344.685 68.517 345.611 66.7427 358.296C64.5825 373.759 74.7769 382.939 55.3359 393.872L64.9242 405.147C88.487 400.903 89.1593 381.187 86.7898 376.051Z" fill="#F2F2F2"/>
<path opacity="0.5" d="M68.495 360.601C70.2694 347.915 79.7364 347.001 81.9516 346.89C87.7156 346.857 91.8264 348.962 94.6808 351.464C91.9917 348.059 87.4621 344.554 80.1993 344.598C77.9841 344.697 68.517 345.623 66.7427 358.308C64.5825 373.771 74.7769 382.951 55.3359 393.884L56.5372 395.295C75.0084 385.442 66.423 375.501 68.506 360.612L68.495 360.601Z" fill="white"/>
<g style="mix-blend-mode:multiply">
<path d="M98.1287 357.836C98.1287 357.836 98.0406 357.527 97.8532 357.02C96.5527 356.127 90.8218 352.777 85.8954 358.442C83.0631 361.693 83.041 369.43 85.2452 374.29C87.3943 379.481 85.9836 398.977 62.6191 402.46L64.9115 405.16C88.4744 400.917 89.1466 381.2 86.7771 376.064C84.3856 371.292 84.0109 363.512 86.6118 360.062C91.4831 353.615 98.1177 357.836 98.1177 357.836H98.1287Z" fill="#F2F2F2"/>
</g>
<path d="M110.167 538.868C108.778 537.028 107.544 535.165 106.607 533.182C100.799 534.603 91.3098 537.733 84.0801 544.136H113.76V542.219C112.294 541.447 111.236 540.279 110.167 538.868Z" fill="#F2F2F2"/>
<g style="mix-blend-mode:multiply" opacity="0.5">
<path d="M110.167 538.868C108.778 537.028 107.544 535.165 106.607 533.182C100.799 534.603 91.3098 537.733 84.0801 544.136H113.76V542.219C112.294 541.447 111.236 540.279 110.167 538.868Z" fill="#F2F2F2"/>
</g>
<g style="mix-blend-mode:multiply">
<path d="M110.167 538.868C108.778 537.028 107.544 535.165 106.607 533.182C100.799 534.603 91.3098 537.733 84.0801 544.136H91.5633C95.4758 541.403 101.284 539.497 110.497 539.287C110.387 539.144 110.277 539.012 110.167 538.857V538.868Z" fill="#F2F2F2"/>
</g>
<path d="M88.6234 544.136C94.8944 538.946 104.582 537.921 107.491 538.042L100.978 524.883C92.073 524.74 82.3966 527.208 73.4145 535.353C70.4829 538.009 67.9591 541.04 65.9863 544.147H88.6124L88.6234 544.136Z" fill="#F2F2F2"/>
<g style="mix-blend-mode:multiply" opacity="0.5">
<path d="M88.6234 544.136C94.8944 538.946 104.582 537.921 107.491 538.042L100.978 524.883C92.073 524.74 82.3966 527.208 73.4145 535.353C70.4829 538.009 67.9591 541.04 65.9863 544.147H88.6124L88.6234 544.136Z" fill="#F2F2F2"/>
</g>
<g style="mix-blend-mode:multiply">
<path d="M80.5898 544.136C81.9454 541.932 83.4332 539.805 85.2186 537.953C90.5308 532.498 97.1874 530.635 102.323 530.569L100.979 524.871C92.0737 524.728 82.3973 527.196 73.4152 535.341C70.4836 537.997 67.9708 541.028 65.998 544.136H80.5788H80.5898Z" fill="#F2F2F2"/>
</g>
<path d="M79.3745 544.133C81.0166 540.948 82.769 537.674 85.2818 535.084C90.153 530.07 97.2505 529.045 101.957 528.979L98.022 512.293C87.7064 512.778 74.7677 516.349 65.3338 524.383C58.7983 529.949 55.2386 537.685 55.1504 544.133H79.3855H79.3745Z" fill="#F2F2F2"/>
<g style="mix-blend-mode:multiply" opacity="0.5">
<path d="M79.3745 544.133C81.0166 540.948 82.769 537.674 85.2818 535.084C90.153 530.07 97.2505 529.045 101.957 528.979L98.022 512.293C87.7064 512.778 74.7677 516.349 65.3338 524.383C58.7983 529.949 55.2386 537.685 55.1504 544.133H79.3855H79.3745Z" fill="#F2F2F2"/>
</g>
<g style="mix-blend-mode:multiply">
<path d="M65.3203 524.383C60.5372 528.45 57.3411 533.696 55.9414 538.743C56.25 538.876 56.5586 539.019 56.8892 539.14C71.1944 544.408 72.2965 524.857 99.6286 523.237C99.9482 523.215 100.257 523.193 100.565 523.171L98.0085 512.293C87.6929 512.778 74.7542 516.349 65.3203 524.383Z" fill="#F2F2F2"/>
</g>
<path d="M94.6303 497.878C85.4278 497.922 75.2334 499.895 66.4607 504.877C50.6566 513.848 45.2673 531.999 58.7901 536.981C72.3679 541.984 73.4259 523.414 99.3803 521.871C99.6889 521.849 99.9755 521.827 100.262 521.805L94.6193 497.867L94.6303 497.878Z" fill="#F2F2F2"/>
<g style="mix-blend-mode:multiply" opacity="0.5">
<path d="M94.6303 497.878C85.4278 497.922 75.2334 499.895 66.4607 504.877C50.6566 513.848 45.2673 531.999 58.7901 536.981C72.3679 541.984 73.4259 523.414 99.3803 521.871C99.6889 521.849 99.9755 521.827 100.262 521.805L94.6193 497.867L94.6303 497.878Z" fill="#F2F2F2"/>
</g>
<g style="mix-blend-mode:multiply">
<path d="M66.4508 504.861C60.0917 508.465 55.4298 513.568 52.9941 518.692C53.6334 519.508 54.4158 520.312 55.3637 521.084C64.7976 528.699 77.6811 512.576 94.7747 514.659C96.1303 514.824 97.4197 514.978 98.6871 515.133L94.6204 497.885C85.4179 497.929 75.2235 499.902 66.4508 504.883V504.861Z" fill="#F2F2F2"/>
</g>
<path d="M93.6834 493.867C86.608 493.327 79.1137 493.735 72.3579 495.465C56.4105 499.554 46.0838 512.845 57.3142 519.502C66.7372 525.079 78.4745 511.435 94.6753 513.407C95.9538 513.562 97.1881 513.716 98.3894 513.848L93.6834 493.867Z" fill="#F2F2F2"/>
<g style="mix-blend-mode:multiply" opacity="0.5">
<path d="M93.6834 493.867C86.608 493.327 79.1137 493.735 72.3579 495.465C56.4105 499.554 46.0838 512.845 57.3142 519.502C66.7372 525.079 78.4745 511.435 94.6753 513.407C95.9538 513.562 97.1881 513.716 98.3894 513.848L93.6834 493.867Z" fill="#F2F2F2"/>
</g>
<path d="M109.64 543.553C109.64 543.553 60.5852 497.012 78.1747 487.644C78.1747 487.644 62.9767 451.286 87.8511 449.092C87.8511 449.092 91.6092 434.368 105.033 439.185C105.033 439.185 109.496 429.795 116.704 432.109C118.71 432.748 94.1771 457.402 105.716 493.276C117.255 529.149 135.484 543.553 135.484 543.553H109.64Z" fill="#F2F2F2"/>
<g style="mix-blend-mode:multiply">
<path d="M99.182 452.872C102.069 443.692 105.034 439.184 105.034 439.184C102.764 438.369 100.78 438.126 99.0387 438.259C99.0828 438.292 99.1268 438.314 99.182 438.347C102.367 439.879 96.4267 461.634 99.182 452.872Z" fill="#F2F2F2"/>
<path d="M78.3503 453.227C83.5191 452.091 84.5992 482.994 84.3898 471.709C84.1914 460.666 87.8504 449.094 87.8504 449.094C83.3097 449.491 80.1026 451.033 77.8984 453.282C78.0417 453.282 78.185 453.249 78.3503 453.216V453.227Z" fill="#F2F2F2"/>
<path d="M88.1055 508.773C88.5463 509.479 88.6014 509.578 88.1055 508.773V508.773Z" fill="#F2F2F2"/>
<path d="M88.1062 508.774C88.029 508.652 87.9519 508.531 87.8527 508.366C84.0284 502.018 78.7053 489.057 78.1763 487.646C76.3799 488.605 75.2888 489.961 74.7598 491.603C79.6751 495.593 86.4861 506.195 88.0952 508.774H88.1062Z" fill="#F2F2F2"/>
</g>
<path d="M765.27 523.095C805.134 483.23 805.134 418.598 765.27 378.734C725.406 338.869 660.773 338.869 620.909 378.734C581.045 418.598 581.045 483.23 620.909 523.095C660.773 562.959 725.406 562.959 765.27 523.095Z" stroke="#E6E6E6" stroke-width="5.13668" stroke-miterlimit="10"/>
<path d="M697.654 452.604C696.716 455.095 693.93 456.367 691.438 455.429C688.947 454.492 687.676 451.705 688.613 449.214C689.551 446.723 692.337 445.451 694.829 446.389C697.32 447.326 698.591 450.113 697.654 452.604Z" fill="#E6E6E6" stroke="#E6E6E6" stroke-width="5.13668" stroke-miterlimit="10"/>
<path d="M685.133 340.73L693.082 450.912" stroke="#E6E6E6" stroke-width="1.28417" stroke-linecap="round" stroke-linejoin="round"/>
<path d="M700.965 340.73L693.016 450.912" stroke="#E6E6E6" stroke-width="1.28417" stroke-linecap="round" stroke-linejoin="round"/>
<path d="M699.585 332.608V331.902C699.585 328.293 696.657 325.365 693.048 325.365C689.44 325.365 686.512 328.293 686.512 331.902V332.608H699.572H699.585Z" fill="#E6E6E6"/>
<path d="M686.523 337.498V338.731C686.523 342.339 689.451 345.267 693.06 345.267C696.668 345.267 699.596 342.339 699.596 338.731V337.498H686.536H686.523Z" fill="#E6E6E6"/>
<path d="M698.224 332.609H687.873V337.515H698.224V332.609Z" fill="#E6E6E6"/>
<path d="M685.133 340.73L693.082 450.912" stroke="#E6E6E6" stroke-width="1.28417" stroke-linecap="round" stroke-linejoin="round"/>
<path d="M700.965 340.73L693.016 450.912" stroke="#E6E6E6" stroke-width="1.28417" stroke-linecap="round" stroke-linejoin="round"/>
<path d="M699.585 332.608V331.902C699.585 328.293 696.657 325.365 693.048 325.365C689.44 325.365 686.512 328.293 686.512 331.902V332.608H699.572H699.585Z" fill="#E6E6E6"/>
<path d="M686.523 337.498V338.731C686.523 342.339 689.451 345.267 693.06 345.267C696.668 345.267 699.596 342.339 699.596 338.731V337.498H686.536H686.523Z" fill="#E6E6E6"/>
<path d="M699.008 332.609H687.104V337.515H699.008V332.609Z" fill="#E6E6E6"/>
<path d="M700.965 561.079L693.016 450.91" stroke="#E6E6E6" stroke-width="1.28417" stroke-linecap="round" stroke-linejoin="round"/>
<path d="M685.133 561.079L693.082 450.91" stroke="#E6E6E6" stroke-width="1.28417" stroke-linecap="round" stroke-linejoin="round"/>
<path d="M699.585 564.3V563.068C699.585 559.459 696.657 556.531 693.048 556.531C689.44 556.531 686.512 559.459 686.512 563.068V564.3H699.572H699.585Z" fill="#E6E6E6"/>
<path d="M700.965 561.079L693.016 450.91" stroke="#E6E6E6" stroke-width="1.28417" stroke-linecap="round" stroke-linejoin="round"/>
<path d="M685.133 561.079L693.082 450.91" stroke="#E6E6E6" stroke-width="1.28417" stroke-linecap="round" stroke-linejoin="round"/>
<path d="M699.585 564.3V563.068C699.585 559.459 696.657 556.531 693.048 556.531C689.44 556.531 686.512 559.459 686.512 563.068V564.3H699.572H699.585Z" fill="#E6E6E6"/>
<path d="M765.352 367.4L693.066 450.923" stroke="#E6E6E6" stroke-width="1.28417" stroke-linecap="round" stroke-linejoin="round"/>
<path d="M776.55 378.598L693.027 450.884" stroke="#E6E6E6" stroke-width="1.28417" stroke-linecap="round" stroke-linejoin="round"/>
<path d="M781.313 371.872L781.814 371.372C784.37 368.816 784.37 364.681 781.814 362.138C779.259 359.596 775.124 359.583 772.581 362.138L772.08 362.639L781.313 371.872Z" fill="#E6E6E6"/>
<path d="M768.612 366.105L767.739 366.979C765.183 369.534 765.183 373.669 767.739 376.212C770.294 378.767 774.429 378.767 776.972 376.212L777.845 375.339L768.612 366.105Z" fill="#E6E6E6"/>
<path d="M780.35 370.913L773.031 363.594L769.563 367.062L776.881 374.381L780.35 370.913Z" fill="#E6E6E6"/>
<path d="M765.352 367.4L693.066 450.923" stroke="#E6E6E6" stroke-width="1.28417" stroke-linecap="round" stroke-linejoin="round"/>
<path d="M776.55 378.598L693.027 450.884" stroke="#E6E6E6" stroke-width="1.28417" stroke-linecap="round" stroke-linejoin="round"/>
<path d="M781.313 371.872L781.814 371.372C784.37 368.816 784.37 364.681 781.814 362.138C779.259 359.596 775.124 359.583 772.581 362.138L772.08 362.639L781.313 371.872Z" fill="#E6E6E6"/>
<path d="M768.612 366.105L767.739 366.979C765.183 369.534 765.183 373.669 767.739 376.212C770.294 378.767 774.429 378.767 776.972 376.212L777.845 375.339L768.612 366.105Z" fill="#E6E6E6"/>
<path d="M780.904 371.47L772.486 363.053L769.018 366.521L777.435 374.939L780.904 371.47Z" fill="#E6E6E6"/>
<path d="M620.742 534.409L693.028 450.887" stroke="#E6E6E6" stroke-width="1.28417" stroke-linecap="round" stroke-linejoin="round"/>
<path d="M609.543 523.212L693.065 450.926" stroke="#E6E6E6" stroke-width="1.28417" stroke-linecap="round" stroke-linejoin="round"/>
<path d="M604.781 529.939L604.28 530.44C601.724 532.996 601.724 537.131 604.28 539.673C606.835 542.229 610.97 542.229 613.513 539.673L614.014 539.173L604.781 529.939Z" fill="#E6E6E6"/>
<path d="M617.477 535.706L618.351 534.832C620.906 532.277 620.906 528.142 618.351 525.599C615.795 523.057 611.66 523.044 609.117 525.599L608.244 526.473L617.477 535.706Z" fill="#E6E6E6"/>
<path d="M605.738 530.888L613.057 538.207L616.525 534.738L609.207 527.419L605.738 530.888Z" fill="#E6E6E6"/>
<path d="M620.742 534.409L693.028 450.887" stroke="#E6E6E6" stroke-width="1.28417" stroke-linecap="round" stroke-linejoin="round"/>
<path d="M609.543 523.212L693.065 450.926" stroke="#E6E6E6" stroke-width="1.28417" stroke-linecap="round" stroke-linejoin="round"/>
<path d="M604.781 529.939L604.28 530.44C601.724 532.996 601.724 537.131 604.28 539.673C606.835 542.229 610.97 542.229 613.513 539.673L614.014 539.173L604.781 529.939Z" fill="#E6E6E6"/>
<path d="M617.477 535.706L618.351 534.832C620.906 532.277 620.906 528.142 618.351 525.599C615.795 523.057 611.66 523.044 609.117 525.599L608.244 526.473L617.477 535.706Z" fill="#E6E6E6"/>
<path d="M605.196 530.354L613.613 538.771L617.082 535.303L608.664 526.885L605.196 530.354Z" fill="#E6E6E6"/>
<path d="M803.225 442.986L693.057 450.935" stroke="#E6E6E6" stroke-width="1.28417" stroke-linecap="round" stroke-linejoin="round"/>
<path d="M803.225 458.818L693.057 450.869" stroke="#E6E6E6" stroke-width="1.28417" stroke-linecap="round" stroke-linejoin="round"/>
<path d="M811.354 457.434H812.06C815.668 457.434 818.596 454.506 818.596 450.898C818.596 447.289 815.668 444.361 812.06 444.361H811.354V457.421V457.434Z" fill="#E6E6E6"/>
<path d="M806.449 444.373H805.216C801.608 444.373 798.68 447.301 798.68 450.909C798.68 454.518 801.608 457.446 805.216 457.446H806.449V444.386V444.373Z" fill="#E6E6E6"/>
<path d="M811.34 456.085V445.734H806.434V456.085H811.34Z" fill="#E6E6E6"/>
<path d="M803.225 442.986L693.057 450.935" stroke="#E6E6E6" stroke-width="1.28417" stroke-linecap="round" stroke-linejoin="round"/>
<path d="M803.225 458.818L693.057 450.869" stroke="#E6E6E6" stroke-width="1.28417" stroke-linecap="round" stroke-linejoin="round"/>
<path d="M811.354 457.434H812.06C815.668 457.434 818.596 454.506 818.596 450.898C818.596 447.289 815.668 444.361 812.06 444.361H811.354V457.421V457.434Z" fill="#E6E6E6"/>
<path d="M806.449 444.373H805.216C801.608 444.373 798.68 447.301 798.68 450.909C798.68 454.518 801.608 457.446 805.216 457.446H806.449V444.386V444.373Z" fill="#E6E6E6"/>
<path d="M811.34 456.857V444.953H806.434V456.857H811.34Z" fill="#E6E6E6"/>
<path d="M798.483 483.805L693.027 450.943" stroke="#E6E6E6" stroke-width="1.28417" stroke-linecap="round" stroke-linejoin="round"/>
<path d="M792.702 498.532L693.051 450.877" stroke="#E6E6E6" stroke-width="1.28417" stroke-linecap="round" stroke-linejoin="round"/>
<path d="M800.763 500.212L801.418 500.469C804.769 501.791 808.571 500.135 809.88 496.77C811.203 493.419 809.547 489.617 806.182 488.308L805.527 488.051L800.75 500.212H800.763Z" fill="#E6E6E6"/>
<path d="M800.97 486.268L799.815 485.819C796.463 484.496 792.662 486.153 791.352 489.517C790.029 492.869 791.686 496.67 795.05 497.98L796.206 498.429L800.983 486.268H800.97Z" fill="#E6E6E6"/>
<path d="M801.296 498.986L805.078 489.352L800.512 487.559L796.73 497.194L801.296 498.986Z" fill="#E6E6E6"/>
<path d="M798.483 483.805L693.027 450.943" stroke="#E6E6E6" stroke-width="1.28417" stroke-linecap="round" stroke-linejoin="round"/>
<path d="M792.702 498.532L693.051 450.877" stroke="#E6E6E6" stroke-width="1.28417" stroke-linecap="round" stroke-linejoin="round"/>
<path d="M800.763 500.212L801.418 500.469C804.769 501.791 808.571 500.135 809.88 496.77C811.203 493.419 809.547 489.617 806.182 488.308L805.527 488.051L800.75 500.212H800.763Z" fill="#E6E6E6"/>
<path d="M800.97 486.268L799.815 485.819C796.463 484.496 792.662 486.153 791.352 489.517C790.029 492.869 791.686 496.67 795.05 497.98L796.206 498.429L800.983 486.268H800.97Z" fill="#E6E6E6"/>
<path d="M801.016 499.7L805.365 488.619L800.799 486.827L796.449 497.908L801.016 499.7Z" fill="#E6E6E6"/>
<path d="M582.871 458.818L693.053 450.869" stroke="#E6E6E6" stroke-width="1.28417" stroke-linecap="round" stroke-linejoin="round"/>
<path d="M582.871 442.986L693.053 450.935" stroke="#E6E6E6" stroke-width="1.28417" stroke-linecap="round" stroke-linejoin="round"/>
<path d="M574.754 444.373H574.048C570.44 444.373 567.512 447.301 567.512 450.909C567.512 454.518 570.44 457.446 574.048 457.446H574.754V444.386V444.373Z" fill="#E6E6E6"/>
<path d="M579.645 457.434H580.877C584.486 457.434 587.414 454.506 587.414 450.898C587.414 447.289 584.486 444.361 580.877 444.361H579.645V457.421V457.434Z" fill="#E6E6E6"/>
<path d="M574.756 445.736V456.086H579.661V445.736H574.756Z" fill="#E6E6E6"/>
<path d="M582.871 458.818L693.053 450.869" stroke="#E6E6E6" stroke-width="1.28417" stroke-linecap="round" stroke-linejoin="round"/>
<path d="M582.871 442.986L693.053 450.935" stroke="#E6E6E6" stroke-width="1.28417" stroke-linecap="round" stroke-linejoin="round"/>
<path d="M574.754 444.373H574.048C570.44 444.373 567.512 447.301 567.512 450.909C567.512 454.518 570.44 457.446 574.048 457.446H574.754V444.386V444.373Z" fill="#E6E6E6"/>
<path d="M579.645 457.434H580.877C584.486 457.434 587.414 454.506 587.414 450.898C587.414 447.289 584.486 444.361 580.877 444.361H579.645V457.421V457.434Z" fill="#E6E6E6"/>
<path d="M574.756 444.951V456.855H579.661V444.951H574.756Z" fill="#E6E6E6"/>
<path d="M776.55 523.212L693.027 450.926" stroke="#E6E6E6" stroke-width="1.28417" stroke-linecap="round" stroke-linejoin="round"/>
<path d="M765.352 534.409L693.066 450.887" stroke="#E6E6E6" stroke-width="1.28417" stroke-linecap="round" stroke-linejoin="round"/>
<path d="M772.08 539.177L772.581 539.677C775.136 542.233 779.271 542.233 781.814 539.677C784.357 537.122 784.37 532.987 781.814 530.444L781.313 529.943L772.08 539.177Z" fill="#E6E6E6"/>
<path d="M777.845 526.475L776.972 525.602C774.417 523.047 770.282 523.047 767.739 525.602C765.183 528.158 765.183 532.293 767.739 534.835L768.612 535.709L777.845 526.475Z" fill="#E6E6E6"/>
<path d="M773.035 538.209L780.354 530.891L776.885 527.422L769.566 534.741L773.035 538.209Z" fill="#E6E6E6"/>
<path d="M776.55 523.212L693.027 450.926" stroke="#E6E6E6" stroke-width="1.28417" stroke-linecap="round" stroke-linejoin="round"/>
<path d="M765.352 534.409L693.066 450.887" stroke="#E6E6E6" stroke-width="1.28417" stroke-linecap="round" stroke-linejoin="round"/>
<path d="M772.08 539.177L772.581 539.677C775.136 542.233 779.271 542.233 781.814 539.677C784.357 537.122 784.37 532.987 781.814 530.444L781.313 529.943L772.08 539.177Z" fill="#E6E6E6"/>
<path d="M777.845 526.475L776.972 525.602C774.417 523.047 770.282 523.047 767.739 525.602C765.183 528.158 765.183 532.293 767.739 534.835L768.612 535.709L777.845 526.475Z" fill="#E6E6E6"/>
<path d="M772.481 538.767L780.898 530.35L777.43 526.881L769.012 535.298L772.481 538.767Z" fill="#E6E6E6"/>
<path d="M609.543 378.598L693.065 450.884" stroke="#E6E6E6" stroke-width="1.28417" stroke-linecap="round" stroke-linejoin="round"/>
<path d="M620.742 367.398L693.028 450.921" stroke="#E6E6E6" stroke-width="1.28417" stroke-linecap="round" stroke-linejoin="round"/>
<path d="M614.013 362.636L613.512 362.135C610.957 359.58 606.822 359.58 604.279 362.135C601.736 364.691 601.724 368.826 604.279 371.369L604.78 371.869L614.013 362.636Z" fill="#E6E6E6"/>
<path d="M608.246 375.333L609.119 376.206C611.675 378.762 615.81 378.762 618.353 376.206C620.895 373.651 620.908 369.515 618.353 366.973L617.479 366.1L608.246 375.333Z" fill="#E6E6E6"/>
<path d="M613.061 363.593L605.742 370.912L609.211 374.381L616.53 367.062L613.061 363.593Z" fill="#E6E6E6"/>
<path d="M609.543 378.598L693.065 450.884" stroke="#E6E6E6" stroke-width="1.28417" stroke-linecap="round" stroke-linejoin="round"/>
<path d="M620.742 367.398L693.028 450.921" stroke="#E6E6E6" stroke-width="1.28417" stroke-linecap="round" stroke-linejoin="round"/>
<path d="M614.013 362.636L613.512 362.135C610.957 359.58 606.822 359.58 604.279 362.135C601.736 364.691 601.724 368.826 604.279 371.369L604.78 371.869L614.013 362.636Z" fill="#E6E6E6"/>
<path d="M608.246 375.333L609.119 376.206C611.675 378.762 615.81 378.762 618.353 376.206C620.895 373.651 620.908 369.515 618.353 366.973L617.479 366.1L608.246 375.333Z" fill="#E6E6E6"/>
<path d="M613.601 363.059L605.184 371.477L608.652 374.945L617.07 366.528L613.601 363.059Z" fill="#E6E6E6"/>
<path d="M724.409 344.969L693.127 450.913" stroke="#E6E6E6" stroke-width="1.28417" stroke-linecap="round" stroke-linejoin="round"/>
<path d="M739.229 350.531L693.076 450.889" stroke="#E6E6E6" stroke-width="1.28417" stroke-linecap="round" stroke-linejoin="round"/>
<path d="M740.784 342.442L741.028 341.787C742.299 338.41 740.591 334.647 737.214 333.376C733.837 332.104 730.074 333.812 728.803 337.19L728.559 337.845L740.784 342.429V342.442Z" fill="#E6E6E6"/>
<path d="M726.838 342.439L726.401 343.595C725.13 346.973 726.838 350.735 730.215 352.007C733.592 353.278 737.355 351.57 738.626 348.193L739.063 347.037L726.838 342.452V342.439Z" fill="#E6E6E6"/>
<path d="M739.54 341.92L729.85 338.283L728.126 342.876L737.817 346.513L739.54 341.92Z" fill="#E6E6E6"/>
<path d="M724.409 344.969L693.127 450.913" stroke="#E6E6E6" stroke-width="1.28417" stroke-linecap="round" stroke-linejoin="round"/>
<path d="M739.229 350.531L693.076 450.889" stroke="#E6E6E6" stroke-width="1.28417" stroke-linecap="round" stroke-linejoin="round"/>
<path d="M740.784 342.442L741.028 341.787C742.299 338.41 740.591 334.647 737.214 333.376C733.837 332.104 730.074 333.812 728.803 337.19L728.559 337.845L740.784 342.429V342.442Z" fill="#E6E6E6"/>
<path d="M726.838 342.439L726.401 343.595C725.13 346.973 726.838 350.735 730.215 352.007C733.592 353.278 737.355 351.57 738.626 348.193L739.063 347.037L726.838 342.452V342.439Z" fill="#E6E6E6"/>
<path d="M740.257 342.192L729.111 338.01L727.388 342.603L738.533 346.785L740.257 342.192Z" fill="#E6E6E6"/>
<path d="M661.797 556.831L693.079 450.887" stroke="#E6E6E6" stroke-width="1.28417" stroke-linecap="round" stroke-linejoin="round"/>
<path d="M646.979 551.255L693.132 450.91" stroke="#E6E6E6" stroke-width="1.28417" stroke-linecap="round" stroke-linejoin="round"/>
<path d="M659.374 559.361L659.81 558.205C661.082 554.828 659.374 551.065 655.996 549.794C652.619 548.522 648.856 550.23 647.585 553.608L647.148 554.763L659.374 559.348V559.361Z" fill="#E6E6E6"/>
<path d="M646.671 559.848L656.361 563.484L658.085 558.892L648.394 555.255L646.671 559.848Z" fill="#E6E6E6"/>
<path d="M661.797 556.831L693.079 450.887" stroke="#E6E6E6" stroke-width="1.28417" stroke-linecap="round" stroke-linejoin="round"/>
<path d="M646.979 551.255L693.132 450.91" stroke="#E6E6E6" stroke-width="1.28417" stroke-linecap="round" stroke-linejoin="round"/>
<path d="M659.374 559.361L659.81 558.205C661.082 554.828 659.374 551.065 655.996 549.794C652.619 548.522 648.856 550.23 647.585 553.608L647.148 554.763L659.374 559.348V559.361Z" fill="#E6E6E6"/>
<path d="M645.95 559.579L657.096 563.762L658.819 559.169L647.674 554.986L645.95 559.579Z" fill="#E6E6E6"/>
<path d="M790.145 398.135L693.113 450.927" stroke="#E6E6E6" stroke-width="1.28417" stroke-linecap="round" stroke-linejoin="round"/>
<path d="M796.697 412.539L693.09 450.872" stroke="#E6E6E6" stroke-width="1.28417" stroke-linecap="round" stroke-linejoin="round"/>
<path d="M803.515 407.919L804.157 407.623C807.444 406.134 808.895 402.255 807.406 398.981C805.916 395.693 802.038 394.242 798.763 395.732L798.121 396.027L803.527 407.919H803.515Z" fill="#E6E6E6"/>
<path d="M793.652 398.053L792.522 398.566C789.234 400.056 787.783 403.934 789.273 407.209C790.762 410.496 794.641 411.947 797.915 410.458L799.045 409.944L793.639 398.053H793.652Z" fill="#E6E6E6"/>
<path d="M803.007 406.674L798.727 397.25L794.26 399.279L798.541 408.703L803.007 406.674Z" fill="#E6E6E6"/>
<path d="M790.145 398.135L693.113 450.927" stroke="#E6E6E6" stroke-width="1.28417" stroke-linecap="round" stroke-linejoin="round"/>
<path d="M796.697 412.539L693.09 450.872" stroke="#E6E6E6" stroke-width="1.28417" stroke-linecap="round" stroke-linejoin="round"/>
<path d="M803.515 407.919L804.157 407.623C807.444 406.134 808.895 402.255 807.406 398.981C805.916 395.693 802.038 394.242 798.763 395.732L798.121 396.027L803.527 407.919H803.515Z" fill="#E6E6E6"/>
<path d="M793.652 398.053L792.522 398.566C789.234 400.056 787.783 403.934 789.273 407.209C790.762 410.496 794.641 411.947 797.915 410.458L799.045 409.944L793.639 398.053H793.652Z" fill="#E6E6E6"/>
<path d="M803.306 407.374L798.383 396.535L793.916 398.564L798.84 409.402L803.306 407.374Z" fill="#E6E6E6"/>
<path d="M596.078 503.669L693.097 450.877" stroke="#E6E6E6" stroke-width="1.28417" stroke-linecap="round" stroke-linejoin="round"/>
<path d="M589.527 489.247L693.121 450.928" stroke="#E6E6E6" stroke-width="1.28417" stroke-linecap="round" stroke-linejoin="round"/>
<path d="M582.695 493.869L582.053 494.164C578.766 495.654 577.314 499.532 578.804 502.807C580.294 506.082 584.172 507.546 587.446 506.056L588.089 505.761L582.682 493.869H582.695Z" fill="#E6E6E6"/>
<path d="M592.571 503.733L593.701 503.219C596.989 501.729 598.44 497.851 596.95 494.576C595.461 491.289 591.582 489.838 588.308 491.327L587.178 491.841L592.584 503.733H592.571Z" fill="#E6E6E6"/>
<path d="M583.219 495.125L587.5 504.549L591.966 502.52L587.686 493.096L583.219 495.125Z" fill="#E6E6E6"/>
<path d="M596.078 503.669L693.097 450.877" stroke="#E6E6E6" stroke-width="1.28417" stroke-linecap="round" stroke-linejoin="round"/>
<path d="M589.527 489.247L693.121 450.928" stroke="#E6E6E6" stroke-width="1.28417" stroke-linecap="round" stroke-linejoin="round"/>
<path d="M582.695 493.869L582.053 494.164C578.766 495.654 577.314 499.532 578.804 502.807C580.294 506.082 584.172 507.546 587.446 506.056L588.089 505.761L582.682 493.869H582.695Z" fill="#E6E6E6"/>
<path d="M592.571 503.733L593.701 503.219C596.989 501.729 598.44 497.851 596.95 494.576C595.461 491.289 591.582 489.838 588.308 491.327L587.178 491.841L592.584 503.733H592.571Z" fill="#E6E6E6"/>
<path d="M582.899 494.406L587.822 505.244L592.289 503.215L587.365 492.377L582.899 494.406Z" fill="#E6E6E6"/>
<path d="M587.172 419.594L693.116 450.876" stroke="#E6E6E6" stroke-width="1.28417" stroke-linecap="round" stroke-linejoin="round"/>
<path d="M592.73 404.775L693.088 450.928" stroke="#E6E6E6" stroke-width="1.28417" stroke-linecap="round" stroke-linejoin="round"/>
<path d="M584.641 403.208L583.986 402.964C580.609 401.692 576.846 403.4 575.575 406.778C574.304 410.155 576.012 413.918 579.389 415.189L580.044 415.433L584.628 403.208H584.641Z" fill="#E6E6E6"/>
<path d="M584.639 417.167L585.794 417.603C589.172 418.875 592.934 417.167 594.206 413.789C595.477 410.412 593.769 406.649 590.392 405.378L589.236 404.941L584.652 417.167H584.639Z" fill="#E6E6E6"/>
<path d="M584.146 404.47L580.51 414.16L585.103 415.884L588.739 406.193L584.146 404.47Z" fill="#E6E6E6"/>
<path d="M587.172 419.594L693.116 450.876" stroke="#E6E6E6" stroke-width="1.28417" stroke-linecap="round" stroke-linejoin="round"/>
<path d="M592.73 404.775L693.088 450.928" stroke="#E6E6E6" stroke-width="1.28417" stroke-linecap="round" stroke-linejoin="round"/>
<path d="M584.641 403.208L583.986 402.964C580.609 401.692 576.846 403.4 575.575 406.778C574.304 410.155 576.012 413.918 579.389 415.189L580.044 415.433L584.628 403.208H584.641Z" fill="#E6E6E6"/>
<path d="M584.639 417.167L585.794 417.603C589.172 418.875 592.934 417.167 594.206 413.789C595.477 410.412 593.769 406.649 590.392 405.378L589.236 404.941L584.652 417.167H584.639Z" fill="#E6E6E6"/>
<path d="M584.411 403.736L580.229 414.881L584.821 416.604L589.004 405.459L584.411 403.736Z" fill="#E6E6E6"/>
<path d="M745.868 547.929L693.076 450.91" stroke="#E6E6E6" stroke-width="1.28417" stroke-linecap="round" stroke-linejoin="round"/>
<path d="M731.459 554.481L693.127 450.887" stroke="#E6E6E6" stroke-width="1.28417" stroke-linecap="round" stroke-linejoin="round"/>
<path d="M736.082 561.298L736.377 561.94C737.867 565.227 741.745 566.678 745.02 565.189C748.294 563.699 749.758 559.821 748.269 556.546L747.973 555.904L736.082 561.311V561.298Z" fill="#E6E6E6"/>
<path d="M745.945 551.435L745.432 550.305C743.942 547.017 740.064 545.566 736.789 547.056C733.515 548.546 732.051 552.424 733.54 555.698L734.054 556.829L745.945 551.422V551.435Z" fill="#E6E6E6"/>
<path d="M737.328 560.785L746.752 556.504L744.723 552.038L735.299 556.318L737.328 560.785Z" fill="#E6E6E6"/>
<path d="M745.868 547.929L693.076 450.91" stroke="#E6E6E6" stroke-width="1.28417" stroke-linecap="round" stroke-linejoin="round"/>
<path d="M731.459 554.481L693.127 450.887" stroke="#E6E6E6" stroke-width="1.28417" stroke-linecap="round" stroke-linejoin="round"/>
<path d="M736.082 561.298L736.377 561.94C737.867 565.227 741.745 566.678 745.02 565.189C748.294 563.699 749.758 559.821 748.269 556.546L747.973 555.904L736.082 561.311V561.298Z" fill="#E6E6E6"/>
<path d="M745.945 551.435L745.432 550.305C743.942 547.017 740.064 545.566 736.789 547.056C733.515 548.546 732.051 552.424 733.54 555.698L734.054 556.829L745.945 551.422V551.435Z" fill="#E6E6E6"/>
<path d="M736.615 561.123L747.453 556.199L745.424 551.733L734.586 556.656L736.615 561.123Z" fill="#E6E6E6"/>
<path d="M640.34 353.854L693.132 450.885" stroke="#E6E6E6" stroke-width="1.28417" stroke-linecap="round" stroke-linejoin="round"/>
<path d="M654.76 347.299L693.079 450.906" stroke="#E6E6E6" stroke-width="1.28417" stroke-linecap="round" stroke-linejoin="round"/>
<path d="M650.137 340.482L649.842 339.84C648.352 336.553 644.474 335.102 641.2 336.591C637.912 338.081 636.461 341.959 637.951 345.234L638.246 345.876L650.137 340.469V340.482Z" fill="#E6E6E6"/>
<path d="M640.271 350.343L640.785 351.473C642.275 354.76 646.153 356.211 649.428 354.722C652.702 353.232 654.166 349.354 652.677 346.079L652.163 344.949L640.271 350.356V350.343Z" fill="#E6E6E6"/>
<path d="M648.883 341.002L639.459 345.283L641.488 349.75L650.912 345.469L648.883 341.002Z" fill="#E6E6E6"/>
<path d="M640.34 353.854L693.132 450.885" stroke="#E6E6E6" stroke-width="1.28417" stroke-linecap="round" stroke-linejoin="round"/>
<path d="M654.76 347.299L693.079 450.906" stroke="#E6E6E6" stroke-width="1.28417" stroke-linecap="round" stroke-linejoin="round"/>
<path d="M650.137 340.482L649.842 339.84C648.352 336.553 644.474 335.102 641.2 336.591C637.912 338.081 636.461 341.959 637.951 345.234L638.246 345.876L650.137 340.469V340.482Z" fill="#E6E6E6"/>
<path d="M640.271 350.343L640.785 351.473C642.275 354.76 646.153 356.211 649.428 354.722C652.702 353.232 654.166 349.354 652.677 346.079L652.163 344.949L640.271 350.356V350.343Z" fill="#E6E6E6"/>
<path d="M649.596 340.676L638.758 345.6L640.787 350.066L651.625 345.143L649.596 340.676Z" fill="#E6E6E6"/>
<path d="M763.259 552.99H622.835C620.305 552.99 618.264 555.032 618.264 557.562H767.831C767.831 555.032 765.789 552.99 763.259 552.99Z" fill="#F2F2F2"/>
<path d="M697.002 552.994H689.117V450.915C689.117 448.732 690.877 446.973 693.06 446.973C695.243 446.973 697.002 448.732 697.002 450.915V552.994Z" fill="#F2F2F2"/>
<path d="M697.002 545.25H689.117V552.981H697.002V545.25Z" fill="#E6E6E6"/>
<path d="M338.167 227.577C338.167 227.577 337.725 227.919 337.002 227.818C336.278 227.718 335.957 227.256 335.957 227.256L336.962 220.465L339.152 220.766L338.187 227.577H338.167Z" fill="#FF816E"/>
<path d="M342.508 221.652C342.207 223.822 340.057 224.324 337.525 223.983C334.994 223.601 333.045 222.476 333.407 220.326C333.768 218.156 336.119 216.207 338.59 216.569C341.082 216.91 342.81 219.482 342.508 221.652Z" fill="#77A03F"/>
<path d="M359.407 230.212C359.407 230.212 358.985 230.573 358.262 230.473C357.539 230.372 357.197 229.95 357.197 229.95L357.981 223.119L360.171 223.38L359.407 230.212Z" fill="#FF816E"/>
<path d="M363.566 224.204C363.325 226.374 361.195 226.917 358.644 226.636C356.112 226.334 354.143 225.33 354.404 223.16C354.665 220.99 356.976 218.92 359.487 219.202C361.999 219.483 363.787 222.034 363.566 224.224V224.204Z" fill="#77A03F"/>
<path d="M380.605 232.421C380.605 232.421 380.183 232.782 379.459 232.722C378.736 232.642 378.395 232.22 378.395 232.22L379.078 225.389L381.288 225.61L380.625 232.441L380.605 232.421Z" fill="#FF816E"/>
<path d="M384.681 226.333C384.48 228.503 382.33 229.106 379.799 228.865C377.267 228.604 375.278 227.599 375.499 225.429C375.72 223.259 378.011 221.149 380.522 221.411C383.054 221.652 384.882 224.163 384.681 226.333Z" fill="#77A03F"/>
<path d="M401.8 234.39C401.8 234.39 401.378 234.752 400.655 234.692C399.931 234.631 399.59 234.189 399.59 234.189L400.193 227.338L402.403 227.539L401.8 234.39Z" fill="#FF816E"/>
<path d="M405.82 228.283C405.639 230.453 403.509 231.056 400.957 230.835C398.406 230.614 396.417 229.65 396.618 227.46C396.818 225.29 399.089 223.16 401.62 223.361C404.152 223.582 406 226.073 405.82 228.263V228.283Z" fill="#77A03F"/>
<path d="M423.017 236.2C423.017 236.2 422.595 236.562 421.872 236.502C421.148 236.441 420.807 236.019 420.807 236.019L421.369 229.168L423.579 229.349L423.017 236.2Z" fill="#FF816E"/>
<path d="M426.973 230.052C426.792 232.221 424.683 232.844 422.131 232.643C419.579 232.442 417.59 231.498 417.771 229.308C417.952 227.138 420.202 224.968 422.734 225.169C425.265 225.37 427.134 227.862 426.973 230.031V230.052Z" fill="#77A03F"/>
<path d="M444.211 237.85C444.211 237.85 443.809 238.212 443.065 238.171C442.342 238.111 441.98 237.689 441.98 237.689L442.503 230.838L444.713 230.999L444.211 237.85Z" fill="#FF816E"/>
<path d="M448.151 231.679C447.99 233.849 445.88 234.492 443.329 234.291C440.777 234.09 438.788 233.166 438.949 230.996C439.109 228.826 441.36 226.656 443.891 226.837C446.423 227.018 448.311 229.509 448.151 231.679Z" fill="#77A03F"/>
<path d="M465.431 239.352C465.431 239.352 465.029 239.734 464.306 239.673C463.582 239.633 463.221 239.191 463.221 239.191L463.683 232.34L465.893 232.501L465.431 239.352Z" fill="#FF816E"/>
<path d="M469.328 233.164C469.188 235.354 467.058 235.997 464.526 235.817C461.975 235.636 459.965 234.712 460.126 232.542C460.287 230.352 462.497 228.182 465.049 228.342C467.6 228.503 469.489 230.974 469.348 233.164H469.328Z" fill="#77A03F"/>
<path d="M486.669 240.736C486.669 240.736 486.267 241.118 485.544 241.058C484.821 241.017 484.459 240.595 484.459 240.595L484.881 233.744L487.091 233.885L486.669 240.736Z" fill="#FF816E"/>
<path d="M490.525 234.51C490.405 236.7 488.275 237.342 485.744 237.182C483.192 237.021 481.183 236.117 481.323 233.927C481.464 231.737 483.674 229.547 486.206 229.708C488.737 229.868 490.666 232.32 490.546 234.51H490.525Z" fill="#77A03F"/>
<path d="M507.925 241.945C507.925 241.945 507.523 242.326 506.8 242.286C506.077 242.246 505.715 241.824 505.715 241.824L506.076 234.973L508.287 235.093L507.925 241.945Z" fill="#FF816E"/>
<path d="M511.725 235.696C511.605 237.886 509.515 238.549 506.964 238.408C504.412 238.268 502.383 237.363 502.503 235.194C502.624 233.004 504.814 230.793 507.345 230.934C509.877 231.075 511.826 233.506 511.705 235.696H511.725Z" fill="#77A03F"/>
<path d="M529.204 242.95C529.204 242.95 528.802 243.332 528.079 243.311C527.356 243.271 526.994 242.869 526.994 242.869L527.275 235.998L529.486 236.099L529.204 242.97V242.95Z" fill="#FF816E"/>
<path d="M532.919 236.641C532.839 238.831 530.749 239.534 528.177 239.453C525.626 239.333 523.596 238.449 523.697 236.279C523.797 234.089 525.947 231.859 528.499 231.979C531.03 232.08 532.999 234.471 532.919 236.661V236.641Z" fill="#77A03F"/>
<path d="M550.558 243.595C550.558 243.595 550.177 243.997 549.433 243.977C548.71 243.977 548.328 243.555 548.328 243.555L548.469 236.684L550.679 236.724L550.558 243.595Z" fill="#FF816E"/>
<path d="M554.114 237.206C554.094 239.396 552.004 240.139 549.453 240.079C546.901 240.019 544.832 239.215 544.892 237.025C544.952 234.835 547.062 232.544 549.573 232.605C552.085 232.665 554.114 235.016 554.094 237.206H554.114Z" fill="#77A03F"/>
<path d="M581.501 257.961H591.708C590.984 234.333 590.623 218.902 590.623 218.902L581.32 226.336C581.461 237.347 581.501 247.855 581.481 257.941L581.501 257.961Z" fill="#FFCAC2"/>
<path d="M625.783 257.961V220.068L590.643 218.902C590.643 218.902 591.004 234.333 591.728 257.961H625.783Z" fill="#FF4E33"/>
<path d="M187.136 210.142C186.573 191.055 186.292 179 186.292 179L175.201 186.434C175.302 194.591 175.342 202.487 175.362 210.142H187.136Z" fill="#FFCAC2"/>
<path d="M229.025 210.142V185.309L186.289 179C186.289 179 186.57 191.055 187.133 210.142H229.025Z" fill="#FF4E33"/>
<path d="M555.967 243.597L566.415 236.887L568.866 243.859C568.866 243.859 557.835 245.546 555.967 243.597Z" fill="#FF4E33"/>
<path d="M66.7692 194.573C57.0849 192.323 32.9746 192.604 32.9746 197.748C32.9746 197.748 26.9471 212.897 109.585 232.627C192.223 252.357 573.165 288.543 682.043 275.423C682.043 275.423 691.003 270.983 691.003 249.524C504.069 250.77 163.873 217.136 66.7491 194.553L66.7692 194.573Z" fill="#FFCAC2"/>
<path d="M53.5508 193.247C53.5508 193.247 106.573 192.242 129.619 190.474C152.664 188.706 239.742 203.253 277.515 208.738C315.288 214.243 310.687 222.742 321.496 225.233C332.305 227.725 520.566 244.119 566.315 242.532C566.315 242.532 566.657 238.815 566.396 236.886C599.045 238.896 669.206 240.624 684.034 239.639C688.675 239.338 690.885 247.214 691.006 249.524C691.006 249.524 624.582 259.811 467.463 247.756C310.345 235.701 85.4768 216.051 53.5508 193.247Z" fill="#FFCAC2"/>
<path d="M121.54 190.998C114.548 191.4 106.25 191.741 97.9121 192.043C119.973 200.502 321.535 225.235 321.535 225.235C316.592 224.089 314.864 221.698 310.826 218.906C257.743 213.22 172.694 199.537 121.54 190.998Z" fill="#FF816E"/>
<path d="M357.333 317.268H369.83C368.644 281.685 368.042 256.209 368.042 256.209L357.312 263.643C357.534 282.891 357.534 300.712 357.312 317.268H357.333Z" fill="#FFCAC2"/>
<path d="M482.826 318.454C483.027 291.149 483.067 264.949 483.067 264.949L368.041 256.209C368.041 256.209 368.644 281.685 369.829 317.268L482.826 318.454Z" fill="#FF4E33"/>
<g style="mix-blend-mode:multiply" opacity="0.44">
<path d="M357.333 317.268H369.83C368.644 281.685 368.042 256.209 368.042 256.209L357.312 263.643C357.534 282.891 357.534 300.712 357.312 317.268H357.333Z" fill="#FFCAC2"/>
<path d="M482.826 318.454C483.027 291.149 483.067 264.949 483.067 264.949L368.041 256.209C368.041 256.209 368.644 281.685 369.829 317.268L482.826 318.454Z" fill="#FF4E33"/>
</g>
<path d="M326.391 585.776C326.391 585.776 367.88 497.553 352.45 273.026L366.112 263.764C367.217 294.022 375.676 519.814 399.344 585.756H326.391V585.776Z" fill="#FFCAC2"/>
<path d="M348.832 585.774C348.832 585.774 356.969 542.597 364.423 426.084C364.423 426.084 373.726 533.555 383.41 585.774H348.832Z" fill="#FF816E"/>
<path d="M514.63 585.774C491.585 542.857 490.62 272.019 490.62 272.019L366.131 263.781C367.236 294.04 375.695 519.832 399.363 585.774H514.63Z" fill="#FF4E33"/>
<path d="M155.827 292.282H175.356C174.171 256.699 173.568 231.223 173.568 231.223L155.807 238.657C156.028 257.905 156.028 275.726 155.807 292.282H155.827Z" fill="#FFCAC2"/>
<path d="M286.683 292.282C286.884 264.977 286.884 246.593 286.884 246.593L173.586 231.223C173.586 231.223 174.189 256.699 175.374 292.282H286.683Z" fill="#FF4E33"/>
<g style="mix-blend-mode:multiply" opacity="0.44">
<path d="M155.827 292.282H175.356C174.171 256.699 173.568 231.223 173.568 231.223L155.807 238.657C156.028 257.905 156.028 275.726 155.807 292.282H155.827Z" fill="#FFCAC2"/>
<path d="M286.683 292.282C286.884 264.977 286.884 246.593 286.884 246.593L173.586 231.223C173.586 231.223 174.189 256.699 175.374 292.282H286.683Z" fill="#FF4E33"/>
</g>
<path d="M108.875 585.778C108.875 585.778 150.425 552.446 146.829 250.244L169.713 240.66C169.713 240.66 176.102 514.934 188.861 585.758H108.875V585.778Z" fill="#FFCAC2"/>
<path d="M295.246 257.678L169.691 240.66C169.691 240.66 176.081 514.934 188.839 585.758H306.939C288.856 496.209 295.225 257.678 295.225 257.678H295.246Z" fill="#FF4E33"/>
<path d="M136.703 585.778C136.703 585.778 151.591 513.065 159.045 396.553C159.045 396.553 167.022 540.37 171.281 585.778H136.703Z" fill="#FF816E"/>
<path d="M562.317 297.869C561.794 279.706 561.513 268.334 561.513 268.334L554.541 273.176V297.869H562.317Z" fill="#FFCAC2"/>
<path d="M676.479 297.869C676.539 281.454 676.559 268.334 676.559 268.334H561.533C561.533 268.334 561.794 279.706 562.337 297.869H676.499H676.479Z" fill="#FF4E33"/>
<g style="mix-blend-mode:multiply" opacity="0.44">
<path d="M562.317 297.869C561.794 279.706 561.513 268.334 561.513 268.334L554.541 273.176V297.869H562.317Z" fill="#FFCAC2"/>
<path d="M676.479 297.869C676.539 281.454 676.559 268.334 676.559 268.334H561.533C561.533 268.334 561.794 279.706 562.337 297.869H676.499H676.479Z" fill="#FF4E33"/>
</g>
<path d="M541.859 585.783C544.009 583.392 569.546 502.542 549.575 283.099L559.681 278.236C560.786 308.495 578.628 519.841 602.296 585.783H541.859Z" fill="#FFCAC2"/>
<path d="M717.582 585.783C694.536 542.866 683.647 278.236 683.647 278.236H559.68C560.785 308.495 578.626 519.841 602.295 585.783H717.562H717.582Z" fill="#FF4E33"/>
<path d="M555.422 585.786C557.11 571.882 561.65 545.2 565.97 439.396C565.97 439.396 574.188 533.567 581.501 585.786H555.422Z" fill="#FF816E"/>
</g>
</g>
<defs>
<clipPath id="clip0_6093_4626">
<rect width="820" height="557" fill="white"/>
</clipPath>
<clipPath id="clip1_6093_4626">
<rect width="964" height="553" fill="white" transform="translate(-86 14)"/>
</clipPath>
</defs>
</svg>
