<svg width="820" height="574" viewBox="0 0 820 574" fill="none" xmlns="http://www.w3.org/2000/svg">
<g clip-path="url(#clip0_6093_4929)">
<path d="M375.188 93.436C375.188 105.844 371.272 115.304 363.44 121.816C355.608 128.328 344.476 131.584 330.044 131.584C315.612 131.584 304.436 128.328 296.516 121.816C288.684 115.304 284.768 105.844 284.768 93.436V39.184H313.94V93.04C313.94 98.144 315.304 102.236 318.032 105.316C320.76 108.308 324.72 109.804 329.912 109.804C335.104 109.804 339.064 108.264 341.792 105.184C344.608 102.104 346.016 98.056 346.016 93.04V39.184H375.188V93.436Z" fill="#F1F1F1"/>
<path d="M456.237 39.184H492.405L459.801 76.54L493.065 130H458.613L439.737 96.736L423.897 109.672V130H394.725V39.184H423.897V77.992L456.237 39.184Z" fill="#F6F6F6"/>
<path d="M271.426 282.95H204.558V574.453H271.426V282.95Z" fill="#E6E6E6"/>
<path d="M298.922 282.95H271.43V574.453H298.922V282.95Z" fill="#E6E6E6"/>
<path d="M294.018 298.313H209.472V305.846H294.018V298.313Z" fill="#F2F2F2"/>
<path d="M294.018 316.462H209.472V323.994H294.018V316.462Z" fill="#F2F2F2"/>
<path d="M294.018 334.55H209.472V342.082H294.018V334.55Z" fill="#F2F2F2"/>
<path d="M294.018 352.697H209.472V360.229H294.018V352.697Z" fill="#F2F2F2"/>
<path d="M294.018 370.849H209.472V378.381H294.018V370.849Z" fill="#F2F2F2"/>
<path d="M294.018 388.991H209.472V396.523H294.018V388.991Z" fill="#F2F2F2"/>
<path d="M294.018 407.083H209.472V414.615H294.018V407.083Z" fill="#F2F2F2"/>
<path d="M294.018 425.236H209.472V432.769H294.018V425.236Z" fill="#F2F2F2"/>
<path d="M294.018 443.382H209.472V450.914H294.018V443.382Z" fill="#F2F2F2"/>
<path d="M294.018 461.53H209.472V469.062H294.018V461.53Z" fill="#F2F2F2"/>
<path d="M294.018 479.678H209.472V487.21H294.018V479.678Z" fill="#F2F2F2"/>
<path d="M294.018 497.766H209.472V505.298H294.018V497.766Z" fill="#F2F2F2"/>
<path d="M294.018 515.914H209.472V523.446H294.018V515.914Z" fill="#F2F2F2"/>
<path d="M294.018 534.066H209.472V541.599H294.018V534.066Z" fill="#F2F2F2"/>
<path d="M294.018 552.216H209.472V559.748H294.018V552.216Z" fill="#F2F2F2"/>
<path d="M176.469 353.745H150.188V380.159H176.469V353.745Z" fill="#F2F2F2"/>
<path d="M188.836 380.159H137.841V574.429H188.836V380.159Z" fill="#F2F2F2"/>
<path d="M144.077 380.159H142.101V574.429H144.077V380.159Z" fill="#E6E6E6"/>
<path d="M148.11 380.159H146.134V574.429H148.11V380.159Z" fill="#E6E6E6"/>
<path d="M152.165 380.159H150.188V574.429H152.165V380.159Z" fill="#E6E6E6"/>
<path d="M156.213 380.159H154.237V574.429H156.213V380.159Z" fill="#E6E6E6"/>
<path d="M160.267 380.159H158.291V574.429H160.267V380.159Z" fill="#E6E6E6"/>
<path d="M164.324 380.159H162.348V574.429H164.324V380.159Z" fill="#E6E6E6"/>
<path d="M168.378 380.159H166.402V574.429H168.378V380.159Z" fill="#E6E6E6"/>
<path d="M172.435 380.159H170.459V574.429H172.435V380.159Z" fill="#E6E6E6"/>
<path d="M176.487 380.159H174.511V574.429H176.487V380.159Z" fill="#E6E6E6"/>
<path d="M180.546 380.159H178.57V574.429H180.546V380.159Z" fill="#E6E6E6"/>
<path d="M184.575 380.159H182.599V574.429H184.575V380.159Z" fill="#E6E6E6"/>
<path d="M137.816 399.235H115V574.454H137.816V399.235Z" fill="#F2F2F2"/>
<path d="M136.251 399.235H134.274V574.454H136.251V399.235Z" fill="#E6E6E6"/>
<path d="M132.041 399.235H130.064V574.454H132.041V399.235Z" fill="#E6E6E6"/>
<path d="M127.834 399.235H125.857V574.454H127.834V399.235Z" fill="#E6E6E6"/>
<path d="M123.648 399.235H121.672V574.454H123.648V399.235Z" fill="#E6E6E6"/>
<path d="M119.441 399.235H117.465V574.454H119.441V399.235Z" fill="#E6E6E6"/>
<path d="M751.731 374.752C742.988 276.714 708.597 203.733 694.368 203.733C680.139 203.733 645.747 276.714 637.005 374.752C627.994 475.565 637.005 574.453 637.005 574.453H751.731C751.731 574.453 760.741 475.52 751.731 374.752Z" fill="#F2F2F2"/>
<path d="M755.705 484.694C755.839 471.897 755.794 458.16 755.482 443.886C752.806 437.89 750.085 432.073 747.364 426.435C749.772 420.081 752.003 413.772 754.099 407.508C753.965 404.868 753.787 402.183 753.653 399.543C750.977 393.458 748.345 387.685 745.802 382.182C747.631 376.812 749.326 371.487 750.977 366.118C750.843 364.82 750.709 363.567 750.575 362.314C748.836 368.266 746.962 374.262 744.91 380.258C742.1 374.306 739.335 368.668 736.614 363.254C739.022 356.811 741.297 350.457 743.349 344.148C745.847 349.83 748.211 355.558 750.441 361.241C747.988 339.897 744.33 319.94 740.048 301.863C736.792 295.33 733.536 288.931 730.28 282.712C731.038 279.803 731.796 276.895 732.465 273.986C732.198 273.136 731.93 272.286 731.662 271.436C731.662 271.436 731.618 271.257 731.573 271.212C729.611 264.947 727.559 259.041 725.507 253.537C725.507 253.537 725.507 253.448 725.507 253.403C725.328 252.955 725.195 252.553 725.016 252.105C724.882 251.747 724.748 251.389 724.615 251.031C721.983 244.185 719.351 237.966 716.764 232.462C716.764 232.462 716.63 232.193 716.586 232.059C716.407 231.701 716.229 231.343 716.05 230.941C715.961 230.717 715.872 230.538 715.738 230.314C708.601 215.682 701.776 206.464 696.736 204.227C696.736 204.227 696.691 204.227 696.647 204.182C695.888 203.824 695.13 203.646 694.461 203.646C693.39 203.646 692.231 204.093 690.982 204.854C690.982 204.854 690.893 204.898 690.848 204.943C690.536 205.122 690.268 205.346 689.956 205.57C689.867 205.614 689.777 205.704 689.688 205.749C689.331 206.017 689.019 206.33 688.662 206.643C688.618 206.688 688.573 206.733 688.484 206.778C687.235 207.941 685.897 209.418 684.514 211.208C684.469 211.252 684.425 211.342 684.38 211.387C683.979 211.923 683.577 212.46 683.176 212.997C683.087 213.132 682.953 213.311 682.863 213.445C682.507 213.937 682.15 214.474 681.793 215.011C681.659 215.19 681.525 215.414 681.392 215.593C681.035 216.13 680.722 216.667 680.366 217.204C680.276 217.338 680.232 217.427 680.143 217.517C676.396 223.557 672.381 231.388 668.367 240.829C668.367 240.829 668.277 241.053 668.233 241.143C668.144 241.322 668.054 241.545 667.965 241.724C667.608 242.574 667.251 243.469 666.85 244.364C666.716 244.677 666.627 244.946 666.493 245.259C666.136 246.109 665.824 246.96 665.467 247.81C665.378 248.078 665.244 248.347 665.155 248.66C664.753 249.734 664.307 250.808 663.906 251.926C663.906 251.971 663.861 252.061 663.817 252.105C663.371 253.313 662.925 254.566 662.479 255.774C662.389 255.998 662.345 256.177 662.256 256.401C661.899 257.43 661.542 258.459 661.14 259.488C661.007 259.846 660.917 260.16 660.784 260.518C660.427 261.502 660.114 262.442 659.802 263.426C659.713 263.739 659.579 264.052 659.49 264.41C659.401 264.679 659.312 264.903 659.222 265.171C657.037 271.794 654.896 278.863 652.844 286.336L661.274 272.196C662.791 277.342 664.352 282.354 665.958 287.141C663.058 293.495 660.025 299.849 656.903 306.203C655.119 301.192 653.379 296.046 651.684 290.811C651.461 291.705 651.238 292.6 650.97 293.495C652.621 298.462 654.271 303.339 655.966 308.082C653.201 313.72 650.301 319.314 647.357 324.952C646.688 322.625 646.064 320.253 645.395 317.882C643.253 328.487 641.38 339.584 639.819 351.173C641.202 355.334 642.629 359.451 644.101 363.523C641.826 367.55 639.507 371.577 637.142 375.604C637.053 376.767 636.919 377.931 636.83 379.094C639.507 374.53 642.183 369.966 644.77 365.402C647.045 371.577 649.364 377.707 651.773 383.703C648.472 389.475 645.082 395.292 641.648 401.02C639.819 396.321 638.035 391.534 636.25 386.611C636.161 387.82 636.072 389.028 635.983 390.281C637.544 394.487 639.06 398.603 640.666 402.631C638.704 405.897 636.696 409.163 634.644 412.43C634.6 413.459 634.555 414.443 634.511 415.473C636.83 411.803 639.105 408.089 641.38 404.376C643.878 410.774 646.465 416.949 649.052 423.035C645.707 428.673 642.272 434.176 638.882 439.635C637.232 434.848 635.67 429.97 634.109 425.093C633.529 440.038 633.306 454.58 633.262 468.317C634.689 471.987 636.116 475.656 637.588 479.28C636.161 481.517 634.778 483.755 633.351 485.947C633.351 486.842 633.351 487.782 633.351 488.677C634.957 486.171 636.607 483.621 638.258 480.981C641.112 488.006 644.101 494.897 647.134 501.653C643.164 508.186 639.284 514.495 635.447 520.536C634.957 519.507 634.511 518.478 634.02 517.448C634.02 518.746 634.109 520.088 634.154 521.341C634.243 521.565 634.377 521.789 634.466 522.057C634.377 522.191 634.288 522.371 634.198 522.505C634.198 523.4 634.288 524.295 634.288 525.145C634.6 524.653 634.912 524.16 635.224 523.668C638.079 529.754 640.934 535.481 643.878 541.03C641.112 545.459 638.391 549.71 635.76 553.827C635.804 554.677 635.849 555.527 635.938 556.333C638.793 551.903 641.737 547.294 644.725 542.551C647.848 548.457 651.104 554.185 654.628 560.047C651.684 564.7 648.918 568.906 646.331 572.799C641.425 567.519 638.347 562.642 636.027 557.586C636.741 568.28 637.276 574.32 637.276 574.32H647.759C647.759 574.32 647.491 574.052 647.357 573.918C649.855 570.114 652.576 565.953 655.475 561.478C657.973 565.64 660.65 569.935 663.46 574.32H665.244C662.122 569.398 659.178 564.655 656.412 560.047C659.847 554.677 663.505 548.86 667.296 542.64C670.285 548.189 673.273 553.693 676.396 559.107C673.095 564.163 669.705 569.219 666.27 574.32H668.099C671.221 569.712 674.255 565.148 677.243 560.583C679.875 565.192 682.596 569.801 685.317 574.32H702.847C700.974 571.278 699.145 568.235 697.316 565.192C701.286 558.973 705.122 552.798 708.824 546.578C711.545 552.484 714.221 558.436 716.809 564.476C714.846 567.743 712.839 571.054 710.787 574.32H712.571C714.266 571.591 715.916 568.906 717.522 566.177C718.682 568.861 719.753 571.591 720.868 574.32H722.518C721.18 571.054 719.842 567.788 718.504 564.566C723.098 556.87 727.514 549.218 731.752 541.566C734.963 547.697 738.086 553.782 741.163 559.912C738.487 564.7 735.677 569.533 732.822 574.32H734.606C737.104 570.07 739.558 565.774 741.966 561.523C744.063 565.774 746.115 570.025 748.122 574.32H752.003C752.003 574.32 752.761 565.864 753.653 551.411C752.672 549.442 751.69 547.473 750.709 545.504C751.958 543.177 753.162 540.851 754.367 538.524C754.411 537.36 754.501 536.152 754.545 534.899C753.029 537.897 751.467 540.851 749.906 543.849C746.784 537.763 743.572 531.678 740.316 525.592C743.438 519.596 746.427 513.645 749.282 507.694C751.289 512.437 753.207 517.269 755.08 522.147C755.08 520.894 755.17 519.641 755.214 518.343C753.564 514.137 751.869 509.976 750.129 505.859C752.092 501.787 753.965 497.716 755.839 493.644C755.839 492.391 755.839 491.138 755.883 489.84C753.787 494.539 751.601 499.282 749.326 504.025C746.784 498.029 744.152 492.122 741.431 486.261C744.33 480.22 747.096 474.224 749.772 468.228C751.869 473.463 753.921 478.877 755.928 484.515L755.705 484.694ZM745.089 384.285C747.944 390.37 750.843 396.814 753.831 403.749C751.601 410.64 749.148 417.576 746.472 424.601C743.349 418.202 740.227 411.982 737.06 405.942C739.914 398.738 742.591 391.534 745.089 384.285ZM679.117 409.611C682.819 402.452 686.477 395.203 690 387.864C693.078 394.174 696.201 400.348 699.323 406.434C695.71 413.862 691.963 421.245 688.172 428.538C685.094 422.319 682.061 416.01 679.117 409.611ZM679.563 444.871C676.128 451.225 672.649 457.534 669.214 463.709C666.136 457.444 663.103 451.09 660.07 444.557C663.505 438.561 666.939 432.431 670.329 426.167C673.362 432.476 676.44 438.696 679.563 444.871ZM700.171 404.778C697.048 398.648 693.97 392.473 690.848 386.164C693.881 379.855 696.825 373.501 699.725 367.102C702.892 373.322 706.103 379.407 709.315 385.448C706.371 391.891 703.293 398.38 700.171 404.778ZM710.207 387.104C711.144 388.849 712.08 390.639 713.017 392.384C714.891 395.874 716.764 399.409 718.637 402.988C715.693 409.611 712.616 416.233 709.449 422.811C706.638 417.397 703.873 411.982 701.063 406.479C704.185 400.035 707.263 393.592 710.252 387.104H710.207ZM700.215 408.134C703.025 413.638 705.836 419.052 708.601 424.466C704.988 431.984 701.286 439.456 697.45 446.839C694.595 441.336 691.785 435.832 689.019 430.194C692.811 422.9 696.558 415.517 700.171 408.089L700.215 408.134ZM709.493 426.122C709.984 427.107 710.519 428.091 711.01 429.075C713.642 434.221 716.273 439.277 718.905 444.334C715.381 451.896 711.724 459.368 708.021 466.707C704.765 460.666 701.553 454.58 698.342 448.45C702.133 441.067 705.88 433.595 709.493 426.077V426.122ZM712.348 428.404C711.679 427.062 710.965 425.764 710.296 424.422C713.463 417.844 716.541 411.222 719.53 404.599C722.607 410.416 725.685 416.323 728.718 422.408C725.819 429.21 722.786 435.966 719.708 442.633C717.299 437.89 714.846 433.147 712.348 428.404ZM726.265 385.269C723.499 380.034 720.734 374.843 718.013 369.653C721.18 362.314 724.213 354.976 727.023 347.727C729.655 352.828 732.331 358.019 735.008 363.388C732.287 370.637 729.387 377.976 726.265 385.314C726.265 385.314 726.265 385.314 726.265 385.269ZM717.121 367.952C713.865 361.733 710.698 355.513 707.531 349.114C710.608 341.687 713.552 334.214 716.318 326.741C719.262 332.648 722.251 338.42 725.284 344.282C725.551 344.819 725.819 345.356 726.131 345.893C723.321 353.186 720.288 360.525 717.121 367.908V367.952ZM706.638 347.325C703.917 341.731 701.241 336.049 698.565 330.187C701.687 322.983 704.631 315.779 707.441 308.575C710.073 314.213 712.705 319.627 715.337 324.907C712.571 332.379 709.672 339.852 706.594 347.325H706.638ZM698.877 365.357C696.022 371.756 693.078 378.11 690.045 384.419C687.19 378.602 684.38 372.651 681.57 366.61C684.603 360.525 687.547 354.394 690.402 348.219C693.212 354.081 696.022 359.764 698.832 365.312L698.877 365.357ZM689.242 386.164C685.718 393.502 682.105 400.751 678.403 407.911C675.548 401.691 672.783 395.382 670.062 388.983C673.719 382.182 677.288 375.291 680.767 368.355C683.577 374.396 686.432 380.347 689.287 386.164H689.242ZM669.303 387.193C666.761 381.063 664.263 374.888 661.854 368.579C665.378 362.046 668.768 355.513 672.069 348.98C674.656 354.976 677.288 360.883 679.964 366.655C676.529 373.59 672.961 380.437 669.303 387.238V387.193ZM661.14 366.7C658.821 360.525 656.546 354.26 654.405 347.862C657.706 341.687 660.873 335.556 663.906 329.381C666.315 335.422 668.768 341.329 671.221 347.146C667.965 353.678 664.575 360.167 661.096 366.7H661.14ZM669.571 424.511C666.181 430.776 662.746 436.906 659.312 442.902C656.368 436.503 653.424 430.015 650.569 423.348C654.048 417.531 657.483 411.624 660.828 405.628C663.683 412.027 666.582 418.336 669.526 424.511H669.571ZM668.367 465.275C664.397 472.3 660.427 479.191 656.501 485.903C653.602 479.101 650.747 472.21 648.026 465.141C651.729 458.966 655.475 452.656 659.222 446.124C662.256 452.612 665.333 459.01 668.367 465.275ZM669.169 466.886C671.98 472.613 674.834 478.296 677.645 483.889C673.541 491.227 669.393 498.476 665.289 505.501C662.523 499.64 659.847 493.644 657.215 487.558C661.185 480.846 665.155 473.911 669.169 466.841V466.886ZM670.062 465.319C673.541 459.145 677.02 452.835 680.455 446.481C683.31 452.075 686.164 457.578 689.064 463.037C685.584 469.57 682.061 476.014 678.537 482.323C675.727 476.73 672.872 471.047 670.062 465.319ZM689.911 464.648C693.167 470.778 696.424 476.864 699.725 482.905C696.111 489.706 692.498 496.373 688.885 502.817C687.77 500.579 686.61 498.342 685.495 496.105C683.443 492.078 681.436 488.05 679.384 484.023C682.908 477.669 686.432 471.226 689.911 464.693V464.648ZM700.572 484.471C703.739 490.332 706.951 496.149 710.118 501.966C710.207 502.145 710.296 502.28 710.385 502.414C706.728 509.126 702.892 515.882 698.877 522.728C695.888 516.643 692.811 510.513 689.688 504.383C693.301 497.939 696.914 491.272 700.572 484.471ZM708.913 468.362C712.616 461.069 716.229 453.641 719.797 446.079C723.053 452.433 726.265 458.742 729.387 465.096C726.042 472.166 722.518 479.325 718.816 486.574C715.515 480.533 712.214 474.492 708.913 468.362ZM730.235 466.796C733.447 473.329 736.569 479.862 739.647 486.484C736.435 493.107 733.134 499.774 729.655 506.441C727.514 502.548 725.373 498.655 723.232 494.718C722.027 492.525 720.823 490.332 719.663 488.185C723.366 481.025 726.89 473.911 730.235 466.841V466.796ZM730.235 463.351C727.068 456.997 723.901 450.688 720.645 444.334C723.723 437.711 726.756 430.955 729.7 424.198C732.822 430.462 735.945 436.906 739.022 443.618C736.257 450.151 733.357 456.728 730.235 463.351ZM744.33 382.361C741.833 389.654 739.156 396.948 736.301 404.197C733.268 398.38 730.28 392.697 727.246 387.059C730.324 379.721 733.268 372.472 735.989 365.223C738.71 370.682 741.476 376.365 744.33 382.361ZM742.591 342.134C740.494 348.488 738.264 354.976 735.811 361.464C733.134 356.095 730.458 350.949 727.826 345.803C730.413 339.047 732.867 332.379 735.142 325.802C737.684 331.216 740.182 336.63 742.591 342.134ZM734.205 323.878C731.975 330.5 729.521 337.257 726.89 344.058C726.8 343.924 726.756 343.745 726.666 343.611C723.41 337.346 720.243 331.127 717.076 324.817C719.663 317.792 722.072 310.722 724.302 303.697C727.648 310.32 730.949 317.076 734.205 323.878ZM723.321 301.773C721.091 308.798 718.682 315.868 716.139 322.938C713.508 317.613 710.876 312.199 708.289 306.561C710.876 299.894 713.285 293.272 715.56 286.649C718.147 291.571 720.734 296.627 723.321 301.729V301.773ZM706.638 267.99C708.958 272.33 712.214 280.295 714.578 284.859C712.348 291.437 709.939 298.059 707.397 304.682C704.81 298.999 702.222 293.093 699.635 286.828L706.638 267.945V267.99ZM706.638 306.651C703.828 313.855 700.884 321.103 697.806 328.308C695.219 322.446 692.632 316.36 690.134 310.096C693.212 302.937 696.111 295.822 698.832 288.752C701.42 295.061 704.051 300.968 706.683 306.695L706.638 306.651ZM687.279 277.387L691.026 268.796C693.346 275.105 695.621 281.056 697.94 286.694C695.264 293.764 692.365 300.923 689.331 308.082C686.967 302.042 684.648 295.777 682.417 289.244C684.112 285.262 685.718 281.28 687.279 277.342V277.387ZM681.748 328.934C684.335 334.975 687.012 340.836 689.688 346.519C686.833 352.694 683.889 358.824 680.856 364.91C678.18 359.137 675.548 353.231 672.961 347.19C675.994 341.105 678.938 335.019 681.748 328.934ZM680.945 327.055C678.135 333.14 675.236 339.27 672.203 345.356C669.705 339.539 667.296 333.632 664.887 327.547C667.921 321.372 670.865 315.197 673.719 309.067C676.083 315.287 678.537 321.282 680.99 327.055H680.945ZM666.672 289.379C668.723 295.509 670.82 301.415 672.961 307.098C670.151 313.273 667.207 319.493 664.129 325.668C661.899 320.03 659.758 314.257 657.617 308.306C660.739 301.952 663.772 295.643 666.672 289.334V289.379ZM647.982 327.189C650.97 321.506 653.914 315.868 656.724 310.185C658.865 316.092 661.051 321.864 663.237 327.457C660.204 333.588 657.081 339.718 653.825 345.848C651.773 339.718 649.855 333.498 647.982 327.144V327.189ZM642.272 402.899C645.751 397.127 649.141 391.355 652.442 385.582C654.94 391.802 657.527 397.887 660.159 403.883C656.769 409.879 653.379 415.786 649.9 421.603C647.313 415.517 644.725 409.298 642.227 402.944L642.272 402.899ZM639.417 441.559C642.852 436.1 646.287 430.507 649.677 424.869C652.576 431.536 655.475 438.069 658.464 444.468C654.762 450.911 651.015 457.22 647.357 463.351C644.636 456.236 642.004 448.987 639.417 441.559ZM636.116 522.236C639.908 516.196 643.833 509.886 647.803 503.398C650.524 509.394 653.29 515.256 656.145 521.073C652.308 527.472 648.472 533.646 644.77 539.642C641.871 534.094 639.016 528.366 636.161 522.281L636.116 522.236ZM655.431 558.704C651.952 552.842 648.695 547.07 645.573 541.164C649.275 535.213 653.067 529.038 656.947 522.684C660.025 528.948 663.192 535.123 666.404 541.209C662.568 547.473 658.91 553.335 655.431 558.749V558.704ZM666.136 507.157C670.24 500.132 674.388 492.883 678.492 485.5C680.366 489.259 682.284 492.972 684.157 496.686C685.451 499.237 686.744 501.743 687.993 504.293C683.756 511.855 679.518 519.149 675.459 526.084C672.247 519.865 669.169 513.556 666.136 507.157ZM676.306 527.695C680.41 520.804 684.603 513.511 688.841 505.949C691.919 512.079 694.996 518.164 697.985 524.25C693.97 531.051 689.777 537.942 685.451 544.878C682.328 539.24 679.25 533.512 676.262 527.695H676.306ZM696.334 563.85C692.9 558.078 689.554 552.261 686.298 546.354C690.625 539.463 694.773 532.617 698.788 525.861C701.91 532.215 704.988 538.613 707.977 545.057C704.23 551.321 700.349 557.586 696.334 563.85ZM699.68 524.295C703.694 517.448 707.531 510.692 711.233 503.935C714.578 510.065 717.879 516.106 721.18 522.147C717.255 529.261 713.151 536.376 708.913 543.491C705.925 537.047 702.847 530.693 699.725 524.295H699.68ZM717.612 563C715.024 556.959 712.348 551.008 709.627 545.146C713.909 537.987 718.013 530.872 721.983 523.713C724.971 529.172 727.871 534.631 730.726 540.09C726.533 547.697 722.161 555.348 717.567 563H717.612ZM748.345 506.038C745.446 512.079 742.412 518.12 739.29 524.16C736.391 518.791 733.491 513.377 730.547 507.962C734.026 501.34 737.327 494.762 740.494 488.185C743.171 494.046 745.802 499.998 748.345 505.993V506.038ZM740.494 484.739C737.417 478.117 734.25 471.584 731.038 465.051C734.116 458.473 737.06 451.94 739.781 445.452C742.858 452.164 745.892 459.189 748.836 466.483C746.159 472.568 743.394 478.609 740.494 484.739Z" fill="#E6E6E6"/>
<g style="mix-blend-mode:multiply">
<path d="M751.732 574.453C751.732 574.453 760.743 475.52 751.732 374.752C742.99 276.714 708.598 203.733 694.369 203.733V574.453H751.732Z" fill="#F2F2F2"/>
</g>
<path d="M552.444 359.22H497.695V574.452H552.444V359.22Z" fill="#E6E6E6"/>
<path d="M607.192 359.22H552.443V574.452H607.192V359.22Z" fill="#E6E6E6"/>
<path d="M596.729 388.638H505.975V394.687H596.729V388.638Z" fill="#F2F2F2"/>
<path d="M596.729 402.869H505.975V408.919H596.729V402.869Z" fill="#F2F2F2"/>
<path d="M596.729 417.108H505.975V423.158H596.729V417.108Z" fill="#F2F2F2"/>
<path d="M596.729 431.338H505.975V437.387H596.729V431.338Z" fill="#F2F2F2"/>
<path d="M596.729 445.577H505.975V451.627H596.729V445.577Z" fill="#F2F2F2"/>
<path d="M596.729 459.807H505.975V465.856H596.729V459.807Z" fill="#F2F2F2"/>
<path d="M596.729 474.044H505.975V480.093H596.729V474.044Z" fill="#F2F2F2"/>
<path d="M596.729 488.278H505.975V494.328H596.729V488.278Z" fill="#F2F2F2"/>
<path d="M596.729 502.51H505.975V508.559H596.729V502.51Z" fill="#F2F2F2"/>
<path d="M596.729 516.688H505.975V522.738H596.729V516.688Z" fill="#F2F2F2"/>
<path d="M596.729 530.92H505.975V536.969H596.729V530.92Z" fill="#F2F2F2"/>
<path d="M596.729 545.155H505.975V551.205H596.729V545.155Z" fill="#F2F2F2"/>
<path d="M596.729 559.389H505.975V565.438H596.729V559.389Z" fill="#F2F2F2"/>
<path d="M579.867 340.361H522.932V359.222H579.867V340.361Z" fill="#E6E6E6"/>
<g clip-path="url(#clip1_6093_4929)">
<path d="M459.975 209.456H340.562V746.025H459.975V209.456Z" fill="#FF4E33"/>
<path d="M460.095 231.165H340.683L367.617 159.341H433.161L460.095 231.165Z" fill="#FF4E33"/>
<path d="M428.577 119.702H372.207V175.238H428.577V119.702Z" fill="#FF4E33"/>
<path d="M433.95 117.884H366.86V126.788H433.95V117.884Z" fill="#FF4E33"/>
<path d="M428.502 123.994H372.279V113.421L400.391 21.5811L428.502 113.421V123.994Z" fill="#FF4E33"/>
<path d="M468.534 317.585H332V324.257H468.534V317.585Z" fill="#FF4E33"/>
<path d="M468.534 338.459H332V345.131H468.534V338.459Z" fill="#FF4E33"/>
<path d="M469.021 209.456H332.487V216.128H469.021V209.456Z" fill="#FF4E33"/>
<path d="M401.518 -16H399.262V55.3823H401.518V-16Z" fill="#FF4E33"/>
<path d="M359.278 266.66H335.238V320.945H359.278V266.66Z" fill="#FF4E33"/>
<path d="M465.739 266.66H441.699V320.945H465.739V266.66Z" fill="#FF4E33"/>
<path d="M400.512 301.54C413.721 301.54 424.429 290.832 424.429 277.623C424.429 264.414 413.721 253.706 400.512 253.706C387.304 253.706 376.596 264.414 376.596 277.623C376.596 290.832 387.304 301.54 400.512 301.54Z" fill="white"/>
<path d="M385.027 271.994C384.687 272.79 407.453 282.22 408.246 284.719C408.246 284.719 409.378 283.81 409.945 282.674C410.398 281.538 410.285 280.061 410.285 280.061C407.906 281.197 385.367 271.085 385.027 271.881V271.994Z" fill="#FF4E33"/>
<path d="M410.761 274.724L412.46 275.178L415.632 270.406L410.195 272.224V273.928C406.118 276.655 399.435 281.427 397.963 280.745C397.963 280.745 397.963 282.336 398.642 283.359C399.435 284.381 401.021 284.722 401.021 284.722C400.794 283.131 407.137 278.019 410.875 274.724H410.761Z" fill="#FF4E33"/>
</g>
</g>
<defs>
<clipPath id="clip0_6093_4929">
<rect width="820" height="574" fill="white"/>
</clipPath>
<clipPath id="clip1_6093_4929">
<rect width="137" height="762.024" fill="white" transform="translate(332 -16)"/>
</clipPath>
</defs>
</svg>
