<svg width="17" height="17" viewBox="0 0 17 17" fill="none" xmlns="http://www.w3.org/2000/svg">
<path d="M7.25083 0.0105149C10.5325 -0.165315 13.6314 1.88003 14.7687 4.94328C15.7068 7.47057 15.265 10.2552 13.6144 12.3716L16.8595 15.6827C17.3903 16.5692 16.2996 17.4325 15.5437 16.7599L12.3961 13.6273C12.3124 13.6055 12.1031 13.8126 12.0157 13.8703C8.45649 16.2207 3.85901 15.5402 1.38678 12.0072C-2.0559 7.0866 1.2909 0.329868 7.25083 0.0105149ZM13.5667 7.63316C13.5667 4.35595 10.9096 1.69943 7.63171 1.69943C4.35377 1.69943 1.69667 4.35595 1.69667 7.63316C1.69667 10.9104 4.35377 13.5669 7.63171 13.5669C10.9096 13.5669 13.5667 10.9104 13.5667 7.63316Z" fill="white"/>
</svg>
