<svg width="125" height="106" viewBox="0 0 125 106" fill="none" xmlns="http://www.w3.org/2000/svg">
<g id="Group" opacity="0.14">
<path id="Vector" d="M40.583 0.0279388C40.3854 0.0526428 39.6072 0.139114 38.8537 0.213226C36.0869 0.48497 32.5665 1.33727 30.022 2.36248C26.2546 3.88179 23.0925 6.00634 20.3257 8.85966C14.8907 14.4675 11.6421 22.1505 10.444 32.1927C10.3328 33.1068 10.2093 35.2684 10.1723 36.9853L10.0981 40.1104L5.09555 49.6462C-0.302298 59.9602 -0.302298 59.9478 0.216488 60.763C0.377065 61.0101 1.46405 61.6894 3.83564 63.0235C5.70081 64.0734 7.28187 64.9874 7.33128 65.0369C7.39304 65.0986 7.23246 65.4692 6.97307 65.8644C6.44193 66.692 6.35546 67.3837 6.71367 67.9272C6.8866 68.199 8.22063 69.2366 8.89999 69.6195C9.04821 69.7059 8.89999 69.9036 8.19592 70.5706C7.28187 71.4229 7.20776 71.5835 7.29422 72.3987C7.30657 72.5222 7.59067 73.1892 7.93653 73.8562L8.54178 75.0914L8.22063 76.2402C7.51656 78.6982 7.34363 81.0945 7.7389 82.7003C8.69001 86.5665 12.655 88.407 21.1038 88.901C23.4013 89.0369 28.3174 88.9875 29.8738 88.8022L30.5161 88.7281V96.5346C30.5161 105.058 30.5038 104.909 31.2325 105.428L31.6031 105.688H47.9202H64.2372L64.7066 105.268L65.1636 104.848L65.2378 94.9783C65.2872 89.1481 65.3736 84.4172 65.4601 83.392C65.7442 80.057 66.1889 77.7224 66.967 75.462C67.9676 72.584 68.8693 70.9288 72.6984 65.0492C75.49 60.763 77.3551 57.7738 78.1704 56.2792C78.8868 54.9823 79.8503 52.6724 80.4802 50.7949C80.7767 49.9179 81.0731 49.1521 81.1349 49.0903C81.1966 49.0286 81.8142 49.0039 82.5183 49.0162L83.8029 49.0533L85.5693 53.3024C86.5327 55.6369 87.4591 57.6874 87.6073 57.848C87.7556 58.0085 88.0767 58.1815 88.3114 58.2556C88.5955 58.3297 92.8446 58.3791 99.7124 58.3791H110.656L110.817 58.8361C111.929 62.27 115.165 64.3698 118.673 63.9375C121.674 63.5546 124.083 61.4301 124.836 58.4779C125.121 57.3786 125.022 55.254 124.639 54.2412C122.947 49.7821 117.672 48.0898 113.72 50.7332C112.361 51.6349 111.36 52.9565 110.866 54.5252L110.656 55.1676L100.219 55.1429L89.7813 55.1058L88.0273 50.869C86.928 48.238 86.1375 46.5088 85.9522 46.3235C85.5446 45.9035 84.9517 45.7923 83.3088 45.78H81.9378L82.296 44.0754C82.8147 41.5185 83.3829 36.9853 83.3829 35.3178V35.0337L89.8801 35.0584L96.3897 35.0955L96.5379 35.5895C96.7973 36.4789 97.4396 37.5782 98.0943 38.2946C100.775 41.2344 105.036 41.5432 108.136 39.0234C110.1 37.43 111.15 34.5149 110.632 32.0692C109.804 28.0918 106.024 25.535 102.146 26.3255C99.5518 26.8443 97.4396 28.6724 96.612 31.1057L96.3897 31.7604L89.9048 31.7975L83.42 31.8222L83.2718 30.0682C83.0371 27.4742 82.2589 23.4104 81.7154 22.027C81.629 21.8293 81.8513 21.817 85.3099 21.817C88.7561 21.817 89.0155 21.8046 89.4849 21.5699C89.8801 21.3723 90.5101 20.6682 92.2147 18.5313C93.4375 16.9997 94.5492 15.7274 94.6851 15.6904C94.821 15.6657 98.2054 15.6533 102.207 15.6657L109.495 15.7027L109.767 16.4685C110.632 18.8648 112.46 20.5077 115.041 21.1994C116.017 21.4588 118.216 21.3105 119.192 20.9029C121.242 20.063 122.835 18.4325 123.54 16.4562C123.898 15.4063 123.984 13.5164 123.725 12.38C122.897 8.85966 119.476 6.45102 115.906 6.87099C114.695 7.01921 114.411 7.10567 113.324 7.64916C111.719 8.4644 110.36 10.0084 109.804 11.6512L109.557 12.4171L101.442 12.4541C94.6727 12.4912 93.2646 12.5159 92.9805 12.6641C92.7829 12.7629 91.5971 14.1464 90.3372 15.7274L88.0273 18.6054H84.2352H80.4432L79.7391 17.2714C75.0824 8.4397 66.2753 2.91833 53.3674 0.769066C49.8471 0.188522 48.5131 0.0649948 44.6592 0.0155869C42.6211 -0.00911713 40.793 -0.00911713 40.583 0.0279388ZM49.5383 3.46181C58.3206 4.53645 64.8672 6.80923 69.8698 10.5519C71.3644 11.6759 73.7607 14.0846 74.86 15.5545C75.7123 16.7156 76.7128 18.309 76.7128 18.5066C76.7128 18.5684 72.2537 18.6054 66.8065 18.6054H56.9001L56.0231 17.9878C51.7246 15.0233 46.1415 14.0105 41.0401 15.2827C37.4827 16.1597 34.6664 17.7532 32.1219 20.3224C25.5382 26.9801 24.8959 37.467 30.6273 44.8783C33.4559 48.5469 37.495 51.0049 42.1888 51.919C43.6834 52.2031 46.9444 52.2154 48.4884 51.919C50.86 51.4866 53.1574 50.6467 54.9979 49.535L55.8996 48.9915H66.72C72.6737 48.9915 77.5651 49.0286 77.6145 49.0656C77.7133 49.1768 76.9105 51.4002 76.157 53.0801C75.2553 55.0811 73.3531 58.2185 69.1534 64.6169C65.6083 70.0271 64.2002 72.9298 63.2367 76.8454C62.3103 80.6499 62.1374 83.1203 62.0509 93.6689L61.9768 102.476H47.8584H33.7276V94.5336C33.7276 88.444 33.6906 86.5294 33.5671 86.2948C33.4806 86.1342 33.2212 85.8624 32.9865 85.7019C32.6036 85.4425 32.4554 85.4178 31.7513 85.4672C31.3066 85.5042 29.318 85.603 27.3293 85.6895C20.5356 85.986 15.1995 85.3684 12.5562 83.9726C11.1604 83.2438 10.7034 82.3792 10.7281 80.4893C10.7404 79.217 10.9875 77.9571 11.5557 76.3143C12.0374 74.9185 12.0374 74.8815 11.321 73.4857C11.074 72.9916 10.8763 72.5593 10.8763 72.5346C10.8763 72.4975 11.3457 72.0775 11.9386 71.5835C13.0626 70.6323 13.3467 70.2371 13.3467 69.6195C13.3467 68.9525 13.0132 68.5448 11.8274 67.7543C10.0981 66.5932 10.1846 66.7661 10.7775 65.8274C11.3828 64.8639 11.4692 64.1722 11.0492 63.604C10.8887 63.3817 9.52995 62.5417 7.36833 61.3312C5.49082 60.2813 3.8974 59.3549 3.83564 59.2931C3.77388 59.2314 5.56493 55.6863 8.49237 50.1032L13.2603 41.0244L13.3591 37.8129C13.4085 36.0466 13.5073 34.0208 13.5814 33.3044C15.0884 19.6801 20.3874 10.589 29.4538 6.12986C32.5171 4.62291 35.5681 3.82002 40.3978 3.23948C41.46 3.11596 47.9572 3.27654 49.5383 3.46181ZM118.154 10.2925C118.574 10.4284 118.994 10.7125 119.463 11.1819C120.328 12.0465 120.686 12.9235 120.686 14.1587C120.686 14.8998 120.624 15.1222 120.229 15.9003C119.451 17.3949 118.24 18.1114 116.499 18.1114C113.707 18.1114 111.768 15.048 112.904 12.4541C113.806 10.416 115.943 9.53903 118.154 10.2925ZM47.7966 18.1237C50.687 18.4696 53.8862 20.0506 56.196 22.2493C58.2835 24.238 59.8152 26.8443 60.544 29.6605C60.9022 31.0069 60.9392 31.3281 60.9516 33.1191C60.9639 35.3178 60.8281 36.3183 60.2599 38.1217C58.4071 43.9889 53.3551 48.1145 47.0926 48.868C44.4245 49.2015 41.1142 48.6086 38.6067 47.3611C35.8893 46.0023 33.3324 43.5443 31.8378 40.8392C29.8244 37.1953 29.4168 32.4768 30.7631 28.4747C31.1337 27.3878 32.1219 25.4855 32.8754 24.4109C33.7647 23.151 35.4322 21.5205 36.6921 20.6806C40.1878 18.3708 43.5105 17.6049 47.7966 18.1237ZM78.6645 23.0769C79.455 25.6091 79.9244 28.1165 80.122 30.6734L80.2085 31.8222H72.1796H64.1508L63.9408 30.5375C63.5085 27.8201 62.545 25.3497 61.0751 23.1634L60.1858 21.817H69.2275H78.2815L78.6645 23.0769ZM105.11 29.7347C106.024 30.1299 106.679 30.7599 107.124 31.6616C107.469 32.378 107.531 32.6127 107.531 33.4279C107.531 34.2432 107.469 34.4779 107.124 35.1943C106.679 36.0836 106.049 36.7136 105.135 37.1582C104.666 37.3929 104.357 37.4423 103.455 37.4423C102.492 37.4423 102.257 37.3929 101.726 37.1088C100.898 36.6642 100.145 35.8613 99.7371 34.9843C99.453 34.342 99.4159 34.1567 99.4653 33.255C99.5271 32.1557 99.7741 31.5381 100.453 30.7599C101.59 29.4753 103.542 29.0429 105.11 29.7347ZM80.0726 36.2689C79.9985 38.517 79.1338 44.3101 78.6768 45.4959L78.5656 45.78H69.0545H59.5435L60.124 45.0636C62.1497 42.5932 63.5208 39.394 63.9902 36.0466L64.1384 35.0337L72.1302 35.0584L80.1096 35.0955L80.0726 36.2689ZM119.451 53.0183C120.291 53.4012 120.983 54.0559 121.403 54.8588C121.65 55.3405 121.724 55.711 121.773 56.5633C121.823 57.5762 121.81 57.6874 121.44 58.4285C120.513 60.306 118.5 61.2077 116.561 60.6025C115.832 60.3678 115.585 60.2196 114.942 59.5772C114.016 58.6508 113.707 57.885 113.732 56.6251C113.769 55.0934 114.634 53.7471 116.042 53.0677C116.684 52.7589 116.944 52.6971 117.783 52.6971C118.586 52.6971 118.895 52.7589 119.451 53.0183Z" fill="url(#paint0_linear_8126_3374)"/>
<path id="Vector_2" d="M43.9181 21.2611C43.1029 22.3111 42.4235 23.2251 42.3988 23.2992C42.3741 23.3733 42.72 23.4227 43.35 23.4227H44.3505V25.4608V27.4989H44.054C43.6217 27.4989 42.1271 28.2895 41.4724 28.8577C41.1636 29.1294 40.8795 29.3517 40.8425 29.3517C40.6943 29.3517 37.4333 27.4495 37.4333 27.3507C37.4333 27.3013 37.6309 26.9307 37.8656 26.5231C38.1003 26.1278 38.298 25.7449 38.298 25.6832C38.298 25.5844 33.493 26.2143 33.3695 26.3255C33.3077 26.3996 35.1358 30.9575 35.2346 30.9575C35.2717 30.9575 35.5187 30.5993 35.7781 30.1546C36.0375 29.7099 36.2969 29.3517 36.3463 29.3517C36.4328 29.3517 39.632 31.1428 39.7432 31.2416C39.7555 31.254 39.6814 31.6245 39.5702 32.0692C39.3849 32.8597 39.3973 34.4778 39.5949 34.9349C39.6567 35.1078 39.3726 35.2931 37.9398 36.0095C36.9886 36.4912 36.1487 36.8865 36.0746 36.8865C36.0128 36.8865 35.7534 36.4912 35.5064 35.9971C35.1852 35.3672 35.037 35.1572 34.9629 35.2931C34.7406 35.676 32.9866 39.6163 32.9866 39.7151C32.9866 39.7645 34.0983 40.0363 35.457 40.308C36.8157 40.5798 37.9274 40.7774 37.9274 40.7527C37.9274 40.728 37.7298 40.3204 37.4951 39.851C37.2604 39.3816 37.0628 38.9616 37.0628 38.9246C37.0628 38.8875 37.8533 38.4676 38.8044 37.9858L40.5584 37.1088L41.1266 37.677C41.843 38.3811 42.9547 39.0481 43.7452 39.2457L44.3505 39.4063V41.4691V43.5443L43.35 43.5813L42.3371 43.6184L43.844 45.5329C44.6716 46.5829 45.4127 47.4475 45.4869 47.4475C45.561 47.4475 46.3021 46.5829 47.1297 45.5329L48.649 43.6184L47.6114 43.5813L46.5738 43.5443V41.4691V39.3816L47.0432 39.2951C47.7226 39.1716 49.0319 38.4429 49.6742 37.8253L50.2424 37.2818L51.9593 38.2699C52.8981 38.8258 53.6886 39.2828 53.7133 39.2951C53.7257 39.3075 53.5281 39.7028 53.2563 40.1721C52.9846 40.6415 52.8116 41.0491 52.8857 41.0615C53.0463 41.1233 57.6042 40.4562 57.7154 40.3574C57.7772 40.2957 56.0726 35.8489 55.9244 35.6883C55.8873 35.6636 55.6403 36.0342 55.3562 36.5159C55.0721 36.9853 54.8003 37.3806 54.7509 37.3806C54.7015 37.3806 53.911 36.9359 52.9969 36.4048C51.7123 35.6513 51.3417 35.3795 51.3664 35.2066C51.3788 35.0707 51.4529 34.6261 51.527 34.2061C51.6258 33.6503 51.6135 33.1809 51.5147 32.5386C51.4159 31.8345 51.4159 31.6369 51.5394 31.5628C51.8482 31.3651 54.825 29.8458 54.8991 29.8458C54.9362 29.8458 55.1832 30.2658 55.4426 30.7846L55.912 31.711L56.9866 29.4011C57.5795 28.1289 58.0242 27.0419 57.9748 27.0048C57.8389 26.8937 53.2316 25.9796 53.1575 26.0537C53.1328 26.0908 53.3057 26.5108 53.5404 26.9801L53.9727 27.8448L53.4539 28.1536C53.1698 28.3265 52.3793 28.7341 51.6999 29.08L50.4647 29.6976L49.7483 29.0306C48.9578 28.2895 48.3402 27.9312 47.315 27.6101L46.6356 27.4001L46.5985 25.4114L46.5738 23.4227H47.562C48.1055 23.4227 48.5502 23.3733 48.5502 23.3116C48.5502 23.2128 45.4992 19.3342 45.4251 19.3589C45.4127 19.3589 44.7334 20.2112 43.9181 21.2611Z" fill="url(#paint1_linear_8126_3374)"/>
</g>
<defs>
<linearGradient id="paint0_linear_8126_3374" x1="0" y1="52.8429" x2="125" y2="52.8429" gradientUnits="userSpaceOnUse">
<stop stop-color="#D75372"/>
<stop offset="1" stop-color="#2D1370"/>
</linearGradient>
<linearGradient id="paint1_linear_8126_3374" x1="32.9866" y1="33.4032" x2="57.9785" y2="33.4032" gradientUnits="userSpaceOnUse">
<stop stop-color="#D75372"/>
<stop offset="1" stop-color="#2D1370"/>
</linearGradient>
</defs>
</svg>
