<svg width="157" height="99" viewBox="0 0 157 99" fill="none" xmlns="http://www.w3.org/2000/svg">
<path id="Vector" opacity="0.14" fill-rule="evenodd" clip-rule="evenodd" d="M74.6459 6.59667C72.9713 4.9248 70.6557 3.88641 68.0979 3.88641C65.5401 3.88641 63.2245 4.91827 61.5499 6.59667C59.8753 8.26853 58.8352 10.5804 58.8352 13.134C58.8352 15.6876 59.8688 17.9994 61.5499 19.6713C63.2245 21.3432 65.5401 22.3816 68.0979 22.3816C70.6557 22.3816 72.9713 21.3497 74.6459 19.6713C76.3205 17.9994 77.3541 15.6876 77.3541 13.134C77.3606 10.5805 76.3205 8.26853 74.6459 6.59667ZM10.5726 14.7666C9.66985 14.7666 8.93721 14.0351 8.93721 13.1339C8.93721 12.2326 9.66985 11.5012 10.5726 11.5012H48.0215L41.5259 6.81214C40.7999 6.28968 40.6298 5.27088 41.1531 4.54593C41.6764 3.82097 42.6969 3.65121 43.423 4.17367L53.8957 11.7297C54.3733 12.0105 54.6938 12.5329 54.6938 13.1272C54.6938 13.7215 54.3733 14.244 53.8957 14.5248L43.423 22.0808C42.6969 22.6032 41.6764 22.44 41.1531 21.7085C40.6298 20.9836 40.7933 19.9648 41.5259 19.4423L48.0215 14.7533L10.5726 14.7666ZM68.1033 49.0331H10.8991V63.0023C10.8991 63.9035 10.1665 64.635 9.26376 64.635C8.36105 64.635 7.62842 63.9035 7.62842 63.0023V47.4005C7.62842 46.4992 8.36105 45.7678 9.26376 45.7678H66.4679V34.7506L61.7712 41.2356C61.2479 41.9605 60.2274 42.1303 59.5013 41.6078C58.7751 41.0854 58.6051 40.0666 59.1284 39.3416L66.6967 28.8859C66.9846 28.4092 67.5013 28.0892 68.0966 28.0892C68.6919 28.0892 69.2152 28.4092 69.4965 28.8859L77.0648 39.3416C77.5881 40.0665 77.4246 41.0854 76.6919 41.6078C75.9659 42.1303 74.9453 41.967 74.422 41.2356L69.7253 34.7506V47.4005C69.7318 48.3083 68.9995 49.0331 68.1033 49.0331ZM15.8107 71.4728C14.1361 69.8009 11.8205 68.7691 9.26269 68.7691C6.70491 68.7691 4.38928 69.8009 2.71469 71.4728C1.04009 73.1447 0 75.4565 0 78.0101C0 80.5635 1.03354 82.8756 2.71469 84.5474C4.38928 86.2193 6.70491 87.2512 9.26269 87.2512C11.8205 87.2512 14.1361 86.2193 15.8107 84.5474C17.4853 82.8755 18.5254 80.5637 18.5254 78.0101C18.5254 75.4567 17.4853 73.1447 15.8107 71.4728ZM30.1037 86.9506L33.9827 89.7457C34.7088 90.2682 34.8789 91.287 34.3556 92.012C33.8323 92.7369 32.8118 92.9067 32.0857 92.3842L24.236 86.7221C23.7585 86.4348 23.438 85.9188 23.438 85.3245C23.438 84.7302 23.7585 84.2078 24.236 83.927L32.0857 78.2649C32.8118 77.7424 33.8323 77.9057 34.3556 78.6371C34.8789 79.362 34.7154 80.3809 33.9827 80.9033L30.1037 83.6985H57.0345C57.9372 83.6985 58.6699 84.43 58.6699 85.3312C58.6699 86.2324 57.9372 86.9639 57.0345 86.9639L30.1037 86.9506ZM57.8785 72.0997C58.3561 71.8189 58.6766 71.2965 58.6766 70.7022C58.6766 70.1079 58.356 69.5854 57.8785 69.3046L50.0289 63.6425C49.3028 63.12 48.2823 63.2833 47.759 64.0147C47.2356 64.7396 47.3992 65.7585 48.1318 66.281L52.0109 69.0761H25.08C24.1773 69.0761 23.4447 69.8076 23.4447 70.7088C23.4447 71.61 24.1773 72.3415 25.08 72.3415H52.0109L48.1318 75.1367C47.4057 75.6591 47.2356 76.6779 47.759 77.4029C48.2823 78.1278 49.3027 78.2976 50.0289 77.7751L57.8785 72.0997ZM79.655 71.4728C77.9804 69.8009 75.6647 68.7691 73.107 68.7691C70.5492 68.7691 68.2336 69.8009 66.559 71.4728C64.8844 73.1447 63.8443 75.4565 63.8443 78.0101C63.8443 80.5635 64.8778 82.8756 66.559 84.5474C68.2336 86.2193 70.5492 87.2512 73.107 87.2512C75.6647 87.2512 77.9804 86.2193 79.655 84.5474C81.3296 82.8755 82.3631 80.5637 82.3631 78.0101C82.3697 75.4567 81.3296 73.1447 79.655 71.4728ZM109.811 76.3774V47.2836C109.811 46.3824 110.544 45.6509 111.446 45.6509H142.224V31.9102C142.224 31.009 142.956 30.2776 143.859 30.2776C144.762 30.2776 145.494 31.009 145.494 31.9102V69.3048L150.191 62.8198C150.715 62.0949 151.735 61.9251 152.461 62.4475C153.187 62.97 153.357 63.9888 152.834 64.7138L145.266 75.1694C144.984 75.6462 144.461 75.9661 143.866 75.9661C143.271 75.9661 142.747 75.6461 142.466 75.1694L134.898 64.7138C134.374 63.9888 134.538 62.97 135.27 62.4475C135.997 61.9251 137.017 62.0884 137.54 62.8198L142.237 69.3048L142.211 48.9164H113.076V78.0102C113.076 78.9114 112.344 79.6428 111.441 79.6428H94.2111L100.707 84.3319C101.433 84.8544 101.603 85.8732 101.08 86.5981C100.556 87.3231 99.5358 87.4928 98.8097 86.9704L88.3369 79.4144C87.8594 79.127 87.5389 78.6111 87.5389 78.0168C87.5389 77.4225 87.8594 76.9001 88.3369 76.6192L98.8097 69.0633C99.5357 68.5408 100.556 68.7041 101.08 69.4355C101.603 70.1604 101.439 71.1793 100.707 71.7017L94.2111 76.3908L109.811 76.3774ZM150.393 83.2216C148.719 81.5498 146.403 80.5114 143.845 80.5114C141.288 80.5114 138.972 81.5432 137.297 83.2216C135.623 84.8935 134.589 87.2054 134.589 89.7589C134.589 92.3126 135.623 94.6244 137.297 96.2963C138.972 97.9681 141.287 99 143.845 99C146.403 99 148.719 97.9682 150.393 96.2963C152.068 94.6244 153.101 92.3126 153.101 89.7589C153.108 87.212 152.068 84.8935 150.393 83.2216ZM153.147 3.84662C150.766 1.4694 147.482 0 143.845 0C140.215 0 136.924 1.46941 134.543 3.84662C132.162 6.22382 130.69 9.50872 130.69 13.1333C130.69 16.7579 132.162 20.0428 134.543 22.42C136.924 24.7972 140.215 26.2666 143.845 26.2666C147.476 26.2666 150.766 24.7972 153.147 22.42C155.528 20.0428 157 16.7579 157 13.1333C157 9.50872 155.528 6.22384 153.147 3.84662ZM126.243 14.5308L115.77 22.0868C115.044 22.6093 114.024 22.446 113.5 21.7146C112.977 20.9896 113.141 19.9708 113.873 19.4483L120.369 14.7593H82.9199C82.0172 14.7593 81.2845 14.0278 81.2845 13.1266C81.2845 12.2254 82.0172 11.4939 82.9199 11.4939H120.369L113.873 6.80485C113.147 6.28239 112.977 5.26359 113.5 4.53864C114.024 3.81374 115.044 3.64392 115.77 4.16638L126.243 11.7224C126.721 12.0032 127.041 12.5256 127.041 13.1199C127.035 13.7273 126.721 14.25 126.243 14.5308Z" fill="url(#paint0_linear_8126_3388)"/>
<defs>
<linearGradient id="paint0_linear_8126_3388" x1="0" y1="49.5" x2="157" y2="49.5" gradientUnits="userSpaceOnUse">
<stop stop-color="#D75372"/>
<stop offset="1" stop-color="#2D1370"/>
</linearGradient>
</defs>
</svg>
