<svg width="112" height="125" viewBox="0 0 112 125" fill="none" xmlns="http://www.w3.org/2000/svg">
<path opacity="0.14" fill-rule="evenodd" clip-rule="evenodd" d="M93.6039 70.5227C93.6044 70.523 93.6051 70.5232 93.6057 70.5232C95.1102 70.5229 96.4643 69.9132 97.4501 68.9233C97.6116 68.7611 97.7633 68.5886 97.9039 68.4066C98.7332 67.3341 99.8519 66.3331 101.208 66.3331C103.336 66.3331 104.729 68.5326 103.653 70.3687C101.636 73.8091 99.0795 77.2151 95.9607 80.602C95.5663 81.0293 95.2446 81.4827 94.9955 81.9621C94.9799 81.9882 94.9695 82.009 94.9539 82.0351C94.6997 82.551 94.5232 83.1035 94.4142 83.708C94.025 85.9072 93.6202 87.997 93.2258 90.014C90.9943 101.433 91.5565 108.056 94.435 120.303C94.8654 122.852 77.5841 120.762 69.8362 121.372C67.7686 121.532 66.0034 119.896 66.006 117.822L66.0079 116.362C66.0101 114.604 67.3458 113.159 68.5908 111.918C69.5768 110.928 70.1839 109.562 70.1839 108.056C70.1839 106.55 69.5768 105.185 68.5908 104.195C67.6048 103.204 66.2452 102.595 64.7454 102.595C63.2456 102.595 61.886 103.204 60.9 104.195C59.914 105.185 59.3069 106.55 59.3069 108.056C59.3069 109.562 59.914 110.933 60.9 111.918C62.1434 113.157 63.4792 114.607 63.4792 116.363V117.266C63.4792 119.852 61.4798 122.004 58.8983 122.147C56.5714 122.275 54.197 122.374 51.7458 122.424L51.7354 87.9659C51.7354 87.9034 51.7302 87.8411 51.72 87.7795L51.7167 87.7597C51.705 87.6888 51.6877 87.6189 51.665 87.5507L51.6368 87.4656C51.623 87.4309 51.6064 87.3973 51.5873 87.3653L51.4915 87.205L51.4292 87.1268L51.3047 87.0017L51.2268 86.9392L51.0432 86.8285C51.0272 86.8189 51.0106 86.8106 50.9933 86.8037L50.8773 86.7649C50.8094 86.7421 50.7399 86.7248 50.6693 86.713C50.5948 86.7005 50.5194 86.6942 50.4439 86.6942H41.151C39.3906 86.6942 37.9442 85.3561 36.7067 84.1041C35.7207 83.1139 34.3611 82.5042 32.8613 82.5042C31.3615 82.5042 29.9968 83.1139 29.0159 84.1041C28.0299 85.0943 27.4228 86.4597 27.4228 87.9658C27.4228 89.472 28.0299 90.8373 29.0159 91.8275C30.0019 92.8177 31.3615 93.4275 32.8613 93.4275C34.3611 93.4275 35.7207 92.8177 36.7067 91.8275C37.9477 90.5813 39.3935 89.2374 41.1523 89.2374H43.0353C46.4359 89.2374 49.1926 91.9941 49.1926 95.3947V120.463C49.1926 121.564 48.3265 122.459 47.2261 122.453C46.0552 122.445 45.1286 121.426 45.1322 120.255C45.1397 117.765 44.8312 114.651 44.1121 111.841C43.3544 108.896 42.1297 106.238 40.3185 104.821C40.0798 104.633 39.8151 104.487 39.5245 104.372C39.2391 104.263 38.9485 104.206 38.6371 104.19C32.9546 103.867 28.4604 104.237 24.9574 104.529C22.6273 104.722 20.7538 104.878 19.3527 104.753C16.5607 104.513 15.7096 102.705 16.2805 96.0339C16.3116 95.6482 16.3479 95.3981 16.3739 95.2052C16.5711 93.8189 16.5711 93.7929 15.2893 92.2607C12.3676 88.7638 15.5228 87.956 16.6385 87.6694C17.7906 87.3723 18.5172 87.1899 18.0449 85.8297C17.7491 84.975 16.872 84.8864 14.5108 84.6519C13.8673 84.5894 13.063 84.506 11.8848 84.3861C11.7914 84.3757 11.7084 84.3392 11.6513 84.2767C11.5942 84.2193 11.5579 84.1412 11.5475 84.0474C11.4074 82.7393 11.3347 81.624 11.3088 80.7172C11.2776 79.6436 11.3036 78.8567 11.3659 78.3772C11.4178 77.9446 11.3711 77.5329 11.2309 77.1421C11.096 76.7616 10.8729 76.4124 10.5823 76.105C10.2968 75.8027 9.9699 75.5734 9.60145 75.4222C9.24338 75.2711 8.84895 75.1981 8.43379 75.2034C4.12649 75.2815 2.55407 74.0933 2.52298 72.2693C2.47681 69.8351 5.09397 68.4232 7.52859 68.4232H12.0437C13.804 68.4232 15.2504 69.7613 16.4879 71.0133C17.4739 72.0035 18.8335 72.6132 20.3333 72.6132C21.8382 72.6132 23.1927 72.0035 24.1787 71.0133C25.1647 70.0231 25.7719 68.6577 25.7719 67.1516C25.7719 65.6403 25.1647 64.2749 24.1787 63.2899C23.1927 62.2997 21.8331 61.6899 20.3333 61.6899C18.8335 61.6899 17.4688 62.2997 16.4879 63.2899C15.2469 64.5361 13.8011 65.88 12.0423 65.88H4.83753C6.31139 63.3107 8.25738 60.5642 10.0062 58.1044C10.6497 57.1976 11.2673 56.3325 11.8485 55.4883C13.6284 52.9033 13.4572 52.0747 13.0317 50.0213C12.9279 49.5157 12.8034 48.9112 12.7048 48.166C11.5786 39.692 12.985 32.2655 16.1817 26.007H31.3241V34.1018C31.3241 35.8592 29.9896 37.3052 28.745 38.5459C27.759 39.5361 27.1518 40.9015 27.1518 42.4076C27.1518 43.919 27.759 45.2843 28.745 46.2694C29.731 47.2596 31.0906 47.8693 32.5904 47.8693C34.0901 47.8693 35.4497 47.2595 36.4357 46.2694C37.4217 45.2792 38.0289 43.9138 38.0289 42.4076C38.0289 40.9015 37.4217 39.5361 36.4357 38.5459C35.1968 37.3018 33.8566 35.8563 33.8566 34.1005V24.7302C33.8566 24.0266 33.2857 23.4533 32.5851 23.4533H17.6287C19.58 20.3107 22.0035 17.4966 24.7902 15.0367C27.0165 13.0667 29.4763 11.3208 32.1126 9.80425L49.3992 18.4293V50.9518C49.3992 52.6407 48.8889 54.2901 47.9351 55.6839L45.3193 59.5065C44.6569 60.4745 43.4053 60.7936 42.2324 60.7936C40.7326 60.7936 39.373 61.4033 38.387 62.3935C37.401 63.3837 36.7939 64.7491 36.7939 66.2552C36.7939 67.7665 37.401 69.1267 38.387 70.1169C39.373 71.1071 40.7326 71.7169 42.2324 71.7169C43.7373 71.7169 45.0969 71.1071 46.0778 70.1169C47.0638 69.1267 47.6709 67.7613 47.6709 66.2552C47.6709 63.9037 47.2047 61.2304 48.5327 59.2898L51.6513 54.7325C51.8277 54.5136 51.9367 54.2322 51.9367 53.9299L51.9419 17.6368C51.9419 17.1052 51.615 16.6466 51.1531 16.4538L34.8682 8.32904C38.205 6.67695 41.7702 5.36361 45.4704 4.41516C49.897 3.27904 54.5053 2.64846 59.1341 2.56508V70.5923C59.1341 72.3497 57.7996 73.7957 56.555 75.0364C55.569 76.0266 54.9618 77.392 54.9618 78.8981C54.9618 80.4094 55.569 81.7696 56.555 82.7598C57.541 83.75 58.9006 84.3598 60.4003 84.3598C61.9001 84.3598 63.2597 83.75 64.2457 82.7598C65.2317 81.7696 65.8389 80.4042 65.8389 78.8981C65.8389 77.392 65.2317 76.0214 64.2457 75.0364C63.0069 73.7923 61.6667 72.3467 61.667 70.591L61.6764 6.48711C61.6767 4.33621 63.452 2.59427 65.5941 2.78834C67.4836 2.95953 68.8696 4.58433 68.8696 6.4816V53.9301C68.8696 54.2376 68.9786 54.519 69.1602 54.7431L73.621 61.3541C76.1592 65.1158 77.5154 69.5503 77.5154 74.0883V89.0097C77.5154 90.7671 76.1809 92.2131 74.9362 93.4538C73.9502 94.444 73.3431 95.8094 73.3431 97.3155C73.3431 98.8217 73.9502 100.192 74.9362 101.177C75.9222 102.167 77.2818 102.777 78.7816 102.777C80.2865 102.777 81.641 102.167 82.627 101.177C83.613 100.187 84.2201 98.8217 84.2201 97.3155C84.2201 95.8042 83.613 94.444 82.627 93.4538C81.3881 92.2097 80.0481 90.7641 80.0484 89.0084L80.053 66.7467C80.053 66.7453 80.0518 66.7441 80.0504 66.7441C80.049 66.7441 80.0478 66.7429 80.0478 66.7415C80.0473 66.4974 79.9746 66.2482 79.8299 66.0301C74.3404 57.895 71.4079 48.3048 71.4089 38.4908L71.4125 3.62155C79.6327 5.23708 87.4118 8.71323 93.7329 14.2062L79.2229 24.202C78.8492 24.4261 78.6001 24.8326 78.6001 25.3016V45.8459C78.6001 45.9216 78.6064 45.9973 78.6188 46.0721C78.6305 46.143 78.6478 46.2129 78.6705 46.2811L78.6987 46.3662C78.7056 46.3836 78.7139 46.4003 78.7235 46.4164L78.8648 46.6529L78.9063 46.705L78.9478 46.7467L78.9738 46.7675L79.036 46.83L79.0698 46.8572C79.0819 46.8669 79.0949 46.8752 79.1087 46.8822L79.2684 46.9784C79.3003 46.9976 79.3336 47.0142 79.3682 47.0281L79.453 47.0565C79.5209 47.0792 79.5905 47.0966 79.661 47.1084C79.7355 47.1208 79.8109 47.1271 79.8864 47.1271H89.1794C90.9397 47.1271 92.3861 48.4652 93.6236 49.7172C94.6096 50.7074 95.9693 51.3172 97.469 51.3172C98.974 51.3172 100.328 50.7074 101.314 49.7172C102.3 48.727 102.908 47.3617 102.908 45.8555C102.908 44.3494 102.3 42.984 101.314 41.9938C100.328 41.0036 98.9688 40.3939 97.469 40.3939C95.9693 40.3939 94.6097 41.0036 93.6236 41.9938C92.3874 43.2445 90.9369 44.5839 89.1784 44.5839H87.295C83.8944 44.5839 81.1377 41.8272 81.1377 38.4267V32.3809C81.1377 28.3662 83.1124 24.6083 86.4187 22.331L95.6424 15.9779C99.2491 19.527 102.29 23.8056 104.542 28.8503C108.73 38.2311 110.329 47.1163 109.011 55.6642C108.773 57.2114 108.437 58.7486 108.005 60.2776C107.398 62.4231 105.364 63.789 103.134 63.789H101.893C100.132 63.789 98.6859 62.4509 97.4484 61.1989C96.4624 60.2087 95.1028 59.5989 93.603 59.5989C92.1033 59.5989 90.7385 60.2087 89.7577 61.1989C88.7716 62.1891 88.1645 63.5545 88.1645 65.0606C88.1645 66.5719 88.7717 67.9321 89.7577 68.9223C90.7435 69.9123 92.1027 70.522 93.6021 70.5222C93.6027 70.5222 93.6033 70.5224 93.6039 70.5227ZM64.772 124.316C64.8135 124.316 64.8602 124.311 64.9017 124.306C66.6247 124.181 68.332 124.045 70.0342 123.91C77.8911 123.295 85.7478 122.675 94.8654 122.852C95.2754 122.862 95.6594 122.763 96.0019 122.576C96.3444 122.383 96.635 122.107 96.8478 121.747C97.0606 121.398 97.1644 121.007 97.1696 120.611C97.1748 120.215 97.0762 119.824 96.879 119.47C91.8347 110.428 93.5629 101.579 95.7217 90.5091C96.1213 88.4609 96.5365 86.3451 96.9205 84.1563C96.9827 83.7967 97.0865 83.4736 97.2318 83.1817L97.2578 83.1244C97.4031 82.843 97.5847 82.5876 97.8183 82.3374C102.857 76.8705 106.495 71.3254 108.825 65.6551C108.862 65.5874 108.893 65.5144 108.913 65.4415C110.164 62.351 111.031 59.2294 111.519 56.0607C112.915 47.003 111.249 37.648 106.858 27.8246C99.811 12.0335 85.5716 3.34549 70.1277 0.802584C66.9569 0.281435 63.7394 0.0208476 60.5167 0.00521124C60.4803 1.53668e-08 60.444 0 60.4077 0C60.3384 0 60.2691 0.00518258 60.1999 0.00529782C55.0036 0.0139461 49.8139 0.670405 44.8493 1.94908C40.132 3.16338 35.612 4.93532 31.4858 7.23875L31.4754 7.24396L31.4598 7.25438C28.45 8.93249 25.6528 10.8921 23.1255 13.1173C13.7377 21.4089 8.20632 33.3952 10.2088 48.4885C10.323 49.3328 10.4527 49.979 10.5669 50.521C10.8367 51.8239 10.9457 52.345 9.77806 54.0336C9.23836 54.8205 8.61042 55.7013 7.95654 56.6237C5.7718 59.6985 3.29638 63.1851 1.69286 66.4371C1.6254 66.5361 1.57351 66.6403 1.53718 66.755C0.577118 68.7614 -0.0300751 70.6689 0.00114441 72.3106C0.0634232 75.6616 2.32604 77.8609 8.48596 77.7462C8.54305 77.7462 8.59494 77.7566 8.64165 77.7722C8.67798 77.7879 8.7195 77.8191 8.76101 77.8608C8.80772 77.9077 8.83885 77.9546 8.85442 78.0015C8.85961 78.0224 8.86481 78.0432 8.85961 78.0693C8.79215 78.6269 8.75582 79.5494 8.79214 80.7898C8.82328 81.7748 8.90113 82.963 9.04124 84.3128C9.1139 85.0059 9.42009 85.6209 9.88194 86.0847C10.3438 86.5433 10.951 86.8508 11.6412 86.9237C11.8253 86.942 11.906 87.1732 11.7882 87.3159C10.729 88.5996 10.6233 90.6263 13.3537 93.8968C13.909 94.5639 13.909 94.5691 13.8675 94.8557C13.8311 95.1163 13.7844 95.4394 13.7533 95.825C13.0112 104.507 14.4902 106.889 19.1452 107.296C20.7487 107.436 22.7208 107.27 25.165 107.072C28.6055 106.785 33.0167 106.42 38.4966 106.733C38.5537 106.738 38.6056 106.743 38.6419 106.759C38.673 106.769 38.7094 106.795 38.7613 106.837C40.0846 107.869 41.0342 110.027 41.6622 112.471C42.5392 115.89 42.7572 119.783 42.5081 122.185C42.4718 122.539 42.5081 122.889 42.6119 123.217C42.7157 123.545 42.8869 123.848 43.1256 124.119C43.3644 124.39 43.6446 124.598 43.9508 124.744C44.257 124.885 44.5995 124.963 44.9627 124.968C46.8205 125.005 48.6213 125.01 50.3754 124.984C50.4013 124.984 50.4324 124.989 50.4636 124.989C50.5051 124.989 50.5414 124.989 50.5829 124.984C55.5908 124.921 60.2307 124.645 64.772 124.316ZM62.691 110.11C63.2151 110.637 63.9417 110.965 64.7409 110.965C65.5401 110.965 66.2666 110.642 66.7908 110.11C67.3149 109.584 67.6419 108.854 67.6419 108.052C67.6419 107.249 67.3149 106.52 66.7908 105.993C66.2667 105.467 65.5401 105.138 64.7409 105.138C63.9417 105.138 63.2152 105.462 62.691 105.993C62.1669 106.519 61.8399 107.249 61.8399 108.052C61.8399 108.86 62.1669 109.584 62.691 110.11ZM42.2346 69.1677C43.0337 69.1677 43.7602 68.8394 44.2845 68.313C44.8086 67.7866 45.1355 67.057 45.1355 66.2544C45.1355 65.4518 44.8086 64.7223 44.2845 64.1958C43.7603 63.6694 43.0338 63.3411 42.2346 63.3411C41.4354 63.3411 40.7089 63.6694 40.1847 64.1958C39.6604 64.7222 39.3336 65.4518 39.3336 66.2544C39.3336 67.057 39.6553 67.7866 40.1847 68.313C40.7088 68.8394 41.4353 69.1677 42.2346 69.1677ZM78.7846 100.228C79.5838 100.228 80.3103 99.9051 80.8345 99.3735C81.3587 98.8472 81.6856 98.1176 81.6856 97.3149C81.6856 96.5123 81.3587 95.7828 80.8345 95.2563C80.3104 94.73 79.5838 94.4016 78.7846 94.4016C77.9854 94.4016 77.259 94.7248 76.7347 95.2563C76.2106 95.7827 75.8837 96.5123 75.8837 97.3149C75.8837 98.1176 76.2106 98.8471 76.7347 99.3735C77.2589 99.9051 77.9854 100.228 78.7846 100.228ZM60.4086 75.9839C59.6094 75.9839 58.883 76.307 58.3587 76.8386C57.8346 77.365 57.5076 78.0946 57.5076 78.8972C57.5076 79.6998 57.8346 80.4293 58.3587 80.9558C58.8829 81.4822 59.6094 81.8105 60.4086 81.8105C61.2078 81.8105 61.9343 81.4874 62.4585 80.9558C62.9827 80.4294 63.3096 79.6998 63.3096 78.8972C63.3096 78.0946 62.9827 77.3651 62.4585 76.8386C61.9344 76.3122 61.2078 75.9839 60.4086 75.9839ZM97.4768 48.7738C98.276 48.7738 99.0025 48.4454 99.5267 47.9191C100.051 47.3927 100.378 46.6631 100.378 45.8605C100.378 45.0579 100.051 44.3283 99.5267 43.8018C99.0026 43.2754 98.276 42.9472 97.4768 42.9472C96.6776 42.9472 95.9511 43.2703 95.4269 43.8018C94.9028 44.3282 94.5758 45.0578 94.5758 45.8605C94.5758 46.663 94.8976 47.3926 95.4269 47.9191C95.951 48.4506 96.6776 48.7738 97.4768 48.7738ZM34.6481 40.3472C34.1239 39.8209 33.3974 39.4925 32.5982 39.4925C31.799 39.4925 31.0725 39.8157 30.5483 40.3472C30.0242 40.8736 29.6972 41.6032 29.6972 42.4058C29.6972 43.2084 30.0242 43.938 30.5483 44.4644C31.0724 44.9908 31.799 45.3191 32.5982 45.3191C33.3974 45.3191 34.1239 44.9908 34.6481 44.4644C35.1723 43.9381 35.4992 43.2084 35.4992 42.4058C35.494 41.598 35.1722 40.8737 34.6481 40.3472ZM32.8628 85.0522C32.0636 85.0522 31.3372 85.3753 30.8129 85.9069C30.2888 86.4332 29.9619 87.1629 29.9619 87.9655C29.9619 88.7681 30.2836 89.4976 30.8129 90.0241C31.3371 90.5504 32.0636 90.8788 32.8628 90.8788C33.662 90.8788 34.3885 90.5556 34.9127 90.0241C35.4369 89.4977 35.7638 88.7681 35.7638 87.9655C35.7638 87.1629 35.4369 86.4333 34.9127 85.9069C34.3886 85.3804 33.6672 85.0522 32.8628 85.0522ZM20.3509 70.0696C21.1501 70.0696 21.8765 69.7465 22.4008 69.2149C22.9249 68.6885 23.2519 67.9589 23.2519 67.1563C23.2519 66.3537 22.9301 65.6241 22.4008 65.0977C21.8766 64.5713 21.1501 64.243 20.3509 64.243C19.5517 64.243 18.8252 64.5661 18.301 65.0977C17.7768 65.6241 17.4499 66.3537 17.4499 67.1563C17.4499 67.9589 17.7717 68.6884 18.301 69.2149C18.8199 69.7413 19.5465 70.0696 20.3509 70.0696ZM95.6563 67.1199C96.1805 66.5935 96.5074 65.8639 96.5074 65.0613C96.5074 64.2587 96.1805 63.5291 95.6563 63.0027C95.1322 62.4763 94.4057 62.148 93.6064 62.148C92.8073 62.148 92.0808 62.4711 91.5565 63.0027C91.0324 63.529 90.7055 64.2587 90.7055 65.0613C90.7055 65.8639 91.0272 66.5934 91.5565 67.1199C92.0807 67.6463 92.8072 67.9746 93.6064 67.9746C94.4108 67.9746 95.1321 67.6463 95.6563 67.1199Z" fill="url(#paint0_linear_8126_3382)"/>
<defs>
<linearGradient id="paint0_linear_8126_3382" x1="112" y1="62.5" x2="0" y2="62.5" gradientUnits="userSpaceOnUse">
<stop stop-color="#D75372"/>
<stop offset="1" stop-color="#2D1370"/>
</linearGradient>
</defs>
</svg>
